<?xml version="1.0" encoding="UTF-8" standalone="no"?>
<svg
   xmlns:dc="http://purl.org/dc/elements/1.1/"
   xmlns:cc="http://creativecommons.org/ns#"
   xmlns:rdf="http://www.w3.org/1999/02/22-rdf-syntax-ns#"
   xmlns:svg="http://www.w3.org/2000/svg"
   xmlns="http://www.w3.org/2000/svg"
   xmlns:sodipodi="http://sodipodi.sourceforge.net/DTD/sodipodi-0.dtd"
   xmlns:inkscape="http://www.inkscape.org/namespaces/inkscape"
   width="445.26266mm"
   height="292.93829mm"
   viewBox="0 0 445.26266 292.9383"
   version="1.1"
   id="svg2993"
   inkscape:version="1.0 (4035a4fb49, 2020-05-01)"
   sodipodi:docname="circles-3.svg">
  <defs
     id="defs2987" />
  <sodipodi:namedview
     id="base"
     pagecolor="#ffffff"
     bordercolor="#666666"
     borderopacity="1.0"
     inkscape:pageopacity="0.0"
     inkscape:pageshadow="2"
     inkscape:zoom="0.61209903"
     inkscape:cx="841.44124"
     inkscape:cy="553.58417"
     inkscape:document-units="mm"
     inkscape:current-layer="layer1"
     inkscape:document-rotation="0"
     showgrid="false"
     fit-margin-top="48"
     fit-margin-right="48"
     fit-margin-left="48"
     fit-margin-bottom="48"
     inkscape:window-width="1392"
     inkscape:window-height="1041"
     inkscape:window-x="130"
     inkscape:window-y="0"
     inkscape:window-maximized="0" />
  <metadata
     id="metadata2990">
    <rdf:RDF>
      <cc:Work
         rdf:about="">
        <dc:format>image/svg+xml</dc:format>
        <dc:type
           rdf:resource="http://purl.org/dc/dcmitype/StillImage" />
        <dc:title></dc:title>
      </cc:Work>
    </rdf:RDF>
  </metadata>
  <g
     inkscape:label="Layer 1"
     inkscape:groupmode="layer"
     id="layer1"
     transform="translate(-96.682823,53.294942)">
    <g
       id="g1701"
       transform="matrix(8,0,0,8,123.14452,-579.05645)">
      <ellipse
         transform="rotate(90)"
         ry="3.3116133"
         rx="7.2567401"
         cy="-40.348965"
         cx="84.028831"
         id="path1505"
         style="fill:none;stroke:#000000;stroke-width:0.2;stroke-miterlimit:4;stroke-dasharray:none;stroke-opacity:1" />
      <ellipse
         transform="rotate(90)"
         style="fill:none;stroke:#000000;stroke-width:0.2;stroke-miterlimit:4;stroke-dasharray:none;stroke-opacity:1"
         id="path1505-0"
         cx="84.028831"
         cy="-32.411465"
         rx="7.2567401"
         ry="3.3116133" />
      <ellipse
         transform="rotate(90)"
         style="fill:none;stroke:#000000;stroke-width:0.2;stroke-miterlimit:4;stroke-dasharray:none;stroke-opacity:1"
         id="path1505-05"
         cx="84.028831"
         cy="-24.473963"
         rx="7.2567401"
         ry="3.3116133" />
      <ellipse
         transform="rotate(90)"
         style="fill:none;stroke:#000000;stroke-width:0.2;stroke-miterlimit:4;stroke-dasharray:none;stroke-opacity:1"
         id="path1505-9"
         cx="84.028831"
         cy="-16.536463"
         rx="7.2567401"
         ry="3.3116133" />
      <ellipse
         transform="rotate(90)"
         style="fill:none;stroke:#000000;stroke-width:0.2;stroke-miterlimit:4;stroke-dasharray:none;stroke-opacity:1"
         id="path1505-8"
         cx="84.028831"
         cy="-8.5989561"
         rx="7.2567401"
         ry="3.3116133" />
      <ellipse
         transform="rotate(90)"
         ry="21.728916"
         rx="12.208643"
         cy="-24.521204"
         cx="84.028831"
         id="path1505-05-1"
         style="fill:none;stroke:#ff0000;stroke-width:0.2;stroke-miterlimit:4;stroke-dasharray:none;stroke-opacity:1" />
      <path
         d="m 7.9849469,79.382688 c 0.16457,0 0.25643,0.0043 0.41144,0 0.12343,-0.04203 -0.0411,-0.252156 0.0411,-0.336207 0.12343,-0.126078 0.28801,-0.126078 0.3703,0 0.0823,0.08405 -0.12343,0.252154 0,0.336207 0.0823,0 0.37099,-0.0024 0.45259,0 v 0.378232 c 0,0.126076 0.0411,0.126076 0.12343,0.04202 0.0823,-0.08405 0.28801,0.168104 0.20573,0.294182 -0.0415,0.0847 -0.16458,0.168103 -0.25342,0.108792 -0.11689,-0.02473 -0.0744,0.150721 -0.0757,0.227419 0.005,0.09512 0,0.126075 0,0.252153 h -0.45259 c -0.12343,-0.08405 0.0823,-0.252153 0,-0.336206 -0.0823,-0.126078 -0.24687,-0.126078 -0.3703,0 -0.0823,0.08406 0.0823,0.29418 -0.0411,0.336206 -0.13075,-0.0014 -0.28055,0.0062 -0.41144,0 v -0.252153 c 0,-0.08406 -0.0411,-0.294182 0.0823,-0.252157 0.0823,0.04202 0.20573,0 0.24687,-0.08405 0.0823,-0.126078 -0.12343,-0.378233 -0.20572,-0.294183 -0.0823,0.08406 -0.12343,0.08406 -0.12343,-0.04202 0,-0.126078 0.006,-0.259954 0,-0.378232 z"
         style="fill:none;stroke:#000000;stroke-width:0.15;stroke-linecap:square;stroke-linejoin:round;stroke-miterlimit:4;stroke-dasharray:none;stroke-opacity:1"
         id="path1405-9-82-7"
         sodipodi:nodetypes="ccccccccccccccccccccccc" />
      <path
         d="m 7.9849469,82.028522 c 0.16457,0 0.25643,0.0043 0.41144,0 0.12343,-0.04203 -0.0411,-0.252156 0.0411,-0.336207 0.12343,-0.126078 0.28801,-0.126078 0.3703,0 0.0823,0.08405 -0.12343,0.252154 0,0.336207 0.0823,0 0.37099,-0.0024 0.45259,0 v 0.378232 c 0,0.126076 0.0411,0.126076 0.12343,0.04202 0.0823,-0.08405 0.28801,0.168104 0.20573,0.294182 -0.0415,0.0847 -0.16458,0.168103 -0.25342,0.108792 -0.11689,-0.02473 -0.0744,0.150721 -0.0757,0.227419 0.005,0.09512 0,0.126075 0,0.252153 h -0.45259 c -0.12343,-0.08405 0.0823,-0.252153 0,-0.336206 -0.0823,-0.126078 -0.24687,-0.126078 -0.3703,0 -0.0823,0.08406 0.0823,0.29418 -0.0411,0.336206 -0.13075,-0.0014 -0.28055,0.0062 -0.41144,0 v -0.252153 c 0,-0.08406 -0.0411,-0.294182 0.0823,-0.252157 0.0823,0.04202 0.20573,0 0.24687,-0.08405 0.0823,-0.126078 -0.12343,-0.378233 -0.20572,-0.294183 -0.0823,0.08406 -0.12343,0.08406 -0.12343,-0.04202 0,-0.126078 0.006,-0.259954 0,-0.378232 z"
         style="fill:none;stroke:#000000;stroke-width:0.15;stroke-linecap:square;stroke-linejoin:round;stroke-miterlimit:4;stroke-dasharray:none;stroke-opacity:1"
         id="path1405-9-82-1"
         sodipodi:nodetypes="ccccccccccccccccccccccc" />
      <path
         d="m 7.9849469,84.674355 c 0.16457,0 0.25643,0.0043 0.41144,0 0.12343,-0.04203 -0.0411,-0.252156 0.0411,-0.336207 0.12343,-0.126078 0.28801,-0.126078 0.3703,0 0.0823,0.08405 -0.12343,0.252154 0,0.336207 0.0823,0 0.37099,-0.0024 0.45259,0 v 0.378232 c 0,0.126076 0.0411,0.126076 0.12343,0.04202 0.0823,-0.08405 0.28801,0.168104 0.20573,0.294182 -0.0415,0.0847 -0.16458,0.168103 -0.25342,0.108792 -0.11689,-0.02473 -0.0744,0.150721 -0.0757,0.227419 0.005,0.09512 0,0.126075 0,0.252153 h -0.45259 c -0.12343,-0.08405 0.0823,-0.252153 0,-0.336206 -0.0823,-0.126078 -0.24687,-0.126078 -0.3703,0 -0.0823,0.08406 0.0823,0.29418 -0.0411,0.336206 -0.13075,-0.0014 -0.28055,0.0062 -0.41144,0 V 85.725 c 0,-0.08406 -0.0411,-0.294182 0.0823,-0.252157 0.0823,0.04202 0.20573,0 0.24687,-0.08405 0.0823,-0.126078 -0.12343,-0.378233 -0.20572,-0.294183 -0.0823,0.08406 -0.12343,0.08406 -0.12343,-0.04202 0,-0.126078 0.006,-0.259954 0,-0.378232 z"
         style="fill:none;stroke:#000000;stroke-width:0.15;stroke-linecap:square;stroke-linejoin:round;stroke-miterlimit:4;stroke-dasharray:none;stroke-opacity:1"
         id="path1405-9-82-15"
         sodipodi:nodetypes="ccccccccccccccccccccccc" />
      <path
         d="m 7.9849469,87.320188 c 0.16457,0 0.25643,0.0043 0.41144,0 0.12343,-0.04203 -0.0411,-0.252156 0.0411,-0.336207 0.12343,-0.126078 0.28801,-0.126078 0.3703,0 0.0823,0.08405 -0.12343,0.252154 0,0.336207 0.0823,0 0.37099,-0.0024 0.45259,0 v 0.378232 c 0,0.126076 0.0411,0.126076 0.12343,0.04202 0.0823,-0.08405 0.28801,0.168104 0.20573,0.294182 -0.0415,0.0847 -0.16458,0.168103 -0.25342,0.108792 -0.11689,-0.02473 -0.0744,0.150721 -0.0757,0.227419 0.005,0.09512 0,0.126075 0,0.252153 h -0.45259 c -0.12343,-0.08405 0.0823,-0.252153 0,-0.336206 -0.0823,-0.126078 -0.24687,-0.126078 -0.3703,0 -0.0823,0.08406 0.0823,0.29418 -0.0411,0.336206 -0.13075,-0.0014 -0.28055,0.0062 -0.41144,0 v -0.252153 c 0,-0.08406 -0.0411,-0.294182 0.0823,-0.252157 0.0823,0.04202 0.20573,0 0.24687,-0.08405 0.0823,-0.126078 -0.12343,-0.378233 -0.20572,-0.294183 -0.0823,0.08406 -0.12343,0.08406 -0.12343,-0.04202 0,-0.126078 0.006,-0.259954 0,-0.378232 z"
         style="fill:none;stroke:#000000;stroke-width:0.15;stroke-linecap:square;stroke-linejoin:round;stroke-miterlimit:4;stroke-dasharray:none;stroke-opacity:1"
         id="path1405-9-82-0"
         sodipodi:nodetypes="ccccccccccccccccccccccc" />
      <path
         sodipodi:nodetypes="ccccccccccccccccccccccc"
         id="path1405-9-82-7-2"
         style="fill:none;stroke:#000000;stroke-width:0.15;stroke-linecap:square;stroke-linejoin:round;stroke-miterlimit:4;stroke-dasharray:none;stroke-opacity:1"
         d="m 15.922447,79.382687 c 0.16457,0 0.25643,0.0043 0.41144,0 0.12343,-0.04203 -0.0411,-0.252156 0.0411,-0.336207 0.12343,-0.126078 0.28801,-0.126078 0.3703,0 0.0823,0.08405 -0.12343,0.252154 0,0.336207 0.0823,0 0.37099,-0.0024 0.45259,0 v 0.378232 c 0,0.126076 0.0411,0.126076 0.12343,0.04202 0.0823,-0.08405 0.28801,0.168104 0.20573,0.294182 -0.0415,0.0847 -0.16458,0.168103 -0.25342,0.108792 -0.11689,-0.02473 -0.0744,0.150721 -0.0757,0.227419 0.005,0.09512 0,0.126075 0,0.252153 h -0.45259 c -0.12343,-0.08405 0.0823,-0.252153 0,-0.336206 -0.0823,-0.126078 -0.24687,-0.126078 -0.3703,0 -0.0823,0.08406 0.0823,0.29418 -0.0411,0.336206 -0.13075,-0.0014 -0.28055,0.0062 -0.41144,0 v -0.252153 c 0,-0.08406 -0.0411,-0.294182 0.0823,-0.252157 0.0823,0.04202 0.20573,0 0.24687,-0.08405 0.0823,-0.126078 -0.12343,-0.378233 -0.20572,-0.294183 -0.0823,0.08406 -0.12343,0.08406 -0.12343,-0.04202 0,-0.126078 0.006,-0.259954 0,-0.378232 z" />
      <path
         sodipodi:nodetypes="ccccccccccccccccccccccc"
         id="path1405-9-82-1-6"
         style="fill:none;stroke:#000000;stroke-width:0.15;stroke-linecap:square;stroke-linejoin:round;stroke-miterlimit:4;stroke-dasharray:none;stroke-opacity:1"
         d="m 15.922447,82.028521 c 0.16457,0 0.25643,0.0043 0.41144,0 0.12343,-0.04203 -0.0411,-0.252156 0.0411,-0.336207 0.12343,-0.126078 0.28801,-0.126078 0.3703,0 0.0823,0.08405 -0.12343,0.252154 0,0.336207 0.0823,0 0.37099,-0.0024 0.45259,0 v 0.378232 c 0,0.126076 0.0411,0.126076 0.12343,0.04202 0.0823,-0.08405 0.28801,0.168104 0.20573,0.294182 -0.0415,0.0847 -0.16458,0.168103 -0.25342,0.108792 -0.11689,-0.02473 -0.0744,0.150721 -0.0757,0.227419 0.005,0.09512 0,0.126075 0,0.252153 h -0.45259 c -0.12343,-0.08405 0.0823,-0.252153 0,-0.336206 -0.0823,-0.126078 -0.24687,-0.126078 -0.3703,0 -0.0823,0.08406 0.0823,0.29418 -0.0411,0.336206 -0.13075,-0.0014 -0.28055,0.0062 -0.41144,0 v -0.252153 c 0,-0.08406 -0.0411,-0.294182 0.0823,-0.252157 0.0823,0.04202 0.20573,0 0.24687,-0.08405 0.0823,-0.126078 -0.12343,-0.378233 -0.20572,-0.294182 -0.0823,0.08406 -0.12343,0.08406 -0.12343,-0.04202 0,-0.126078 0.006,-0.259954 0,-0.378232 z" />
      <path
         sodipodi:nodetypes="ccccccccccccccccccccccc"
         id="path1405-9-82-15-3"
         style="fill:none;stroke:#000000;stroke-width:0.15;stroke-linecap:square;stroke-linejoin:round;stroke-miterlimit:4;stroke-dasharray:none;stroke-opacity:1"
         d="m 15.922447,84.674354 c 0.16457,0 0.25643,0.0043 0.41144,0 0.12343,-0.04203 -0.0411,-0.252156 0.0411,-0.336207 0.12343,-0.126078 0.28801,-0.126078 0.3703,0 0.0823,0.08405 -0.12343,0.252154 0,0.336207 0.0823,0 0.37099,-0.0024 0.45259,0 v 0.378232 c 0,0.126076 0.0411,0.126076 0.12343,0.04202 0.0823,-0.08405 0.28801,0.168104 0.20573,0.294182 -0.0415,0.0847 -0.16458,0.168103 -0.25342,0.108792 -0.11689,-0.02473 -0.0744,0.150721 -0.0757,0.227419 0.005,0.09512 0,0.126075 0,0.252153 h -0.45259 c -0.12343,-0.08405 0.0823,-0.252153 0,-0.336206 -0.0823,-0.126078 -0.24687,-0.126078 -0.3703,0 -0.0823,0.08406 0.0823,0.29418 -0.0411,0.336206 -0.13075,-0.0014 -0.28055,0.0062 -0.41144,0 v -0.252153 c 0,-0.08406 -0.0411,-0.294182 0.0823,-0.252157 0.0823,0.04202 0.20573,0 0.24687,-0.08405 0.0823,-0.126078 -0.12343,-0.378233 -0.20572,-0.294182 -0.0823,0.08406 -0.12343,0.08406 -0.12343,-0.04202 0,-0.126079 0.006,-0.259955 0,-0.378233 z" />
      <path
         sodipodi:nodetypes="ccccccccccccccccccccccc"
         id="path1405-9-82-0-0"
         style="fill:none;stroke:#000000;stroke-width:0.15;stroke-linecap:square;stroke-linejoin:round;stroke-miterlimit:4;stroke-dasharray:none;stroke-opacity:1"
         d="m 15.922447,87.320187 c 0.16457,0 0.25643,0.0043 0.41144,0 0.12343,-0.04203 -0.0411,-0.252156 0.0411,-0.336207 0.12343,-0.126078 0.28801,-0.126078 0.3703,0 0.0823,0.08405 -0.12343,0.252154 0,0.336207 0.0823,0 0.37099,-0.0024 0.45259,0 v 0.378232 c 0,0.126076 0.0411,0.126076 0.12343,0.04202 0.0823,-0.08405 0.28801,0.168104 0.20573,0.294182 -0.0415,0.0847 -0.16458,0.168103 -0.25342,0.108792 -0.11689,-0.02473 -0.0744,0.150721 -0.0757,0.227419 0.005,0.09512 0,0.126075 0,0.252153 h -0.45259 c -0.12343,-0.08405 0.0823,-0.252153 0,-0.336206 -0.0823,-0.126078 -0.24687,-0.126078 -0.3703,0 -0.0823,0.08406 0.0823,0.29418 -0.0411,0.336206 -0.13075,-0.0014 -0.28055,0.0062 -0.41144,0 v -0.252153 c 0,-0.08406 -0.0411,-0.294182 0.0823,-0.252157 0.0823,0.04202 0.20573,0 0.24687,-0.08405 0.0823,-0.126078 -0.12343,-0.378233 -0.20572,-0.294183 -0.0823,0.08406 -0.12343,0.08406 -0.12343,-0.04202 0,-0.126078 0.006,-0.259954 0,-0.378232 z" />
      <path
         sodipodi:nodetypes="ccccccccccccccccccccccc"
         id="path1405-9-82-7-0"
         style="fill:none;stroke:#000000;stroke-width:0.15;stroke-linecap:square;stroke-linejoin:round;stroke-miterlimit:4;stroke-dasharray:none;stroke-opacity:1"
         d="m 23.859947,79.382687 c 0.16457,0 0.25643,0.0043 0.41144,0 0.12343,-0.04203 -0.0411,-0.252156 0.0411,-0.336207 0.12343,-0.126078 0.28801,-0.126078 0.3703,0 0.0823,0.08405 -0.12343,0.252154 0,0.336207 0.0823,0 0.37099,-0.0024 0.45259,0 v 0.378232 c 0,0.126076 0.0411,0.126076 0.12343,0.04202 0.0823,-0.08405 0.28801,0.168104 0.20573,0.294182 -0.0415,0.0847 -0.16458,0.168103 -0.25342,0.108792 -0.11689,-0.02473 -0.0744,0.150721 -0.0757,0.227419 0.005,0.09512 0,0.126075 0,0.252153 h -0.45259 c -0.12343,-0.08405 0.0823,-0.252153 0,-0.336206 -0.0823,-0.126078 -0.24687,-0.126078 -0.3703,0 -0.0823,0.08406 0.0823,0.29418 -0.0411,0.336206 -0.13075,-0.0014 -0.28055,0.0062 -0.41144,0 v -0.252153 c 0,-0.08406 -0.0411,-0.294182 0.0823,-0.252157 0.0823,0.04202 0.20573,0 0.24687,-0.08405 0.0823,-0.126078 -0.12343,-0.378233 -0.20572,-0.294183 -0.0823,0.08406 -0.12343,0.08406 -0.12343,-0.04202 0,-0.126078 0.006,-0.259954 0,-0.378232 z" />
      <path
         sodipodi:nodetypes="ccccccccccccccccccccccc"
         id="path1405-9-82-1-0"
         style="fill:none;stroke:#000000;stroke-width:0.15;stroke-linecap:square;stroke-linejoin:round;stroke-miterlimit:4;stroke-dasharray:none;stroke-opacity:1"
         d="m 23.859947,82.028521 c 0.16457,0 0.25643,0.0043 0.41144,0 0.12343,-0.04203 -0.0411,-0.252156 0.0411,-0.336207 0.12343,-0.126078 0.28801,-0.126078 0.3703,0 0.0823,0.08405 -0.12343,0.252154 0,0.336207 0.0823,0 0.37099,-0.0024 0.45259,0 v 0.378232 c 0,0.126076 0.0411,0.126076 0.12343,0.04202 0.0823,-0.08405 0.28801,0.168104 0.20573,0.294182 -0.0415,0.0847 -0.16458,0.168103 -0.25342,0.108792 -0.11689,-0.02473 -0.0744,0.150721 -0.0757,0.227419 0.005,0.09512 0,0.126075 0,0.252153 h -0.45259 c -0.12343,-0.08405 0.0823,-0.252153 0,-0.336206 -0.0823,-0.126078 -0.24687,-0.126078 -0.3703,0 -0.0823,0.08406 0.0823,0.29418 -0.0411,0.336206 -0.13075,-0.0014 -0.28055,0.0062 -0.41144,0 v -0.252153 c 0,-0.08406 -0.0411,-0.294182 0.0823,-0.252157 0.0823,0.04202 0.20573,0 0.24687,-0.08405 0.0823,-0.126078 -0.12343,-0.378233 -0.20572,-0.294182 -0.0823,0.08406 -0.12343,0.08406 -0.12343,-0.04202 0,-0.126078 0.006,-0.259954 0,-0.378232 z" />
      <path
         sodipodi:nodetypes="ccccccccccccccccccccccc"
         id="path1405-9-82-15-0"
         style="fill:none;stroke:#000000;stroke-width:0.15;stroke-linecap:square;stroke-linejoin:round;stroke-miterlimit:4;stroke-dasharray:none;stroke-opacity:1"
         d="m 23.859947,84.674354 c 0.16457,0 0.25643,0.0043 0.41144,0 0.12343,-0.04203 -0.0411,-0.252156 0.0411,-0.336207 0.12343,-0.126078 0.28801,-0.126078 0.3703,0 0.0823,0.08405 -0.12343,0.252154 0,0.336207 0.0823,0 0.37099,-0.0024 0.45259,0 v 0.378232 c 0,0.126076 0.0411,0.126076 0.12343,0.04202 0.0823,-0.08405 0.28801,0.168104 0.20573,0.294182 -0.0415,0.0847 -0.16458,0.168103 -0.25342,0.108792 -0.11689,-0.02473 -0.0744,0.150721 -0.0757,0.227419 0.005,0.09512 0,0.126075 0,0.252153 h -0.45259 c -0.12343,-0.08405 0.0823,-0.252153 0,-0.336206 -0.0823,-0.126078 -0.24687,-0.126078 -0.3703,0 -0.0823,0.08406 0.0823,0.29418 -0.0411,0.336206 -0.13075,-0.0014 -0.28055,0.0062 -0.41144,0 v -0.252153 c 0,-0.08406 -0.0411,-0.294182 0.0823,-0.252157 0.0823,0.04202 0.20573,0 0.24687,-0.08405 0.0823,-0.126078 -0.12343,-0.378233 -0.20572,-0.294182 -0.0823,0.08406 -0.12343,0.08406 -0.12343,-0.04202 0,-0.126079 0.006,-0.259955 0,-0.378233 z" />
      <path
         sodipodi:nodetypes="ccccccccccccccccccccccc"
         id="path1405-9-82-0-6"
         style="fill:none;stroke:#000000;stroke-width:0.15;stroke-linecap:square;stroke-linejoin:round;stroke-miterlimit:4;stroke-dasharray:none;stroke-opacity:1"
         d="m 23.859947,87.320187 c 0.16457,0 0.25643,0.0043 0.41144,0 0.12343,-0.04203 -0.0411,-0.252156 0.0411,-0.336207 0.12343,-0.126078 0.28801,-0.126078 0.3703,0 0.0823,0.08405 -0.12343,0.252154 0,0.336207 0.0823,0 0.37099,-0.0024 0.45259,0 v 0.378232 c 0,0.126076 0.0411,0.126076 0.12343,0.04202 0.0823,-0.08405 0.28801,0.168104 0.20573,0.294182 -0.0415,0.0847 -0.16458,0.168103 -0.25342,0.108792 -0.11689,-0.02473 -0.0744,0.150721 -0.0757,0.227419 0.005,0.09512 0,0.126075 0,0.252153 h -0.45259 c -0.12343,-0.08405 0.0823,-0.252153 0,-0.336206 -0.0823,-0.126078 -0.24687,-0.126078 -0.3703,0 -0.0823,0.08406 0.0823,0.29418 -0.0411,0.336206 -0.13075,-0.0014 -0.28055,0.0062 -0.41144,0 v -0.252153 c 0,-0.08406 -0.0411,-0.294182 0.0823,-0.252157 0.0823,0.04202 0.20573,0 0.24687,-0.08405 0.0823,-0.126078 -0.12343,-0.378233 -0.20572,-0.294183 -0.0823,0.08406 -0.12343,0.08406 -0.12343,-0.04202 0,-0.126078 0.006,-0.259954 0,-0.378232 z" />
      <path
         sodipodi:nodetypes="ccccccccccccccccccccccc"
         id="path1405-9-82-7-06"
         style="fill:none;stroke:#000000;stroke-width:0.15;stroke-linecap:square;stroke-linejoin:round;stroke-miterlimit:4;stroke-dasharray:none;stroke-opacity:1"
         d="m 31.797447,79.382687 c 0.16457,0 0.25643,0.0043 0.41144,0 0.12343,-0.04203 -0.0411,-0.252156 0.0411,-0.336207 0.12343,-0.126078 0.28801,-0.126078 0.3703,0 0.0823,0.08405 -0.12343,0.252154 0,0.336207 0.0823,0 0.37099,-0.0024 0.45259,0 v 0.378232 c 0,0.126076 0.0411,0.126076 0.12343,0.04202 0.0823,-0.08405 0.28801,0.168104 0.20573,0.294182 -0.0415,0.0847 -0.16458,0.168103 -0.25342,0.108792 -0.11689,-0.02473 -0.0744,0.150721 -0.0757,0.227419 0.005,0.09512 0,0.126075 0,0.252153 h -0.45259 c -0.12343,-0.08405 0.0823,-0.252153 0,-0.336206 -0.0823,-0.126078 -0.24687,-0.126078 -0.3703,0 -0.0823,0.08406 0.0823,0.29418 -0.0411,0.336206 -0.13075,-0.0014 -0.28055,0.0062 -0.41144,0 v -0.252153 c 0,-0.08406 -0.0411,-0.294182 0.0823,-0.252157 0.0823,0.04202 0.20573,0 0.24687,-0.08405 0.0823,-0.126078 -0.12343,-0.378233 -0.20572,-0.294183 -0.0823,0.08406 -0.12343,0.08406 -0.12343,-0.04202 0,-0.126078 0.006,-0.259954 0,-0.378232 z" />
      <path
         sodipodi:nodetypes="ccccccccccccccccccccccc"
         id="path1405-9-82-1-1"
         style="fill:none;stroke:#000000;stroke-width:0.15;stroke-linecap:square;stroke-linejoin:round;stroke-miterlimit:4;stroke-dasharray:none;stroke-opacity:1"
         d="m 31.797447,82.028521 c 0.16457,0 0.25643,0.0043 0.41144,0 0.12343,-0.04203 -0.0411,-0.252156 0.0411,-0.336207 0.12343,-0.126078 0.28801,-0.126078 0.3703,0 0.0823,0.08405 -0.12343,0.252154 0,0.336207 0.0823,0 0.37099,-0.0024 0.45259,0 v 0.378232 c 0,0.126076 0.0411,0.126076 0.12343,0.04202 0.0823,-0.08405 0.28801,0.168104 0.20573,0.294182 -0.0415,0.0847 -0.16458,0.168103 -0.25342,0.108792 -0.11689,-0.02473 -0.0744,0.150721 -0.0757,0.227419 0.005,0.09512 0,0.126075 0,0.252153 h -0.45259 c -0.12343,-0.08405 0.0823,-0.252153 0,-0.336206 -0.0823,-0.126078 -0.24687,-0.126078 -0.3703,0 -0.0823,0.08406 0.0823,0.29418 -0.0411,0.336206 -0.13075,-0.0014 -0.28055,0.0062 -0.41144,0 v -0.252153 c 0,-0.08406 -0.0411,-0.294182 0.0823,-0.252157 0.0823,0.04202 0.20573,0 0.24687,-0.08405 0.0823,-0.126078 -0.12343,-0.378233 -0.20572,-0.294182 -0.0823,0.08406 -0.12343,0.08406 -0.12343,-0.04202 0,-0.126078 0.006,-0.259954 0,-0.378232 z" />
      <path
         sodipodi:nodetypes="ccccccccccccccccccccccc"
         id="path1405-9-82-15-8"
         style="fill:none;stroke:#000000;stroke-width:0.15;stroke-linecap:square;stroke-linejoin:round;stroke-miterlimit:4;stroke-dasharray:none;stroke-opacity:1"
         d="m 31.797447,84.674354 c 0.16457,0 0.25643,0.0043 0.41144,0 0.12343,-0.04203 -0.0411,-0.252156 0.0411,-0.336207 0.12343,-0.126078 0.28801,-0.126078 0.3703,0 0.0823,0.08405 -0.12343,0.252154 0,0.336207 0.0823,0 0.37099,-0.0024 0.45259,0 v 0.378232 c 0,0.126076 0.0411,0.126076 0.12343,0.04202 0.0823,-0.08405 0.28801,0.168104 0.20573,0.294182 -0.0415,0.0847 -0.16458,0.168103 -0.25342,0.108792 -0.11689,-0.02473 -0.0744,0.150721 -0.0757,0.227419 0.005,0.09512 0,0.126075 0,0.252153 h -0.45259 c -0.12343,-0.08405 0.0823,-0.252153 0,-0.336206 -0.0823,-0.126078 -0.24687,-0.126078 -0.3703,0 -0.0823,0.08406 0.0823,0.29418 -0.0411,0.336206 -0.13075,-0.0014 -0.28055,0.0062 -0.41144,0 v -0.252153 c 0,-0.08406 -0.0411,-0.294182 0.0823,-0.252157 0.0823,0.04202 0.20573,0 0.24687,-0.08405 0.0823,-0.126078 -0.12343,-0.378233 -0.20572,-0.294182 -0.0823,0.08406 -0.12343,0.08406 -0.12343,-0.04202 0,-0.126079 0.006,-0.259955 0,-0.378233 z" />
      <path
         sodipodi:nodetypes="ccccccccccccccccccccccc"
         id="path1405-9-82-0-4"
         style="fill:none;stroke:#000000;stroke-width:0.15;stroke-linecap:square;stroke-linejoin:round;stroke-miterlimit:4;stroke-dasharray:none;stroke-opacity:1"
         d="m 31.797447,87.320187 c 0.16457,0 0.25643,0.0043 0.41144,0 0.12343,-0.04203 -0.0411,-0.252156 0.0411,-0.336207 0.12343,-0.126078 0.28801,-0.126078 0.3703,0 0.0823,0.08405 -0.12343,0.252154 0,0.336207 0.0823,0 0.37099,-0.0024 0.45259,0 v 0.378232 c 0,0.126076 0.0411,0.126076 0.12343,0.04202 0.0823,-0.08405 0.28801,0.168104 0.20573,0.294182 -0.0415,0.0847 -0.16458,0.168103 -0.25342,0.108792 -0.11689,-0.02473 -0.0744,0.150721 -0.0757,0.227419 0.005,0.09512 0,0.126075 0,0.252153 h -0.45259 c -0.12343,-0.08405 0.0823,-0.252153 0,-0.336206 -0.0823,-0.126078 -0.24687,-0.126078 -0.3703,0 -0.0823,0.08406 0.0823,0.29418 -0.0411,0.336206 -0.13075,-0.0014 -0.28055,0.0062 -0.41144,0 v -0.252153 c 0,-0.08406 -0.0411,-0.294182 0.0823,-0.252157 0.0823,0.04202 0.20573,0 0.24687,-0.08405 0.0823,-0.126078 -0.12343,-0.378233 -0.20572,-0.294183 -0.0823,0.08406 -0.12343,0.08406 -0.12343,-0.04202 0,-0.126078 0.006,-0.259954 0,-0.378232 z" />
      <path
         sodipodi:nodetypes="ccccccccccccccccccccccc"
         id="path1405-9-82-7-7"
         style="fill:none;stroke:#000000;stroke-width:0.15;stroke-linecap:square;stroke-linejoin:round;stroke-miterlimit:4;stroke-dasharray:none;stroke-opacity:1"
         d="m 39.734947,79.382687 c 0.16457,0 0.25643,0.0043 0.41144,0 0.12343,-0.04203 -0.0411,-0.252156 0.0411,-0.336207 0.12343,-0.126078 0.28801,-0.126078 0.3703,0 0.0823,0.08405 -0.12343,0.252154 0,0.336207 0.0823,0 0.37099,-0.0024 0.45259,0 v 0.378232 c 0,0.126076 0.0411,0.126076 0.12343,0.04202 0.0823,-0.08405 0.28801,0.168104 0.20573,0.294182 -0.0415,0.0847 -0.16458,0.168103 -0.25342,0.108792 -0.11689,-0.02473 -0.0744,0.150721 -0.0757,0.227419 0.005,0.09512 0,0.126075 0,0.252153 h -0.45259 c -0.12343,-0.08405 0.0823,-0.252153 0,-0.336206 -0.0823,-0.126078 -0.24687,-0.126078 -0.3703,0 -0.0823,0.08406 0.0823,0.29418 -0.0411,0.336206 -0.13075,-0.0014 -0.28055,0.0062 -0.41144,0 v -0.252153 c 0,-0.08406 -0.0411,-0.294182 0.0823,-0.252157 0.0823,0.04202 0.20573,0 0.24687,-0.08405 0.0823,-0.126078 -0.12343,-0.378233 -0.20572,-0.294183 -0.0823,0.08406 -0.12343,0.08406 -0.12343,-0.04202 0,-0.126078 0.006,-0.259954 0,-0.378232 z" />
      <path
         sodipodi:nodetypes="ccccccccccccccccccccccc"
         id="path1405-9-82-1-00"
         style="fill:none;stroke:#000000;stroke-width:0.15;stroke-linecap:square;stroke-linejoin:round;stroke-miterlimit:4;stroke-dasharray:none;stroke-opacity:1"
         d="m 39.734947,82.028521 c 0.16457,0 0.25643,0.0043 0.41144,0 0.12343,-0.04203 -0.0411,-0.252156 0.0411,-0.336207 0.12343,-0.126078 0.28801,-0.126078 0.3703,0 0.0823,0.08405 -0.12343,0.252154 0,0.336207 0.0823,0 0.37099,-0.0024 0.45259,0 v 0.378232 c 0,0.126076 0.0411,0.126076 0.12343,0.04202 0.0823,-0.08405 0.28801,0.168104 0.20573,0.294182 -0.0415,0.0847 -0.16458,0.168103 -0.25342,0.108792 -0.11689,-0.02473 -0.0744,0.150721 -0.0757,0.227419 0.005,0.09512 0,0.126075 0,0.252153 h -0.45259 c -0.12343,-0.08405 0.0823,-0.252153 0,-0.336206 -0.0823,-0.126078 -0.24687,-0.126078 -0.3703,0 -0.0823,0.08406 0.0823,0.29418 -0.0411,0.336206 -0.13075,-0.0014 -0.28055,0.0062 -0.41144,0 v -0.252153 c 0,-0.08406 -0.0411,-0.294182 0.0823,-0.252157 0.0823,0.04202 0.20573,0 0.24687,-0.08405 0.0823,-0.126078 -0.12343,-0.378233 -0.20572,-0.294182 -0.0823,0.08406 -0.12343,0.08406 -0.12343,-0.04202 0,-0.126078 0.006,-0.259954 0,-0.378232 z" />
      <path
         sodipodi:nodetypes="ccccccccccccccccccccccc"
         id="path1405-9-82-15-32"
         style="fill:none;stroke:#000000;stroke-width:0.15;stroke-linecap:square;stroke-linejoin:round;stroke-miterlimit:4;stroke-dasharray:none;stroke-opacity:1"
         d="m 39.734947,84.674354 c 0.16457,0 0.25643,0.0043 0.41144,0 0.12343,-0.04203 -0.0411,-0.252156 0.0411,-0.336207 0.12343,-0.126078 0.28801,-0.126078 0.3703,0 0.0823,0.08405 -0.12343,0.252154 0,0.336207 0.0823,0 0.37099,-0.0024 0.45259,0 v 0.378232 c 0,0.126076 0.0411,0.126076 0.12343,0.04202 0.0823,-0.08405 0.28801,0.168104 0.20573,0.294182 -0.0415,0.0847 -0.16458,0.168103 -0.25342,0.108792 -0.11689,-0.02473 -0.0744,0.150721 -0.0757,0.227419 0.005,0.09512 0,0.126075 0,0.252153 h -0.45259 c -0.12343,-0.08405 0.0823,-0.252153 0,-0.336206 -0.0823,-0.126078 -0.24687,-0.126078 -0.3703,0 -0.0823,0.08406 0.0823,0.29418 -0.0411,0.336206 -0.13075,-0.0014 -0.28055,0.0062 -0.41144,0 v -0.252153 c 0,-0.08406 -0.0411,-0.294182 0.0823,-0.252157 0.0823,0.04202 0.20573,0 0.24687,-0.08405 0.0823,-0.126078 -0.12343,-0.378233 -0.20572,-0.294182 -0.0823,0.08406 -0.12343,0.08406 -0.12343,-0.04202 0,-0.126079 0.006,-0.259955 0,-0.378233 z" />
      <path
         sodipodi:nodetypes="ccccccccccccccccccccccc"
         id="path1405-9-82-0-01"
         style="fill:none;stroke:#000000;stroke-width:0.15;stroke-linecap:square;stroke-linejoin:round;stroke-miterlimit:4;stroke-dasharray:none;stroke-opacity:1"
         d="m 39.734947,87.320187 c 0.16457,0 0.25643,0.0043 0.41144,0 0.12343,-0.04203 -0.0411,-0.252156 0.0411,-0.336207 0.12343,-0.126078 0.28801,-0.126078 0.3703,0 0.0823,0.08405 -0.12343,0.252154 0,0.336207 0.0823,0 0.37099,-0.0024 0.45259,0 v 0.378232 c 0,0.126076 0.0411,0.126076 0.12343,0.04202 0.0823,-0.08405 0.28801,0.168104 0.20573,0.294182 -0.0415,0.0847 -0.16458,0.168103 -0.25342,0.108792 -0.11689,-0.02473 -0.0744,0.150721 -0.0757,0.227419 0.005,0.09512 0,0.126075 0,0.252153 h -0.45259 c -0.12343,-0.08405 0.0823,-0.252153 0,-0.336206 -0.0823,-0.126078 -0.24687,-0.126078 -0.3703,0 -0.0823,0.08406 0.0823,0.29418 -0.0411,0.336206 -0.13075,-0.0014 -0.28055,0.0062 -0.41144,0 v -0.252153 c 0,-0.08406 -0.0411,-0.294182 0.0823,-0.252157 0.0823,0.04202 0.20573,0 0.24687,-0.08405 0.0823,-0.126078 -0.12343,-0.378233 -0.20572,-0.294183 -0.0823,0.08406 -0.12343,0.08406 -0.12343,-0.04202 0,-0.126078 0.006,-0.259954 0,-0.378232 z" />
    </g>
  </g>
</svg>
