<?xml version="1.0" encoding="UTF-8" standalone="no"?>
<svg
   xmlns:dc="http://purl.org/dc/elements/1.1/"
   xmlns:cc="http://creativecommons.org/ns#"
   xmlns:rdf="http://www.w3.org/1999/02/22-rdf-syntax-ns#"
   xmlns:svg="http://www.w3.org/2000/svg"
   xmlns="http://www.w3.org/2000/svg"
   xmlns:sodipodi="http://sodipodi.sourceforge.net/DTD/sodipodi-0.dtd"
   xmlns:inkscape="http://www.inkscape.org/namespaces/inkscape"
   width="564.22662mm"
   height="406.61111mm"
   viewBox="0 0 564.22662 406.61112"
   version="1.1"
   id="svg2993"
   inkscape:version="1.0 (4035a4fb49, 2020-05-01)"
   sodipodi:docname="circles-4.svg">
  <defs
     id="defs2987" />
  <sodipodi:namedview
     id="base"
     pagecolor="#ffffff"
     bordercolor="#666666"
     borderopacity="1.0"
     inkscape:pageopacity="0.0"
     inkscape:pageshadow="2"
     inkscape:zoom="0.36115046"
     inkscape:cx="712.77004"
     inkscape:cy="605.37079"
     inkscape:document-units="mm"
     inkscape:current-layer="layer1"
     inkscape:document-rotation="0"
     showgrid="false"
     fit-margin-top="48"
     fit-margin-right="48"
     fit-margin-left="48"
     fit-margin-bottom="48"
     inkscape:window-width="1415"
     inkscape:window-height="1041"
     inkscape:window-x="130"
     inkscape:window-y="0"
     inkscape:window-maximized="0" />
  <metadata
     id="metadata2990">
    <rdf:RDF>
      <cc:Work
         rdf:about="">
        <dc:format>image/svg+xml</dc:format>
        <dc:type
           rdf:resource="http://purl.org/dc/dcmitype/StillImage" />
        <dc:title></dc:title>
      </cc:Work>
    </rdf:RDF>
  </metadata>
  <g
     inkscape:label="Layer 1"
     inkscape:groupmode="layer"
     id="layer1"
     transform="translate(24.883756,5.8046955)">
    <g
       id="g1763"
       transform="matrix(8,0,0,8,11.400998,-738.52272)">
      <path
         sodipodi:nodetypes="cccscccccccsc"
         d="m 10.847903,126.20624 c -2.1166663,0 -3.6728144,0.74263 -4.4477648,2.58211 -0.418266,1.34337 1.1438276,2.24846 2.2902394,2.29478 1.6701414,0.1995 3.9569174,-5.47168 5.6368124,-5.42908 1.752284,0.0444 2.60613,3.99177 4.19363,4.52094 5.55625,1.5875 11.617714,1.87278 17.197916,1.5875 1.322917,0 2.220984,-2.07934 1.165411,-3.25614 -1.214345,-1.69903 -3.259737,-2.54374 -4.573645,-4.129 -1.039491,-2.07736 -0.390122,-4.59287 -1.44707,-6.66261 -0.752978,-1.28843 -2.615918,-0.84921 -3.443619,0.11653 -3.277155,2.75655 -4.931334,6.11578 -8.63441,8.37497 -1.055315,0.50801 -3.588639,-4.06487 -4.743794,-4.01423 -1.111787,0.0487 -2.105628,4.13333 -3.193706,4.01423"
         style="fill:none;stroke:#000000;stroke-width:0.2;stroke-linecap:butt;stroke-linejoin:miter;stroke-miterlimit:4;stroke-dasharray:none;stroke-opacity:1"
         id="path2868" />
      <path
         sodipodi:nodetypes="scccsccscssccccsscsss"
         d="m 10.682539,121.98944 c -2.950615,-0.21075 -5.1263023,2.10013 -4.5971356,3.15847 0.79375,1.5875 1.9877118,0.38929 3.4395833,0.26458 2.5982273,-0.17696 2.5830083,-3.21392 4.4979163,-3.70417 1.5875,-0.26458 3.068423,3.73357 4.744653,3.53078 2.341821,-0.28332 4.765913,-4.34287 6.103264,-5.64744 1.452701,-1.52459 2.671613,-3.23918 5.027083,-3.175 2.204246,-0.009 1.741677,3.27831 2.38125,4.7625 0.827718,1.92079 1.043352,4.14117 3.175,5.29166 2.042466,1.0388 2.202971,3.58174 4.623702,4.01766 1.738638,0.31309 3.52614,0.18057 5.285733,0.35111 2.302513,0.22316 1.996815,-2.2521 1.15139,-3.77469 -1.264499,-2.24215 -4.446242,-4.82741 -5.769158,-4.82741 -1.322917,0 -1.970827,1.09187 -2.645834,2.38125 -1.499679,2.05017 -3.482729,1.36714 -4.233333,-0.26458 -0.922797,-2.45392 -0.793736,-5.29166 -1.852083,-7.67292 -0.660656,-1.48646 -0.26484,-3.43928 -1.691583,-4.66051 -1.573924,-1.34721 -3.369938,0.56163 -4.467451,1.64871 -1.197526,1.64615 -3.077643,2.50881 -5.06081,2.7303 -1.937178,0.21635 -3.266093,1.32329 -4.391095,3.25975 -0.612481,1.05427 -4.88653,2.38956 -5.721092,2.32995 z"
         style="fill:none;stroke:#000000;stroke-width:0.2;stroke-linecap:butt;stroke-linejoin:miter;stroke-miterlimit:4;stroke-dasharray:none;stroke-opacity:1"
         id="path2923" />
      <path
         sodipodi:nodetypes="cccccsssccsccccccsc"
         d="m 6.61457,116.41665 c 2.2336077,-1.77484 5.415753,2.66653 2.5032931,3.81019 -2.5164224,1.18021 -6.0543251,-0.69231 -5.9348808,-3.62807 -0.5959554,-4.52401 -1.1102949,-9.14627 -0.5363851,-13.69197 0.6969741,-2.71037 3.2132815,-4.526966 5.851216,-5.097156 13.1495018,-0.5347 29.9300198,0.945259 41.7730078,0.0862 3.131244,-0.227132 3.646177,3.066276 3.96875,6.614576 0.206717,2.27388 0.348632,2.99519 -1.563969,4.80792 -1.533401,1.45333 -3.378031,0.53606 -5.315199,0.48377 -1.678528,-0.13729 -3.704167,0 -5.564617,0.23725 -2.1083,0.29192 -4.297536,0.94927 -4.404297,3.08703 -0.127896,2.56097 -4.308052,3.10545 -4.487143,0.34174 -0.556408,-2.67843 0.430655,-5.85577 -1.564632,-8.09305 -2.100576,-2.23852 -5.436826,-0.81495 -7.981877,-1.91386 -2.026676,-1.01865 -2.984934,-3.713266 -5.478281,-3.878936 -3.785158,-0.25541 -8.0949337,-0.93367 -11.3306165,1.558876 -3.539504,3.21394 -3.5745705,8.50081 -2.7378971,12.85959 0.1999983,1.23154 1.1711269,4.06472 2.8035276,2.41598 z"
         style="fill:none;stroke:#000000;stroke-width:0.2;stroke-linecap:butt;stroke-linejoin:miter;stroke-miterlimit:4;stroke-dasharray:none;stroke-opacity:1"
         id="path2935" />
      <path
         sodipodi:nodetypes="ssaccsscccs"
         d="m 7.9374866,105.83332 c 1.730905,-1.24367 2.1958884,-3.95499 4.2621324,-4.80603 3.071491,-1.265076 4.816732,-0.71222 7.00398,0.10498 2.576356,0.96257 4.948841,4.051 6.309948,5.3162 0.667197,0.83407 0.733203,2.36401 -0.347379,2.88979 -1.302763,0.70293 -2.818488,0.60483 -4.208761,1.07575 -1.157643,0.39212 -3.021239,0.34386 -4.024087,1.50473 -1.043246,1.20763 -1.737839,2.06607 -3.477884,2.14654 -1.829606,0.18371 -3.6754482,0.35129 -5.5129863,0.18074 -1.506453,-0.58894 -2.0497386,-2.33623 -2.118495,-3.81818 -0.2855627,-1.76582 0.4808441,-3.42142 2.1135319,-4.59452 z"
         style="fill:none;stroke:#000000;stroke-width:0.2;stroke-linecap:butt;stroke-linejoin:miter;stroke-miterlimit:4;stroke-dasharray:none;stroke-opacity:1"
         id="path2945" />
      <path
         sodipodi:nodetypes="cccccsscccsssssccccccccc"
         d="m 12.96457,115.62291 c 3.439583,-2.38125 7.239921,-5.51389 11.641666,-4.7625 2.862125,0.2465 1.852084,3.175 -1.5875,3.96875 -2.910416,0.79375 -5.027083,1.85208 -7.007095,4.29037 -2.461138,2.67217 -7.0756458,1.71787 -9.9262376,3.64713 -2.1223057,2.07577 -3.5830058,6.84968 -0.9166992,8.16921 11.6853928,5.78295 29.5773498,3.88192 41.1424628,3.22777 4.33393,-0.24513 8.629411,-3.08481 10.442885,-7.25706 0.863739,-2.45175 0.500342,-5.92767 -2.149937,-7.10745 -2.756034,-0.75977 -5.469311,1.15369 -8.25824,0.38056 -1.739036,-0.5441 -2.447312,-1.39573 -3.797837,-2.82819 -0.397503,-0.42162 -0.84712,-1.0926 -2.591928,-1.09932 -1.701134,-0.007 -1.579486,5.01383 -3.17904,5.19156 -0.788895,0.0877 -2.946374,-2.10275 -2.705879,-3.87247 0.216291,-1.59161 3.261532,-2.66283 3.518902,-3.24878 0.886387,-2.01802 4.317073,-3.76003 6.76957,-3.88947 3.771904,0.19559 7.733371,-0.40762 11.291592,1.21475 3.97943,4.21212 4.749379,10.46738 3.968742,15.99144 -0.746999,3.76196 -3.364264,6.58549 -7.232497,7.03371 -15.638521,1.20918 -31.893585,2.96852 -46.238329,0.0558 -4.3022172,-1.47812 -6.17690455,-7.90441 -2.9741843,-11.16832 2.3319407,-2.22856 6.300573,-1.72178 7.9375003,-4.7625 0.65678,-1.41995 0.264583,-2.11667 1.852083,-3.175 z"
         style="fill:none;stroke:#ff0000;stroke-width:0.2;stroke-linecap:butt;stroke-linejoin:miter;stroke-miterlimit:4;stroke-dasharray:none;stroke-opacity:1"
         id="path2960" />
      <path
         sodipodi:nodetypes="scccccccccscccssscsccccsss"
         d="m 11.906236,129.64582 c 0.09355,-1.56774 1.221533,-3.42299 3.038291,-2.58018 1.143255,1.33944 0.992196,3.70255 2.916355,4.4299 3.345169,0.85858 6.834051,0.62762 10.249113,0.93784 2.644879,-0.0363 5.501889,-0.33968 8.137908,-0.14172 3.439583,0.26458 6.532732,0.0894 9.789583,-1.05834 2.016589,-0.52323 2.116667,-1.32291 1.322917,-3.43958 -0.899253,-2.1142 -2.878915,-3.73171 -4.357863,-5.35628 -1.629275,-1.67631 -4.225009,-1.09424 -5.013333,1.06096 -0.905731,2.03426 -4.263558,2.04766 -3.905332,-0.6679 0.119594,-1.74325 -0.63537,-3.41177 -1.010972,-5.09095 -0.547988,-2.44986 -1.92323,-5.16894 -2.910417,-7.40833 -0.776618,-1.36608 -2.835661,-1.3316 -2.443788,-3.20233 0.419687,-2.72748 4.136427,-1.19582 4.081845,1.00865 0.109027,1.71366 0.346819,3.37722 0.66417,5.08761 0.244771,1.31921 1.163348,5.7299 2.458939,7.87931 0.666684,1.10605 1.229326,0.85654 1.810887,0.86009 1.365445,0.008 1.365447,-2.10833 2.423781,-4.225 1.058333,-1.85208 1.62112,-0.80287 3.175,0.52917 1.448747,1.24191 2.084082,2.69848 4.219732,2.7885 2.343466,0.62436 4.853432,-0.11933 7.128818,0.71336 2.041962,1.44863 1.381492,4.60294 0.802899,6.68876 -1.653707,3.78191 -7.195772,4.93061 -10.556521,5.10403 -9.593785,0.39567 -19.863941,0.44115 -28.658424,-0.78323 -1.442928,-0.20089 -3.467948,-1.43062 -3.363588,-3.13411 z"
         style="fill:none;stroke:#000000;stroke-width:0.2;stroke-linecap:butt;stroke-linejoin:miter;stroke-miterlimit:4;stroke-dasharray:none;stroke-opacity:1"
         id="path2968" />
      <path
         d="m 13.276614,101.87227 c 0.16457,0 0.25643,0.004 0.41144,0 0.12343,-0.042 -0.0411,-0.25216 0.0411,-0.33621 0.12343,-0.12607 0.28801,-0.12607 0.3703,0 0.0823,0.084 -0.12343,0.25216 0,0.33621 0.0823,0 0.37099,-0.002 0.45259,0 v 0.37823 c 0,0.12608 0.0411,0.12608 0.12343,0.042 0.0823,-0.084 0.28801,0.16811 0.20573,0.29418 -0.0415,0.0847 -0.16458,0.16811 -0.25342,0.1088 -0.11689,-0.0247 -0.0744,0.15072 -0.0757,0.22742 0.005,0.0951 0,0.12607 0,0.25215 h -0.45259 c -0.12343,-0.0841 0.0823,-0.25215 0,-0.33621 -0.0823,-0.12608 -0.24687,-0.12608 -0.3703,0 -0.0823,0.0841 0.0823,0.29418 -0.0411,0.33621 -0.13075,-0.001 -0.28055,0.006 -0.41144,0 v -0.25215 c 0,-0.0841 -0.0411,-0.29419 0.0823,-0.25216 0.0823,0.042 0.20573,0 0.24687,-0.0841 0.0823,-0.12608 -0.12343,-0.37823 -0.20572,-0.29418 -0.0823,0.0841 -0.12343,0.0841 -0.12343,-0.042 0,-0.12608 0.006,-0.25996 0,-0.37824 z"
         style="fill:none;stroke:#000000;stroke-width:0.15;stroke-linecap:square;stroke-linejoin:round;stroke-miterlimit:4;stroke-dasharray:none;stroke-opacity:1"
         id="path1405-9-82-0-0-1"
         sodipodi:nodetypes="ccccccccccccccccccccccc" />
      <path
         d="m 18.56828,101.87227 c 0.16457,0 0.25643,0.004 0.41144,0 0.12343,-0.042 -0.0411,-0.25216 0.0411,-0.33621 0.12343,-0.12607 0.28801,-0.12607 0.3703,0 0.0823,0.084 -0.12343,0.25216 0,0.33621 0.0823,0 0.37099,-0.002 0.45259,0 v 0.37823 c 0,0.12608 0.0411,0.12608 0.12343,0.042 0.0823,-0.084 0.28801,0.16811 0.20573,0.29418 -0.0415,0.0847 -0.16458,0.16811 -0.25342,0.1088 -0.11689,-0.0247 -0.0744,0.15072 -0.0757,0.22742 0.005,0.0951 0,0.12607 0,0.25215 h -0.45259 c -0.12343,-0.0841 0.0823,-0.25215 0,-0.33621 -0.0823,-0.12608 -0.24687,-0.12608 -0.3703,0 -0.0823,0.0841 0.0823,0.29418 -0.0411,0.33621 -0.13075,-0.001 -0.28055,0.006 -0.41144,0 v -0.25215 c 0,-0.0841 -0.0411,-0.29419 0.0823,-0.25216 0.0823,0.042 0.20573,0 0.24687,-0.0841 0.0823,-0.12608 -0.12343,-0.37823 -0.20572,-0.29418 -0.0823,0.0841 -0.12343,0.0841 -0.12343,-0.042 0,-0.12608 0.006,-0.25996 0,-0.37824 z"
         style="fill:none;stroke:#000000;stroke-width:0.15;stroke-linecap:square;stroke-linejoin:round;stroke-miterlimit:4;stroke-dasharray:none;stroke-opacity:1"
         id="path1405-9-82-0-0-0"
         sodipodi:nodetypes="ccccccccccccccccccccccc" />
      <path
         d="m 23.859947,101.87227 c 0.16457,0 0.25643,0.004 0.41144,0 0.12343,-0.042 -0.0411,-0.25216 0.0411,-0.33621 0.12343,-0.12607 0.28801,-0.12607 0.3703,0 0.0823,0.084 -0.12343,0.25216 0,0.33621 0.0823,0 0.37099,-0.002 0.45259,0 v 0.37823 c 0,0.12608 0.0411,0.12608 0.12343,0.042 0.0823,-0.084 0.28801,0.16811 0.20573,0.29418 -0.0415,0.0847 -0.16458,0.16811 -0.25342,0.1088 -0.11689,-0.0247 -0.0744,0.15072 -0.0757,0.22742 0.005,0.0951 0,0.12607 0,0.25215 h -0.45259 c -0.12343,-0.0841 0.0823,-0.25215 0,-0.33621 -0.0823,-0.12608 -0.24687,-0.12608 -0.3703,0 -0.0823,0.0841 0.0823,0.29418 -0.0411,0.33621 -0.13075,-0.001 -0.28055,0.006 -0.41144,0 v -0.25215 c 0,-0.0841 -0.0411,-0.29419 0.0823,-0.25216 0.0823,0.042 0.20573,0 0.24687,-0.0841 0.0823,-0.12608 -0.12343,-0.37823 -0.20572,-0.29418 -0.0823,0.0841 -0.12343,0.0841 -0.12343,-0.042 0,-0.12608 0.006,-0.25996 0,-0.37824 z"
         style="fill:none;stroke:#000000;stroke-width:0.15;stroke-linecap:square;stroke-linejoin:round;stroke-miterlimit:4;stroke-dasharray:none;stroke-opacity:1"
         id="path1405-9-82-0-0-03"
         sodipodi:nodetypes="ccccccccccccccccccccccc" />
      <path
         d="m 29.151614,101.87227 c 0.16457,0 0.25643,0.004 0.41144,0 0.12343,-0.042 -0.0411,-0.25216 0.0411,-0.33621 0.12343,-0.12607 0.28801,-0.12607 0.3703,0 0.0823,0.084 -0.12343,0.25216 0,0.33621 0.0823,0 0.37099,-0.002 0.45259,0 v 0.37823 c 0,0.12608 0.0411,0.12608 0.12343,0.042 0.0823,-0.084 0.28801,0.16811 0.20573,0.29418 -0.0415,0.0847 -0.16458,0.16811 -0.25342,0.1088 -0.11689,-0.0247 -0.0744,0.15072 -0.0757,0.22742 0.005,0.0951 0,0.12607 0,0.25215 h -0.45259 c -0.12343,-0.0841 0.0823,-0.25215 0,-0.33621 -0.0823,-0.12608 -0.24687,-0.12608 -0.3703,0 -0.0823,0.0841 0.0823,0.29418 -0.0411,0.33621 -0.13075,-0.001 -0.28055,0.006 -0.41144,0 v -0.25215 c 0,-0.0841 -0.0411,-0.29419 0.0823,-0.25216 0.0823,0.042 0.20573,0 0.24687,-0.0841 0.0823,-0.12608 -0.12343,-0.37823 -0.20572,-0.29418 -0.0823,0.0841 -0.12343,0.0841 -0.12343,-0.042 0,-0.12608 0.006,-0.25996 0,-0.37824 z"
         style="fill:none;stroke:#000000;stroke-width:0.15;stroke-linecap:square;stroke-linejoin:round;stroke-miterlimit:4;stroke-dasharray:none;stroke-opacity:1"
         id="path1405-9-82-0-0-5"
         sodipodi:nodetypes="ccccccccccccccccccccccc" />
      <path
         d="m 34.44328,101.87227 c 0.16457,0 0.25643,0.004 0.41144,0 0.12343,-0.042 -0.0411,-0.25216 0.0411,-0.33621 0.12343,-0.12607 0.28801,-0.12607 0.3703,0 0.0823,0.084 -0.12343,0.25216 0,0.33621 0.0823,0 0.37099,-0.002 0.45259,0 v 0.37823 c 0,0.12608 0.0411,0.12608 0.12343,0.042 0.0823,-0.084 0.28801,0.16811 0.20573,0.29418 -0.0415,0.0847 -0.16458,0.16811 -0.25342,0.1088 -0.11689,-0.0247 -0.0744,0.15072 -0.0757,0.22742 0.005,0.0951 0,0.12607 0,0.25215 h -0.45259 c -0.12343,-0.0841 0.0823,-0.25215 0,-0.33621 -0.0823,-0.12608 -0.24687,-0.12608 -0.3703,0 -0.0823,0.0841 0.0823,0.29418 -0.0411,0.33621 -0.13075,-0.001 -0.28055,0.006 -0.41144,0 v -0.25215 c 0,-0.0841 -0.0411,-0.29419 0.0823,-0.25216 0.0823,0.042 0.20573,0 0.24687,-0.0841 0.0823,-0.12608 -0.12343,-0.37823 -0.20572,-0.29418 -0.0823,0.0841 -0.12343,0.0841 -0.12343,-0.042 0,-0.12608 0.006,-0.25996 0,-0.37824 z"
         style="fill:none;stroke:#000000;stroke-width:0.15;stroke-linecap:square;stroke-linejoin:round;stroke-miterlimit:4;stroke-dasharray:none;stroke-opacity:1"
         id="path1405-9-82-0-0-4"
         sodipodi:nodetypes="ccccccccccccccccccccccc" />
      <path
         d="m 39.734947,101.87227 c 0.16457,0 0.25643,0.004 0.41144,0 0.12343,-0.042 -0.0411,-0.25216 0.0411,-0.33621 0.12343,-0.12607 0.28801,-0.12607 0.3703,0 0.0823,0.084 -0.12343,0.25216 0,0.33621 0.0823,0 0.37099,-0.002 0.45259,0 v 0.37823 c 0,0.12608 0.0411,0.12608 0.12343,0.042 0.0823,-0.084 0.28801,0.16811 0.20573,0.29418 -0.0415,0.0847 -0.16458,0.16811 -0.25342,0.1088 -0.11689,-0.0247 -0.0744,0.15072 -0.0757,0.22742 0.005,0.0951 0,0.12607 0,0.25215 h -0.45259 c -0.12343,-0.0841 0.0823,-0.25215 0,-0.33621 -0.0823,-0.12608 -0.24687,-0.12608 -0.3703,0 -0.0823,0.0841 0.0823,0.29418 -0.0411,0.33621 -0.13075,-0.001 -0.28055,0.006 -0.41144,0 v -0.25215 c 0,-0.0841 -0.0411,-0.29419 0.0823,-0.25216 0.0823,0.042 0.20573,0 0.24687,-0.0841 0.0823,-0.12608 -0.12343,-0.37823 -0.20572,-0.29418 -0.0823,0.0841 -0.12343,0.0841 -0.12343,-0.042 0,-0.12608 0.006,-0.25996 0,-0.37824 z"
         style="fill:none;stroke:#000000;stroke-width:0.15;stroke-linecap:square;stroke-linejoin:round;stroke-miterlimit:4;stroke-dasharray:none;stroke-opacity:1"
         id="path1405-9-82-0-0-58"
         sodipodi:nodetypes="ccccccccccccccccccccccc" />
      <path
         d="m 45.026614,101.87227 c 0.16457,0 0.25643,0.004 0.41144,0 0.12343,-0.042 -0.0411,-0.25216 0.0411,-0.33621 0.12343,-0.12607 0.28801,-0.12607 0.3703,0 0.0823,0.084 -0.12343,0.25216 0,0.33621 0.0823,0 0.37099,-0.002 0.45259,0 v 0.37823 c 0,0.12608 0.0411,0.12608 0.12343,0.042 0.0823,-0.084 0.28801,0.16811 0.20573,0.29418 -0.0415,0.0847 -0.16458,0.16811 -0.25342,0.1088 -0.11689,-0.0247 -0.0744,0.15072 -0.0757,0.22742 0.005,0.0951 0,0.12607 0,0.25215 h -0.45259 c -0.12343,-0.0841 0.0823,-0.25215 0,-0.33621 -0.0823,-0.12608 -0.24687,-0.12608 -0.3703,0 -0.0823,0.0841 0.0823,0.29418 -0.0411,0.33621 -0.13075,-0.001 -0.28055,0.006 -0.41144,0 v -0.25215 c 0,-0.0841 -0.0411,-0.29419 0.0823,-0.25216 0.0823,0.042 0.20573,0 0.24687,-0.0841 0.0823,-0.12608 -0.12343,-0.37823 -0.20572,-0.29418 -0.0823,0.0841 -0.12343,0.0841 -0.12343,-0.042 0,-0.12608 0.006,-0.25996 0,-0.37824 z"
         style="fill:none;stroke:#000000;stroke-width:0.15;stroke-linecap:square;stroke-linejoin:round;stroke-miterlimit:4;stroke-dasharray:none;stroke-opacity:1"
         id="path1405-9-82-0-0-53"
         sodipodi:nodetypes="ccccccccccccccccccccccc" />
      <path
         d="m 50.31828,101.87227 c 0.16457,0 0.25643,0.004 0.41144,0 0.12343,-0.042 -0.0411,-0.25216 0.0411,-0.33621 0.12343,-0.12607 0.28801,-0.12607 0.3703,0 0.0823,0.084 -0.12343,0.25216 0,0.33621 0.0823,0 0.37099,-0.002 0.45259,0 v 0.37823 c 0,0.12608 0.0411,0.12608 0.12343,0.042 0.0823,-0.084 0.28801,0.16811 0.20573,0.29418 -0.0415,0.0847 -0.16458,0.16811 -0.25342,0.1088 -0.11689,-0.0247 -0.0744,0.15072 -0.0757,0.22742 0.005,0.0951 0,0.12607 0,0.25215 h -0.45259 c -0.12343,-0.0841 0.0823,-0.25215 0,-0.33621 -0.0823,-0.12608 -0.24687,-0.12608 -0.3703,0 -0.0823,0.0841 0.0823,0.29418 -0.0411,0.33621 -0.13075,-0.001 -0.28055,0.006 -0.41144,0 v -0.25215 c 0,-0.0841 -0.0411,-0.29419 0.0823,-0.25216 0.0823,0.042 0.20573,0 0.24687,-0.0841 0.0823,-0.12608 -0.12343,-0.37823 -0.20572,-0.29418 -0.0823,0.0841 -0.12343,0.0841 -0.12343,-0.042 0,-0.12608 0.006,-0.25996 0,-0.37824 z"
         style="fill:none;stroke:#000000;stroke-width:0.15;stroke-linecap:square;stroke-linejoin:round;stroke-miterlimit:4;stroke-dasharray:none;stroke-opacity:1"
         id="path1405-9-82-0-0-9"
         sodipodi:nodetypes="ccccccccccccccccccccccc" />
      <path
         d="m 7.9849469,101.87227 c 0.16457,0 0.25643,0.004 0.41144,0 0.12343,-0.042 -0.0411,-0.25216 0.0411,-0.33621 0.12343,-0.12607 0.28801,-0.12607 0.3703,0 0.0823,0.084 -0.12343,0.25216 0,0.33621 0.0823,0 0.37099,-0.002 0.45259,0 v 0.37823 c 0,0.12608 0.0411,0.12608 0.12343,0.042 0.0823,-0.084 0.28801,0.16811 0.20573,0.29418 -0.0415,0.0847 -0.16458,0.16811 -0.25342,0.1088 -0.11689,-0.0247 -0.0744,0.15072 -0.0757,0.22742 0.005,0.0951 0,0.12607 0,0.25215 h -0.45259 c -0.12343,-0.0841 0.0823,-0.25215 0,-0.33621 -0.0823,-0.12608 -0.24687,-0.12608 -0.3703,0 -0.0823,0.0841 0.0823,0.29418 -0.0411,0.33621 -0.13075,-0.001 -0.28055,0.006 -0.41144,0 v -0.25215 c 0,-0.0841 -0.0411,-0.29419 0.0823,-0.25216 0.0823,0.042 0.20573,0 0.24687,-0.0841 0.0823,-0.12608 -0.12343,-0.37823 -0.20572,-0.29418 -0.0823,0.0841 -0.12343,0.0841 -0.12343,-0.042 0,-0.12608 0.006,-0.25996 0,-0.37824 z"
         style="fill:none;stroke:#000000;stroke-width:0.15;stroke-linecap:square;stroke-linejoin:round;stroke-miterlimit:4;stroke-dasharray:none;stroke-opacity:0.3"
         id="path1405-9-82-0-0-8"
         sodipodi:nodetypes="ccccccccccccccccccccccc" />
      <path
         sodipodi:nodetypes="ccccccccccccccccccccccc"
         id="path1405-9-82-0-0-1-0"
         style="fill:none;stroke:#000000;stroke-width:0.15;stroke-linecap:square;stroke-linejoin:round;stroke-miterlimit:4;stroke-dasharray:none;stroke-opacity:1"
         d="m 13.276614,107.16394 c 0.16457,0 0.25643,0.004 0.41144,0 0.12343,-0.042 -0.0411,-0.25216 0.0411,-0.33621 0.12343,-0.12607 0.28801,-0.12607 0.3703,0 0.0823,0.084 -0.12343,0.25216 0,0.33621 0.0823,0 0.37099,-0.002 0.45259,0 v 0.37823 c 0,0.12608 0.0411,0.12608 0.12343,0.042 0.0823,-0.084 0.28801,0.16811 0.20573,0.29418 -0.0415,0.0847 -0.16458,0.16811 -0.25342,0.1088 -0.11689,-0.0247 -0.0744,0.15072 -0.0757,0.22742 0.005,0.0951 0,0.12607 0,0.25215 h -0.45259 c -0.12343,-0.0841 0.0823,-0.25215 0,-0.33621 -0.0823,-0.12608 -0.24687,-0.12608 -0.3703,0 -0.0823,0.0841 0.0823,0.29418 -0.0411,0.33621 -0.13075,-10e-4 -0.28055,0.006 -0.41144,0 v -0.25215 c 0,-0.0841 -0.0411,-0.29419 0.0823,-0.25216 0.0823,0.042 0.20573,0 0.24687,-0.0841 0.0823,-0.12608 -0.12343,-0.37823 -0.20572,-0.29418 -0.0823,0.0841 -0.12343,0.0841 -0.12343,-0.042 0,-0.12608 0.006,-0.25996 0,-0.37824 z" />
      <path
         sodipodi:nodetypes="ccccccccccccccccccccccc"
         id="path1405-9-82-0-0-0-1"
         style="fill:none;stroke:#000000;stroke-width:0.15;stroke-linecap:square;stroke-linejoin:round;stroke-miterlimit:4;stroke-dasharray:none;stroke-opacity:1"
         d="m 18.56828,107.16394 c 0.16457,0 0.25643,0.004 0.41144,0 0.12343,-0.042 -0.0411,-0.25216 0.0411,-0.33621 0.12343,-0.12607 0.28801,-0.12607 0.3703,0 0.0823,0.084 -0.12343,0.25216 0,0.33621 0.0823,0 0.37099,-0.002 0.45259,0 v 0.37823 c 0,0.12608 0.0411,0.12608 0.12343,0.042 0.0823,-0.084 0.28801,0.16811 0.20573,0.29418 -0.0415,0.0847 -0.16458,0.16811 -0.25342,0.1088 -0.11689,-0.0247 -0.0744,0.15072 -0.0757,0.22742 0.005,0.0951 0,0.12607 0,0.25215 h -0.45259 c -0.12343,-0.0841 0.0823,-0.25215 0,-0.33621 -0.0823,-0.12608 -0.24687,-0.12608 -0.3703,0 -0.0823,0.0841 0.0823,0.29418 -0.0411,0.33621 -0.13075,-10e-4 -0.28055,0.006 -0.41144,0 v -0.25215 c 0,-0.0841 -0.0411,-0.29419 0.0823,-0.25216 0.0823,0.042 0.20573,0 0.24687,-0.0841 0.0823,-0.12608 -0.12343,-0.37823 -0.20572,-0.29418 -0.0823,0.0841 -0.12343,0.0841 -0.12343,-0.042 0,-0.12608 0.006,-0.25996 0,-0.37824 z" />
      <path
         sodipodi:nodetypes="ccccccccccccccccccccccc"
         id="path1405-9-82-0-0-03-8"
         style="fill:none;stroke:#000000;stroke-width:0.15;stroke-linecap:square;stroke-linejoin:round;stroke-miterlimit:4;stroke-dasharray:none;stroke-opacity:1"
         d="m 23.859947,107.16394 c 0.16457,0 0.25643,0.004 0.41144,0 0.12343,-0.042 -0.0411,-0.25216 0.0411,-0.33621 0.12343,-0.12607 0.28801,-0.12607 0.3703,0 0.0823,0.084 -0.12343,0.25216 0,0.33621 0.0823,0 0.37099,-0.002 0.45259,0 v 0.37823 c 0,0.12608 0.0411,0.12608 0.12343,0.042 0.0823,-0.084 0.28801,0.16811 0.20573,0.29418 -0.0415,0.0847 -0.16458,0.16811 -0.25342,0.1088 -0.11689,-0.0247 -0.0744,0.15072 -0.0757,0.22742 0.005,0.0951 0,0.12607 0,0.25215 h -0.45259 c -0.12343,-0.0841 0.0823,-0.25215 0,-0.33621 -0.0823,-0.12608 -0.24687,-0.12608 -0.3703,0 -0.0823,0.0841 0.0823,0.29418 -0.0411,0.33621 -0.13075,-10e-4 -0.28055,0.006 -0.41144,0 v -0.25215 c 0,-0.0841 -0.0411,-0.29419 0.0823,-0.25216 0.0823,0.042 0.20573,0 0.24687,-0.0841 0.0823,-0.12608 -0.12343,-0.37823 -0.20572,-0.29418 -0.0823,0.0841 -0.12343,0.0841 -0.12343,-0.042 0,-0.12608 0.006,-0.25996 0,-0.37824 z" />
      <path
         sodipodi:nodetypes="ccccccccccccccccccccccc"
         id="path1405-9-82-0-0-5-1"
         style="fill:none;stroke:#000000;stroke-width:0.15;stroke-linecap:square;stroke-linejoin:round;stroke-miterlimit:4;stroke-dasharray:none;stroke-opacity:1"
         d="m 29.151614,107.16394 c 0.16457,0 0.25643,0.004 0.41144,0 0.12343,-0.042 -0.0411,-0.25216 0.0411,-0.33621 0.12343,-0.12607 0.28801,-0.12607 0.3703,0 0.0823,0.084 -0.12343,0.25216 0,0.33621 0.0823,0 0.37099,-0.002 0.45259,0 v 0.37823 c 0,0.12608 0.0411,0.12608 0.12343,0.042 0.0823,-0.084 0.28801,0.16811 0.20573,0.29418 -0.0415,0.0847 -0.16458,0.16811 -0.25342,0.1088 -0.11689,-0.0247 -0.0744,0.15072 -0.0757,0.22742 0.005,0.0951 0,0.12607 0,0.25215 h -0.45259 c -0.12343,-0.0841 0.0823,-0.25215 0,-0.33621 -0.0823,-0.12608 -0.24687,-0.12608 -0.3703,0 -0.0823,0.0841 0.0823,0.29418 -0.0411,0.33621 -0.13075,-10e-4 -0.28055,0.006 -0.41144,0 v -0.25215 c 0,-0.0841 -0.0411,-0.29419 0.0823,-0.25216 0.0823,0.042 0.20573,0 0.24687,-0.0841 0.0823,-0.12608 -0.12343,-0.37823 -0.20572,-0.29418 -0.0823,0.0841 -0.12343,0.0841 -0.12343,-0.042 0,-0.12608 0.006,-0.25996 0,-0.37824 z" />
      <path
         sodipodi:nodetypes="ccccccccccccccccccccccc"
         id="path1405-9-82-0-0-4-7"
         style="fill:none;stroke:#000000;stroke-width:0.15;stroke-linecap:square;stroke-linejoin:round;stroke-miterlimit:4;stroke-dasharray:none;stroke-opacity:1"
         d="m 34.443281,107.16394 c 0.164568,0 0.256429,0.004 0.41144,0 0.123429,-0.042 -0.0411,-0.25216 0.0411,-0.33621 0.123431,-0.12607 0.288012,-0.12607 0.3703,0 0.0823,0.084 -0.123428,0.25216 0,0.33621 0.0823,0 0.370991,-0.002 0.452591,0 v 0.37823 c 0,0.12608 0.0411,0.12608 0.123431,0.042 0.0823,-0.084 0.28801,0.16811 0.20573,0.29418 -0.0415,0.0847 -0.164582,0.16811 -0.253421,0.1088 -0.11689,-0.0247 -0.0744,0.15072 -0.0757,0.22742 0.005,0.0951 0,0.12607 0,0.25215 h -0.452591 c -0.123428,-0.0841 0.0823,-0.25215 0,-0.33621 -0.0823,-0.12608 -0.246869,-0.12608 -0.3703,0 -0.0823,0.0841 0.0823,0.29418 -0.0411,0.33621 -0.130752,-10e-4 -0.280551,0.006 -0.41144,0 v -0.25215 c 0,-0.0841 -0.0411,-0.29419 0.0823,-0.25216 0.0823,0.042 0.20573,0 0.24687,-0.0841 0.0823,-0.12608 -0.123428,-0.37823 -0.205719,-0.29418 -0.0823,0.0841 -0.123431,0.0841 -0.123431,-0.042 0,-0.12608 0.006,-0.25996 0,-0.37824 z" />
      <path
         sodipodi:nodetypes="ccccccccccccccccccccccc"
         id="path1405-9-82-0-0-58-9"
         style="fill:none;stroke:#000000;stroke-width:0.15;stroke-linecap:square;stroke-linejoin:round;stroke-miterlimit:4;stroke-dasharray:none;stroke-opacity:1"
         d="m 39.734948,107.16394 c 0.164568,0 0.256429,0.004 0.41144,0 0.123428,-0.042 -0.0411,-0.25216 0.0411,-0.33621 0.123429,-0.12607 0.28801,-0.12607 0.370298,0 0.0823,0.084 -0.123428,0.25216 0,0.33621 0.0823,0 0.370991,-0.002 0.452591,0 v 0.37823 c 0,0.12608 0.0411,0.12608 0.123431,0.042 0.0823,-0.084 0.288009,0.16811 0.205729,0.29418 -0.0415,0.0847 -0.164579,0.16811 -0.25342,0.1088 -0.116891,-0.0247 -0.0744,0.15072 -0.0757,0.22742 0.005,0.0951 0,0.12607 0,0.25215 h -0.452589 c -0.12343,-0.0841 0.0823,-0.25215 0,-0.33621 -0.0823,-0.12608 -0.246872,-0.12608 -0.3703,0 -0.0823,0.0841 0.0823,0.29418 -0.0411,0.33621 -0.130752,-10e-4 -0.280551,0.006 -0.411441,0 v -0.25215 c 0,-0.0841 -0.0411,-0.29419 0.0823,-0.25216 0.0823,0.042 0.205732,0 0.246872,-0.0841 0.0823,-0.12608 -0.123431,-0.37823 -0.205721,-0.29418 -0.0823,0.0841 -0.123431,0.0841 -0.123431,-0.042 0,-0.12608 0.006,-0.25996 0,-0.37824 z" />
      <path
         sodipodi:nodetypes="ccccccccccccccccccccccc"
         id="path1405-9-82-0-0-53-0"
         style="fill:none;stroke:#000000;stroke-width:0.15;stroke-linecap:square;stroke-linejoin:round;stroke-miterlimit:4;stroke-dasharray:none;stroke-opacity:1"
         d="m 45.026614,107.16394 c 0.164571,0 0.256429,0.004 0.411441,0 0.123431,-0.042 -0.0411,-0.25216 0.0411,-0.33621 0.123428,-0.12607 0.28801,-0.12607 0.3703,0 0.0823,0.084 -0.12343,0.25216 0,0.33621 0.0823,0 0.370989,-0.002 0.452589,0 v 0.37823 c 0,0.12608 0.0411,0.12608 0.12343,0.042 0.0823,-0.084 0.28801,0.16811 0.20573,0.29418 -0.0415,0.0847 -0.164579,0.16811 -0.253421,0.1088 -0.11689,-0.0247 -0.0744,0.15072 -0.0757,0.22742 0.005,0.0951 0,0.12607 0,0.25215 h -0.452588 c -0.123431,-0.0841 0.0823,-0.25215 0,-0.33621 -0.0823,-0.12608 -0.246872,-0.12608 -0.3703,0 -0.0823,0.0841 0.0823,0.29418 -0.0411,0.33621 -0.130749,-10e-4 -0.280551,0.006 -0.41144,0 v -0.25215 c 0,-0.0841 -0.0411,-0.29419 0.0823,-0.25216 0.0823,0.042 0.20573,0 0.24687,-0.0841 0.0823,-0.12608 -0.123431,-0.37823 -0.205722,-0.29418 -0.0823,0.0841 -0.123428,0.0841 -0.123428,-0.042 0,-0.12608 0.006,-0.25996 0,-0.37824 z" />
      <path
         sodipodi:nodetypes="ccccccccccccccccccccccc"
         id="path1405-9-82-0-0-9-3"
         style="fill:none;stroke:#000000;stroke-width:0.15;stroke-linecap:square;stroke-linejoin:round;stroke-miterlimit:4;stroke-dasharray:none;stroke-opacity:1"
         d="m 50.318281,107.16394 c 0.164568,0 0.256429,0.004 0.41144,0 0.123429,-0.042 -0.0411,-0.25216 0.0411,-0.33621 0.123431,-0.12607 0.288012,-0.12607 0.3703,0 0.0823,0.084 -0.123428,0.25216 0,0.33621 0.0823,0 0.370991,-0.002 0.452591,0 v 0.37823 c 0,0.12608 0.0411,0.12608 0.123431,0.042 0.0823,-0.084 0.28801,0.16811 0.20573,0.29418 -0.0415,0.0847 -0.164582,0.16811 -0.253421,0.1088 -0.11689,-0.0247 -0.0744,0.15072 -0.0757,0.22742 0.005,0.0951 0,0.12607 0,0.25215 h -0.452591 c -0.123428,-0.0841 0.0823,-0.25215 0,-0.33621 -0.0823,-0.12608 -0.246869,-0.12608 -0.370298,0 -0.0823,0.0841 0.0823,0.29418 -0.0411,0.33621 -0.130752,-10e-4 -0.280551,0.006 -0.41144,0 v -0.25215 c 0,-0.0841 -0.0411,-0.29419 0.0823,-0.25216 0.0823,0.042 0.205732,0 0.246873,-0.0841 0.0823,-0.12608 -0.123431,-0.37823 -0.205722,-0.29418 -0.0823,0.0841 -0.123431,0.0841 -0.123431,-0.042 0,-0.12608 0.006,-0.25996 0,-0.37824 z" />
      <path
         sodipodi:nodetypes="ccccccccccccccccccccccc"
         id="path1405-9-82-0-0-8-6"
         style="fill:none;stroke:#000000;stroke-width:0.15;stroke-linecap:square;stroke-linejoin:round;stroke-miterlimit:4;stroke-dasharray:none;stroke-opacity:1"
         d="m 7.984947,107.16394 c 0.16457,0 0.25643,0.004 0.41144,0 0.12343,-0.042 -0.0411,-0.25216 0.0411,-0.33621 0.12343,-0.12607 0.2880099,-0.12607 0.3703,0 0.0823,0.084 -0.12343,0.25216 0,0.33621 0.0823,0 0.3709899,-0.002 0.45259,0 v 0.37823 c 0,0.12608 0.0411,0.12608 0.12343,0.042 0.0823,-0.084 0.28801,0.16811 0.20573,0.29418 -0.0415,0.0847 -0.1645801,0.16811 -0.25342,0.1088 -0.1168901,-0.0247 -0.0744,0.15072 -0.0757,0.22742 0.005,0.0951 0,0.12607 0,0.25215 h -0.45259 c -0.12343,-0.0841 0.0823,-0.25215 0,-0.33621 -0.0823,-0.12608 -0.24687,-0.12608 -0.3703,0 -0.0823,0.0841 0.0823,0.29418 -0.0411,0.33621 -0.13075,-10e-4 -0.28055,0.006 -0.41144,0 v -0.25215 c 0,-0.0841 -0.0411,-0.29419 0.0823,-0.25216 0.0823,0.042 0.20573,0 0.24687,-0.0841 0.0823,-0.12608 -0.12343,-0.37823 -0.20572,-0.29418 -0.0823,0.0841 -0.12343,0.0841 -0.12343,-0.042 0,-0.12608 0.006,-0.25996 0,-0.37824 z" />
      <path
         sodipodi:nodetypes="ccccccccccccccccccccccc"
         id="path1405-9-82-0-0-1-6"
         style="fill:none;stroke:#000000;stroke-width:0.15;stroke-linecap:square;stroke-linejoin:round;stroke-miterlimit:4;stroke-dasharray:none;stroke-opacity:1"
         d="m 13.276614,112.4556 c 0.16457,0 0.25643,0.004 0.41144,0 0.12343,-0.042 -0.0411,-0.25216 0.0411,-0.33621 0.12343,-0.12607 0.28801,-0.12607 0.3703,0 0.0823,0.084 -0.12343,0.25216 0,0.33621 0.0823,0 0.37099,-0.002 0.45259,0 v 0.37823 c 0,0.12608 0.0411,0.12608 0.12343,0.042 0.0823,-0.084 0.28801,0.16811 0.20573,0.29418 -0.0415,0.0847 -0.16458,0.16811 -0.25342,0.1088 -0.11689,-0.0247 -0.0744,0.15072 -0.0757,0.22742 0.005,0.0951 0,0.12607 0,0.25215 h -0.45259 c -0.12343,-0.0841 0.0823,-0.25215 0,-0.33621 -0.0823,-0.12608 -0.24687,-0.12608 -0.3703,0 -0.0823,0.0841 0.0823,0.29418 -0.0411,0.33621 -0.13075,-0.001 -0.28055,0.006 -0.41144,0 v -0.25215 c 0,-0.0841 -0.0411,-0.29419 0.0823,-0.25216 0.0823,0.042 0.20573,0 0.24687,-0.0841 0.0823,-0.12608 -0.12343,-0.37823 -0.20572,-0.29418 -0.0823,0.0841 -0.12343,0.0841 -0.12343,-0.042 0,-0.12608 0.006,-0.25996 0,-0.37824 z" />
      <path
         sodipodi:nodetypes="ccccccccccccccccccccccc"
         id="path1405-9-82-0-0-0-9"
         style="fill:none;stroke:#000000;stroke-width:0.15;stroke-linecap:square;stroke-linejoin:round;stroke-miterlimit:4;stroke-dasharray:none;stroke-opacity:1"
         d="m 18.56828,112.4556 c 0.16457,0 0.25643,0.004 0.41144,0 0.12343,-0.042 -0.0411,-0.25216 0.0411,-0.33621 0.12343,-0.12607 0.28801,-0.12607 0.3703,0 0.0823,0.084 -0.12343,0.25216 0,0.33621 0.0823,0 0.37099,-0.002 0.45259,0 v 0.37823 c 0,0.12608 0.0411,0.12608 0.12343,0.042 0.0823,-0.084 0.28801,0.16811 0.20573,0.29418 -0.0415,0.0847 -0.16458,0.16811 -0.25342,0.1088 -0.11689,-0.0247 -0.0744,0.15072 -0.0757,0.22742 0.005,0.0951 0,0.12607 0,0.25215 h -0.45259 c -0.12343,-0.0841 0.0823,-0.25215 0,-0.33621 -0.0823,-0.12608 -0.24687,-0.12608 -0.3703,0 -0.0823,0.0841 0.0823,0.29418 -0.0411,0.33621 -0.13075,-0.001 -0.28055,0.006 -0.41144,0 v -0.25215 c 0,-0.0841 -0.0411,-0.29419 0.0823,-0.25216 0.0823,0.042 0.20573,0 0.24687,-0.0841 0.0823,-0.12608 -0.12343,-0.37823 -0.20572,-0.29418 -0.0823,0.0841 -0.12343,0.0841 -0.12343,-0.042 0,-0.12608 0.006,-0.25996 0,-0.37824 z" />
      <path
         sodipodi:nodetypes="ccccccccccccccccccccccc"
         id="path1405-9-82-0-0-03-2"
         style="fill:none;stroke:#000000;stroke-width:0.15;stroke-linecap:square;stroke-linejoin:round;stroke-miterlimit:4;stroke-dasharray:none;stroke-opacity:1"
         d="m 23.859947,112.4556 c 0.16457,0 0.25643,0.004 0.41144,0 0.12343,-0.042 -0.0411,-0.25216 0.0411,-0.33621 0.12343,-0.12607 0.28801,-0.12607 0.3703,0 0.0823,0.084 -0.12343,0.25216 0,0.33621 0.0823,0 0.37099,-0.002 0.45259,0 v 0.37823 c 0,0.12608 0.0411,0.12608 0.12343,0.042 0.0823,-0.084 0.28801,0.16811 0.20573,0.29418 -0.0415,0.0847 -0.16458,0.16811 -0.25342,0.1088 -0.11689,-0.0247 -0.0744,0.15072 -0.0757,0.22742 0.005,0.0951 0,0.12607 0,0.25215 h -0.45259 c -0.12343,-0.0841 0.0823,-0.25215 0,-0.33621 -0.0823,-0.12608 -0.24687,-0.12608 -0.3703,0 -0.0823,0.0841 0.0823,0.29418 -0.0411,0.33621 -0.13075,-0.001 -0.28055,0.006 -0.41144,0 v -0.25215 c 0,-0.0841 -0.0411,-0.29419 0.0823,-0.25216 0.0823,0.042 0.20573,0 0.24687,-0.0841 0.0823,-0.12608 -0.12343,-0.37823 -0.20572,-0.29418 -0.0823,0.0841 -0.12343,0.0841 -0.12343,-0.042 0,-0.12608 0.006,-0.25996 0,-0.37824 z" />
      <path
         sodipodi:nodetypes="ccccccccccccccccccccccc"
         id="path1405-9-82-0-0-5-2"
         style="fill:none;stroke:#000000;stroke-width:0.15;stroke-linecap:square;stroke-linejoin:round;stroke-miterlimit:4;stroke-dasharray:none;stroke-opacity:1"
         d="m 29.151614,112.4556 c 0.16457,0 0.25643,0.004 0.41144,0 0.12343,-0.042 -0.0411,-0.25216 0.0411,-0.33621 0.12343,-0.12607 0.28801,-0.12607 0.3703,0 0.0823,0.084 -0.12343,0.25216 0,0.33621 0.0823,0 0.37099,-0.002 0.45259,0 v 0.37823 c 0,0.12608 0.0411,0.12608 0.12343,0.042 0.0823,-0.084 0.28801,0.16811 0.20573,0.29418 -0.0415,0.0847 -0.16458,0.16811 -0.25342,0.1088 -0.11689,-0.0247 -0.0744,0.15072 -0.0757,0.22742 0.005,0.0951 0,0.12607 0,0.25215 h -0.45259 c -0.12343,-0.0841 0.0823,-0.25215 0,-0.33621 -0.0823,-0.12608 -0.24687,-0.12608 -0.3703,0 -0.0823,0.0841 0.0823,0.29418 -0.0411,0.33621 -0.13075,-0.001 -0.28055,0.006 -0.41144,0 v -0.25215 c 0,-0.0841 -0.0411,-0.29419 0.0823,-0.25216 0.0823,0.042 0.20573,0 0.24687,-0.0841 0.0823,-0.12608 -0.12343,-0.37823 -0.20572,-0.29418 -0.0823,0.0841 -0.12343,0.0841 -0.12343,-0.042 0,-0.12608 0.006,-0.25996 0,-0.37824 z" />
      <path
         sodipodi:nodetypes="ccccccccccccccccccccccc"
         id="path1405-9-82-0-0-4-4"
         style="fill:none;stroke:#000000;stroke-width:0.15;stroke-linecap:square;stroke-linejoin:round;stroke-miterlimit:4;stroke-dasharray:none;stroke-opacity:1"
         d="m 34.443281,112.4556 c 0.164568,0 0.256429,0.004 0.41144,0 0.123429,-0.042 -0.0411,-0.25216 0.0411,-0.33621 0.123431,-0.12607 0.288012,-0.12607 0.3703,0 0.0823,0.084 -0.123428,0.25216 0,0.33621 0.0823,0 0.370991,-0.002 0.452591,0 v 0.37823 c 0,0.12608 0.0411,0.12608 0.123431,0.042 0.0823,-0.084 0.28801,0.16811 0.20573,0.29418 -0.0415,0.0847 -0.164582,0.16811 -0.253421,0.1088 -0.11689,-0.0247 -0.0744,0.15072 -0.0757,0.22742 0.005,0.0951 0,0.12607 0,0.25215 h -0.452591 c -0.123428,-0.0841 0.0823,-0.25215 0,-0.33621 -0.0823,-0.12608 -0.246869,-0.12608 -0.3703,0 -0.0823,0.0841 0.0823,0.29418 -0.0411,0.33621 -0.130752,-0.001 -0.280551,0.006 -0.41144,0 v -0.25215 c 0,-0.0841 -0.0411,-0.29419 0.0823,-0.25216 0.0823,0.042 0.20573,0 0.24687,-0.0841 0.0823,-0.12608 -0.123428,-0.37823 -0.205719,-0.29418 -0.0823,0.0841 -0.123431,0.0841 -0.123431,-0.042 0,-0.12608 0.006,-0.25996 0,-0.37824 z" />
      <path
         sodipodi:nodetypes="ccccccccccccccccccccccc"
         id="path1405-9-82-0-0-58-1"
         style="fill:none;stroke:#000000;stroke-width:0.15;stroke-linecap:square;stroke-linejoin:round;stroke-miterlimit:4;stroke-dasharray:none;stroke-opacity:1"
         d="m 39.734948,112.4556 c 0.164568,0 0.256429,0.004 0.41144,0 0.123428,-0.042 -0.0411,-0.25216 0.0411,-0.33621 0.123429,-0.12607 0.28801,-0.12607 0.370298,0 0.0823,0.084 -0.123428,0.25216 0,0.33621 0.0823,0 0.370991,-0.002 0.452591,0 v 0.37823 c 0,0.12608 0.0411,0.12608 0.123431,0.042 0.0823,-0.084 0.288009,0.16811 0.205729,0.29418 -0.0415,0.0847 -0.164579,0.16811 -0.25342,0.1088 -0.116891,-0.0247 -0.0744,0.15072 -0.0757,0.22742 0.005,0.0951 0,0.12607 0,0.25215 h -0.452589 c -0.12343,-0.0841 0.0823,-0.25215 0,-0.33621 -0.0823,-0.12608 -0.246872,-0.12608 -0.3703,0 -0.0823,0.0841 0.0823,0.29418 -0.0411,0.33621 -0.130752,-0.001 -0.280551,0.006 -0.411441,0 v -0.25215 c 0,-0.0841 -0.0411,-0.29419 0.0823,-0.25216 0.0823,0.042 0.205732,0 0.246872,-0.0841 0.0823,-0.12608 -0.123431,-0.37823 -0.205721,-0.29418 -0.0823,0.0841 -0.123431,0.0841 -0.123431,-0.042 0,-0.12608 0.006,-0.25996 0,-0.37824 z" />
      <path
         sodipodi:nodetypes="ccccccccccccccccccccccc"
         id="path1405-9-82-0-0-53-4"
         style="fill:none;stroke:#000000;stroke-width:0.15;stroke-linecap:square;stroke-linejoin:round;stroke-miterlimit:4;stroke-dasharray:none;stroke-opacity:1"
         d="m 45.026614,112.4556 c 0.164571,0 0.256429,0.004 0.411441,0 0.123431,-0.042 -0.0411,-0.25216 0.0411,-0.33621 0.123428,-0.12607 0.28801,-0.12607 0.3703,0 0.0823,0.084 -0.12343,0.25216 0,0.33621 0.0823,0 0.370989,-0.002 0.452589,0 v 0.37823 c 0,0.12608 0.0411,0.12608 0.12343,0.042 0.0823,-0.084 0.28801,0.16811 0.20573,0.29418 -0.0415,0.0847 -0.164579,0.16811 -0.253421,0.1088 -0.11689,-0.0247 -0.0744,0.15072 -0.0757,0.22742 0.005,0.0951 0,0.12607 0,0.25215 h -0.452588 c -0.123431,-0.0841 0.0823,-0.25215 0,-0.33621 -0.0823,-0.12608 -0.246872,-0.12608 -0.3703,0 -0.0823,0.0841 0.0823,0.29418 -0.0411,0.33621 -0.130749,-0.001 -0.280551,0.006 -0.41144,0 v -0.25215 c 0,-0.0841 -0.0411,-0.29419 0.0823,-0.25216 0.0823,0.042 0.20573,0 0.24687,-0.0841 0.0823,-0.12608 -0.123431,-0.37823 -0.205722,-0.29418 -0.0823,0.0841 -0.123428,0.0841 -0.123428,-0.042 0,-0.12608 0.006,-0.25996 0,-0.37824 z" />
      <path
         sodipodi:nodetypes="ccccccccccccccccccccccc"
         id="path1405-9-82-0-0-9-6"
         style="fill:none;stroke:#000000;stroke-width:0.15;stroke-linecap:square;stroke-linejoin:round;stroke-miterlimit:4;stroke-dasharray:none;stroke-opacity:1"
         d="m 50.318281,112.4556 c 0.164568,0 0.256429,0.004 0.41144,0 0.123429,-0.042 -0.0411,-0.25216 0.0411,-0.33621 0.123431,-0.12607 0.288012,-0.12607 0.3703,0 0.0823,0.084 -0.123428,0.25216 0,0.33621 0.0823,0 0.370991,-0.002 0.452591,0 v 0.37823 c 0,0.12608 0.0411,0.12608 0.123431,0.042 0.0823,-0.084 0.28801,0.16811 0.20573,0.29418 -0.0415,0.0847 -0.164582,0.16811 -0.253421,0.1088 -0.11689,-0.0247 -0.0744,0.15072 -0.0757,0.22742 0.005,0.0951 0,0.12607 0,0.25215 h -0.452591 c -0.123428,-0.0841 0.0823,-0.25215 0,-0.33621 -0.0823,-0.12608 -0.246869,-0.12608 -0.370298,0 -0.0823,0.0841 0.0823,0.29418 -0.0411,0.33621 -0.130752,-0.001 -0.280551,0.006 -0.41144,0 v -0.25215 c 0,-0.0841 -0.0411,-0.29419 0.0823,-0.25216 0.0823,0.042 0.205732,0 0.246873,-0.0841 0.0823,-0.12608 -0.123431,-0.37823 -0.205722,-0.29418 -0.0823,0.0841 -0.123431,0.0841 -0.123431,-0.042 0,-0.12608 0.006,-0.25996 0,-0.37824 z" />
      <path
         sodipodi:nodetypes="ccccccccccccccccccccccc"
         id="path1405-9-82-0-0-8-0"
         style="fill:none;stroke:#000000;stroke-width:0.15;stroke-linecap:square;stroke-linejoin:round;stroke-miterlimit:4;stroke-dasharray:none;stroke-opacity:1"
         d="m 7.984947,112.4556 c 0.16457,0 0.25643,0.004 0.41144,0 0.12343,-0.042 -0.0411,-0.25216 0.0411,-0.33621 0.12343,-0.12607 0.2880099,-0.12607 0.3703,0 0.0823,0.084 -0.12343,0.25216 0,0.33621 0.0823,0 0.3709899,-0.002 0.45259,0 v 0.37823 c 0,0.12608 0.0411,0.12608 0.12343,0.042 0.0823,-0.084 0.28801,0.16811 0.20573,0.29418 -0.0415,0.0847 -0.1645801,0.16811 -0.25342,0.1088 -0.1168901,-0.0247 -0.0744,0.15072 -0.0757,0.22742 0.005,0.0951 0,0.12607 0,0.25215 h -0.45259 c -0.12343,-0.0841 0.0823,-0.25215 0,-0.33621 -0.0823,-0.12608 -0.24687,-0.12608 -0.3703,0 -0.0823,0.0841 0.0823,0.29418 -0.0411,0.33621 -0.13075,-0.001 -0.28055,0.006 -0.41144,0 v -0.25215 c 0,-0.0841 -0.0411,-0.29419 0.0823,-0.25216 0.0823,0.042 0.20573,0 0.24687,-0.0841 0.0823,-0.12608 -0.12343,-0.37823 -0.20572,-0.29418 -0.0823,0.0841 -0.12343,0.0841 -0.12343,-0.042 0,-0.12608 0.006,-0.25996 0,-0.37824 z" />
      <path
         sodipodi:nodetypes="ccccccccccccccccccccccc"
         id="path1405-9-82-0-0-1-1"
         style="fill:none;stroke:#000000;stroke-width:0.15;stroke-linecap:square;stroke-linejoin:round;stroke-miterlimit:4;stroke-dasharray:none;stroke-opacity:1"
         d="m 13.276614,117.74727 c 0.16457,0 0.25643,0.004 0.41144,0 0.12343,-0.042 -0.0411,-0.25216 0.0411,-0.33621 0.12343,-0.12607 0.28801,-0.12607 0.3703,0 0.0823,0.084 -0.12343,0.25216 0,0.33621 0.0823,0 0.37099,-0.002 0.45259,0 v 0.37823 c 0,0.12608 0.0411,0.12608 0.12343,0.042 0.0823,-0.084 0.28801,0.16811 0.20573,0.29418 -0.0415,0.0847 -0.16458,0.16811 -0.25342,0.1088 -0.11689,-0.0247 -0.0744,0.15072 -0.0757,0.22742 0.005,0.0951 0,0.12607 0,0.25215 h -0.45259 c -0.12343,-0.0841 0.0823,-0.25215 0,-0.33621 -0.0823,-0.12608 -0.24687,-0.12608 -0.3703,0 -0.0823,0.0841 0.0823,0.29418 -0.0411,0.33621 -0.13075,-0.001 -0.28055,0.006 -0.41144,0 v -0.25215 c 0,-0.0841 -0.0411,-0.29419 0.0823,-0.25216 0.0823,0.042 0.20573,0 0.24687,-0.0841 0.0823,-0.12608 -0.12343,-0.37823 -0.20572,-0.29418 -0.0823,0.0841 -0.12343,0.0841 -0.12343,-0.042 0,-0.12608 0.006,-0.25996 0,-0.37824 z" />
      <path
         sodipodi:nodetypes="ccccccccccccccccccccccc"
         id="path1405-9-82-0-0-0-13"
         style="fill:none;stroke:#000000;stroke-width:0.15;stroke-linecap:square;stroke-linejoin:round;stroke-miterlimit:4;stroke-dasharray:none;stroke-opacity:1"
         d="m 18.56828,117.74727 c 0.16457,0 0.25643,0.004 0.41144,0 0.12343,-0.042 -0.0411,-0.25216 0.0411,-0.33621 0.12343,-0.12607 0.28801,-0.12607 0.3703,0 0.0823,0.084 -0.12343,0.25216 0,0.33621 0.0823,0 0.37099,-0.002 0.45259,0 v 0.37823 c 0,0.12608 0.0411,0.12608 0.12343,0.042 0.0823,-0.084 0.28801,0.16811 0.20573,0.29418 -0.0415,0.0847 -0.16458,0.16811 -0.25342,0.1088 -0.11689,-0.0247 -0.0744,0.15072 -0.0757,0.22742 0.005,0.0951 0,0.12607 0,0.25215 h -0.45259 c -0.12343,-0.0841 0.0823,-0.25215 0,-0.33621 -0.0823,-0.12608 -0.24687,-0.12608 -0.3703,0 -0.0823,0.0841 0.0823,0.29418 -0.0411,0.33621 -0.13075,-0.001 -0.28055,0.006 -0.41144,0 v -0.25215 c 0,-0.0841 -0.0411,-0.29419 0.0823,-0.25216 0.0823,0.042 0.20573,0 0.24687,-0.0841 0.0823,-0.12608 -0.12343,-0.37823 -0.20572,-0.29418 -0.0823,0.0841 -0.12343,0.0841 -0.12343,-0.042 0,-0.12608 0.006,-0.25996 0,-0.37824 z" />
      <path
         sodipodi:nodetypes="ccccccccccccccccccccccc"
         id="path1405-9-82-0-0-03-1"
         style="fill:none;stroke:#000000;stroke-width:0.15;stroke-linecap:square;stroke-linejoin:round;stroke-miterlimit:4;stroke-dasharray:none;stroke-opacity:1"
         d="m 23.859947,117.74727 c 0.16457,0 0.25643,0.004 0.41144,0 0.12343,-0.042 -0.0411,-0.25216 0.0411,-0.33621 0.12343,-0.12607 0.28801,-0.12607 0.3703,0 0.0823,0.084 -0.12343,0.25216 0,0.33621 0.0823,0 0.37099,-0.002 0.45259,0 v 0.37823 c 0,0.12608 0.0411,0.12608 0.12343,0.042 0.0823,-0.084 0.28801,0.16811 0.20573,0.29418 -0.0415,0.0847 -0.16458,0.16811 -0.25342,0.1088 -0.11689,-0.0247 -0.0744,0.15072 -0.0757,0.22742 0.005,0.0951 0,0.12607 0,0.25215 h -0.45259 c -0.12343,-0.0841 0.0823,-0.25215 0,-0.33621 -0.0823,-0.12608 -0.24687,-0.12608 -0.3703,0 -0.0823,0.0841 0.0823,0.29418 -0.0411,0.33621 -0.13075,-0.001 -0.28055,0.006 -0.41144,0 v -0.25215 c 0,-0.0841 -0.0411,-0.29419 0.0823,-0.25216 0.0823,0.042 0.20573,0 0.24687,-0.0841 0.0823,-0.12608 -0.12343,-0.37823 -0.20572,-0.29418 -0.0823,0.0841 -0.12343,0.0841 -0.12343,-0.042 0,-0.12608 0.006,-0.25996 0,-0.37824 z" />
      <path
         sodipodi:nodetypes="ccccccccccccccccccccccc"
         id="path1405-9-82-0-0-5-18"
         style="fill:none;stroke:#000000;stroke-width:0.15;stroke-linecap:square;stroke-linejoin:round;stroke-miterlimit:4;stroke-dasharray:none;stroke-opacity:1"
         d="m 29.151614,117.74727 c 0.16457,0 0.25643,0.004 0.41144,0 0.12343,-0.042 -0.0411,-0.25216 0.0411,-0.33621 0.12343,-0.12607 0.28801,-0.12607 0.3703,0 0.0823,0.084 -0.12343,0.25216 0,0.33621 0.0823,0 0.37099,-0.002 0.45259,0 v 0.37823 c 0,0.12608 0.0411,0.12608 0.12343,0.042 0.0823,-0.084 0.28801,0.16811 0.20573,0.29418 -0.0415,0.0847 -0.16458,0.16811 -0.25342,0.1088 -0.11689,-0.0247 -0.0744,0.15072 -0.0757,0.22742 0.005,0.0951 0,0.12607 0,0.25215 h -0.45259 c -0.12343,-0.0841 0.0823,-0.25215 0,-0.33621 -0.0823,-0.12608 -0.24687,-0.12608 -0.3703,0 -0.0823,0.0841 0.0823,0.29418 -0.0411,0.33621 -0.13075,-0.001 -0.28055,0.006 -0.41144,0 v -0.25215 c 0,-0.0841 -0.0411,-0.29419 0.0823,-0.25216 0.0823,0.042 0.20573,0 0.24687,-0.0841 0.0823,-0.12608 -0.12343,-0.37823 -0.20572,-0.29418 -0.0823,0.0841 -0.12343,0.0841 -0.12343,-0.042 0,-0.12608 0.006,-0.25996 0,-0.37824 z" />
      <path
         sodipodi:nodetypes="ccccccccccccccccccccccc"
         id="path1405-9-82-0-0-4-3"
         style="fill:none;stroke:#000000;stroke-width:0.15;stroke-linecap:square;stroke-linejoin:round;stroke-miterlimit:4;stroke-dasharray:none;stroke-opacity:1"
         d="m 34.443281,117.74727 c 0.164568,0 0.256429,0.004 0.41144,0 0.123429,-0.042 -0.0411,-0.25216 0.0411,-0.33621 0.123431,-0.12607 0.288012,-0.12607 0.3703,0 0.0823,0.084 -0.123428,0.25216 0,0.33621 0.0823,0 0.370991,-0.002 0.452591,0 v 0.37823 c 0,0.12608 0.0411,0.12608 0.123431,0.042 0.0823,-0.084 0.28801,0.16811 0.20573,0.29418 -0.0415,0.0847 -0.164582,0.16811 -0.253421,0.1088 -0.11689,-0.0247 -0.0744,0.15072 -0.0757,0.22742 0.005,0.0951 0,0.12607 0,0.25215 h -0.452591 c -0.123428,-0.0841 0.0823,-0.25215 0,-0.33621 -0.0823,-0.12608 -0.246869,-0.12608 -0.3703,0 -0.0823,0.0841 0.0823,0.29418 -0.0411,0.33621 -0.130752,-0.001 -0.280551,0.006 -0.41144,0 v -0.25215 c 0,-0.0841 -0.0411,-0.29419 0.0823,-0.25216 0.0823,0.042 0.20573,0 0.24687,-0.0841 0.0823,-0.12608 -0.123428,-0.37823 -0.205719,-0.29418 -0.0823,0.0841 -0.123431,0.0841 -0.123431,-0.042 0,-0.12608 0.006,-0.25996 0,-0.37824 z" />
      <path
         sodipodi:nodetypes="ccccccccccccccccccccccc"
         id="path1405-9-82-0-0-58-2"
         style="fill:none;stroke:#000000;stroke-width:0.15;stroke-linecap:square;stroke-linejoin:round;stroke-miterlimit:4;stroke-dasharray:none;stroke-opacity:1"
         d="m 39.734948,117.74727 c 0.164568,0 0.256429,0.004 0.41144,0 0.123428,-0.042 -0.0411,-0.25216 0.0411,-0.33621 0.123429,-0.12607 0.28801,-0.12607 0.370298,0 0.0823,0.084 -0.123428,0.25216 0,0.33621 0.0823,0 0.370991,-0.002 0.452591,0 v 0.37823 c 0,0.12608 0.0411,0.12608 0.123431,0.042 0.0823,-0.084 0.288009,0.16811 0.205729,0.29418 -0.0415,0.0847 -0.164579,0.16811 -0.25342,0.1088 -0.116891,-0.0247 -0.0744,0.15072 -0.0757,0.22742 0.005,0.0951 0,0.12607 0,0.25215 h -0.452589 c -0.12343,-0.0841 0.0823,-0.25215 0,-0.33621 -0.0823,-0.12608 -0.246872,-0.12608 -0.3703,0 -0.0823,0.0841 0.0823,0.29418 -0.0411,0.33621 -0.130752,-0.001 -0.280551,0.006 -0.411441,0 v -0.25215 c 0,-0.0841 -0.0411,-0.29419 0.0823,-0.25216 0.0823,0.042 0.205732,0 0.246872,-0.0841 0.0823,-0.12608 -0.123431,-0.37823 -0.205721,-0.29418 -0.0823,0.0841 -0.123431,0.0841 -0.123431,-0.042 0,-0.12608 0.006,-0.25996 0,-0.37824 z" />
      <path
         sodipodi:nodetypes="ccccccccccccccccccccccc"
         id="path1405-9-82-0-0-53-08"
         style="fill:none;stroke:#000000;stroke-width:0.15;stroke-linecap:square;stroke-linejoin:round;stroke-miterlimit:4;stroke-dasharray:none;stroke-opacity:1"
         d="m 45.026614,117.74727 c 0.164571,0 0.256429,0.004 0.411441,0 0.123431,-0.042 -0.0411,-0.25216 0.0411,-0.33621 0.123428,-0.12607 0.28801,-0.12607 0.3703,0 0.0823,0.084 -0.12343,0.25216 0,0.33621 0.0823,0 0.370989,-0.002 0.452589,0 v 0.37823 c 0,0.12608 0.0411,0.12608 0.12343,0.042 0.0823,-0.084 0.28801,0.16811 0.20573,0.29418 -0.0415,0.0847 -0.164579,0.16811 -0.253421,0.1088 -0.11689,-0.0247 -0.0744,0.15072 -0.0757,0.22742 0.005,0.0951 0,0.12607 0,0.25215 h -0.452588 c -0.123431,-0.0841 0.0823,-0.25215 0,-0.33621 -0.0823,-0.12608 -0.246872,-0.12608 -0.3703,0 -0.0823,0.0841 0.0823,0.29418 -0.0411,0.33621 -0.130749,-0.001 -0.280551,0.006 -0.41144,0 v -0.25215 c 0,-0.0841 -0.0411,-0.29419 0.0823,-0.25216 0.0823,0.042 0.20573,0 0.24687,-0.0841 0.0823,-0.12608 -0.123431,-0.37823 -0.205722,-0.29418 -0.0823,0.0841 -0.123428,0.0841 -0.123428,-0.042 0,-0.12608 0.006,-0.25996 0,-0.37824 z" />
      <path
         sodipodi:nodetypes="ccccccccccccccccccccccc"
         id="path1405-9-82-0-0-9-34"
         style="fill:none;stroke:#000000;stroke-width:0.15;stroke-linecap:square;stroke-linejoin:round;stroke-miterlimit:4;stroke-dasharray:none;stroke-opacity:1"
         d="m 50.318281,117.74727 c 0.164568,0 0.256429,0.004 0.41144,0 0.123429,-0.042 -0.0411,-0.25216 0.0411,-0.33621 0.123431,-0.12607 0.288012,-0.12607 0.3703,0 0.0823,0.084 -0.123428,0.25216 0,0.33621 0.0823,0 0.370991,-0.002 0.452591,0 v 0.37823 c 0,0.12608 0.0411,0.12608 0.123431,0.042 0.0823,-0.084 0.28801,0.16811 0.20573,0.29418 -0.0415,0.0847 -0.164582,0.16811 -0.253421,0.1088 -0.11689,-0.0247 -0.0744,0.15072 -0.0757,0.22742 0.005,0.0951 0,0.12607 0,0.25215 h -0.452591 c -0.123428,-0.0841 0.0823,-0.25215 0,-0.33621 -0.0823,-0.12608 -0.246869,-0.12608 -0.370298,0 -0.0823,0.0841 0.0823,0.29418 -0.0411,0.33621 -0.130752,-0.001 -0.280551,0.006 -0.41144,0 v -0.25215 c 0,-0.0841 -0.0411,-0.29419 0.0823,-0.25216 0.0823,0.042 0.205732,0 0.246873,-0.0841 0.0823,-0.12608 -0.123431,-0.37823 -0.205722,-0.29418 -0.0823,0.0841 -0.123431,0.0841 -0.123431,-0.042 0,-0.12608 0.006,-0.25996 0,-0.37824 z" />
      <path
         sodipodi:nodetypes="ccccccccccccccccccccccc"
         id="path1405-9-82-0-0-8-9"
         style="fill:none;stroke:#000000;stroke-width:0.15;stroke-linecap:square;stroke-linejoin:round;stroke-miterlimit:4;stroke-dasharray:none;stroke-opacity:1"
         d="m 7.984947,117.74727 c 0.16457,0 0.25643,0.004 0.41144,0 0.12343,-0.042 -0.0411,-0.25216 0.0411,-0.33621 0.12343,-0.12607 0.2880099,-0.12607 0.3703,0 0.0823,0.084 -0.12343,0.25216 0,0.33621 0.0823,0 0.3709899,-0.002 0.45259,0 v 0.37823 c 0,0.12608 0.0411,0.12608 0.12343,0.042 0.0823,-0.084 0.28801,0.16811 0.20573,0.29418 -0.0415,0.0847 -0.1645801,0.16811 -0.25342,0.1088 -0.1168901,-0.0247 -0.0744,0.15072 -0.0757,0.22742 0.005,0.0951 0,0.12607 0,0.25215 h -0.45259 c -0.12343,-0.0841 0.0823,-0.25215 0,-0.33621 -0.0823,-0.12608 -0.24687,-0.12608 -0.3703,0 -0.0823,0.0841 0.0823,0.29418 -0.0411,0.33621 -0.13075,-0.001 -0.28055,0.006 -0.41144,0 v -0.25215 c 0,-0.0841 -0.0411,-0.29419 0.0823,-0.25216 0.0823,0.042 0.20573,0 0.24687,-0.0841 0.0823,-0.12608 -0.12343,-0.37823 -0.20572,-0.29418 -0.0823,0.0841 -0.12343,0.0841 -0.12343,-0.042 0,-0.12608 0.006,-0.25996 0,-0.37824 z" />
      <path
         sodipodi:nodetypes="ccccccccccccccccccccccc"
         id="path1405-9-82-0-0-1-3"
         style="fill:none;stroke:#000000;stroke-width:0.15;stroke-linecap:square;stroke-linejoin:round;stroke-miterlimit:4;stroke-dasharray:none;stroke-opacity:1"
         d="m 13.276614,123.03894 c 0.16457,0 0.25643,0.004 0.41144,0 0.12343,-0.042 -0.0411,-0.25216 0.0411,-0.33621 0.12343,-0.12607 0.28801,-0.12607 0.3703,0 0.0823,0.084 -0.12343,0.25216 0,0.33621 0.0823,0 0.37099,-0.002 0.45259,0 v 0.37823 c 0,0.12608 0.0411,0.12608 0.12343,0.042 0.0823,-0.084 0.28801,0.16811 0.20573,0.29418 -0.0415,0.0847 -0.16458,0.16811 -0.25342,0.1088 -0.11689,-0.0247 -0.0744,0.15072 -0.0757,0.22742 0.005,0.0951 0,0.12607 0,0.25215 h -0.45259 c -0.12343,-0.0841 0.0823,-0.25215 0,-0.33621 -0.0823,-0.12608 -0.24687,-0.12608 -0.3703,0 -0.0823,0.0841 0.0823,0.29418 -0.0411,0.33621 -0.13075,-10e-4 -0.28055,0.006 -0.41144,0 v -0.25215 c 0,-0.0841 -0.0411,-0.29419 0.0823,-0.25216 0.0823,0.042 0.20573,0 0.24687,-0.0841 0.0823,-0.12608 -0.12343,-0.37823 -0.20572,-0.29418 -0.0823,0.0841 -0.12343,0.0841 -0.12343,-0.042 0,-0.12608 0.006,-0.25996 0,-0.37824 z" />
      <path
         sodipodi:nodetypes="ccccccccccccccccccccccc"
         id="path1405-9-82-0-0-0-2"
         style="fill:none;stroke:#000000;stroke-width:0.15;stroke-linecap:square;stroke-linejoin:round;stroke-miterlimit:4;stroke-dasharray:none;stroke-opacity:1"
         d="m 18.56828,123.03894 c 0.16457,0 0.25643,0.004 0.41144,0 0.12343,-0.042 -0.0411,-0.25216 0.0411,-0.33621 0.12343,-0.12607 0.28801,-0.12607 0.3703,0 0.0823,0.084 -0.12343,0.25216 0,0.33621 0.0823,0 0.37099,-0.002 0.45259,0 v 0.37823 c 0,0.12608 0.0411,0.12608 0.12343,0.042 0.0823,-0.084 0.28801,0.16811 0.20573,0.29418 -0.0415,0.0847 -0.16458,0.16811 -0.25342,0.1088 -0.11689,-0.0247 -0.0744,0.15072 -0.0757,0.22742 0.005,0.0951 0,0.12607 0,0.25215 h -0.45259 c -0.12343,-0.0841 0.0823,-0.25215 0,-0.33621 -0.0823,-0.12608 -0.24687,-0.12608 -0.3703,0 -0.0823,0.0841 0.0823,0.29418 -0.0411,0.33621 -0.13075,-10e-4 -0.28055,0.006 -0.41144,0 v -0.25215 c 0,-0.0841 -0.0411,-0.29419 0.0823,-0.25216 0.0823,0.042 0.20573,0 0.24687,-0.0841 0.0823,-0.12608 -0.12343,-0.37823 -0.20572,-0.29418 -0.0823,0.0841 -0.12343,0.0841 -0.12343,-0.042 0,-0.12608 0.006,-0.25996 0,-0.37824 z" />
      <path
         sodipodi:nodetypes="ccccccccccccccccccccccc"
         id="path1405-9-82-0-0-03-22"
         style="fill:none;stroke:#000000;stroke-width:0.15;stroke-linecap:square;stroke-linejoin:round;stroke-miterlimit:4;stroke-dasharray:none;stroke-opacity:1"
         d="m 23.859947,123.03894 c 0.16457,0 0.25643,0.004 0.41144,0 0.12343,-0.042 -0.0411,-0.25216 0.0411,-0.33621 0.12343,-0.12607 0.28801,-0.12607 0.3703,0 0.0823,0.084 -0.12343,0.25216 0,0.33621 0.0823,0 0.37099,-0.002 0.45259,0 v 0.37823 c 0,0.12608 0.0411,0.12608 0.12343,0.042 0.0823,-0.084 0.28801,0.16811 0.20573,0.29418 -0.0415,0.0847 -0.16458,0.16811 -0.25342,0.1088 -0.11689,-0.0247 -0.0744,0.15072 -0.0757,0.22742 0.005,0.0951 0,0.12607 0,0.25215 h -0.45259 c -0.12343,-0.0841 0.0823,-0.25215 0,-0.33621 -0.0823,-0.12608 -0.24687,-0.12608 -0.3703,0 -0.0823,0.0841 0.0823,0.29418 -0.0411,0.33621 -0.13075,-10e-4 -0.28055,0.006 -0.41144,0 v -0.25215 c 0,-0.0841 -0.0411,-0.29419 0.0823,-0.25216 0.0823,0.042 0.20573,0 0.24687,-0.0841 0.0823,-0.12608 -0.12343,-0.37823 -0.20572,-0.29418 -0.0823,0.0841 -0.12343,0.0841 -0.12343,-0.042 0,-0.12608 0.006,-0.25996 0,-0.37824 z" />
      <path
         sodipodi:nodetypes="ccccccccccccccccccccccc"
         id="path1405-9-82-0-0-5-23"
         style="fill:none;stroke:#000000;stroke-width:0.15;stroke-linecap:square;stroke-linejoin:round;stroke-miterlimit:4;stroke-dasharray:none;stroke-opacity:1"
         d="m 29.151614,123.03894 c 0.16457,0 0.25643,0.004 0.41144,0 0.12343,-0.042 -0.0411,-0.25216 0.0411,-0.33621 0.12343,-0.12607 0.28801,-0.12607 0.3703,0 0.0823,0.084 -0.12343,0.25216 0,0.33621 0.0823,0 0.37099,-0.002 0.45259,0 v 0.37823 c 0,0.12608 0.0411,0.12608 0.12343,0.042 0.0823,-0.084 0.28801,0.16811 0.20573,0.29418 -0.0415,0.0847 -0.16458,0.16811 -0.25342,0.1088 -0.11689,-0.0247 -0.0744,0.15072 -0.0757,0.22742 0.005,0.0951 0,0.12607 0,0.25215 h -0.45259 c -0.12343,-0.0841 0.0823,-0.25215 0,-0.33621 -0.0823,-0.12608 -0.24687,-0.12608 -0.3703,0 -0.0823,0.0841 0.0823,0.29418 -0.0411,0.33621 -0.13075,-10e-4 -0.28055,0.006 -0.41144,0 v -0.25215 c 0,-0.0841 -0.0411,-0.29419 0.0823,-0.25216 0.0823,0.042 0.20573,0 0.24687,-0.0841 0.0823,-0.12608 -0.12343,-0.37823 -0.20572,-0.29418 -0.0823,0.0841 -0.12343,0.0841 -0.12343,-0.042 0,-0.12608 0.006,-0.25996 0,-0.37824 z" />
      <path
         sodipodi:nodetypes="ccccccccccccccccccccccc"
         id="path1405-9-82-0-0-4-0"
         style="fill:none;stroke:#000000;stroke-width:0.15;stroke-linecap:square;stroke-linejoin:round;stroke-miterlimit:4;stroke-dasharray:none;stroke-opacity:1"
         d="m 34.443281,123.03894 c 0.164568,0 0.256429,0.004 0.41144,0 0.123429,-0.042 -0.0411,-0.25216 0.0411,-0.33621 0.123431,-0.12607 0.288012,-0.12607 0.3703,0 0.0823,0.084 -0.123428,0.25216 0,0.33621 0.0823,0 0.370991,-0.002 0.452591,0 v 0.37823 c 0,0.12608 0.0411,0.12608 0.123431,0.042 0.0823,-0.084 0.28801,0.16811 0.20573,0.29418 -0.0415,0.0847 -0.164582,0.16811 -0.253421,0.1088 -0.11689,-0.0247 -0.0744,0.15072 -0.0757,0.22742 0.005,0.0951 0,0.12607 0,0.25215 h -0.452591 c -0.123428,-0.0841 0.0823,-0.25215 0,-0.33621 -0.0823,-0.12608 -0.246869,-0.12608 -0.3703,0 -0.0823,0.0841 0.0823,0.29418 -0.0411,0.33621 -0.130752,-10e-4 -0.280551,0.006 -0.41144,0 v -0.25215 c 0,-0.0841 -0.0411,-0.29419 0.0823,-0.25216 0.0823,0.042 0.20573,0 0.24687,-0.0841 0.0823,-0.12608 -0.123428,-0.37823 -0.205719,-0.29418 -0.0823,0.0841 -0.123431,0.0841 -0.123431,-0.042 0,-0.12608 0.006,-0.25996 0,-0.37824 z" />
      <path
         sodipodi:nodetypes="ccccccccccccccccccccccc"
         id="path1405-9-82-0-0-58-97"
         style="fill:none;stroke:#000000;stroke-width:0.15;stroke-linecap:square;stroke-linejoin:round;stroke-miterlimit:4;stroke-dasharray:none;stroke-opacity:1"
         d="m 39.734948,123.03894 c 0.164568,0 0.256429,0.004 0.41144,0 0.123428,-0.042 -0.0411,-0.25216 0.0411,-0.33621 0.123429,-0.12607 0.28801,-0.12607 0.370298,0 0.0823,0.084 -0.123428,0.25216 0,0.33621 0.0823,0 0.370991,-0.002 0.452591,0 v 0.37823 c 0,0.12608 0.0411,0.12608 0.123431,0.042 0.0823,-0.084 0.288009,0.16811 0.205729,0.29418 -0.0415,0.0847 -0.164579,0.16811 -0.25342,0.1088 -0.116891,-0.0247 -0.0744,0.15072 -0.0757,0.22742 0.005,0.0951 0,0.12607 0,0.25215 h -0.452589 c -0.12343,-0.0841 0.0823,-0.25215 0,-0.33621 -0.0823,-0.12608 -0.246872,-0.12608 -0.3703,0 -0.0823,0.0841 0.0823,0.29418 -0.0411,0.33621 -0.130752,-10e-4 -0.280551,0.006 -0.411441,0 v -0.25215 c 0,-0.0841 -0.0411,-0.29419 0.0823,-0.25216 0.0823,0.042 0.205732,0 0.246872,-0.0841 0.0823,-0.12608 -0.123431,-0.37823 -0.205721,-0.29418 -0.0823,0.0841 -0.123431,0.0841 -0.123431,-0.042 0,-0.12608 0.006,-0.25996 0,-0.37824 z" />
      <path
         sodipodi:nodetypes="ccccccccccccccccccccccc"
         id="path1405-9-82-0-0-53-9"
         style="fill:none;stroke:#000000;stroke-width:0.15;stroke-linecap:square;stroke-linejoin:round;stroke-miterlimit:4;stroke-dasharray:none;stroke-opacity:1"
         d="m 45.026614,123.03894 c 0.164571,0 0.256429,0.004 0.411441,0 0.123431,-0.042 -0.0411,-0.25216 0.0411,-0.33621 0.123428,-0.12607 0.28801,-0.12607 0.3703,0 0.0823,0.084 -0.12343,0.25216 0,0.33621 0.0823,0 0.370989,-0.002 0.452589,0 v 0.37823 c 0,0.12608 0.0411,0.12608 0.12343,0.042 0.0823,-0.084 0.28801,0.16811 0.20573,0.29418 -0.0415,0.0847 -0.164579,0.16811 -0.253421,0.1088 -0.11689,-0.0247 -0.0744,0.15072 -0.0757,0.22742 0.005,0.0951 0,0.12607 0,0.25215 h -0.452588 c -0.123431,-0.0841 0.0823,-0.25215 0,-0.33621 -0.0823,-0.12608 -0.246872,-0.12608 -0.3703,0 -0.0823,0.0841 0.0823,0.29418 -0.0411,0.33621 -0.130749,-10e-4 -0.280551,0.006 -0.41144,0 v -0.25215 c 0,-0.0841 -0.0411,-0.29419 0.0823,-0.25216 0.0823,0.042 0.20573,0 0.24687,-0.0841 0.0823,-0.12608 -0.123431,-0.37823 -0.205722,-0.29418 -0.0823,0.0841 -0.123428,0.0841 -0.123428,-0.042 0,-0.12608 0.006,-0.25996 0,-0.37824 z" />
      <path
         sodipodi:nodetypes="ccccccccccccccccccccccc"
         id="path1405-9-82-0-0-9-60"
         style="fill:none;stroke:#000000;stroke-width:0.15;stroke-linecap:square;stroke-linejoin:round;stroke-miterlimit:4;stroke-dasharray:none;stroke-opacity:1"
         d="m 50.318281,123.03894 c 0.164568,0 0.256429,0.004 0.41144,0 0.123429,-0.042 -0.0411,-0.25216 0.0411,-0.33621 0.123431,-0.12607 0.288012,-0.12607 0.3703,0 0.0823,0.084 -0.123428,0.25216 0,0.33621 0.0823,0 0.370991,-0.002 0.452591,0 v 0.37823 c 0,0.12608 0.0411,0.12608 0.123431,0.042 0.0823,-0.084 0.28801,0.16811 0.20573,0.29418 -0.0415,0.0847 -0.164582,0.16811 -0.253421,0.1088 -0.11689,-0.0247 -0.0744,0.15072 -0.0757,0.22742 0.005,0.0951 0,0.12607 0,0.25215 h -0.452591 c -0.123428,-0.0841 0.0823,-0.25215 0,-0.33621 -0.0823,-0.12608 -0.246869,-0.12608 -0.370298,0 -0.0823,0.0841 0.0823,0.29418 -0.0411,0.33621 -0.130752,-10e-4 -0.280551,0.006 -0.41144,0 v -0.25215 c 0,-0.0841 -0.0411,-0.29419 0.0823,-0.25216 0.0823,0.042 0.205732,0 0.246873,-0.0841 0.0823,-0.12608 -0.123431,-0.37823 -0.205722,-0.29418 -0.0823,0.0841 -0.123431,0.0841 -0.123431,-0.042 0,-0.12608 0.006,-0.25996 0,-0.37824 z" />
      <path
         sodipodi:nodetypes="ccccccccccccccccccccccc"
         id="path1405-9-82-0-0-8-2"
         style="fill:none;stroke:#000000;stroke-width:0.15;stroke-linecap:square;stroke-linejoin:round;stroke-miterlimit:4;stroke-dasharray:none;stroke-opacity:1"
         d="m 7.984947,123.03894 c 0.16457,0 0.25643,0.004 0.41144,0 0.12343,-0.042 -0.0411,-0.25216 0.0411,-0.33621 0.12343,-0.12607 0.2880099,-0.12607 0.3703,0 0.0823,0.084 -0.12343,0.25216 0,0.33621 0.0823,0 0.3709899,-0.002 0.45259,0 v 0.37823 c 0,0.12608 0.0411,0.12608 0.12343,0.042 0.0823,-0.084 0.28801,0.16811 0.20573,0.29418 -0.0415,0.0847 -0.1645801,0.16811 -0.25342,0.1088 -0.1168901,-0.0247 -0.0744,0.15072 -0.0757,0.22742 0.005,0.0951 0,0.12607 0,0.25215 h -0.45259 c -0.12343,-0.0841 0.0823,-0.25215 0,-0.33621 -0.0823,-0.12608 -0.24687,-0.12608 -0.3703,0 -0.0823,0.0841 0.0823,0.29418 -0.0411,0.33621 -0.13075,-10e-4 -0.28055,0.006 -0.41144,0 v -0.25215 c 0,-0.0841 -0.0411,-0.29419 0.0823,-0.25216 0.0823,0.042 0.20573,0 0.24687,-0.0841 0.0823,-0.12608 -0.12343,-0.37823 -0.20572,-0.29418 -0.0823,0.0841 -0.12343,0.0841 -0.12343,-0.042 0,-0.12608 0.006,-0.25996 0,-0.37824 z" />
      <path
         sodipodi:nodetypes="ccccccccccccccccccccccc"
         id="path1405-9-82-0-0-1-4"
         style="fill:none;stroke:#000000;stroke-width:0.15;stroke-linecap:square;stroke-linejoin:round;stroke-miterlimit:4;stroke-dasharray:none;stroke-opacity:1"
         d="m 13.276614,128.3306 c 0.16457,0 0.25643,0.004 0.41144,0 0.12343,-0.042 -0.0411,-0.25216 0.0411,-0.33621 0.12343,-0.12607 0.28801,-0.12607 0.3703,0 0.0823,0.084 -0.12343,0.25216 0,0.33621 0.0823,0 0.37099,-0.002 0.45259,0 v 0.37823 c 0,0.12608 0.0411,0.12608 0.12343,0.042 0.0823,-0.084 0.28801,0.16811 0.20573,0.29418 -0.0415,0.0847 -0.16458,0.16811 -0.25342,0.1088 -0.11689,-0.0247 -0.0744,0.15072 -0.0757,0.22742 0.005,0.0951 0,0.12607 0,0.25215 h -0.45259 c -0.12343,-0.0841 0.0823,-0.25215 0,-0.33621 -0.0823,-0.12608 -0.24687,-0.12608 -0.3703,0 -0.0823,0.0841 0.0823,0.29418 -0.0411,0.33621 -0.13075,-10e-4 -0.28055,0.006 -0.41144,0 v -0.25215 c 0,-0.0841 -0.0411,-0.29419 0.0823,-0.25216 0.0823,0.042 0.20573,0 0.24687,-0.0841 0.0823,-0.12608 -0.12343,-0.37823 -0.20572,-0.29418 -0.0823,0.0841 -0.12343,0.0841 -0.12343,-0.042 0,-0.12608 0.006,-0.25996 0,-0.37824 z" />
      <path
         sodipodi:nodetypes="ccccccccccccccccccccccc"
         id="path1405-9-82-0-0-0-6"
         style="fill:none;stroke:#000000;stroke-width:0.15;stroke-linecap:square;stroke-linejoin:round;stroke-miterlimit:4;stroke-dasharray:none;stroke-opacity:1"
         d="m 18.56828,128.3306 c 0.16457,0 0.25643,0.004 0.41144,0 0.12343,-0.042 -0.0411,-0.25216 0.0411,-0.33621 0.12343,-0.12607 0.28801,-0.12607 0.3703,0 0.0823,0.084 -0.12343,0.25216 0,0.33621 0.0823,0 0.37099,-0.002 0.45259,0 v 0.37823 c 0,0.12608 0.0411,0.12608 0.12343,0.042 0.0823,-0.084 0.28801,0.16811 0.20573,0.29418 -0.0415,0.0847 -0.16458,0.16811 -0.25342,0.1088 -0.11689,-0.0247 -0.0744,0.15072 -0.0757,0.22742 0.005,0.0951 0,0.12607 0,0.25215 h -0.45259 c -0.12343,-0.0841 0.0823,-0.25215 0,-0.33621 -0.0823,-0.12608 -0.24687,-0.12608 -0.3703,0 -0.0823,0.0841 0.0823,0.29418 -0.0411,0.33621 -0.13075,-10e-4 -0.28055,0.006 -0.41144,0 v -0.25215 c 0,-0.0841 -0.0411,-0.29419 0.0823,-0.25216 0.0823,0.042 0.20573,0 0.24687,-0.0841 0.0823,-0.12608 -0.12343,-0.37823 -0.20572,-0.29418 -0.0823,0.0841 -0.12343,0.0841 -0.12343,-0.042 0,-0.12608 0.006,-0.25996 0,-0.37824 z" />
      <path
         sodipodi:nodetypes="ccccccccccccccccccccccc"
         id="path1405-9-82-0-0-03-24"
         style="fill:none;stroke:#000000;stroke-width:0.15;stroke-linecap:square;stroke-linejoin:round;stroke-miterlimit:4;stroke-dasharray:none;stroke-opacity:1"
         d="m 23.859947,128.3306 c 0.16457,0 0.25643,0.004 0.41144,0 0.12343,-0.042 -0.0411,-0.25216 0.0411,-0.33621 0.12343,-0.12607 0.28801,-0.12607 0.3703,0 0.0823,0.084 -0.12343,0.25216 0,0.33621 0.0823,0 0.37099,-0.002 0.45259,0 v 0.37823 c 0,0.12608 0.0411,0.12608 0.12343,0.042 0.0823,-0.084 0.28801,0.16811 0.20573,0.29418 -0.0415,0.0847 -0.16458,0.16811 -0.25342,0.1088 -0.11689,-0.0247 -0.0744,0.15072 -0.0757,0.22742 0.005,0.0951 0,0.12607 0,0.25215 h -0.45259 c -0.12343,-0.0841 0.0823,-0.25215 0,-0.33621 -0.0823,-0.12608 -0.24687,-0.12608 -0.3703,0 -0.0823,0.0841 0.0823,0.29418 -0.0411,0.33621 -0.13075,-10e-4 -0.28055,0.006 -0.41144,0 v -0.25215 c 0,-0.0841 -0.0411,-0.29419 0.0823,-0.25216 0.0823,0.042 0.20573,0 0.24687,-0.0841 0.0823,-0.12608 -0.12343,-0.37823 -0.20572,-0.29418 -0.0823,0.0841 -0.12343,0.0841 -0.12343,-0.042 0,-0.12608 0.006,-0.25996 0,-0.37824 z" />
      <path
         sodipodi:nodetypes="ccccccccccccccccccccccc"
         id="path1405-9-82-0-0-5-3"
         style="fill:none;stroke:#000000;stroke-width:0.15;stroke-linecap:square;stroke-linejoin:round;stroke-miterlimit:4;stroke-dasharray:none;stroke-opacity:1"
         d="m 29.151614,128.3306 c 0.16457,0 0.25643,0.004 0.41144,0 0.12343,-0.042 -0.0411,-0.25216 0.0411,-0.33621 0.12343,-0.12607 0.28801,-0.12607 0.3703,0 0.0823,0.084 -0.12343,0.25216 0,0.33621 0.0823,0 0.37099,-0.002 0.45259,0 v 0.37823 c 0,0.12608 0.0411,0.12608 0.12343,0.042 0.0823,-0.084 0.28801,0.16811 0.20573,0.29418 -0.0415,0.0847 -0.16458,0.16811 -0.25342,0.1088 -0.11689,-0.0247 -0.0744,0.15072 -0.0757,0.22742 0.005,0.0951 0,0.12607 0,0.25215 h -0.45259 c -0.12343,-0.0841 0.0823,-0.25215 0,-0.33621 -0.0823,-0.12608 -0.24687,-0.12608 -0.3703,0 -0.0823,0.0841 0.0823,0.29418 -0.0411,0.33621 -0.13075,-10e-4 -0.28055,0.006 -0.41144,0 v -0.25215 c 0,-0.0841 -0.0411,-0.29419 0.0823,-0.25216 0.0823,0.042 0.20573,0 0.24687,-0.0841 0.0823,-0.12608 -0.12343,-0.37823 -0.20572,-0.29418 -0.0823,0.0841 -0.12343,0.0841 -0.12343,-0.042 0,-0.12608 0.006,-0.25996 0,-0.37824 z" />
      <path
         sodipodi:nodetypes="ccccccccccccccccccccccc"
         id="path1405-9-82-0-0-4-9"
         style="fill:none;stroke:#000000;stroke-width:0.15;stroke-linecap:square;stroke-linejoin:round;stroke-miterlimit:4;stroke-dasharray:none;stroke-opacity:1"
         d="m 34.443281,128.3306 c 0.164568,0 0.256429,0.004 0.41144,0 0.123429,-0.042 -0.0411,-0.25216 0.0411,-0.33621 0.123431,-0.12607 0.288012,-0.12607 0.3703,0 0.0823,0.084 -0.123428,0.25216 0,0.33621 0.0823,0 0.370991,-0.002 0.452591,0 v 0.37823 c 0,0.12608 0.0411,0.12608 0.123431,0.042 0.0823,-0.084 0.28801,0.16811 0.20573,0.29418 -0.0415,0.0847 -0.164582,0.16811 -0.253421,0.1088 -0.11689,-0.0247 -0.0744,0.15072 -0.0757,0.22742 0.005,0.0951 0,0.12607 0,0.25215 h -0.452591 c -0.123428,-0.0841 0.0823,-0.25215 0,-0.33621 -0.0823,-0.12608 -0.246869,-0.12608 -0.3703,0 -0.0823,0.0841 0.0823,0.29418 -0.0411,0.33621 -0.130752,-10e-4 -0.280551,0.006 -0.41144,0 v -0.25215 c 0,-0.0841 -0.0411,-0.29419 0.0823,-0.25216 0.0823,0.042 0.20573,0 0.24687,-0.0841 0.0823,-0.12608 -0.123428,-0.37823 -0.205719,-0.29418 -0.0823,0.0841 -0.123431,0.0841 -0.123431,-0.042 0,-0.12608 0.006,-0.25996 0,-0.37824 z" />
      <path
         sodipodi:nodetypes="ccccccccccccccccccccccc"
         id="path1405-9-82-0-0-58-8"
         style="fill:none;stroke:#000000;stroke-width:0.15;stroke-linecap:square;stroke-linejoin:round;stroke-miterlimit:4;stroke-dasharray:none;stroke-opacity:1"
         d="m 39.734948,128.3306 c 0.164568,0 0.256429,0.004 0.41144,0 0.123428,-0.042 -0.0411,-0.25216 0.0411,-0.33621 0.123429,-0.12607 0.28801,-0.12607 0.370298,0 0.0823,0.084 -0.123428,0.25216 0,0.33621 0.0823,0 0.370991,-0.002 0.452591,0 v 0.37823 c 0,0.12608 0.0411,0.12608 0.123431,0.042 0.0823,-0.084 0.288009,0.16811 0.205729,0.29418 -0.0415,0.0847 -0.164579,0.16811 -0.25342,0.1088 -0.116891,-0.0247 -0.0744,0.15072 -0.0757,0.22742 0.005,0.0951 0,0.12607 0,0.25215 h -0.452589 c -0.12343,-0.0841 0.0823,-0.25215 0,-0.33621 -0.0823,-0.12608 -0.246872,-0.12608 -0.3703,0 -0.0823,0.0841 0.0823,0.29418 -0.0411,0.33621 -0.130752,-10e-4 -0.280551,0.006 -0.411441,0 v -0.25215 c 0,-0.0841 -0.0411,-0.29419 0.0823,-0.25216 0.0823,0.042 0.205732,0 0.246872,-0.0841 0.0823,-0.12608 -0.123431,-0.37823 -0.205721,-0.29418 -0.0823,0.0841 -0.123431,0.0841 -0.123431,-0.042 0,-0.12608 0.006,-0.25996 0,-0.37824 z" />
      <path
         sodipodi:nodetypes="ccccccccccccccccccccccc"
         id="path1405-9-82-0-0-53-1"
         style="fill:none;stroke:#000000;stroke-width:0.15;stroke-linecap:square;stroke-linejoin:round;stroke-miterlimit:4;stroke-dasharray:none;stroke-opacity:1"
         d="m 45.026614,128.3306 c 0.164571,0 0.256429,0.004 0.411441,0 0.123431,-0.042 -0.0411,-0.25216 0.0411,-0.33621 0.123428,-0.12607 0.28801,-0.12607 0.3703,0 0.0823,0.084 -0.12343,0.25216 0,0.33621 0.0823,0 0.370989,-0.002 0.452589,0 v 0.37823 c 0,0.12608 0.0411,0.12608 0.12343,0.042 0.0823,-0.084 0.28801,0.16811 0.20573,0.29418 -0.0415,0.0847 -0.164579,0.16811 -0.253421,0.1088 -0.11689,-0.0247 -0.0744,0.15072 -0.0757,0.22742 0.005,0.0951 0,0.12607 0,0.25215 h -0.452588 c -0.123431,-0.0841 0.0823,-0.25215 0,-0.33621 -0.0823,-0.12608 -0.246872,-0.12608 -0.3703,0 -0.0823,0.0841 0.0823,0.29418 -0.0411,0.33621 -0.130749,-10e-4 -0.280551,0.006 -0.41144,0 v -0.25215 c 0,-0.0841 -0.0411,-0.29419 0.0823,-0.25216 0.0823,0.042 0.20573,0 0.24687,-0.0841 0.0823,-0.12608 -0.123431,-0.37823 -0.205722,-0.29418 -0.0823,0.0841 -0.123428,0.0841 -0.123428,-0.042 0,-0.12608 0.006,-0.25996 0,-0.37824 z" />
      <path
         sodipodi:nodetypes="ccccccccccccccccccccccc"
         id="path1405-9-82-0-0-9-4"
         style="fill:none;stroke:#000000;stroke-width:0.15;stroke-linecap:square;stroke-linejoin:round;stroke-miterlimit:4;stroke-dasharray:none;stroke-opacity:1"
         d="m 50.318281,128.3306 c 0.164568,0 0.256429,0.004 0.41144,0 0.123429,-0.042 -0.0411,-0.25216 0.0411,-0.33621 0.123431,-0.12607 0.288012,-0.12607 0.3703,0 0.0823,0.084 -0.123428,0.25216 0,0.33621 0.0823,0 0.370991,-0.002 0.452591,0 v 0.37823 c 0,0.12608 0.0411,0.12608 0.123431,0.042 0.0823,-0.084 0.28801,0.16811 0.20573,0.29418 -0.0415,0.0847 -0.164582,0.16811 -0.253421,0.1088 -0.11689,-0.0247 -0.0744,0.15072 -0.0757,0.22742 0.005,0.0951 0,0.12607 0,0.25215 h -0.452591 c -0.123428,-0.0841 0.0823,-0.25215 0,-0.33621 -0.0823,-0.12608 -0.246869,-0.12608 -0.370298,0 -0.0823,0.0841 0.0823,0.29418 -0.0411,0.33621 -0.130752,-10e-4 -0.280551,0.006 -0.41144,0 v -0.25215 c 0,-0.0841 -0.0411,-0.29419 0.0823,-0.25216 0.0823,0.042 0.205732,0 0.246873,-0.0841 0.0823,-0.12608 -0.123431,-0.37823 -0.205722,-0.29418 -0.0823,0.0841 -0.123431,0.0841 -0.123431,-0.042 0,-0.12608 0.006,-0.25996 0,-0.37824 z" />
      <path
         sodipodi:nodetypes="ccccccccccccccccccccccc"
         id="path1405-9-82-0-0-8-7"
         style="fill:none;stroke:#000000;stroke-width:0.15;stroke-linecap:square;stroke-linejoin:round;stroke-miterlimit:4;stroke-dasharray:none;stroke-opacity:1"
         d="m 7.984947,128.3306 c 0.16457,0 0.25643,0.004 0.41144,0 0.12343,-0.042 -0.0411,-0.25216 0.0411,-0.33621 0.12343,-0.12607 0.2880099,-0.12607 0.3703,0 0.0823,0.084 -0.12343,0.25216 0,0.33621 0.0823,0 0.3709899,-0.002 0.45259,0 v 0.37823 c 0,0.12608 0.0411,0.12608 0.12343,0.042 0.0823,-0.084 0.28801,0.16811 0.20573,0.29418 -0.0415,0.0847 -0.1645801,0.16811 -0.25342,0.1088 -0.1168901,-0.0247 -0.0744,0.15072 -0.0757,0.22742 0.005,0.0951 0,0.12607 0,0.25215 h -0.45259 c -0.12343,-0.0841 0.0823,-0.25215 0,-0.33621 -0.0823,-0.12608 -0.24687,-0.12608 -0.3703,0 -0.0823,0.0841 0.0823,0.29418 -0.0411,0.33621 -0.13075,-10e-4 -0.28055,0.006 -0.41144,0 v -0.25215 c 0,-0.0841 -0.0411,-0.29419 0.0823,-0.25216 0.0823,0.042 0.20573,0 0.24687,-0.0841 0.0823,-0.12608 -0.12343,-0.37823 -0.20572,-0.29418 -0.0823,0.0841 -0.12343,0.0841 -0.12343,-0.042 0,-0.12608 0.006,-0.25996 0,-0.37824 z" />
    </g>
  </g>
</svg>
