<?xml version="1.0" encoding="UTF-8" standalone="no"?>
<svg
   xmlns:dc="http://purl.org/dc/elements/1.1/"
   xmlns:cc="http://creativecommons.org/ns#"
   xmlns:rdf="http://www.w3.org/1999/02/22-rdf-syntax-ns#"
   xmlns:svg="http://www.w3.org/2000/svg"
   xmlns="http://www.w3.org/2000/svg"
   xmlns:sodipodi="http://sodipodi.sourceforge.net/DTD/sodipodi-0.dtd"
   xmlns:inkscape="http://www.inkscape.org/namespaces/inkscape"
   width="461.6066mm"
   height="411.83884mm"
   viewBox="0 0 461.6066 411.83884"
   version="1.1"
   id="svg2993"
   inkscape:version="1.0 (4035a4fb49, 2020-05-01)"
   sodipodi:docname="circles-2.svg">
  <defs
     id="defs2987" />
  <sodipodi:namedview
     id="base"
     pagecolor="#ffffff"
     bordercolor="#666666"
     borderopacity="1.0"
     inkscape:pageopacity="0.0"
     inkscape:pageshadow="2"
     inkscape:zoom="0.30131237"
     inkscape:cx="4.2503114"
     inkscape:cy="1116.8337"
     inkscape:document-units="mm"
     inkscape:current-layer="layer1"
     inkscape:document-rotation="0"
     showgrid="false"
     fit-margin-top="48"
     fit-margin-right="48"
     fit-margin-left="48"
     fit-margin-bottom="48"
     inkscape:window-width="1274"
     inkscape:window-height="1041"
     inkscape:window-x="130"
     inkscape:window-y="0"
     inkscape:window-maximized="0" />
  <metadata
     id="metadata2990">
    <rdf:RDF>
      <cc:Work
         rdf:about="">
        <dc:format>image/svg+xml</dc:format>
        <dc:type
           rdf:resource="http://purl.org/dc/dcmitype/StillImage" />
        <dc:title></dc:title>
      </cc:Work>
    </rdf:RDF>
  </metadata>
  <g
     inkscape:label="Layer 1"
     inkscape:groupmode="layer"
     id="layer1"
     transform="translate(-162.57875,141.12925)">
    <g
       id="g1673"
       transform="matrix(8,0,0,8,173.81636,-339.37388)">
      <ellipse
         ry="9.2622728"
         rx="9.295682"
         cy="42.460255"
         cx="15.848297"
         id="path1155"
         style="fill:none;stroke:#000000;stroke-width:0.2;stroke-miterlimit:4;stroke-dasharray:none;stroke-opacity:1" />
      <ellipse
         style="fill:none;stroke:#000000;stroke-width:0.2;stroke-miterlimit:4;stroke-dasharray:none;stroke-opacity:1"
         id="path1155-6"
         cx="18.054441"
         cy="56.471581"
         rx="13.359142"
         ry="11.393064" />
      <ellipse
         transform="matrix(0.96380917,-0.26659312,0.21207365,0.97725369,0,0)"
         ry="8.1480408"
         rx="16.642628"
         cy="54.475822"
         cx="19.111855"
         id="path1155-6-2"
         style="fill:none;stroke:#000000;stroke-width:0.19694;stroke-miterlimit:4;stroke-dasharray:none;stroke-opacity:1" />
      <ellipse
         style="fill:none;stroke:#000000;stroke-width:0.201991;stroke-miterlimit:4;stroke-dasharray:none;stroke-opacity:1"
         id="path1155-6-2-2"
         cx="28.83552"
         cy="46.030643"
         rx="11.887937"
         ry="15.149069" />
      <ellipse
         style="fill:none;stroke:#000000;stroke-width:0.2;stroke-miterlimit:4;stroke-dasharray:none;stroke-opacity:1"
         id="path1155-6-2-8"
         cx="36.633694"
         cy="58.635933"
         rx="13.562429"
         ry="11.5245" />
      <path
         sodipodi:nodetypes="ssssssssssssscs"
         d="m 21.805124,35.718748 c -2.755124,1.322919 -3.280608,3.765241 -1.316905,5.025796 1.712103,1.099046 4.381173,2.504149 3.324281,4.499206 -1.500278,2.83202 -5.820833,5.55625 -7.14375,8.202083 -1.322916,2.645834 -2.116667,4.7625 0.529167,8.73125 2.645833,3.96875 11.890691,2.838306 14.882844,1.992458 1.47146,-0.415965 5.664214,-2.642575 0.680087,-2.975913 -1.545629,-0.103372 -4.60681,0.997656 -6.302515,0.983455 -5.218837,-0.0437 -5.95783,-7.097948 -3.594079,-10.6362 2.032903,-3.043012 5.206253,-6.763309 9.54713,-7.620199 4.525087,-0.893252 8.479029,0.801515 12.356146,-1.984002 5.164462,-3.710411 0.117373,-8.294794 -3.916703,-8.573012 -5.17172,-0.356677 -8.970494,-0.566288 -14.097889,0.512492 -1.320073,0.277737 -3.603884,1.056101 -4.947811,1.842574 0,0 1e-6,1e-5 -3e-6,1.2e-5 z"
         style="fill:none;stroke:#ff0000;stroke-width:0.2;stroke-linecap:butt;stroke-linejoin:miter;stroke-miterlimit:4;stroke-dasharray:none;stroke-opacity:1"
         id="path1375" />
      <path
         d="m 27.828696,31.757688 c 0.16457,0 0.25643,0.0043 0.41144,0 0.12343,-0.04203 -0.0411,-0.252156 0.0411,-0.336207 0.12343,-0.126078 0.28801,-0.126078 0.3703,0 0.0823,0.08405 -0.12343,0.252154 0,0.336207 0.0823,0 0.37099,-0.0024 0.45259,0 v 0.378232 c 0,0.126076 0.0411,0.126076 0.12343,0.04202 0.0823,-0.08405 0.28801,0.168104 0.20573,0.294182 -0.0415,0.0847 -0.16458,0.168103 -0.25342,0.108792 -0.11689,-0.02473 -0.0744,0.150721 -0.0757,0.227419 0.005,0.09512 0,0.126075 0,0.252153 h -0.45259 c -0.12343,-0.08405 0.0823,-0.252153 0,-0.336206 -0.0823,-0.126078 -0.24687,-0.126078 -0.3703,0 -0.0823,0.08406 0.0823,0.29418 -0.0411,0.336206 -0.130749,-0.0014 -0.280549,0.0062 -0.411439,0 v -0.252153 c 0,-0.08406 -0.0411,-0.294182 0.0823,-0.252157 0.0823,0.04202 0.20573,0 0.24687,-0.08405 0.0823,-0.126078 -0.12343,-0.378233 -0.20572,-0.294183 -0.0823,0.08406 -0.12343,0.08406 -0.12343,-0.04202 0,-0.126078 0.006,-0.259954 0,-0.378232 z"
         style="fill:none;stroke:#000000;stroke-width:0.15;stroke-linecap:square;stroke-linejoin:round;stroke-miterlimit:4;stroke-dasharray:none;stroke-opacity:1"
         id="path1405-9-1-2"
         sodipodi:nodetypes="ccccccccccccccccccccccc" />
      <path
         d="m 10.630779,38.372272 c 0.16457,0 0.25643,0.0043 0.41144,0 0.12343,-0.04203 -0.0411,-0.252156 0.0411,-0.336207 0.12343,-0.126078 0.28801,-0.126078 0.3703,0 0.0823,0.08405 -0.12343,0.252154 0,0.336207 0.0823,0 0.37099,-0.0024 0.45259,0 v 0.378232 c 0,0.126076 0.0411,0.126076 0.12343,0.04202 0.0823,-0.08405 0.28801,0.168104 0.20573,0.294182 -0.0415,0.0847 -0.16458,0.168103 -0.25342,0.108792 -0.11689,-0.02473 -0.0744,0.150721 -0.0757,0.227419 0.005,0.09512 0,0.126075 0,0.252153 h -0.45259 c -0.12343,-0.08405 0.0823,-0.252153 0,-0.336206 -0.0823,-0.126078 -0.24687,-0.126078 -0.3703,0 -0.0823,0.08406 0.0823,0.29418 -0.0411,0.336206 -0.130749,-0.0014 -0.280549,0.0062 -0.411439,0 v -0.252153 c 0,-0.08406 -0.0411,-0.294182 0.0823,-0.252157 0.0823,0.04202 0.20573,0 0.24687,-0.08405 0.0823,-0.126078 -0.12343,-0.378233 -0.20572,-0.294183 -0.0823,0.08406 -0.12343,0.08406 -0.12343,-0.04202 0,-0.126078 0.006,-0.259954 0,-0.378232 z"
         style="fill:none;stroke:#000000;stroke-width:0.15;stroke-linecap:square;stroke-linejoin:round;stroke-miterlimit:4;stroke-dasharray:none;stroke-opacity:1"
         id="path1405-9-1-0"
         sodipodi:nodetypes="ccccccccccccccccccccccc" />
      <path
         d="m 21.214112,37.049355 c 0.16457,0 0.25643,0.0043 0.41144,0 0.12343,-0.04203 -0.0411,-0.252156 0.0411,-0.336207 0.12343,-0.126078 0.28801,-0.126078 0.3703,0 0.0823,0.08405 -0.12343,0.252154 0,0.336207 0.0823,0 0.37099,-0.0024 0.45259,0 v 0.378232 c 0,0.126076 0.0411,0.126076 0.12343,0.04202 0.0823,-0.08405 0.28801,0.168104 0.20573,0.294182 -0.0415,0.0847 -0.16458,0.168103 -0.25342,0.108792 -0.11689,-0.02473 -0.0744,0.150721 -0.0757,0.227419 0.005,0.09512 0,0.126075 0,0.252153 h -0.45259 c -0.12343,-0.08405 0.0823,-0.252153 0,-0.336206 -0.0823,-0.126078 -0.24687,-0.126078 -0.3703,0 -0.0823,0.08406 0.0823,0.29418 -0.0411,0.336206 -0.130749,-0.0014 -0.280549,0.0062 -0.411439,0 V 38.1 c 0,-0.08406 -0.0411,-0.294182 0.0823,-0.252157 0.0823,0.04202 0.20573,0 0.24687,-0.08405 0.0823,-0.126078 -0.12343,-0.378233 -0.20572,-0.294183 -0.0823,0.08406 -0.12343,0.08406 -0.12343,-0.04202 0,-0.126078 0.006,-0.259954 0,-0.378232 z"
         style="fill:none;stroke:#000000;stroke-width:0.15;stroke-linecap:square;stroke-linejoin:round;stroke-miterlimit:4;stroke-dasharray:none;stroke-opacity:1"
         id="path1405-9-1-4"
         sodipodi:nodetypes="ccccccccccccccccccccccc" />
      <path
         d="m 21.214112,43.663938 c 0.16457,0 0.25643,0.0043 0.41144,0 0.12343,-0.04203 -0.0411,-0.252156 0.0411,-0.336207 0.12343,-0.126078 0.28801,-0.126078 0.3703,0 0.0823,0.08405 -0.12343,0.252154 0,0.336207 0.0823,0 0.37099,-0.0024 0.45259,0 v 0.378232 c 0,0.126076 0.0411,0.126076 0.12343,0.04202 0.0823,-0.08405 0.28801,0.168104 0.20573,0.294182 -0.0415,0.0847 -0.16458,0.168103 -0.25342,0.108792 -0.11689,-0.02473 -0.0744,0.150721 -0.0757,0.227419 0.005,0.09512 0,0.126075 0,0.252153 h -0.45259 c -0.12343,-0.08405 0.0823,-0.252153 0,-0.336206 -0.0823,-0.126078 -0.24687,-0.126078 -0.3703,0 -0.0823,0.08406 0.0823,0.29418 -0.0411,0.336206 -0.130749,-0.0014 -0.280549,0.0062 -0.411439,0 v -0.252153 c 0,-0.08406 -0.0411,-0.294182 0.0823,-0.252157 0.0823,0.04202 0.20573,0 0.24687,-0.08405 0.0823,-0.126078 -0.12343,-0.378233 -0.20572,-0.294183 -0.0823,0.08406 -0.12343,0.08406 -0.12343,-0.04202 0,-0.126078 0.006,-0.259954 0,-0.378232 z"
         style="fill:none;stroke:#000000;stroke-width:0.15;stroke-linecap:square;stroke-linejoin:round;stroke-miterlimit:4;stroke-dasharray:none;stroke-opacity:1"
         id="path1405-9-1-1"
         sodipodi:nodetypes="ccccccccccccccccccccccc" />
      <path
         d="m 18.568279,47.632688 c 0.16457,0 0.25643,0.0043 0.41144,0 0.12343,-0.04203 -0.0411,-0.252156 0.0411,-0.336207 0.12343,-0.126078 0.28801,-0.126078 0.3703,0 0.0823,0.08405 -0.12343,0.252154 0,0.336207 0.0823,0 0.37099,-0.0024 0.45259,0 v 0.378232 c 0,0.126076 0.0411,0.126076 0.12343,0.04202 0.0823,-0.08405 0.28801,0.168104 0.20573,0.294182 -0.0415,0.0847 -0.16458,0.168103 -0.25342,0.108792 -0.11689,-0.02473 -0.0744,0.150721 -0.0757,0.227419 0.005,0.09512 0,0.126075 0,0.252153 h -0.45259 c -0.12343,-0.08405 0.0823,-0.252153 0,-0.336206 -0.0823,-0.126078 -0.24687,-0.126078 -0.3703,0 -0.0823,0.08406 0.0823,0.29418 -0.0411,0.336206 -0.130749,-0.0014 -0.280549,0.0062 -0.411439,0 v -0.252153 c 0,-0.08406 -0.0411,-0.294182 0.0823,-0.252157 0.0823,0.04202 0.20573,0 0.24687,-0.08405 0.0823,-0.126078 -0.12343,-0.378233 -0.20572,-0.294183 -0.0823,0.08406 -0.12343,0.08406 -0.12343,-0.04202 0,-0.126078 0.006,-0.259954 0,-0.378232 z"
         style="fill:none;stroke:#000000;stroke-width:0.15;stroke-linecap:square;stroke-linejoin:round;stroke-miterlimit:4;stroke-dasharray:none;stroke-opacity:1"
         id="path1405-9-1-43"
         sodipodi:nodetypes="ccccccccccccccccccccccc" />
      <path
         d="m 13.276612,46.309772 c 0.16457,0 0.25643,0.0043 0.41144,0 0.12343,-0.04203 -0.0411,-0.252156 0.0411,-0.336207 0.12343,-0.126078 0.28801,-0.126078 0.3703,0 0.0823,0.08405 -0.12343,0.252154 0,0.336207 0.0823,0 0.37099,-0.0024 0.45259,0 v 0.378232 c 0,0.126076 0.0411,0.126076 0.12343,0.04202 0.0823,-0.08405 0.28801,0.168104 0.20573,0.294182 -0.0415,0.0847 -0.16458,0.168103 -0.25342,0.108792 -0.11689,-0.02473 -0.0744,0.150721 -0.0757,0.227419 0.005,0.09512 0,0.126075 0,0.252153 h -0.45259 c -0.12343,-0.08405 0.0823,-0.252153 0,-0.336206 -0.0823,-0.126078 -0.24687,-0.126078 -0.3703,0 -0.0823,0.08406 0.0823,0.29418 -0.0411,0.336206 -0.130749,-0.0014 -0.280549,0.0062 -0.411439,0 v -0.252153 c 0,-0.08406 -0.0411,-0.294182 0.0823,-0.252157 0.0823,0.04202 0.20573,0 0.24687,-0.08405 0.0823,-0.126078 -0.12343,-0.378233 -0.20572,-0.294183 -0.0823,0.08406 -0.12343,0.08406 -0.12343,-0.04202 0,-0.126078 0.006,-0.259954 0,-0.378232 z"
         style="fill:none;stroke:#000000;stroke-width:0.15;stroke-linecap:square;stroke-linejoin:round;stroke-miterlimit:4;stroke-dasharray:none;stroke-opacity:1"
         id="path1405-9-1-00"
         sodipodi:nodetypes="ccccccccccccccccccccccc" />
      <path
         d="m 11.953696,48.955605 c 0.16457,0 0.25643,0.0043 0.41144,0 0.12343,-0.04203 -0.0411,-0.252156 0.0411,-0.336207 0.12343,-0.126078 0.28801,-0.126078 0.3703,0 0.0823,0.08405 -0.12343,0.252154 0,0.336207 0.0823,0 0.37099,-0.0024 0.45259,0 v 0.378232 c 0,0.126076 0.0411,0.126076 0.12343,0.04202 0.0823,-0.08405 0.28801,0.168104 0.20573,0.294182 -0.0415,0.0847 -0.16458,0.168103 -0.25342,0.108792 -0.11689,-0.02473 -0.0744,0.150721 -0.0757,0.227419 0.005,0.09512 0,0.126075 0,0.252153 h -0.45259 c -0.12343,-0.08405 0.0823,-0.252153 0,-0.336206 -0.0823,-0.126078 -0.24687,-0.126078 -0.3703,0 -0.0823,0.08406 0.0823,0.29418 -0.0411,0.336206 -0.130749,-0.0014 -0.280549,0.0062 -0.411439,0 V 50.00625 c 0,-0.08406 -0.0411,-0.294182 0.0823,-0.252157 0.0823,0.04202 0.20573,0 0.24687,-0.08405 0.0823,-0.126078 -0.12343,-0.378233 -0.20572,-0.294183 -0.0823,0.08406 -0.12343,0.08406 -0.12343,-0.04202 0,-0.126078 0.006,-0.259954 0,-0.378232 z"
         style="fill:none;stroke:#000000;stroke-width:0.15;stroke-linecap:square;stroke-linejoin:round;stroke-miterlimit:4;stroke-dasharray:none;stroke-opacity:1"
         id="path1405-9-1-41"
         sodipodi:nodetypes="ccccccccccccccccccccccc" />
      <path
         d="m 21.214112,60.861855 c 0.16457,0 0.25643,0.0043 0.41144,0 0.12343,-0.04203 -0.0411,-0.252156 0.0411,-0.336207 0.12343,-0.126078 0.28801,-0.126078 0.3703,0 0.0823,0.08405 -0.12343,0.252154 0,0.336207 0.0823,0 0.37099,-0.0024 0.45259,0 v 0.378232 c 0,0.126076 0.0411,0.126076 0.12343,0.04202 0.0823,-0.08405 0.28801,0.168104 0.20573,0.294182 -0.0415,0.0847 -0.16458,0.168103 -0.25342,0.108792 -0.11689,-0.02473 -0.0744,0.150721 -0.0757,0.227419 0.005,0.09512 0,0.126075 0,0.252153 h -0.45259 c -0.12343,-0.08405 0.0823,-0.252153 0,-0.336206 -0.0823,-0.126078 -0.24687,-0.126078 -0.3703,0 -0.0823,0.08406 0.0823,0.29418 -0.0411,0.336206 -0.130749,-0.0014 -0.280549,0.0062 -0.411439,0 V 61.9125 c 0,-0.08406 -0.0411,-0.294182 0.0823,-0.252157 0.0823,0.04202 0.20573,0 0.24687,-0.08405 0.0823,-0.126078 -0.12343,-0.378233 -0.20572,-0.294183 -0.0823,0.08406 -0.12343,0.08406 -0.12343,-0.04202 0,-0.126078 0.006,-0.259954 0,-0.378232 z"
         style="fill:none;stroke:#000000;stroke-width:0.15;stroke-linecap:square;stroke-linejoin:round;stroke-miterlimit:4;stroke-dasharray:none;stroke-opacity:1"
         id="path1405-9-1-13"
         sodipodi:nodetypes="ccccccccccccccccccccccc" />
      <path
         d="m 23.859946,58.216022 c 0.16457,0 0.25643,0.0043 0.41144,0 0.12343,-0.04203 -0.0411,-0.252156 0.0411,-0.336207 0.12343,-0.126078 0.28801,-0.126078 0.3703,0 0.0823,0.08405 -0.12343,0.252154 0,0.336207 0.0823,0 0.37099,-0.0024 0.45259,0 v 0.378232 c 0,0.126076 0.0411,0.126076 0.12343,0.04202 0.0823,-0.08405 0.28801,0.168104 0.20573,0.294182 -0.0415,0.0847 -0.16458,0.168103 -0.25342,0.108792 -0.11689,-0.02473 -0.0744,0.150721 -0.0757,0.227419 0.005,0.09512 0,0.126075 0,0.252153 h -0.45259 c -0.12343,-0.08405 0.0823,-0.252153 0,-0.336206 -0.0823,-0.126078 -0.24687,-0.126078 -0.3703,0 -0.0823,0.08406 0.0823,0.29418 -0.0411,0.336206 -0.130749,-0.0014 -0.280549,0.0062 -0.411439,0 v -0.252153 c 0,-0.08406 -0.0411,-0.294182 0.0823,-0.252157 0.0823,0.04202 0.20573,0 0.24687,-0.08405 0.0823,-0.126078 -0.12343,-0.378233 -0.20572,-0.294183 -0.0823,0.08406 -0.12343,0.08406 -0.12343,-0.04202 0,-0.126078 0.006,-0.259954 0,-0.378232 z"
         style="fill:none;stroke:#000000;stroke-width:0.15;stroke-linecap:square;stroke-linejoin:round;stroke-miterlimit:4;stroke-dasharray:none;stroke-opacity:1"
         id="path1405-9-1-5"
         sodipodi:nodetypes="ccccccccccccccccccccccc" />
      <path
         d="m 26.505779,58.216022 c 0.16457,0 0.25643,0.0043 0.41144,0 0.12343,-0.04203 -0.0411,-0.252156 0.0411,-0.336207 0.12343,-0.126078 0.28801,-0.126078 0.3703,0 0.0823,0.08405 -0.12343,0.252154 0,0.336207 0.0823,0 0.37099,-0.0024 0.45259,0 v 0.378232 c 0,0.126076 0.0411,0.126076 0.12343,0.04202 0.0823,-0.08405 0.28801,0.168104 0.20573,0.294182 -0.0415,0.0847 -0.16458,0.168103 -0.25342,0.108792 -0.11689,-0.02473 -0.0744,0.150721 -0.0757,0.227419 0.005,0.09512 0,0.126075 0,0.252153 h -0.45259 c -0.12343,-0.08405 0.0823,-0.252153 0,-0.336206 -0.0823,-0.126078 -0.24687,-0.126078 -0.3703,0 -0.0823,0.08406 0.0823,0.29418 -0.0411,0.336206 -0.130749,-0.0014 -0.280549,0.0062 -0.411439,0 v -0.252153 c 0,-0.08406 -0.0411,-0.294182 0.0823,-0.252157 0.0823,0.04202 0.20573,0 0.24687,-0.08405 0.0823,-0.126078 -0.12343,-0.378233 -0.20572,-0.294183 -0.0823,0.08406 -0.12343,0.08406 -0.12343,-0.04202 0,-0.126078 0.006,-0.259954 0,-0.378232 z"
         style="fill:none;stroke:#000000;stroke-width:0.15;stroke-linecap:square;stroke-linejoin:round;stroke-miterlimit:4;stroke-dasharray:none;stroke-opacity:1"
         id="path1405-9-1-77"
         sodipodi:nodetypes="ccccccccccccccccccccccc" />
      <path
         d="m 29.151612,58.216022 c 0.16457,0 0.25643,0.0043 0.41144,0 0.12343,-0.04203 -0.0411,-0.252156 0.0411,-0.336207 0.12343,-0.126078 0.28801,-0.126078 0.3703,0 0.0823,0.08405 -0.12343,0.252154 0,0.336207 0.0823,0 0.37099,-0.0024 0.45259,0 v 0.378232 c 0,0.126076 0.0411,0.126076 0.12343,0.04202 0.0823,-0.08405 0.28801,0.168104 0.20573,0.294182 -0.0415,0.0847 -0.16458,0.168103 -0.25342,0.108792 -0.11689,-0.02473 -0.0744,0.150721 -0.0757,0.227419 0.005,0.09512 0,0.126075 0,0.252153 h -0.45259 c -0.12343,-0.08405 0.0823,-0.252153 0,-0.336206 -0.0823,-0.126078 -0.24687,-0.126078 -0.3703,0 -0.0823,0.08406 0.0823,0.29418 -0.0411,0.336206 -0.130749,-0.0014 -0.280549,0.0062 -0.411439,0 v -0.252153 c 0,-0.08406 -0.0411,-0.294182 0.0823,-0.252157 0.0823,0.04202 0.20573,0 0.24687,-0.08405 0.0823,-0.126078 -0.12343,-0.378233 -0.20572,-0.294183 -0.0823,0.08406 -0.12343,0.08406 -0.12343,-0.04202 0,-0.126078 0.006,-0.259954 0,-0.378232 z"
         style="fill:none;stroke:#000000;stroke-width:0.15;stroke-linecap:square;stroke-linejoin:round;stroke-miterlimit:4;stroke-dasharray:none;stroke-opacity:1"
         id="path1405-9-1-53"
         sodipodi:nodetypes="ccccccccccccccccccccccc" />
      <path
         d="m 30.474529,62.184772 c 0.16457,0 0.25643,0.0043 0.41144,0 0.12343,-0.04203 -0.0411,-0.252156 0.0411,-0.336207 0.12343,-0.126078 0.28801,-0.126078 0.3703,0 0.0823,0.08405 -0.12343,0.252154 0,0.336207 0.0823,0 0.37099,-0.0024 0.45259,0 v 0.378232 c 0,0.126076 0.0411,0.126076 0.12343,0.04202 0.0823,-0.08405 0.28801,0.168104 0.20573,0.294182 -0.0415,0.0847 -0.16458,0.168103 -0.25342,0.108792 -0.11689,-0.02473 -0.0744,0.150721 -0.0757,0.227419 0.005,0.09512 0,0.126075 0,0.252153 h -0.45259 c -0.12343,-0.08405 0.0823,-0.252153 0,-0.336206 -0.0823,-0.126078 -0.24687,-0.126078 -0.3703,0 -0.0823,0.08406 0.0823,0.29418 -0.0411,0.336206 -0.130749,-0.0014 -0.280549,0.0062 -0.411439,0 v -0.252153 c 0,-0.08406 -0.0411,-0.294182 0.0823,-0.252157 0.0823,0.04202 0.20573,0 0.24687,-0.08405 0.0823,-0.126078 -0.12343,-0.378233 -0.20572,-0.294183 -0.0823,0.08406 -0.12343,0.08406 -0.12343,-0.04202 0,-0.126078 0.006,-0.259954 0,-0.378232 z"
         style="fill:none;stroke:#000000;stroke-width:0.15;stroke-linecap:square;stroke-linejoin:round;stroke-miterlimit:4;stroke-dasharray:none;stroke-opacity:1"
         id="path1405-9-1-6"
         sodipodi:nodetypes="ccccccccccccccccccccccc" />
      <path
         d="m 42.380779,59.538938 c 0.16457,0 0.25643,0.0043 0.41144,0 0.12343,-0.04203 -0.0411,-0.252156 0.0411,-0.336207 0.12343,-0.126078 0.28801,-0.126078 0.3703,0 0.0823,0.08405 -0.12343,0.252154 0,0.336207 0.0823,0 0.37099,-0.0024 0.45259,0 v 0.378232 c 0,0.126076 0.0411,0.126076 0.12343,0.04202 0.0823,-0.08405 0.28801,0.168104 0.20573,0.294182 -0.0415,0.0847 -0.16458,0.168103 -0.25342,0.108792 -0.11689,-0.02473 -0.0744,0.150721 -0.0757,0.227419 0.005,0.09512 0,0.126075 0,0.252153 h -0.45259 c -0.12343,-0.08405 0.0823,-0.252153 0,-0.336206 -0.0823,-0.126078 -0.24687,-0.126078 -0.3703,0 -0.0823,0.08406 0.0823,0.29418 -0.0411,0.336206 -0.130749,-0.0014 -0.280549,0.0062 -0.411439,0 v -0.252153 c 0,-0.08406 -0.0411,-0.294182 0.0823,-0.252157 0.0823,0.04202 0.20573,0 0.24687,-0.08405 0.0823,-0.126078 -0.12343,-0.378233 -0.20572,-0.294183 -0.0823,0.08406 -0.12343,0.08406 -0.12343,-0.04202 0,-0.126078 0.006,-0.259954 0,-0.378232 z"
         style="fill:none;stroke:#000000;stroke-width:0.15;stroke-linecap:square;stroke-linejoin:round;stroke-miterlimit:4;stroke-dasharray:none;stroke-opacity:1"
         id="path1405-9-1-3"
         sodipodi:nodetypes="ccccccccccccccccccccccc" />
      <path
         d="m 33.120362,56.893105 c 0.16457,0 0.25643,0.0043 0.41144,0 0.12343,-0.04203 -0.0411,-0.252156 0.0411,-0.336207 0.12343,-0.126078 0.28801,-0.126078 0.3703,0 0.0823,0.08405 -0.12343,0.252154 0,0.336207 0.0823,0 0.37099,-0.0024 0.45259,0 v 0.378232 c 0,0.126076 0.0411,0.126076 0.12343,0.04202 0.0823,-0.08405 0.28801,0.168104 0.20573,0.294182 -0.0415,0.0847 -0.16458,0.168103 -0.25342,0.108792 -0.11689,-0.02473 -0.0744,0.150721 -0.0757,0.227419 0.005,0.09512 0,0.126075 0,0.252153 h -0.45259 c -0.12343,-0.08405 0.0823,-0.252153 0,-0.336206 -0.0823,-0.126078 -0.24687,-0.126078 -0.3703,0 -0.0823,0.08406 0.0823,0.29418 -0.0411,0.336206 -0.130749,-0.0014 -0.280549,0.0062 -0.411439,0 V 57.94375 c 0,-0.08406 -0.0411,-0.294182 0.0823,-0.252157 0.0823,0.04202 0.20573,0 0.24687,-0.08405 0.0823,-0.126078 -0.12343,-0.378233 -0.20572,-0.294183 -0.0823,0.08406 -0.12343,0.08406 -0.12343,-0.04202 0,-0.126078 0.006,-0.259954 0,-0.378232 z"
         style="fill:none;stroke:#000000;stroke-width:0.15;stroke-linecap:square;stroke-linejoin:round;stroke-miterlimit:4;stroke-dasharray:none;stroke-opacity:1"
         id="path1405-9-1-57"
         sodipodi:nodetypes="ccccccccccccccccccccccc" />
      <path
         d="m 7.9849456,59.538938 c 0.16457,0 0.25643,0.0043 0.41144,0 0.12343,-0.04203 -0.0411,-0.252156 0.0411,-0.336207 0.12343,-0.126078 0.2880101,-0.126078 0.3703,0 0.0823,0.08405 -0.12343,0.252154 0,0.336207 0.0823,0 0.3709901,-0.0024 0.4525901,0 v 0.378232 c 0,0.126076 0.0411,0.126076 0.12343,0.04202 0.0823,-0.08405 0.28801,0.168104 0.20573,0.294182 -0.0415,0.0847 -0.16458,0.168103 -0.25342,0.108792 -0.11689,-0.02473 -0.0744,0.150721 -0.0757,0.227419 0.005,0.09512 0,0.126075 0,0.252153 h -0.45259 c -0.1234301,-0.08405 0.0823,-0.252153 0,-0.336206 -0.0823,-0.126078 -0.2468701,-0.126078 -0.3703001,0 -0.0823,0.08406 0.0823,0.29418 -0.0411,0.336206 -0.1307489,-0.0014 -0.2805489,0.0062 -0.411439,0 v -0.252153 c 0,-0.08406 -0.0411,-0.294182 0.0823,-0.252157 0.0823,0.04202 0.2057299,0 0.24687,-0.08405 0.0823,-0.126078 -0.12343,-0.378233 -0.20572,-0.294183 -0.0823,0.08406 -0.1234301,0.08406 -0.1234301,-0.04202 0,-0.126078 0.006,-0.259954 0,-0.378232 z"
         style="fill:none;stroke:#000000;stroke-width:0.15;stroke-linecap:square;stroke-linejoin:round;stroke-miterlimit:4;stroke-dasharray:none;stroke-opacity:1"
         id="path1405-9-1-533"
         sodipodi:nodetypes="ccccccccccccccccccccccc" />
      <path
         d="m 34.443279,50.278522 c 0.16457,0 0.25643,0.0043 0.41144,0 0.12343,-0.04203 -0.0411,-0.252156 0.0411,-0.336207 0.12343,-0.126078 0.28801,-0.126078 0.3703,0 0.0823,0.08405 -0.12343,0.252154 0,0.336207 0.0823,0 0.37099,-0.0024 0.45259,0 v 0.378232 c 0,0.126076 0.0411,0.126076 0.12343,0.04202 0.0823,-0.08405 0.28801,0.168104 0.20573,0.294182 -0.0415,0.0847 -0.16458,0.168103 -0.25342,0.108792 -0.11689,-0.02473 -0.0744,0.150721 -0.0757,0.227419 0.005,0.09512 0,0.126075 0,0.252153 h -0.45259 c -0.12343,-0.08405 0.0823,-0.252153 0,-0.336206 -0.0823,-0.126078 -0.24687,-0.126078 -0.3703,0 -0.0823,0.08406 0.0823,0.29418 -0.0411,0.336206 -0.130749,-0.0014 -0.280549,0.0062 -0.411439,0 v -0.252153 c 0,-0.08406 -0.0411,-0.294182 0.0823,-0.252157 0.0823,0.04202 0.20573,0 0.24687,-0.08405 0.0823,-0.126078 -0.12343,-0.378233 -0.20572,-0.294183 -0.0823,0.08406 -0.12343,0.08406 -0.12343,-0.04202 0,-0.126078 0.006,-0.259954 0,-0.378232 z"
         style="fill:none;stroke:#000000;stroke-width:0.15;stroke-linecap:square;stroke-linejoin:round;stroke-miterlimit:4;stroke-dasharray:none;stroke-opacity:1"
         id="path1405-9-1-28"
         sodipodi:nodetypes="ccccccccccccccccccccccc" />
      <path
         d="m 33.120362,44.986855 c 0.16457,0 0.25643,0.0043 0.41144,0 0.12343,-0.04203 -0.0411,-0.252156 0.0411,-0.336207 0.12343,-0.126078 0.28801,-0.126078 0.3703,0 0.0823,0.08405 -0.12343,0.252154 0,0.336207 0.0823,0 0.37099,-0.0024 0.45259,0 v 0.378232 c 0,0.126076 0.0411,0.126076 0.12343,0.04202 0.0823,-0.08405 0.28801,0.168104 0.20573,0.294182 -0.0415,0.0847 -0.16458,0.168103 -0.25342,0.108792 -0.11689,-0.02473 -0.0744,0.150721 -0.0757,0.227419 0.005,0.09512 0,0.126075 0,0.252153 h -0.45259 c -0.12343,-0.08405 0.0823,-0.252153 0,-0.336206 -0.0823,-0.126078 -0.24687,-0.126078 -0.3703,0 -0.0823,0.08406 0.0823,0.29418 -0.0411,0.336206 -0.130749,-0.0014 -0.280549,0.0062 -0.411439,0 V 46.0375 c 0,-0.08406 -0.0411,-0.294182 0.0823,-0.252157 0.0823,0.04202 0.20573,0 0.24687,-0.08405 0.0823,-0.126078 -0.12343,-0.378233 -0.20572,-0.294183 -0.0823,0.08406 -0.12343,0.08406 -0.12343,-0.04202 0,-0.126078 0.006,-0.259954 0,-0.378232 z"
         style="fill:none;stroke:#000000;stroke-width:0.15;stroke-linecap:square;stroke-linejoin:round;stroke-miterlimit:4;stroke-dasharray:none;stroke-opacity:1"
         id="path1405-9-1-26"
         sodipodi:nodetypes="ccccccccccccccccccccccc" />
      <path
         d="m 38.412029,44.986855 c 0.16457,0 0.25643,0.0043 0.41144,0 0.12343,-0.04203 -0.0411,-0.252156 0.0411,-0.336207 0.12343,-0.126078 0.28801,-0.126078 0.3703,0 0.0823,0.08405 -0.12343,0.252154 0,0.336207 0.0823,0 0.37099,-0.0024 0.45259,0 v 0.378232 c 0,0.126076 0.0411,0.126076 0.12343,0.04202 0.0823,-0.08405 0.28801,0.168104 0.20573,0.294182 -0.0415,0.0847 -0.16458,0.168103 -0.25342,0.108792 -0.11689,-0.02473 -0.0744,0.150721 -0.0757,0.227419 0.005,0.09512 0,0.126075 0,0.252153 h -0.45259 c -0.12343,-0.08405 0.0823,-0.252153 0,-0.336206 -0.0823,-0.126078 -0.24687,-0.126078 -0.3703,0 -0.0823,0.08406 0.0823,0.29418 -0.0411,0.336206 -0.130749,-0.0014 -0.280549,0.0062 -0.411439,0 V 46.0375 c 0,-0.08406 -0.0411,-0.294182 0.0823,-0.252157 0.0823,0.04202 0.20573,0 0.24687,-0.08405 0.0823,-0.126078 -0.12343,-0.378233 -0.20572,-0.294183 -0.0823,0.08406 -0.12343,0.08406 -0.12343,-0.04202 0,-0.126078 0.006,-0.259954 0,-0.378232 z"
         style="fill:none;stroke:#000000;stroke-width:0.15;stroke-linecap:square;stroke-linejoin:round;stroke-miterlimit:4;stroke-dasharray:none;stroke-opacity:1"
         id="path1405-9-1-8"
         sodipodi:nodetypes="ccccccccccccccccccccccc" />
      <path
         d="m 42.380779,44.986855 c 0.16457,0 0.25643,0.0043 0.41144,0 0.12343,-0.04203 -0.0411,-0.252156 0.0411,-0.336207 0.12343,-0.126078 0.28801,-0.126078 0.3703,0 0.0823,0.08405 -0.12343,0.252154 0,0.336207 0.0823,0 0.37099,-0.0024 0.45259,0 v 0.378232 c 0,0.126076 0.0411,0.126076 0.12343,0.04202 0.0823,-0.08405 0.28801,0.168104 0.20573,0.294182 -0.0415,0.0847 -0.16458,0.168103 -0.25342,0.108792 -0.11689,-0.02473 -0.0744,0.150721 -0.0757,0.227419 0.005,0.09512 0,0.126075 0,0.252153 h -0.45259 c -0.12343,-0.08405 0.0823,-0.252153 0,-0.336206 -0.0823,-0.126078 -0.24687,-0.126078 -0.3703,0 -0.0823,0.08406 0.0823,0.29418 -0.0411,0.336206 -0.130749,-0.0014 -0.280549,0.0062 -0.411439,0 V 46.0375 c 0,-0.08406 -0.0411,-0.294182 0.0823,-0.252157 0.0823,0.04202 0.20573,0 0.24687,-0.08405 0.0823,-0.126078 -0.12343,-0.378233 -0.20572,-0.294183 -0.0823,0.08406 -0.12343,0.08406 -0.12343,-0.04202 0,-0.126078 0.006,-0.259954 0,-0.378232 z"
         style="fill:none;stroke:#000000;stroke-width:0.15;stroke-linecap:square;stroke-linejoin:round;stroke-miterlimit:4;stroke-dasharray:none;stroke-opacity:1"
         id="path1405-9-1-42"
         sodipodi:nodetypes="ccccccccccccccccccccccc" />
      <path
         d="m 41.057862,48.955605 c 0.16457,0 0.25643,0.0043 0.41144,0 0.12343,-0.04203 -0.0411,-0.252156 0.0411,-0.336207 0.12343,-0.126078 0.28801,-0.126078 0.3703,0 0.0823,0.08405 -0.12343,0.252154 0,0.336207 0.0823,0 0.37099,-0.0024 0.45259,0 v 0.378232 c 0,0.126076 0.0411,0.126076 0.12343,0.04202 0.0823,-0.08405 0.28801,0.168104 0.20573,0.294182 -0.0415,0.0847 -0.16458,0.168103 -0.25342,0.108792 -0.11689,-0.02473 -0.0744,0.150721 -0.0757,0.227419 0.005,0.09512 0,0.126075 0,0.252153 h -0.45259 c -0.12343,-0.08405 0.0823,-0.252153 0,-0.336206 -0.0823,-0.126078 -0.24687,-0.126078 -0.3703,0 -0.0823,0.08406 0.0823,0.29418 -0.0411,0.336206 -0.130749,-0.0014 -0.280549,0.0062 -0.411439,0 V 50.00625 c 0,-0.08406 -0.0411,-0.294182 0.0823,-0.252157 0.0823,0.04202 0.20573,0 0.24687,-0.08405 0.0823,-0.126078 -0.12343,-0.378233 -0.20572,-0.294183 -0.0823,0.08406 -0.12343,0.08406 -0.12343,-0.04202 0,-0.126078 0.006,-0.259954 0,-0.378232 z"
         style="fill:none;stroke:#000000;stroke-width:0.15;stroke-linecap:square;stroke-linejoin:round;stroke-miterlimit:4;stroke-dasharray:none;stroke-opacity:1"
         id="path1405-9-1-51"
         sodipodi:nodetypes="ccccccccccccccccccccccc" />
      <path
         d="m 41.057862,41.018105 c 0.16457,0 0.25643,0.0043 0.41144,0 0.12343,-0.04203 -0.0411,-0.252156 0.0411,-0.336207 0.12343,-0.126078 0.28801,-0.126078 0.3703,0 0.0823,0.08405 -0.12343,0.252154 0,0.336207 0.0823,0 0.37099,-0.0024 0.45259,0 v 0.378232 c 0,0.126076 0.0411,0.126076 0.12343,0.04202 0.0823,-0.08405 0.28801,0.168104 0.20573,0.294182 -0.0415,0.0847 -0.16458,0.168103 -0.25342,0.108792 -0.11689,-0.02473 -0.0744,0.150721 -0.0757,0.227419 0.005,0.09512 0,0.126075 0,0.252153 h -0.45259 c -0.12343,-0.08405 0.0823,-0.252153 0,-0.336206 -0.0823,-0.126078 -0.24687,-0.126078 -0.3703,0 -0.0823,0.08406 0.0823,0.29418 -0.0411,0.336206 -0.130749,-0.0014 -0.280549,0.0062 -0.411439,0 V 42.06875 c 0,-0.08406 -0.0411,-0.294182 0.0823,-0.252157 0.0823,0.04202 0.20573,0 0.24687,-0.08405 0.0823,-0.126078 -0.12343,-0.378233 -0.20572,-0.294183 -0.0823,0.08406 -0.12343,0.08406 -0.12343,-0.04202 0,-0.126078 0.006,-0.259954 0,-0.378232 z"
         style="fill:none;stroke:#000000;stroke-width:0.15;stroke-linecap:square;stroke-linejoin:round;stroke-miterlimit:4;stroke-dasharray:none;stroke-opacity:1"
         id="path1405-9-1-772"
         sodipodi:nodetypes="ccccccccccccccccccccccc" />
      <path
         d="m 41.057862,35.726438 c 0.16457,0 0.25643,0.0043 0.41144,0 0.12343,-0.04203 -0.0411,-0.252156 0.0411,-0.336207 0.12343,-0.126078 0.28801,-0.126078 0.3703,0 0.0823,0.08405 -0.12343,0.252154 0,0.336207 0.0823,0 0.37099,-0.0024 0.45259,0 v 0.378232 c 0,0.126076 0.0411,0.126076 0.12343,0.04202 0.0823,-0.08405 0.28801,0.168104 0.20573,0.294182 -0.0415,0.0847 -0.16458,0.168103 -0.25342,0.108792 -0.11689,-0.02473 -0.0744,0.150721 -0.0757,0.227419 0.005,0.09512 0,0.126075 0,0.252153 h -0.45259 c -0.12343,-0.08405 0.0823,-0.252153 0,-0.336206 -0.0823,-0.126078 -0.24687,-0.126078 -0.3703,0 -0.0823,0.08406 0.0823,0.29418 -0.0411,0.336206 -0.130749,-0.0014 -0.280549,0.0062 -0.411439,0 v -0.252153 c 0,-0.08406 -0.0411,-0.294182 0.0823,-0.252157 0.0823,0.04202 0.20573,0 0.24687,-0.08405 0.0823,-0.126078 -0.12343,-0.378233 -0.20572,-0.294183 -0.0823,0.08406 -0.12343,0.08406 -0.12343,-0.04202 0,-0.126078 0.006,-0.259954 0,-0.378232 z"
         style="fill:none;stroke:#000000;stroke-width:0.15;stroke-linecap:square;stroke-linejoin:round;stroke-miterlimit:4;stroke-dasharray:none;stroke-opacity:1"
         id="path1405-9-1-284"
         sodipodi:nodetypes="ccccccccccccccccccccccc" />
      <path
         d="m 17.245362,54.247272 c 0.16457,0 0.25643,0.0043 0.41144,0 0.12343,-0.04203 -0.0411,-0.252156 0.0411,-0.336207 0.12343,-0.126078 0.28801,-0.126078 0.3703,0 0.0823,0.08405 -0.12343,0.252154 0,0.336207 0.0823,0 0.37099,-0.0024 0.45259,0 v 0.378232 c 0,0.126076 0.0411,0.126076 0.12343,0.04202 0.0823,-0.08405 0.28801,0.168104 0.20573,0.294182 -0.0415,0.0847 -0.16458,0.168103 -0.25342,0.108792 -0.11689,-0.02473 -0.0744,0.150721 -0.0757,0.227419 0.005,0.09512 0,0.126075 0,0.252153 h -0.45259 c -0.12343,-0.08405 0.0823,-0.252153 0,-0.336206 -0.0823,-0.126078 -0.24687,-0.126078 -0.3703,0 -0.0823,0.08406 0.0823,0.29418 -0.0411,0.336206 -0.130749,-0.0014 -0.280549,0.0062 -0.411439,0 v -0.252153 c 0,-0.08406 -0.0411,-0.294182 0.0823,-0.252157 0.0823,0.04202 0.20573,0 0.24687,-0.08405 0.0823,-0.126078 -0.12343,-0.378233 -0.20572,-0.294183 -0.0823,0.08406 -0.12343,0.08406 -0.12343,-0.04202 0,-0.126078 0.006,-0.259954 0,-0.378232 z"
         style="fill:none;stroke:#000000;stroke-width:0.15;stroke-linecap:square;stroke-linejoin:round;stroke-miterlimit:4;stroke-dasharray:none;stroke-opacity:1"
         id="path1405-9-1-12"
         sodipodi:nodetypes="ccccccccccccccccccccccc" />
      <path
         d="m 18.568279,59.538938 c 0.16457,0 0.25643,0.0043 0.41144,0 0.12343,-0.04203 -0.0411,-0.252156 0.0411,-0.336207 0.12343,-0.126078 0.28801,-0.126078 0.3703,0 0.0823,0.08405 -0.12343,0.252154 0,0.336207 0.0823,0 0.37099,-0.0024 0.45259,0 v 0.378232 c 0,0.126076 0.0411,0.126076 0.12343,0.04202 0.0823,-0.08405 0.28801,0.168104 0.20573,0.294182 -0.0415,0.0847 -0.16458,0.168103 -0.25342,0.108792 -0.11689,-0.02473 -0.0744,0.150721 -0.0757,0.227419 0.005,0.09512 0,0.126075 0,0.252153 h -0.45259 c -0.12343,-0.08405 0.0823,-0.252153 0,-0.336206 -0.0823,-0.126078 -0.24687,-0.126078 -0.3703,0 -0.0823,0.08406 0.0823,0.29418 -0.0411,0.336206 -0.130749,-0.0014 -0.280549,0.0062 -0.411439,0 v -0.252153 c 0,-0.08406 -0.0411,-0.294182 0.0823,-0.252157 0.0823,0.04202 0.20573,0 0.24687,-0.08405 0.0823,-0.126078 -0.12343,-0.378233 -0.20572,-0.294183 -0.0823,0.08406 -0.12343,0.08406 -0.12343,-0.04202 0,-0.126078 0.006,-0.259954 0,-0.378232 z"
         style="fill:none;stroke:#000000;stroke-width:0.15;stroke-linecap:square;stroke-linejoin:round;stroke-miterlimit:4;stroke-dasharray:none;stroke-opacity:1"
         id="path1405-9-1-11"
         sodipodi:nodetypes="ccccccccccccccccccccccc" />
    </g>
  </g>
</svg>
