<?xml version="1.0" encoding="UTF-8" standalone="no"?>
<svg
   xmlns:dc="http://purl.org/dc/elements/1.1/"
   xmlns:cc="http://creativecommons.org/ns#"
   xmlns:rdf="http://www.w3.org/1999/02/22-rdf-syntax-ns#"
   xmlns:svg="http://www.w3.org/2000/svg"
   xmlns="http://www.w3.org/2000/svg"
   xmlns:sodipodi="http://sodipodi.sourceforge.net/DTD/sodipodi-0.dtd"
   xmlns:inkscape="http://www.inkscape.org/namespaces/inkscape"
   sodipodi:docname="circles-6.svg"
   inkscape:version="1.0 (4035a4fb49, 2020-05-01)"
   id="svg2993"
   version="1.1"
   viewBox="0 0 299.56043 304.35624"
   height="304.35623mm"
   width="299.56042mm">
  <defs
     id="defs2987" />
  <sodipodi:namedview
     inkscape:window-maximized="0"
     inkscape:window-y="58"
     inkscape:window-x="155"
     inkscape:window-height="878"
     inkscape:window-width="1572"
     fit-margin-bottom="48"
     fit-margin-left="48"
     fit-margin-right="48"
     fit-margin-top="48"
     showgrid="false"
     inkscape:document-rotation="0"
     inkscape:current-layer="layer1"
     inkscape:document-units="mm"
     inkscape:cy="655.1614"
     inkscape:cx="566.18148"
     inkscape:zoom="1"
     inkscape:pageshadow="2"
     inkscape:pageopacity="0.0"
     borderopacity="1.0"
     bordercolor="#666666"
     pagecolor="#ffffff"
     id="base" />
  <metadata
     id="metadata2990">
    <rdf:RDF>
      <cc:Work
         rdf:about="">
        <dc:format>image/svg+xml</dc:format>
        <dc:type
           rdf:resource="http://purl.org/dc/dcmitype/StillImage" />
        <dc:title></dc:title>
      </cc:Work>
    </rdf:RDF>
  </metadata>
  <g
     transform="translate(-56.282937,-0.0181739)"
     id="layer1"
     inkscape:groupmode="layer"
     inkscape:label="Layer 1">
    <g
       transform="matrix(5,0,0,5,-824.25265,-608.78519)"
       id="g908">
      <ellipse
         style="fill:none;stroke:#000000;stroke-width:0.2;stroke-miterlimit:4;stroke-dasharray:none;stroke-opacity:1"
         id="path1505-9-8"
         cx="202.71094"
         cy="150.63124"
         rx="16.90382"
         ry="8.0450039" />
      <ellipse
         ry="8.0450039"
         rx="16.90382"
         cy="-151.82864"
         cx="204.66566"
         id="path1505-9-8-3"
         style="fill:none;stroke:#ff0000;stroke-width:0.2;stroke-miterlimit:4;stroke-dasharray:none;stroke-opacity:1"
         transform="rotate(72)" />
      <ellipse
         ry="8.0450039"
         rx="16.90382"
         cy="-247.4359"
         cx="-82.081802"
         id="path1505-9-8-9"
         style="fill:none;stroke:#000000;stroke-width:0.2;stroke-miterlimit:4;stroke-dasharray:none;stroke-opacity:1"
         transform="rotate(144)" />
      <ellipse
         transform="rotate(-144)"
         style="fill:none;stroke:#000000;stroke-width:0.2;stroke-miterlimit:4;stroke-dasharray:none;stroke-opacity:1"
         id="path1505-9-8-3-4"
         cx="-261.9375"
         cy="-3.880455"
         rx="16.90382"
         ry="8.0450039" />
      <ellipse
         transform="rotate(-72)"
         style="fill:none;stroke:#000000;stroke-width:0.2;stroke-miterlimit:4;stroke-dasharray:none;stroke-opacity:1"
         id="path1505-9-8-9-3"
         cx="-86.069763"
         cy="242.07213"
         rx="16.90382"
         ry="8.0450039" />
      <path
         d="m 200.09738,135.12713 c 0.16457,0 0.25643,0.004 0.41144,0 0.12343,-0.042 -0.0411,-0.25216 0.0411,-0.33621 0.12343,-0.12607 0.28801,-0.12607 0.3703,0 0.0823,0.084 -0.12343,0.25216 0,0.33621 0.0823,0 0.37099,-0.002 0.45259,0 v 0.37823 c 0,0.12608 0.0411,0.12608 0.12343,0.042 0.0823,-0.084 0.28801,0.16811 0.20573,0.29418 -0.0415,0.0847 -0.16458,0.16811 -0.25342,0.1088 -0.11689,-0.0247 -0.0744,0.15072 -0.0757,0.22742 0.005,0.0951 0,0.12607 0,0.25215 h -0.45259 c -0.12343,-0.0841 0.0823,-0.25215 0,-0.33621 -0.0823,-0.12608 -0.24687,-0.12608 -0.3703,0 -0.0823,0.0841 0.0823,0.29418 -0.0411,0.33621 -0.13075,-0.001 -0.28055,0.006 -0.41144,0 v -0.25215 c 0,-0.0841 -0.0411,-0.29419 0.0823,-0.25216 0.0823,0.042 0.20573,0 0.24687,-0.0841 0.0823,-0.12608 -0.12343,-0.37823 -0.20572,-0.29418 -0.0823,0.0841 -0.12343,0.0841 -0.12343,-0.042 0,-0.12608 0.006,-0.25996 0,-0.37824 z"
         style="fill:none;stroke:#000000;stroke-width:0.15;stroke-linecap:square;stroke-linejoin:round;stroke-miterlimit:4;stroke-dasharray:none;stroke-opacity:1"
         id="path1405-9-82-0-0-1-4-39-2"
         sodipodi:nodetypes="ccccccccccccccccccccccc" />
      <path
         d="m 207.47027,135.35737 c 0.16457,0 0.25643,0.004 0.41144,0 0.12343,-0.042 -0.0411,-0.25216 0.0411,-0.33621 0.12343,-0.12607 0.28801,-0.12607 0.3703,0 0.0823,0.084 -0.12343,0.25216 0,0.33621 0.0823,0 0.37099,-0.002 0.45259,0 v 0.37823 c 0,0.12608 0.0411,0.12608 0.12343,0.042 0.0823,-0.084 0.28801,0.16811 0.20573,0.29418 -0.0415,0.0847 -0.16458,0.16811 -0.25342,0.1088 -0.11689,-0.0247 -0.0744,0.15072 -0.0757,0.22742 0.005,0.0951 0,0.12607 0,0.25215 h -0.45259 c -0.12343,-0.0841 0.0823,-0.25215 0,-0.33621 -0.0823,-0.12608 -0.24687,-0.12608 -0.3703,0 -0.0823,0.0841 0.0823,0.29418 -0.0411,0.33621 -0.13075,-10e-4 -0.28055,0.006 -0.41144,0 V 136.408 c 0,-0.0841 -0.0411,-0.29419 0.0823,-0.25216 0.0823,0.042 0.20573,0 0.24687,-0.0841 0.0823,-0.12608 -0.12343,-0.37823 -0.20572,-0.29418 -0.0823,0.0841 -0.12343,0.0841 -0.12343,-0.042 0,-0.12608 0.006,-0.25996 0,-0.37824 z"
         style="fill:none;stroke:#000000;stroke-width:0.15;stroke-linecap:square;stroke-linejoin:round;stroke-miterlimit:4;stroke-dasharray:none;stroke-opacity:1"
         id="path1405-9-82-0-0-1-4-39-5"
         sodipodi:nodetypes="ccccccccccccccccccccccc" />
      <path
         d="m 212.70631,142.60655 c 0.16457,0 0.25643,0.004 0.41144,0 0.12343,-0.042 -0.0411,-0.25216 0.0411,-0.33621 0.12343,-0.12607 0.28801,-0.12607 0.3703,0 0.0823,0.084 -0.12343,0.25216 0,0.33621 0.0823,0 0.37099,-0.002 0.45259,0 v 0.37823 c 0,0.12608 0.0411,0.12608 0.12343,0.042 0.0823,-0.084 0.28801,0.16811 0.20573,0.29418 -0.0415,0.0847 -0.16458,0.16811 -0.25342,0.1088 -0.11689,-0.0247 -0.0744,0.15072 -0.0757,0.22742 0.005,0.0951 0,0.12607 0,0.25215 h -0.45259 c -0.12343,-0.0841 0.0823,-0.25215 0,-0.33621 -0.0823,-0.12608 -0.24687,-0.12608 -0.3703,0 -0.0823,0.0841 0.0823,0.29418 -0.0411,0.33621 -0.13075,-0.001 -0.28055,0.006 -0.41144,0 v -0.25215 c 0,-0.0841 -0.0411,-0.29419 0.0823,-0.25216 0.0823,0.042 0.20573,0 0.24687,-0.0841 0.0823,-0.12608 -0.12343,-0.37823 -0.20572,-0.29418 -0.0823,0.0841 -0.12343,0.0841 -0.12343,-0.042 0,-0.12608 0.006,-0.25996 0,-0.37824 z"
         style="fill:none;stroke:#000000;stroke-width:0.15;stroke-linecap:square;stroke-linejoin:round;stroke-miterlimit:4;stroke-dasharray:none;stroke-opacity:1"
         id="path1405-9-82-0-0-1-4-39-8"
         sodipodi:nodetypes="ccccccccccccccccccccccc" />
      <path
         d="m 212.48667,161.63256 c 0.16457,0 0.25643,0.004 0.41144,0 0.12343,-0.042 -0.0411,-0.25216 0.0411,-0.33621 0.12343,-0.12607 0.28801,-0.12607 0.3703,0 0.0823,0.084 -0.12343,0.25216 0,0.33621 0.0823,0 0.37099,-0.002 0.45259,0 v 0.37823 c 0,0.12608 0.0411,0.12608 0.12343,0.042 0.0823,-0.084 0.28801,0.16811 0.20573,0.29418 -0.0415,0.0847 -0.16458,0.16811 -0.25342,0.1088 -0.11689,-0.0247 -0.0744,0.15072 -0.0757,0.22742 0.005,0.0951 0,0.12607 0,0.25215 h -0.45259 c -0.12343,-0.0841 0.0823,-0.25215 0,-0.33621 -0.0823,-0.12608 -0.24687,-0.12608 -0.3703,0 -0.0823,0.0841 0.0823,0.29418 -0.0411,0.33621 -0.13075,-0.001 -0.28055,0.006 -0.41144,0 v -0.25215 c 0,-0.0841 -0.0411,-0.29419 0.0823,-0.25216 0.0823,0.042 0.20573,0 0.24687,-0.0841 0.0823,-0.12608 -0.12343,-0.37823 -0.20572,-0.29418 -0.0823,0.0841 -0.12343,0.0841 -0.12343,-0.042 0,-0.12608 0.006,-0.25996 0,-0.37824 z"
         style="fill:none;stroke:#000000;stroke-width:0.15;stroke-linecap:square;stroke-linejoin:round;stroke-miterlimit:4;stroke-dasharray:none;stroke-opacity:1"
         id="path1405-9-82-0-0-1-4-39-4"
         sodipodi:nodetypes="ccccccccccccccccccccccc" />
      <path
         d="m 199.13684,143.42989 c 0.16457,0 0.25643,0.004 0.41144,0 0.12343,-0.042 -0.0411,-0.25216 0.0411,-0.33621 0.12343,-0.12607 0.28801,-0.12607 0.3703,0 0.0823,0.084 -0.12343,0.25216 0,0.33621 0.0823,0 0.37099,-0.002 0.45259,0 v 0.37823 c 0,0.12608 0.0411,0.12608 0.12343,0.042 0.0823,-0.084 0.28801,0.16811 0.20573,0.29418 -0.0415,0.0847 -0.16458,0.16811 -0.25342,0.1088 -0.11689,-0.0247 -0.0744,0.15072 -0.0757,0.22742 0.005,0.0951 0,0.12607 0,0.25215 h -0.45259 c -0.12343,-0.0841 0.0823,-0.25215 0,-0.33621 -0.0823,-0.12608 -0.24687,-0.12608 -0.3703,0 -0.0823,0.0841 0.0823,0.29418 -0.0411,0.33621 -0.13075,-0.001 -0.28055,0.006 -0.41144,0 v -0.25215 c 0,-0.0841 -0.0411,-0.29419 0.0823,-0.25216 0.0823,0.042 0.20573,0 0.24687,-0.0841 0.0823,-0.12608 -0.12343,-0.37823 -0.20572,-0.29418 -0.0823,0.0841 -0.12343,0.0841 -0.12343,-0.042 0,-0.12608 0.006,-0.25996 0,-0.37824 z"
         style="fill:none;stroke:#000000;stroke-width:0.15;stroke-linecap:square;stroke-linejoin:round;stroke-miterlimit:4;stroke-dasharray:none;stroke-opacity:1"
         id="path1405-9-82-0-0-1-4-39-80"
         sodipodi:nodetypes="ccccccccccccccccccccccc" />
      <path
         d="m 207.45857,141.28362 c 0.16457,0 0.25643,0.004 0.41144,0 0.12343,-0.042 -0.0411,-0.25216 0.0411,-0.33621 0.12343,-0.12607 0.28801,-0.12607 0.3703,0 0.0823,0.084 -0.12343,0.25216 0,0.33621 0.0823,0 0.37099,-0.002 0.45259,0 v 0.37823 c 0,0.12608 0.0411,0.12608 0.12343,0.042 0.0823,-0.084 0.28801,0.16811 0.20573,0.29418 -0.0415,0.0847 -0.16458,0.16811 -0.25342,0.1088 -0.11689,-0.0247 -0.0744,0.15072 -0.0757,0.22742 0.005,0.0951 0,0.12607 0,0.25215 h -0.45259 c -0.12343,-0.0841 0.0823,-0.25215 0,-0.33621 -0.0823,-0.12608 -0.24687,-0.12608 -0.3703,0 -0.0823,0.0841 0.0823,0.29418 -0.0411,0.33621 -0.13075,-0.001 -0.28055,0.006 -0.41144,0 v -0.25215 c 0,-0.0841 -0.0411,-0.29419 0.0823,-0.25216 0.0823,0.042 0.20573,0 0.24687,-0.0841 0.0823,-0.12608 -0.12343,-0.37823 -0.20572,-0.29418 -0.0823,0.0841 -0.12343,0.0841 -0.12343,-0.042 0,-0.12608 0.006,-0.25996 0,-0.37824 z"
         style="fill:none;stroke:#000000;stroke-width:0.15;stroke-linecap:square;stroke-linejoin:round;stroke-miterlimit:4;stroke-dasharray:none;stroke-opacity:1"
         id="path1405-9-82-0-0-1-4-39-1"
         sodipodi:nodetypes="ccccccccccccccccccccccc" />
      <path
         d="m 195.4425,144.14911 c 0.16457,0 0.25643,0.004 0.41144,0 0.12343,-0.042 -0.0411,-0.25216 0.0411,-0.33621 0.12343,-0.12607 0.28801,-0.12607 0.3703,0 0.0823,0.084 -0.12343,0.25216 0,0.33621 0.0823,0 0.37099,-0.002 0.45259,0 v 0.37823 c 0,0.12608 0.0411,0.12608 0.12343,0.042 0.0823,-0.084 0.28801,0.16811 0.20573,0.29418 -0.0415,0.0847 -0.16458,0.16811 -0.25342,0.1088 -0.11689,-0.0247 -0.0744,0.15072 -0.0757,0.22742 0.005,0.0951 0,0.12607 0,0.25215 h -0.45259 c -0.12343,-0.0841 0.0823,-0.25215 0,-0.33621 -0.0823,-0.12608 -0.24687,-0.12608 -0.3703,0 -0.0823,0.0841 0.0823,0.29418 -0.0411,0.33621 -0.13075,-0.001 -0.28055,0.006 -0.41144,0 v -0.25215 c 0,-0.0841 -0.0411,-0.29419 0.0823,-0.25216 0.0823,0.042 0.20573,0 0.24687,-0.0841 0.0823,-0.12608 -0.12343,-0.37823 -0.20572,-0.29418 -0.0823,0.0841 -0.12343,0.0841 -0.12343,-0.042 0,-0.12608 0.006,-0.25996 0,-0.37824 z"
         style="fill:none;stroke:#000000;stroke-width:0.15;stroke-linecap:square;stroke-linejoin:round;stroke-miterlimit:4;stroke-dasharray:none;stroke-opacity:1"
         id="path1405-9-82-0-0-1-4-39-56"
         sodipodi:nodetypes="ccccccccccccccccccccccc" />
      <path
         d="m 191.9269,145.33224 c 0.16457,0 0.25643,0.004 0.41144,0 0.12343,-0.042 -0.0411,-0.25216 0.0411,-0.33621 0.12343,-0.12607 0.28801,-0.12607 0.3703,0 0.0823,0.084 -0.12343,0.25216 0,0.33621 0.0823,0 0.37099,-0.002 0.45259,0 v 0.37823 c 0,0.12608 0.0411,0.12608 0.12343,0.042 0.0823,-0.084 0.28801,0.16811 0.20573,0.29418 -0.0415,0.0847 -0.16458,0.16811 -0.25342,0.1088 -0.11689,-0.0247 -0.0744,0.15072 -0.0757,0.22742 0.005,0.0951 0,0.12607 0,0.25215 h -0.45259 c -0.12343,-0.0841 0.0823,-0.25215 0,-0.33621 -0.0823,-0.12608 -0.24687,-0.12608 -0.3703,0 -0.0823,0.0841 0.0823,0.29418 -0.0411,0.33621 -0.13075,-0.001 -0.28055,0.006 -0.41144,0 v -0.25215 c 0,-0.0841 -0.0411,-0.29419 0.0823,-0.25216 0.0823,0.042 0.20573,0 0.24687,-0.0841 0.0823,-0.12608 -0.12343,-0.37823 -0.20572,-0.29418 -0.0823,0.0841 -0.12343,0.0841 -0.12343,-0.042 0,-0.12608 0.006,-0.25996 0,-0.37824 z"
         style="fill:none;stroke:#000000;stroke-width:0.15;stroke-linecap:square;stroke-linejoin:round;stroke-miterlimit:4;stroke-dasharray:none;stroke-opacity:1"
         id="path1405-9-82-0-0-1-4-39-86"
         sodipodi:nodetypes="ccccccccccccccccccccccc" />
      <path
         d="m 188.9083,146.91919 c 0.16457,0 0.25643,0.004 0.41144,0 0.12343,-0.042 -0.0411,-0.25216 0.0411,-0.33621 0.12343,-0.12607 0.28801,-0.12607 0.3703,0 0.0823,0.084 -0.12343,0.25216 0,0.33621 0.0823,0 0.37099,-0.002 0.45259,0 v 0.37823 c 0,0.12608 0.0411,0.12608 0.12343,0.042 0.0823,-0.084 0.28801,0.16811 0.20573,0.29418 -0.0415,0.0847 -0.16458,0.16811 -0.25342,0.1088 -0.11689,-0.0247 -0.0744,0.15072 -0.0757,0.22742 0.005,0.0951 0,0.12607 0,0.25215 h -0.45259 c -0.12343,-0.0841 0.0823,-0.25215 0,-0.33621 -0.0823,-0.12608 -0.24687,-0.12608 -0.3703,0 -0.0823,0.0841 0.0823,0.29418 -0.0411,0.33621 -0.13075,-0.001 -0.28055,0.006 -0.41144,0 v -0.25215 c 0,-0.0841 -0.0411,-0.29419 0.0823,-0.25216 0.0823,0.042 0.20573,0 0.24687,-0.0841 0.0823,-0.12608 -0.12343,-0.37823 -0.20572,-0.29418 -0.0823,0.0841 -0.12343,0.0841 -0.12343,-0.042 0,-0.12608 0.006,-0.25996 0,-0.37824 z"
         style="fill:none;stroke:#000000;stroke-width:0.15;stroke-linecap:square;stroke-linejoin:round;stroke-miterlimit:4;stroke-dasharray:none;stroke-opacity:1"
         id="path1405-9-82-0-0-1-4-39-18"
         sodipodi:nodetypes="ccccccccccccccccccccccc" />
      <path
         d="m 186.79055,150.29501 c 0.16457,0 0.25643,0.004 0.41144,0 0.12343,-0.042 -0.0411,-0.25216 0.0411,-0.33621 0.12343,-0.12607 0.28801,-0.12607 0.3703,0 0.0823,0.084 -0.12343,0.25216 0,0.33621 0.0823,0 0.37099,-0.002 0.45259,0 v 0.37823 c 0,0.12608 0.0411,0.12608 0.12343,0.042 0.0823,-0.084 0.28801,0.16811 0.20573,0.29418 -0.0415,0.0847 -0.16458,0.16811 -0.25342,0.1088 -0.11689,-0.0247 -0.0744,0.15072 -0.0757,0.22742 0.005,0.0951 0,0.12607 0,0.25215 h -0.45259 c -0.12343,-0.0841 0.0823,-0.25215 0,-0.33621 -0.0823,-0.12608 -0.24687,-0.12608 -0.3703,0 -0.0823,0.0841 0.0823,0.29418 -0.0411,0.33621 -0.13075,-0.001 -0.28055,0.006 -0.41144,0 v -0.25215 c 0,-0.0841 -0.0411,-0.29419 0.0823,-0.25216 0.0823,0.042 0.20573,0 0.24687,-0.0841 0.0823,-0.12608 -0.12343,-0.37823 -0.20572,-0.29418 -0.0823,0.0841 -0.12343,0.0841 -0.12343,-0.042 0,-0.12608 0.006,-0.25996 0,-0.37824 z"
         style="fill:none;stroke:#000000;stroke-width:0.15;stroke-linecap:square;stroke-linejoin:round;stroke-miterlimit:4;stroke-dasharray:none;stroke-opacity:1"
         id="path1405-9-82-0-0-1-4-39-0"
         sodipodi:nodetypes="ccccccccccccccccccccccc" />
      <path
         d="m 188.82792,153.40952 c 0.16457,0 0.25643,0.004 0.41144,0 0.12343,-0.042 -0.0411,-0.25216 0.0411,-0.33621 0.12343,-0.12607 0.28801,-0.12607 0.3703,0 0.0823,0.084 -0.12343,0.25216 0,0.33621 0.0823,0 0.37099,-0.002 0.45259,0 v 0.37823 c 0,0.12608 0.0411,0.12608 0.12343,0.042 0.0823,-0.084 0.28801,0.16811 0.20573,0.29418 -0.0415,0.0847 -0.16458,0.16811 -0.25342,0.1088 -0.11689,-0.0247 -0.0744,0.15072 -0.0757,0.22742 0.005,0.0951 0,0.12607 0,0.25215 h -0.45259 c -0.12343,-0.0841 0.0823,-0.25215 0,-0.33621 -0.0823,-0.12608 -0.24687,-0.12608 -0.3703,0 -0.0823,0.0841 0.0823,0.29418 -0.0411,0.33621 -0.13075,-0.001 -0.28055,0.006 -0.41144,0 v -0.25215 c 0,-0.0841 -0.0411,-0.29419 0.0823,-0.25216 0.0823,0.042 0.20573,0 0.24687,-0.0841 0.0823,-0.12608 -0.12343,-0.37823 -0.20572,-0.29418 -0.0823,0.0841 -0.12343,0.0841 -0.12343,-0.042 0,-0.12608 0.006,-0.25996 0,-0.37824 z"
         style="fill:none;stroke:#000000;stroke-width:0.15;stroke-linecap:square;stroke-linejoin:round;stroke-miterlimit:4;stroke-dasharray:none;stroke-opacity:1"
         id="path1405-9-82-0-0-1-4-39-3"
         sodipodi:nodetypes="ccccccccccccccccccccccc" />
      <path
         d="m 192.34625,155.16732 c 0.16457,0 0.25643,0.004 0.41144,0 0.12343,-0.042 -0.0411,-0.25216 0.0411,-0.33621 0.12343,-0.12607 0.28801,-0.12607 0.3703,0 0.0823,0.084 -0.12343,0.25216 0,0.33621 0.0823,0 0.37099,-0.002 0.45259,0 v 0.37823 c 0,0.12608 0.0411,0.12608 0.12343,0.042 0.0823,-0.084 0.28801,0.16811 0.20573,0.29418 -0.0415,0.0847 -0.16458,0.16811 -0.25342,0.1088 -0.11689,-0.0247 -0.0744,0.15072 -0.0757,0.22742 0.005,0.0951 0,0.12607 0,0.25215 h -0.45259 c -0.12343,-0.0841 0.0823,-0.25215 0,-0.33621 -0.0823,-0.12608 -0.24687,-0.12608 -0.3703,0 -0.0823,0.0841 0.0823,0.29418 -0.0411,0.33621 -0.13075,-0.001 -0.28055,0.006 -0.41144,0 v -0.25215 c 0,-0.0841 -0.0411,-0.29419 0.0823,-0.25216 0.0823,0.042 0.20573,0 0.24687,-0.0841 0.0823,-0.12608 -0.12343,-0.37823 -0.20572,-0.29418 -0.0823,0.0841 -0.12343,0.0841 -0.12343,-0.042 0,-0.12608 0.006,-0.25996 0,-0.37824 z"
         style="fill:none;stroke:#000000;stroke-width:0.15;stroke-linecap:square;stroke-linejoin:round;stroke-miterlimit:4;stroke-dasharray:none;stroke-opacity:1"
         id="path1405-9-82-0-0-1-4-39-9"
         sodipodi:nodetypes="ccccccccccccccccccccccc" />
      <path
         d="m 195.70608,156.29697 c 0.16457,0 0.25643,0.004 0.41144,0 0.12343,-0.042 -0.0411,-0.25216 0.0411,-0.33621 0.12343,-0.12607 0.28801,-0.12607 0.3703,0 0.0823,0.084 -0.12343,0.25216 0,0.33621 0.0823,0 0.37099,-0.002 0.45259,0 v 0.37823 c 0,0.12608 0.0411,0.12608 0.12343,0.042 0.0823,-0.084 0.28801,0.16811 0.20573,0.29418 -0.0415,0.0847 -0.16458,0.16811 -0.25342,0.1088 -0.11689,-0.0247 -0.0744,0.15072 -0.0757,0.22742 0.005,0.0951 0,0.12607 0,0.25215 h -0.45259 c -0.12343,-0.0841 0.0823,-0.25215 0,-0.33621 -0.0823,-0.12608 -0.24687,-0.12608 -0.3703,0 -0.0823,0.0841 0.0823,0.29418 -0.0411,0.33621 -0.13075,-0.001 -0.28055,0.006 -0.41144,0 v -0.25215 c 0,-0.0841 -0.0411,-0.29419 0.0823,-0.25216 0.0823,0.042 0.20573,0 0.24687,-0.0841 0.0823,-0.12608 -0.12343,-0.37823 -0.20572,-0.29418 -0.0823,0.0841 -0.12343,0.0841 -0.12343,-0.042 0,-0.12608 0.006,-0.25996 0,-0.37824 z"
         style="fill:none;stroke:#000000;stroke-width:0.15;stroke-linecap:square;stroke-linejoin:round;stroke-miterlimit:4;stroke-dasharray:none;stroke-opacity:1"
         id="path1405-9-82-0-0-1-4-39-82"
         sodipodi:nodetypes="ccccccccccccccccccccccc" />
      <path
         d="m 196.61167,147.08048 c 0.16457,0 0.25643,0.004 0.41144,0 0.12343,-0.042 -0.0411,-0.25216 0.0411,-0.33621 0.12343,-0.12607 0.28801,-0.12607 0.3703,0 0.0823,0.084 -0.12343,0.25216 0,0.33621 0.0823,0 0.37099,-0.002 0.45259,0 v 0.37823 c 0,0.12608 0.0411,0.12608 0.12343,0.042 0.0823,-0.084 0.28801,0.16811 0.20573,0.29418 -0.0415,0.0847 -0.16458,0.16811 -0.25342,0.1088 -0.11689,-0.0247 -0.0744,0.15072 -0.0757,0.22742 0.005,0.0951 0,0.12607 0,0.25215 h -0.45259 c -0.12343,-0.0841 0.0823,-0.25215 0,-0.33621 -0.0823,-0.12608 -0.24687,-0.12608 -0.3703,0 -0.0823,0.0841 0.0823,0.29418 -0.0411,0.33621 -0.13075,-0.001 -0.28055,0.006 -0.41144,0 v -0.25215 c 0,-0.0841 -0.0411,-0.29419 0.0823,-0.25216 0.0823,0.042 0.20573,0 0.24687,-0.0841 0.0823,-0.12608 -0.12343,-0.37823 -0.20572,-0.29418 -0.0823,0.0841 -0.12343,0.0841 -0.12343,-0.042 0,-0.12608 0.006,-0.25996 0,-0.37824 z"
         style="fill:none;stroke:#000000;stroke-width:0.15;stroke-linecap:square;stroke-linejoin:round;stroke-miterlimit:4;stroke-dasharray:none;stroke-opacity:1"
         id="path1405-9-82-0-0-1-4-39-50"
         sodipodi:nodetypes="ccccccccccccccccccccccc" />
      <path
         d="m 216.60917,141.50327 c 0.16457,0 0.25643,0.004 0.41144,0 0.12343,-0.042 -0.0411,-0.25216 0.0411,-0.33621 0.12343,-0.12607 0.28801,-0.12607 0.3703,0 0.0823,0.084 -0.12343,0.25216 0,0.33621 0.0823,0 0.37099,-0.002 0.45259,0 v 0.37823 c 0,0.12608 0.0411,0.12608 0.12343,0.042 0.0823,-0.084 0.28801,0.16811 0.20573,0.29418 -0.0415,0.0847 -0.16458,0.16811 -0.25342,0.1088 -0.11689,-0.0247 -0.0744,0.15072 -0.0757,0.22742 0.005,0.0951 0,0.12607 0,0.25215 h -0.45259 c -0.12343,-0.0841 0.0823,-0.25215 0,-0.33621 -0.0823,-0.12608 -0.24687,-0.12608 -0.3703,0 -0.0823,0.0841 0.0823,0.29418 -0.0411,0.33621 -0.13075,-0.001 -0.28055,0.006 -0.41144,0 v -0.25215 c 0,-0.0841 -0.0411,-0.29419 0.0823,-0.25216 0.0823,0.042 0.20573,0 0.24687,-0.0841 0.0823,-0.12608 -0.12343,-0.37823 -0.20572,-0.29418 -0.0823,0.0841 -0.12343,0.0841 -0.12343,-0.042 0,-0.12608 0.006,-0.25996 0,-0.37824 z"
         style="fill:none;stroke:#000000;stroke-width:0.15;stroke-linecap:square;stroke-linejoin:round;stroke-miterlimit:4;stroke-dasharray:none;stroke-opacity:1"
         id="path1405-9-82-0-0-1-4-39-01"
         sodipodi:nodetypes="ccccccccccccccccccccccc" />
      <path
         d="m 221.98869,141.28362 c 0.16457,0 0.25643,0.004 0.41144,0 0.12343,-0.042 -0.0411,-0.25216 0.0411,-0.33621 0.12343,-0.12607 0.28801,-0.12607 0.3703,0 0.0823,0.084 -0.12343,0.25216 0,0.33621 0.0823,0 0.37099,-0.002 0.45259,0 v 0.37823 c 0,0.12608 0.0411,0.12608 0.12343,0.042 0.0823,-0.084 0.28801,0.16811 0.20573,0.29418 -0.0415,0.0847 -0.16458,0.16811 -0.25342,0.1088 -0.11689,-0.0247 -0.0744,0.15072 -0.0757,0.22742 0.005,0.0951 0,0.12607 0,0.25215 h -0.45259 c -0.12343,-0.0841 0.0823,-0.25215 0,-0.33621 -0.0823,-0.12608 -0.24687,-0.12608 -0.3703,0 -0.0823,0.0841 0.0823,0.29418 -0.0411,0.33621 -0.13075,-0.001 -0.28055,0.006 -0.41144,0 v -0.25215 c 0,-0.0841 -0.0411,-0.29419 0.0823,-0.25216 0.0823,0.042 0.20573,0 0.24687,-0.0841 0.0823,-0.12608 -0.12343,-0.37823 -0.20572,-0.29418 -0.0823,0.0841 -0.12343,0.0841 -0.12343,-0.042 0,-0.12608 0.006,-0.25996 0,-0.37824 z"
         style="fill:none;stroke:#000000;stroke-width:0.15;stroke-linecap:square;stroke-linejoin:round;stroke-miterlimit:4;stroke-dasharray:none;stroke-opacity:1"
         id="path1405-9-82-0-0-1-4-39-7"
         sodipodi:nodetypes="ccccccccccccccccccccccc" />
      <path
         d="m 224.05842,145.16451 c 0.16457,0 0.25643,0.004 0.41144,0 0.12343,-0.042 -0.0411,-0.25216 0.0411,-0.33621 0.12343,-0.12607 0.28801,-0.12607 0.3703,0 0.0823,0.084 -0.12343,0.25216 0,0.33621 0.0823,0 0.37099,-0.002 0.45259,0 v 0.37823 c 0,0.12608 0.0411,0.12608 0.12343,0.042 0.0823,-0.084 0.28801,0.16811 0.20573,0.29418 -0.0415,0.0847 -0.16458,0.16811 -0.25342,0.1088 -0.11689,-0.0247 -0.0744,0.15072 -0.0757,0.22742 0.005,0.0951 0,0.12607 0,0.25215 h -0.45259 c -0.12343,-0.0841 0.0823,-0.25215 0,-0.33621 -0.0823,-0.12608 -0.24687,-0.12608 -0.3703,0 -0.0823,0.0841 0.0823,0.29418 -0.0411,0.33621 -0.13075,-0.001 -0.28055,0.006 -0.41144,0 v -0.25215 c 0,-0.0841 -0.0411,-0.29419 0.0823,-0.25216 0.0823,0.042 0.20573,0 0.24687,-0.0841 0.0823,-0.12608 -0.12343,-0.37823 -0.20572,-0.29418 -0.0823,0.0841 -0.12343,0.0841 -0.12343,-0.042 0,-0.12608 0.006,-0.25996 0,-0.37824 z"
         style="fill:none;stroke:#000000;stroke-width:0.15;stroke-linecap:square;stroke-linejoin:round;stroke-miterlimit:4;stroke-dasharray:none;stroke-opacity:1"
         id="path1405-9-82-0-0-1-4-39-57"
         sodipodi:nodetypes="ccccccccccccccccccccccc" />
      <path
         d="m 221.30276,150.45618 c 0.16457,0 0.25643,0.004 0.41144,0 0.12343,-0.042 -0.0411,-0.25216 0.0411,-0.33621 0.12343,-0.12607 0.28801,-0.12607 0.3703,0 0.0823,0.084 -0.12343,0.25216 0,0.33621 0.0823,0 0.37099,-0.002 0.45259,0 v 0.37823 c 0,0.12608 0.0411,0.12608 0.12343,0.042 0.0823,-0.084 0.28801,0.16811 0.20573,0.29418 -0.0415,0.0847 -0.16458,0.16811 -0.25342,0.1088 -0.11689,-0.0247 -0.0744,0.15072 -0.0757,0.22742 0.005,0.0951 0,0.12607 0,0.25215 h -0.45259 c -0.12343,-0.0841 0.0823,-0.25215 0,-0.33621 -0.0823,-0.12608 -0.24687,-0.12608 -0.3703,0 -0.0823,0.0841 0.0823,0.29418 -0.0411,0.33621 -0.13075,-0.001 -0.28055,0.006 -0.41144,0 v -0.25215 c 0,-0.0841 -0.0411,-0.29419 0.0823,-0.25216 0.0823,0.042 0.20573,0 0.24687,-0.0841 0.0823,-0.12608 -0.12343,-0.37823 -0.20572,-0.29418 -0.0823,0.0841 -0.12343,0.0841 -0.12343,-0.042 0,-0.12608 0.006,-0.25996 0,-0.37824 z"
         style="fill:none;stroke:#000000;stroke-width:0.15;stroke-linecap:square;stroke-linejoin:round;stroke-miterlimit:4;stroke-dasharray:none;stroke-opacity:1"
         id="path1405-9-82-0-0-1-4-39-83"
         sodipodi:nodetypes="ccccccccccccccccccccccc" />
      <path
         d="m 217.38296,149.57256 c 0.16457,0 0.25643,0.004 0.41144,0 0.12343,-0.042 -0.0411,-0.25216 0.0411,-0.33621 0.12343,-0.12607 0.28801,-0.12607 0.3703,0 0.0823,0.084 -0.12343,0.25216 0,0.33621 0.0823,0 0.37099,-0.002 0.45259,0 v 0.37823 c 0,0.12608 0.0411,0.12608 0.12343,0.042 0.0823,-0.084 0.28801,0.16811 0.20573,0.29418 -0.0415,0.0847 -0.16458,0.16811 -0.25342,0.1088 -0.11689,-0.0247 -0.0744,0.15072 -0.0757,0.22742 0.005,0.0951 0,0.12607 0,0.25215 h -0.45259 c -0.12343,-0.0841 0.0823,-0.25215 0,-0.33621 -0.0823,-0.12608 -0.24687,-0.12608 -0.3703,0 -0.0823,0.0841 0.0823,0.29418 -0.0411,0.33621 -0.13075,-0.001 -0.28055,0.006 -0.41144,0 v -0.25215 c 0,-0.0841 -0.0411,-0.29419 0.0823,-0.25216 0.0823,0.042 0.20573,0 0.24687,-0.0841 0.0823,-0.12608 -0.12343,-0.37823 -0.20572,-0.29418 -0.0823,0.0841 -0.12343,0.0841 -0.12343,-0.042 0,-0.12608 0.006,-0.25996 0,-0.37824 z"
         style="fill:none;stroke:#000000;stroke-width:0.15;stroke-linecap:square;stroke-linejoin:round;stroke-miterlimit:4;stroke-dasharray:none;stroke-opacity:1"
         id="path1405-9-82-0-0-1-4-39-36"
         sodipodi:nodetypes="ccccccccccccccccccccccc" />
      <path
         d="m 217.44885,155.03995 c 0.16457,0 0.25643,0.004 0.41144,0 0.12343,-0.042 -0.0411,-0.25216 0.0411,-0.33621 0.12343,-0.12607 0.28801,-0.12607 0.3703,0 0.0823,0.084 -0.12343,0.25216 0,0.33621 0.0823,0 0.37099,-0.002 0.45259,0 v 0.37823 c 0,0.12608 0.0411,0.12608 0.12343,0.042 0.0823,-0.084 0.28801,0.16811 0.20573,0.29418 -0.0415,0.0847 -0.16458,0.16811 -0.25342,0.1088 -0.11689,-0.0247 -0.0744,0.15072 -0.0757,0.22742 0.005,0.0951 0,0.12607 0,0.25215 h -0.45259 c -0.12343,-0.0841 0.0823,-0.25215 0,-0.33621 -0.0823,-0.12608 -0.24687,-0.12608 -0.3703,0 -0.0823,0.0841 0.0823,0.29418 -0.0411,0.33621 -0.13075,-10e-4 -0.28055,0.006 -0.41144,0 v -0.25215 c 0,-0.0841 -0.0411,-0.29419 0.0823,-0.25216 0.0823,0.042 0.20573,0 0.24687,-0.0841 0.0823,-0.12608 -0.12343,-0.37823 -0.20572,-0.29418 -0.0823,0.0841 -0.12343,0.0841 -0.12343,-0.042 0,-0.12608 0.006,-0.25996 0,-0.37824 z"
         style="fill:none;stroke:#000000;stroke-width:0.15;stroke-linecap:square;stroke-linejoin:round;stroke-miterlimit:4;stroke-dasharray:none;stroke-opacity:1"
         id="path1405-9-82-0-0-1-4-39-90"
         sodipodi:nodetypes="ccccccccccccccccccccccc" />
      <path
         d="m 219.45268,157.61988 c 0.16457,0 0.25643,0.004 0.41144,0 0.12343,-0.042 -0.0411,-0.25216 0.0411,-0.33621 0.12343,-0.12607 0.28801,-0.12607 0.3703,0 0.0823,0.084 -0.12343,0.25216 0,0.33621 0.0823,0 0.37099,-0.002 0.45259,0 v 0.37823 c 0,0.12608 0.0411,0.12608 0.12343,0.042 0.0823,-0.084 0.28801,0.16811 0.20573,0.29418 -0.0415,0.0847 -0.16458,0.16811 -0.25342,0.1088 -0.11689,-0.0247 -0.0744,0.15072 -0.0757,0.22742 0.005,0.0951 0,0.12607 0,0.25215 h -0.45259 c -0.12343,-0.0841 0.0823,-0.25215 0,-0.33621 -0.0823,-0.12608 -0.24687,-0.12608 -0.3703,0 -0.0823,0.0841 0.0823,0.29418 -0.0411,0.33621 -0.13075,-0.001 -0.28055,0.006 -0.41144,0 v -0.25215 c 0,-0.0841 -0.0411,-0.29419 0.0823,-0.25216 0.0823,0.042 0.20573,0 0.24687,-0.0841 0.0823,-0.12608 -0.12343,-0.37823 -0.20572,-0.29418 -0.0823,0.0841 -0.12343,0.0841 -0.12343,-0.042 0,-0.12608 0.006,-0.25996 0,-0.37824 z"
         style="fill:none;stroke:#000000;stroke-width:0.15;stroke-linecap:square;stroke-linejoin:round;stroke-miterlimit:4;stroke-dasharray:none;stroke-opacity:1"
         id="path1405-9-82-0-0-1-4-39-568"
         sodipodi:nodetypes="ccccccccccccccccccccccc" />
      <path
         d="m 221.01721,160.19983 c 0.16457,0 0.25643,0.004 0.41144,0 0.12343,-0.042 -0.0411,-0.25216 0.0411,-0.33621 0.12343,-0.12607 0.28801,-0.12607 0.3703,0 0.0823,0.084 -0.12343,0.25216 0,0.33621 0.0823,0 0.37099,-0.002 0.45259,0 v 0.37823 c 0,0.12608 0.0411,0.12608 0.12343,0.042 0.0823,-0.084 0.28801,0.16811 0.20573,0.29418 -0.0415,0.0847 -0.16458,0.16811 -0.25342,0.1088 -0.11689,-0.0247 -0.0744,0.15072 -0.0757,0.22742 0.005,0.0951 0,0.12607 0,0.25215 h -0.45259 c -0.12343,-0.0841 0.0823,-0.25215 0,-0.33621 -0.0823,-0.12608 -0.24687,-0.12608 -0.3703,0 -0.0823,0.0841 0.0823,0.29418 -0.0411,0.33621 -0.13075,-0.001 -0.28055,0.006 -0.41144,0 v -0.25215 c 0,-0.0841 -0.0411,-0.29419 0.0823,-0.25216 0.0823,0.042 0.20573,0 0.24687,-0.0841 0.0823,-0.12608 -0.12343,-0.37823 -0.20572,-0.29418 -0.0823,0.0841 -0.12343,0.0841 -0.12343,-0.042 0,-0.12608 0.006,-0.25996 0,-0.37824 z"
         style="fill:none;stroke:#000000;stroke-width:0.15;stroke-linecap:square;stroke-linejoin:round;stroke-miterlimit:4;stroke-dasharray:none;stroke-opacity:1"
         id="path1405-9-82-0-0-1-4-39-53"
         sodipodi:nodetypes="ccccccccccccccccccccccc" />
      <path
         d="m 221.92279,162.97745 c 0.16457,0 0.25643,0.004 0.41144,0 0.12343,-0.042 -0.0411,-0.25216 0.0411,-0.33621 0.12343,-0.12607 0.28801,-0.12607 0.3703,0 0.0823,0.084 -0.12343,0.25216 0,0.33621 0.0823,0 0.37099,-0.002 0.45259,0 v 0.37823 c 0,0.12608 0.0411,0.12608 0.12343,0.042 0.0823,-0.084 0.28801,0.16811 0.20573,0.29418 -0.0415,0.0847 -0.16458,0.16811 -0.25342,0.1088 -0.11689,-0.0247 -0.0744,0.15072 -0.0757,0.22742 0.005,0.0951 0,0.12607 0,0.25215 h -0.45259 c -0.12343,-0.0841 0.0823,-0.25215 0,-0.33621 -0.0823,-0.12608 -0.24687,-0.12608 -0.3703,0 -0.0823,0.0841 0.0823,0.29418 -0.0411,0.33621 -0.13075,-10e-4 -0.28055,0.006 -0.41144,0 v -0.25215 c 0,-0.0841 -0.0411,-0.29419 0.0823,-0.25216 0.0823,0.042 0.20573,0 0.24687,-0.0841 0.0823,-0.12608 -0.12343,-0.37823 -0.20572,-0.29418 -0.0823,0.0841 -0.12343,0.0841 -0.12343,-0.042 0,-0.12608 0.006,-0.25996 0,-0.37824 z"
         style="fill:none;stroke:#000000;stroke-width:0.15;stroke-linecap:square;stroke-linejoin:round;stroke-miterlimit:4;stroke-dasharray:none;stroke-opacity:1"
         id="path1405-9-82-0-0-1-4-39-47"
         sodipodi:nodetypes="ccccccccccccccccccccccc" />
      <path
         d="m 221.43957,165.53542 c 0.16457,0 0.25643,0.004 0.41144,0 0.12343,-0.042 -0.0411,-0.25216 0.0411,-0.33621 0.12343,-0.12607 0.28801,-0.12607 0.3703,0 0.0823,0.084 -0.12343,0.25216 0,0.33621 0.0823,0 0.37099,-0.002 0.45259,0 v 0.37823 c 0,0.12608 0.0411,0.12608 0.12343,0.042 0.0823,-0.084 0.28801,0.16811 0.20573,0.29418 -0.0415,0.0847 -0.16458,0.16811 -0.25342,0.1088 -0.11689,-0.0247 -0.0744,0.15072 -0.0757,0.22742 0.005,0.0951 0,0.12607 0,0.25215 h -0.45259 c -0.12343,-0.0841 0.0823,-0.25215 0,-0.33621 -0.0823,-0.12608 -0.24687,-0.12608 -0.3703,0 -0.0823,0.0841 0.0823,0.29418 -0.0411,0.33621 -0.13075,-0.001 -0.28055,0.006 -0.41144,0 v -0.25215 c 0,-0.0841 -0.0411,-0.29419 0.0823,-0.25216 0.0823,0.042 0.20573,0 0.24687,-0.0841 0.0823,-0.12608 -0.12343,-0.37823 -0.20572,-0.29418 -0.0823,0.0841 -0.12343,0.0841 -0.12343,-0.042 0,-0.12608 0.006,-0.25996 0,-0.37824 z"
         style="fill:none;stroke:#000000;stroke-width:0.15;stroke-linecap:square;stroke-linejoin:round;stroke-miterlimit:4;stroke-dasharray:none;stroke-opacity:1"
         id="path1405-9-82-0-0-1-4-39-70"
         sodipodi:nodetypes="ccccccccccccccccccccccc" />
      <path
         d="m 219.18911,167.03405 c 0.16457,0 0.25643,0.004 0.41144,0 0.12343,-0.042 -0.0411,-0.25216 0.0411,-0.33621 0.12343,-0.12607 0.28801,-0.12607 0.3703,0 0.0823,0.084 -0.12343,0.25216 0,0.33621 0.0823,0 0.37099,-0.002 0.45259,0 v 0.37823 c 0,0.12608 0.0411,0.12608 0.12343,0.042 0.0823,-0.084 0.28801,0.16811 0.20573,0.29418 -0.0415,0.0847 -0.16458,0.16811 -0.25342,0.1088 -0.11689,-0.0247 -0.0744,0.15072 -0.0757,0.22742 0.005,0.0951 0,0.12607 0,0.25215 h -0.45259 c -0.12343,-0.0841 0.0823,-0.25215 0,-0.33621 -0.0823,-0.12608 -0.24687,-0.12608 -0.3703,0 -0.0823,0.0841 0.0823,0.29418 -0.0411,0.33621 -0.13075,-0.001 -0.28055,0.006 -0.41144,0 v -0.25215 c 0,-0.0841 -0.0411,-0.29419 0.0823,-0.25216 0.0823,0.042 0.20573,0 0.24687,-0.0841 0.0823,-0.12608 -0.12343,-0.37823 -0.20572,-0.29418 -0.0823,0.0841 -0.12343,0.0841 -0.12343,-0.042 0,-0.12608 0.006,-0.25996 0,-0.37824 z"
         style="fill:none;stroke:#000000;stroke-width:0.15;stroke-linecap:square;stroke-linejoin:round;stroke-miterlimit:4;stroke-dasharray:none;stroke-opacity:1"
         id="path1405-9-82-0-0-1-4-39-37"
         sodipodi:nodetypes="ccccccccccccccccccccccc" />
      <path
         d="m 210.50479,165.22791 c 0.16457,0 0.25643,0.004 0.41144,0 0.12343,-0.042 -0.0411,-0.25216 0.0411,-0.33621 0.12343,-0.12607 0.28801,-0.12607 0.3703,0 0.0823,0.084 -0.12343,0.25216 0,0.33621 0.0823,0 0.37099,-0.002 0.45259,0 v 0.37823 c 0,0.12608 0.0411,0.12608 0.12343,0.042 0.0823,-0.084 0.28801,0.16811 0.20573,0.29418 -0.0415,0.0847 -0.16458,0.16811 -0.25342,0.1088 -0.11689,-0.0247 -0.0744,0.15072 -0.0757,0.22742 0.005,0.0951 0,0.12607 0,0.25215 h -0.45259 c -0.12343,-0.0841 0.0823,-0.25215 0,-0.33621 -0.0823,-0.12608 -0.24687,-0.12608 -0.3703,0 -0.0823,0.0841 0.0823,0.29418 -0.0411,0.33621 -0.13075,-0.001 -0.28055,0.006 -0.41144,0 v -0.25215 c 0,-0.0841 -0.0411,-0.29419 0.0823,-0.25216 0.0823,0.042 0.20573,0 0.24687,-0.0841 0.0823,-0.12608 -0.12343,-0.37823 -0.20572,-0.29418 -0.0823,0.0841 -0.12343,0.0841 -0.12343,-0.042 0,-0.12608 0.006,-0.25996 0,-0.37824 z"
         style="fill:none;stroke:#000000;stroke-width:0.15;stroke-linecap:square;stroke-linejoin:round;stroke-miterlimit:4;stroke-dasharray:none;stroke-opacity:1"
         id="path1405-9-82-0-0-1-4-39-88"
         sodipodi:nodetypes="ccccccccccccccccccccccc" />
      <path
         d="m 213.43617,166.37511 c 0.16457,0 0.25643,0.004 0.41144,0 0.12343,-0.042 -0.0411,-0.25216 0.0411,-0.33621 0.12343,-0.12607 0.28801,-0.12607 0.3703,0 0.0823,0.084 -0.12343,0.25216 0,0.33621 0.0823,0 0.37099,-0.002 0.45259,0 v 0.37823 c 0,0.12608 0.0411,0.12608 0.12343,0.042 0.0823,-0.084 0.28801,0.16811 0.20573,0.29418 -0.0415,0.0847 -0.16458,0.16811 -0.25342,0.1088 -0.11689,-0.0247 -0.0744,0.15072 -0.0757,0.22742 0.005,0.0951 0,0.12607 0,0.25215 h -0.45259 c -0.12343,-0.0841 0.0823,-0.25215 0,-0.33621 -0.0823,-0.12608 -0.24687,-0.12608 -0.3703,0 -0.0823,0.0841 0.0823,0.29418 -0.0411,0.33621 -0.13075,-0.001 -0.28055,0.006 -0.41144,0 v -0.25215 c 0,-0.0841 -0.0411,-0.29419 0.0823,-0.25216 0.0823,0.042 0.20573,0 0.24687,-0.0841 0.0823,-0.12608 -0.12343,-0.37823 -0.20572,-0.29418 -0.0823,0.0841 -0.12343,0.0841 -0.12343,-0.042 0,-0.12608 0.006,-0.25996 0,-0.37824 z"
         style="fill:none;stroke:#000000;stroke-width:0.15;stroke-linecap:square;stroke-linejoin:round;stroke-miterlimit:4;stroke-dasharray:none;stroke-opacity:1"
         id="path1405-9-82-0-0-1-4-39-73"
         sodipodi:nodetypes="ccccccccccccccccccccccc" />
      <path
         d="m 216.47738,166.99013 c 0.16457,0 0.25643,0.004 0.41144,0 0.12343,-0.042 -0.0411,-0.25216 0.0411,-0.33621 0.12343,-0.12607 0.28801,-0.12607 0.3703,0 0.0823,0.084 -0.12343,0.25216 0,0.33621 0.0823,0 0.37099,-0.002 0.45259,0 v 0.37823 c 0,0.12608 0.0411,0.12608 0.12343,0.042 0.0823,-0.084 0.28801,0.16811 0.20573,0.29418 -0.0415,0.0847 -0.16458,0.16811 -0.25342,0.1088 -0.11689,-0.0247 -0.0744,0.15072 -0.0757,0.22742 0.005,0.0951 0,0.12607 0,0.25215 h -0.45259 c -0.12343,-0.0841 0.0823,-0.25215 0,-0.33621 -0.0823,-0.12608 -0.24687,-0.12608 -0.3703,0 -0.0823,0.0841 0.0823,0.29418 -0.0411,0.33621 -0.13075,-0.001 -0.28055,0.006 -0.41144,0 v -0.25215 c 0,-0.0841 -0.0411,-0.29419 0.0823,-0.25216 0.0823,0.042 0.20573,0 0.24687,-0.0841 0.0823,-0.12608 -0.12343,-0.37823 -0.20572,-0.29418 -0.0823,0.0841 -0.12343,0.0841 -0.12343,-0.042 0,-0.12608 0.006,-0.25996 0,-0.37824 z"
         style="fill:none;stroke:#000000;stroke-width:0.15;stroke-linecap:square;stroke-linejoin:round;stroke-miterlimit:4;stroke-dasharray:none;stroke-opacity:1"
         id="path1405-9-82-0-0-1-4-39-26"
         sodipodi:nodetypes="ccccccccccccccccccccccc" />
      <path
         d="m 207.28286,163.61946 c 0.16457,0 0.25643,0.004 0.41144,0 0.12343,-0.042 -0.0411,-0.25216 0.0411,-0.33621 0.12343,-0.12607 0.28801,-0.12607 0.3703,0 0.0823,0.084 -0.12343,0.25216 0,0.33621 0.0823,0 0.37099,-0.002 0.45259,0 v 0.37823 c 0,0.12608 0.0411,0.12608 0.12343,0.042 0.0823,-0.084 0.28801,0.16811 0.20573,0.29418 -0.0415,0.0847 -0.16458,0.16811 -0.25342,0.1088 -0.11689,-0.0247 -0.0744,0.15072 -0.0757,0.22742 0.005,0.0951 0,0.12607 0,0.25215 h -0.45259 c -0.12343,-0.0841 0.0823,-0.25215 0,-0.33621 -0.0823,-0.12608 -0.24687,-0.12608 -0.3703,0 -0.0823,0.0841 0.0823,0.29418 -0.0411,0.33621 -0.13075,-10e-4 -0.28055,0.006 -0.41144,0 v -0.25215 c 0,-0.0841 -0.0411,-0.29419 0.0823,-0.25216 0.0823,0.042 0.20573,0 0.24687,-0.0841 0.0823,-0.12608 -0.12343,-0.37823 -0.20572,-0.29418 -0.0823,0.0841 -0.12343,0.0841 -0.12343,-0.042 0,-0.12608 0.006,-0.25996 0,-0.37824 z"
         style="fill:none;stroke:#000000;stroke-width:0.15;stroke-linecap:square;stroke-linejoin:round;stroke-miterlimit:4;stroke-dasharray:none;stroke-opacity:1"
         id="path1405-9-82-0-0-1-4-39-6"
         sodipodi:nodetypes="ccccccccccccccccccccccc" />
      <path
         d="m 204.70292,166.63869 c 0.16457,0 0.25643,0.004 0.41144,0 0.12343,-0.042 -0.0411,-0.25216 0.0411,-0.33621 0.12343,-0.12607 0.28801,-0.12607 0.3703,0 0.0823,0.084 -0.12343,0.25216 0,0.33621 0.0823,0 0.37099,-0.002 0.45259,0 v 0.37823 c 0,0.12608 0.0411,0.12608 0.12343,0.042 0.0823,-0.084 0.28801,0.16811 0.20573,0.29418 -0.0415,0.0847 -0.16458,0.16811 -0.25342,0.1088 -0.11689,-0.0247 -0.0744,0.15072 -0.0757,0.22742 0.005,0.0951 0,0.12607 0,0.25215 h -0.45259 c -0.12343,-0.0841 0.0823,-0.25215 0,-0.33621 -0.0823,-0.12608 -0.24687,-0.12608 -0.3703,0 -0.0823,0.0841 0.0823,0.29418 -0.0411,0.33621 -0.13075,-0.001 -0.28055,0.006 -0.41144,0 v -0.25215 c 0,-0.0841 -0.0411,-0.29419 0.0823,-0.25216 0.0823,0.042 0.20573,0 0.24687,-0.0841 0.0823,-0.12608 -0.12343,-0.37823 -0.20572,-0.29418 -0.0823,0.0841 -0.12343,0.0841 -0.12343,-0.042 0,-0.12608 0.006,-0.25996 0,-0.37824 z"
         style="fill:none;stroke:#000000;stroke-width:0.15;stroke-linecap:square;stroke-linejoin:round;stroke-miterlimit:4;stroke-dasharray:none;stroke-opacity:1"
         id="path1405-9-82-0-0-1-4-39-40"
         sodipodi:nodetypes="ccccccccccccccccccccccc" />
      <path
         d="m 199.41125,170.60744 c 0.16457,0 0.25643,0.004 0.41144,0 0.12343,-0.042 -0.0411,-0.25216 0.0411,-0.33621 0.12343,-0.12607 0.28801,-0.12607 0.3703,0 0.0823,0.084 -0.12343,0.25216 0,0.33621 0.0823,0 0.37099,-0.002 0.45259,0 v 0.37823 c 0,0.12608 0.0411,0.12608 0.12343,0.042 0.0823,-0.084 0.28801,0.16811 0.20573,0.29418 -0.0415,0.0847 -0.16458,0.16811 -0.25342,0.1088 -0.11689,-0.0247 -0.0744,0.15072 -0.0757,0.22742 0.005,0.0951 0,0.12607 0,0.25215 h -0.45259 c -0.12343,-0.0841 0.0823,-0.25215 0,-0.33621 -0.0823,-0.12608 -0.24687,-0.12608 -0.3703,0 -0.0823,0.0841 0.0823,0.29418 -0.0411,0.33621 -0.13075,-0.001 -0.28055,0.006 -0.41144,0 v -0.25215 c 0,-0.0841 -0.0411,-0.29419 0.0823,-0.25216 0.0823,0.042 0.20573,0 0.24687,-0.0841 0.0823,-0.12608 -0.12343,-0.37823 -0.20572,-0.29418 -0.0823,0.0841 -0.12343,0.0841 -0.12343,-0.042 0,-0.12608 0.006,-0.25996 0,-0.37824 z"
         style="fill:none;stroke:#000000;stroke-width:0.15;stroke-linecap:square;stroke-linejoin:round;stroke-miterlimit:4;stroke-dasharray:none;stroke-opacity:1"
         id="path1405-9-82-0-0-1-4-39-61"
         sodipodi:nodetypes="ccccccccccccccccccccccc" />
      <path
         d="m 195.4425,166.63869 c 0.16457,0 0.25643,0.004 0.41144,0 0.12343,-0.042 -0.0411,-0.25216 0.0411,-0.33621 0.12343,-0.12607 0.28801,-0.12607 0.3703,0 0.0823,0.084 -0.12343,0.25216 0,0.33621 0.0823,0 0.37099,-0.002 0.45259,0 v 0.37823 c 0,0.12608 0.0411,0.12608 0.12343,0.042 0.0823,-0.084 0.28801,0.16811 0.20573,0.29418 -0.0415,0.0847 -0.16458,0.16811 -0.25342,0.1088 -0.11689,-0.0247 -0.0744,0.15072 -0.0757,0.22742 0.005,0.0951 0,0.12607 0,0.25215 h -0.45259 c -0.12343,-0.0841 0.0823,-0.25215 0,-0.33621 -0.0823,-0.12608 -0.24687,-0.12608 -0.3703,0 -0.0823,0.0841 0.0823,0.29418 -0.0411,0.33621 -0.13075,-0.001 -0.28055,0.006 -0.41144,0 v -0.25215 c 0,-0.0841 -0.0411,-0.29419 0.0823,-0.25216 0.0823,0.042 0.20573,0 0.24687,-0.0841 0.0823,-0.12608 -0.12343,-0.37823 -0.20572,-0.29418 -0.0823,0.0841 -0.12343,0.0841 -0.12343,-0.042 0,-0.12608 0.006,-0.25996 0,-0.37824 z"
         style="fill:none;stroke:#000000;stroke-width:0.15;stroke-linecap:square;stroke-linejoin:round;stroke-miterlimit:4;stroke-dasharray:none;stroke-opacity:1"
         id="path1405-9-82-0-0-1-4-39-65"
         sodipodi:nodetypes="ccccccccccccccccccccccc" />
      <path
         d="m 195.4425,161.34702 c 0.16457,0 0.25643,0.004 0.41144,0 0.12343,-0.042 -0.0411,-0.25216 0.0411,-0.33621 0.12343,-0.12607 0.28801,-0.12607 0.3703,0 0.0823,0.084 -0.12343,0.25216 0,0.33621 0.0823,0 0.37099,-0.002 0.45259,0 v 0.37823 c 0,0.12608 0.0411,0.12608 0.12343,0.042 0.0823,-0.084 0.28801,0.16811 0.20573,0.29418 -0.0415,0.0847 -0.16458,0.16811 -0.25342,0.1088 -0.11689,-0.0247 -0.0744,0.15072 -0.0757,0.22742 0.005,0.0951 0,0.12607 0,0.25215 h -0.45259 c -0.12343,-0.0841 0.0823,-0.25215 0,-0.33621 -0.0823,-0.12608 -0.24687,-0.12608 -0.3703,0 -0.0823,0.0841 0.0823,0.29418 -0.0411,0.33621 -0.13075,-0.001 -0.28055,0.006 -0.41144,0 v -0.25215 c 0,-0.0841 -0.0411,-0.29419 0.0823,-0.25216 0.0823,0.042 0.20573,0 0.24687,-0.0841 0.0823,-0.12608 -0.12343,-0.37823 -0.20572,-0.29418 -0.0823,0.0841 -0.12343,0.0841 -0.12343,-0.042 0,-0.12608 0.006,-0.25996 0,-0.37824 z"
         style="fill:none;stroke:#000000;stroke-width:0.15;stroke-linecap:square;stroke-linejoin:round;stroke-miterlimit:4;stroke-dasharray:none;stroke-opacity:1"
         id="path1405-9-82-0-0-1-4-39-72"
         sodipodi:nodetypes="ccccccccccccccccccccccc" />
      <path
         d="m 199.41125,161.34702 c 0.16457,0 0.25643,0.004 0.41144,0 0.12343,-0.042 -0.0411,-0.25216 0.0411,-0.33621 0.12343,-0.12607 0.28801,-0.12607 0.3703,0 0.0823,0.084 -0.12343,0.25216 0,0.33621 0.0823,0 0.37099,-0.002 0.45259,0 v 0.37823 c 0,0.12608 0.0411,0.12608 0.12343,0.042 0.0823,-0.084 0.28801,0.16811 0.20573,0.29418 -0.0415,0.0847 -0.16458,0.16811 -0.25342,0.1088 -0.11689,-0.0247 -0.0744,0.15072 -0.0757,0.22742 0.005,0.0951 0,0.12607 0,0.25215 h -0.45259 c -0.12343,-0.0841 0.0823,-0.25215 0,-0.33621 -0.0823,-0.12608 -0.24687,-0.12608 -0.3703,0 -0.0823,0.0841 0.0823,0.29418 -0.0411,0.33621 -0.13075,-0.001 -0.28055,0.006 -0.41144,0 v -0.25215 c 0,-0.0841 -0.0411,-0.29419 0.0823,-0.25216 0.0823,0.042 0.20573,0 0.24687,-0.0841 0.0823,-0.12608 -0.12343,-0.37823 -0.20572,-0.29418 -0.0823,0.0841 -0.12343,0.0841 -0.12343,-0.042 0,-0.12608 0.006,-0.25996 0,-0.37824 z"
         style="fill:none;stroke:#000000;stroke-width:0.15;stroke-linecap:square;stroke-linejoin:round;stroke-miterlimit:4;stroke-dasharray:none;stroke-opacity:1"
         id="path1405-9-82-0-0-1-4-39-59"
         sodipodi:nodetypes="ccccccccccccccccccccccc" />
    </g>
  </g>
</svg>
