<?xml version="1.0" encoding="UTF-8" standalone="no"?>
<svg
   xmlns:dc="http://purl.org/dc/elements/1.1/"
   xmlns:cc="http://creativecommons.org/ns#"
   xmlns:rdf="http://www.w3.org/1999/02/22-rdf-syntax-ns#"
   xmlns:svg="http://www.w3.org/2000/svg"
   xmlns="http://www.w3.org/2000/svg"
   xmlns:sodipodi="http://sodipodi.sourceforge.net/DTD/sodipodi-0.dtd"
   xmlns:inkscape="http://www.inkscape.org/namespaces/inkscape"
   sodipodi:docname="circles-1.svg"
   inkscape:version="1.0 (4035a4fb49, 2020-05-01)"
   id="svg2993"
   version="1.1"
   viewBox="0 0 400.17718 266.61484"
   height="266.61484mm"
   width="400.17719mm">
  <defs
     id="defs2987" />
  <sodipodi:namedview
     inkscape:window-maximized="0"
     inkscape:window-y="0"
     inkscape:window-x="130"
     inkscape:window-height="1041"
     inkscape:window-width="1569"
     fit-margin-bottom="40"
     fit-margin-left="40"
     fit-margin-right="40"
     fit-margin-top="40"
     showgrid="false"
     inkscape:document-rotation="0"
     inkscape:current-layer="layer1"
     inkscape:document-units="mm"
     inkscape:cy="529.64497"
     inkscape:cx="801.27242"
     inkscape:zoom="0.50373353"
     inkscape:pageshadow="2"
     inkscape:pageopacity="0.0"
     borderopacity="1.0"
     bordercolor="#666666"
     pagecolor="#ffffff"
     id="base" />
  <metadata
     id="metadata2990">
    <rdf:RDF>
      <cc:Work
         rdf:about="">
        <dc:format>image/svg+xml</dc:format>
        <dc:type
           rdf:resource="http://purl.org/dc/dcmitype/StillImage" />
        <dc:title></dc:title>
      </cc:Work>
    </rdf:RDF>
  </metadata>
  <g
     transform="translate(-225.02096,22.923428)"
     id="layer1"
     inkscape:groupmode="layer"
     inkscape:label="Layer 1">
    <g
       id="g1641"
       transform="matrix(8,0,0,8,230.62942,-12.274055)">
      <ellipse
         ry="11.563427"
         rx="19.911074"
         cy="15.332255"
         cx="24.310017"
         id="path1106"
         style="fill:none;stroke:#ff0000;stroke-width:0.2;stroke-miterlimit:4;stroke-dasharray:none;stroke-opacity:1" />
      <path
         sodipodi:nodetypes="ccccccccccccccccccccccc"
         id="path1405-9-1-2-0"
         style="fill:none;stroke:#000000;stroke-width:0.15;stroke-linecap:square;stroke-linejoin:round;stroke-miterlimit:4;stroke-dasharray:none;stroke-opacity:1"
         d="m 10.630779,21.174354 c 0.16457,0 0.25643,0.0043 0.41144,0 0.12343,-0.04203 -0.0411,-0.252156 0.0411,-0.336207 0.12343,-0.126078 0.28801,-0.126078 0.3703,0 0.0823,0.08405 -0.12343,0.252154 0,0.336207 0.0823,0 0.37099,-0.0024 0.45259,0 v 0.378232 c 0,0.126076 0.0411,0.126076 0.12343,0.04202 0.0823,-0.08405 0.28801,0.168104 0.20573,0.294182 -0.0415,0.0847 -0.16458,0.168103 -0.25342,0.108792 -0.11689,-0.02473 -0.0744,0.150721 -0.0757,0.227419 0.005,0.09512 0,0.126075 0,0.252153 h -0.45259 c -0.12343,-0.08405 0.0823,-0.252153 0,-0.336206 -0.0823,-0.126078 -0.24687,-0.126078 -0.3703,0 -0.0823,0.08406 0.0823,0.29418 -0.0411,0.336206 -0.130749,-0.0014 -0.280549,0.0062 -0.411439,0 v -0.252153 c 0,-0.08406 -0.0411,-0.294182 0.0823,-0.252157 0.0823,0.04202 0.20573,0 0.24687,-0.08405 0.0823,-0.126078 -0.12343,-0.378233 -0.20572,-0.294183 -0.0823,0.08406 -0.12343,0.08406 -0.12343,-0.04202 0,-0.126078 0.006,-0.259954 0,-0.378232 z" />
      <path
         sodipodi:nodetypes="ccccccccccccccccccccccc"
         id="path1405-9-1-2-3"
         style="fill:none;stroke:#000000;stroke-width:0.15;stroke-linecap:square;stroke-linejoin:round;stroke-miterlimit:4;stroke-dasharray:none;stroke-opacity:1"
         d="m 13.276612,21.174354 c 0.16457,0 0.25643,0.0043 0.41144,0 0.12343,-0.04203 -0.0411,-0.252156 0.0411,-0.336207 0.12343,-0.126078 0.28801,-0.126078 0.3703,0 0.0823,0.08405 -0.12343,0.252154 0,0.336207 0.0823,0 0.37099,-0.0024 0.45259,0 v 0.378232 c 0,0.126076 0.0411,0.126076 0.12343,0.04202 0.0823,-0.08405 0.28801,0.168104 0.20573,0.294182 -0.0415,0.0847 -0.16458,0.168103 -0.25342,0.108792 -0.11689,-0.02473 -0.0744,0.150721 -0.0757,0.227419 0.005,0.09512 0,0.126075 0,0.252153 h -0.45259 c -0.12343,-0.08405 0.0823,-0.252153 0,-0.336206 -0.0823,-0.126078 -0.24687,-0.126078 -0.3703,0 -0.0823,0.08406 0.0823,0.29418 -0.0411,0.336206 -0.130749,-0.0014 -0.280549,0.0062 -0.411439,0 v -0.252153 c 0,-0.08406 -0.0411,-0.294182 0.0823,-0.252157 0.0823,0.04202 0.20573,0 0.24687,-0.08405 0.0823,-0.126078 -0.12343,-0.378233 -0.20572,-0.294183 -0.0823,0.08406 -0.12343,0.08406 -0.12343,-0.04202 0,-0.126078 0.006,-0.259954 0,-0.378232 z" />
      <path
         sodipodi:nodetypes="ccccccccccccccccccccccc"
         id="path1405-9-1-2-9"
         style="fill:none;stroke:#000000;stroke-width:0.15;stroke-linecap:square;stroke-linejoin:round;stroke-miterlimit:4;stroke-dasharray:none;stroke-opacity:1"
         d="m 15.922446,21.174354 c 0.16457,0 0.25643,0.0043 0.41144,0 0.12343,-0.04203 -0.0411,-0.252156 0.0411,-0.336207 0.12343,-0.126078 0.28801,-0.126078 0.3703,0 0.0823,0.08405 -0.12343,0.252154 0,0.336207 0.0823,0 0.37099,-0.0024 0.45259,0 v 0.378232 c 0,0.126076 0.0411,0.126076 0.12343,0.04202 0.0823,-0.08405 0.28801,0.168104 0.20573,0.294182 -0.0415,0.0847 -0.16458,0.168103 -0.25342,0.108792 -0.11689,-0.02473 -0.0744,0.150721 -0.0757,0.227419 0.005,0.09512 0,0.126075 0,0.252153 h -0.45259 c -0.12343,-0.08405 0.0823,-0.252153 0,-0.336206 -0.0823,-0.126078 -0.24687,-0.126078 -0.3703,0 -0.0823,0.08406 0.0823,0.29418 -0.0411,0.336206 -0.130749,-0.0014 -0.280549,0.0062 -0.411439,0 v -0.252153 c 0,-0.08406 -0.0411,-0.294182 0.0823,-0.252157 0.0823,0.04202 0.20573,0 0.24687,-0.08405 0.0823,-0.126078 -0.12343,-0.378233 -0.20572,-0.294183 -0.0823,0.08406 -0.12343,0.08406 -0.12343,-0.04202 0,-0.126078 0.006,-0.259954 0,-0.378232 z" />
      <path
         sodipodi:nodetypes="ccccccccccccccccccccccc"
         id="path1405-9-1-2-8"
         style="fill:none;stroke:#000000;stroke-width:0.15;stroke-linecap:square;stroke-linejoin:round;stroke-miterlimit:4;stroke-dasharray:none;stroke-opacity:1"
         d="m 18.568279,21.174354 c 0.16457,0 0.25643,0.0043 0.41144,0 0.12343,-0.04203 -0.0411,-0.252156 0.0411,-0.336207 0.12343,-0.126078 0.28801,-0.126078 0.3703,0 0.0823,0.08405 -0.12343,0.252154 0,0.336207 0.0823,0 0.37099,-0.0024 0.45259,0 v 0.378232 c 0,0.126076 0.0411,0.126076 0.12343,0.04202 0.0823,-0.08405 0.28801,0.168104 0.20573,0.294182 -0.0415,0.0847 -0.16458,0.168103 -0.25342,0.108792 -0.11689,-0.02473 -0.0744,0.150721 -0.0757,0.227419 0.005,0.09512 0,0.126075 0,0.252153 h -0.45259 c -0.12343,-0.08405 0.0823,-0.252153 0,-0.336206 -0.0823,-0.126078 -0.24687,-0.126078 -0.3703,0 -0.0823,0.08406 0.0823,0.29418 -0.0411,0.336206 -0.130749,-0.0014 -0.280549,0.0062 -0.411439,0 v -0.252153 c 0,-0.08406 -0.0411,-0.294182 0.0823,-0.252157 0.0823,0.04202 0.20573,0 0.24687,-0.08405 0.0823,-0.126078 -0.12343,-0.378233 -0.20572,-0.294183 -0.0823,0.08406 -0.12343,0.08406 -0.12343,-0.04202 0,-0.126078 0.006,-0.259954 0,-0.378232 z" />
      <path
         sodipodi:nodetypes="ccccccccccccccccccccccc"
         id="path1405-9-1-2-2"
         style="fill:none;stroke:#000000;stroke-width:0.15;stroke-linecap:square;stroke-linejoin:round;stroke-miterlimit:4;stroke-dasharray:none;stroke-opacity:1"
         d="m 21.214112,21.174354 c 0.16457,0 0.25643,0.0043 0.41144,0 0.12343,-0.04203 -0.0411,-0.252156 0.0411,-0.336207 0.12343,-0.126078 0.28801,-0.126078 0.3703,0 0.0823,0.08405 -0.12343,0.252154 0,0.336207 0.0823,0 0.37099,-0.0024 0.45259,0 v 0.378232 c 0,0.126076 0.0411,0.126076 0.12343,0.04202 0.0823,-0.08405 0.28801,0.168104 0.20573,0.294182 -0.0415,0.0847 -0.16458,0.168103 -0.25342,0.108792 -0.11689,-0.02473 -0.0744,0.150721 -0.0757,0.227419 0.005,0.09512 0,0.126075 0,0.252153 h -0.45259 c -0.12343,-0.08405 0.0823,-0.252153 0,-0.336206 -0.0823,-0.126078 -0.24687,-0.126078 -0.3703,0 -0.0823,0.08406 0.0823,0.29418 -0.0411,0.336206 -0.130749,-0.0014 -0.280549,0.0062 -0.411439,0 v -0.252153 c 0,-0.08406 -0.0411,-0.294182 0.0823,-0.252157 0.0823,0.04202 0.20573,0 0.24687,-0.08405 0.0823,-0.126078 -0.12343,-0.378233 -0.20572,-0.294183 -0.0823,0.08406 -0.12343,0.08406 -0.12343,-0.04202 0,-0.126078 0.006,-0.259954 0,-0.378232 z" />
      <path
         sodipodi:nodetypes="ccccccccccccccccccccccc"
         id="path1405-9-1-2-37"
         style="fill:none;stroke:#000000;stroke-width:0.15;stroke-linecap:square;stroke-linejoin:round;stroke-miterlimit:4;stroke-dasharray:none;stroke-opacity:1"
         d="m 23.859946,21.174354 c 0.16457,0 0.25643,0.0043 0.41144,0 0.12343,-0.04203 -0.0411,-0.252156 0.0411,-0.336207 0.12343,-0.126078 0.28801,-0.126078 0.3703,0 0.0823,0.08405 -0.12343,0.252154 0,0.336207 0.0823,0 0.37099,-0.0024 0.45259,0 v 0.378232 c 0,0.126076 0.0411,0.126076 0.12343,0.04202 0.0823,-0.08405 0.28801,0.168104 0.20573,0.294182 -0.0415,0.0847 -0.16458,0.168103 -0.25342,0.108792 -0.11689,-0.02473 -0.0744,0.150721 -0.0757,0.227419 0.005,0.09512 0,0.126075 0,0.252153 h -0.45259 c -0.12343,-0.08405 0.0823,-0.252153 0,-0.336206 -0.0823,-0.126078 -0.24687,-0.126078 -0.3703,0 -0.0823,0.08406 0.0823,0.29418 -0.0411,0.336206 -0.130749,-0.0014 -0.280549,0.0062 -0.411439,0 v -0.252153 c 0,-0.08406 -0.0411,-0.294182 0.0823,-0.252157 0.0823,0.04202 0.20573,0 0.24687,-0.08405 0.0823,-0.126078 -0.12343,-0.378233 -0.20572,-0.294183 -0.0823,0.08406 -0.12343,0.08406 -0.12343,-0.04202 0,-0.126078 0.006,-0.259954 0,-0.378232 z" />
      <path
         sodipodi:nodetypes="ccccccccccccccccccccccc"
         id="path1405-9-1-2-84"
         style="fill:none;stroke:#000000;stroke-width:0.15;stroke-linecap:square;stroke-linejoin:round;stroke-miterlimit:4;stroke-dasharray:none;stroke-opacity:1"
         d="m 26.505779,21.174354 c 0.16457,0 0.25643,0.0043 0.41144,0 0.12343,-0.04203 -0.0411,-0.252156 0.0411,-0.336207 0.12343,-0.126078 0.28801,-0.126078 0.3703,0 0.0823,0.08405 -0.12343,0.252154 0,0.336207 0.0823,0 0.37099,-0.0024 0.45259,0 v 0.378232 c 0,0.126076 0.0411,0.126076 0.12343,0.04202 0.0823,-0.08405 0.28801,0.168104 0.20573,0.294182 -0.0415,0.0847 -0.16458,0.168103 -0.25342,0.108792 -0.11689,-0.02473 -0.0744,0.150721 -0.0757,0.227419 0.005,0.09512 0,0.126075 0,0.252153 h -0.45259 c -0.12343,-0.08405 0.0823,-0.252153 0,-0.336206 -0.0823,-0.126078 -0.24687,-0.126078 -0.3703,0 -0.0823,0.08406 0.0823,0.29418 -0.0411,0.336206 -0.130749,-0.0014 -0.280549,0.0062 -0.411439,0 v -0.252153 c 0,-0.08406 -0.0411,-0.294182 0.0823,-0.252157 0.0823,0.04202 0.20573,0 0.24687,-0.08405 0.0823,-0.126078 -0.12343,-0.378233 -0.20572,-0.294183 -0.0823,0.08406 -0.12343,0.08406 -0.12343,-0.04202 0,-0.126078 0.006,-0.259954 0,-0.378232 z" />
      <path
         sodipodi:nodetypes="ccccccccccccccccccccccc"
         id="path1405-9-1-2-1"
         style="fill:none;stroke:#000000;stroke-width:0.15;stroke-linecap:square;stroke-linejoin:round;stroke-miterlimit:4;stroke-dasharray:none;stroke-opacity:1"
         d="m 29.151612,21.174354 c 0.16457,0 0.25643,0.0043 0.41144,0 0.12343,-0.04203 -0.0411,-0.252156 0.0411,-0.336207 0.12343,-0.126078 0.28801,-0.126078 0.3703,0 0.0823,0.08405 -0.12343,0.252154 0,0.336207 0.0823,0 0.37099,-0.0024 0.45259,0 v 0.378232 c 0,0.126076 0.0411,0.126076 0.12343,0.04202 0.0823,-0.08405 0.28801,0.168104 0.20573,0.294182 -0.0415,0.0847 -0.16458,0.168103 -0.25342,0.108792 -0.11689,-0.02473 -0.0744,0.150721 -0.0757,0.227419 0.005,0.09512 0,0.126075 0,0.252153 h -0.45259 c -0.12343,-0.08405 0.0823,-0.252153 0,-0.336206 -0.0823,-0.126078 -0.24687,-0.126078 -0.3703,0 -0.0823,0.08406 0.0823,0.29418 -0.0411,0.336206 -0.130749,-0.0014 -0.280549,0.0062 -0.411439,0 v -0.252153 c 0,-0.08406 -0.0411,-0.294182 0.0823,-0.252157 0.0823,0.04202 0.20573,0 0.24687,-0.08405 0.0823,-0.126078 -0.12343,-0.378233 -0.20572,-0.294183 -0.0823,0.08406 -0.12343,0.08406 -0.12343,-0.04202 0,-0.126078 0.006,-0.259954 0,-0.378232 z" />
      <path
         sodipodi:nodetypes="ccccccccccccccccccccccc"
         id="path1405-9-1-2-840"
         style="fill:none;stroke:#000000;stroke-width:0.15;stroke-linecap:square;stroke-linejoin:round;stroke-miterlimit:4;stroke-dasharray:none;stroke-opacity:1"
         d="m 31.797446,21.174354 c 0.16457,0 0.25643,0.0043 0.41144,0 0.12343,-0.04203 -0.0411,-0.252156 0.0411,-0.336207 0.12343,-0.126078 0.28801,-0.126078 0.3703,0 0.0823,0.08405 -0.12343,0.252154 0,0.336207 0.0823,0 0.37099,-0.0024 0.45259,0 v 0.378232 c 0,0.126076 0.0411,0.126076 0.12343,0.04202 0.0823,-0.08405 0.28801,0.168104 0.20573,0.294182 -0.0415,0.0847 -0.16458,0.168103 -0.25342,0.108792 -0.11689,-0.02473 -0.0744,0.150721 -0.0757,0.227419 0.005,0.09512 0,0.126075 0,0.252153 h -0.45259 c -0.12343,-0.08405 0.0823,-0.252153 0,-0.336206 -0.0823,-0.126078 -0.24687,-0.126078 -0.3703,0 -0.0823,0.08406 0.0823,0.29418 -0.0411,0.336206 -0.130749,-0.0014 -0.280549,0.0062 -0.411439,0 v -0.252153 c 0,-0.08406 -0.0411,-0.294182 0.0823,-0.252157 0.0823,0.04202 0.20573,0 0.24687,-0.08405 0.0823,-0.126078 -0.12343,-0.378233 -0.20572,-0.294183 -0.0823,0.08406 -0.12343,0.08406 -0.12343,-0.04202 0,-0.126078 0.006,-0.259954 0,-0.378232 z" />
      <path
         sodipodi:nodetypes="ccccccccccccccccccccccc"
         id="path1405-9-1-2-7"
         style="fill:none;stroke:#000000;stroke-width:0.15;stroke-linecap:square;stroke-linejoin:round;stroke-miterlimit:4;stroke-dasharray:none;stroke-opacity:1"
         d="m 34.443279,21.174354 c 0.16457,0 0.25643,0.0043 0.41144,0 0.12343,-0.04203 -0.0411,-0.252156 0.0411,-0.336207 0.12343,-0.126078 0.28801,-0.126078 0.3703,0 0.0823,0.08405 -0.12343,0.252154 0,0.336207 0.0823,0 0.37099,-0.0024 0.45259,0 v 0.378232 c 0,0.126076 0.0411,0.126076 0.12343,0.04202 0.0823,-0.08405 0.28801,0.168104 0.20573,0.294182 -0.0415,0.0847 -0.16458,0.168103 -0.25342,0.108792 -0.11689,-0.02473 -0.0744,0.150721 -0.0757,0.227419 0.005,0.09512 0,0.126075 0,0.252153 h -0.45259 c -0.12343,-0.08405 0.0823,-0.252153 0,-0.336206 -0.0823,-0.126078 -0.24687,-0.126078 -0.3703,0 -0.0823,0.08406 0.0823,0.29418 -0.0411,0.336206 -0.130749,-0.0014 -0.280549,0.0062 -0.411439,0 v -0.252153 c 0,-0.08406 -0.0411,-0.294182 0.0823,-0.252157 0.0823,0.04202 0.20573,0 0.24687,-0.08405 0.0823,-0.126078 -0.12343,-0.378233 -0.20572,-0.294183 -0.0823,0.08406 -0.12343,0.08406 -0.12343,-0.04202 0,-0.126078 0.006,-0.259954 0,-0.378232 z" />
      <path
         sodipodi:nodetypes="ccccccccccccccccccccccc"
         id="path1405-9-1-2-6"
         style="fill:none;stroke:#000000;stroke-width:0.15;stroke-linecap:square;stroke-linejoin:round;stroke-miterlimit:4;stroke-dasharray:none;stroke-opacity:1"
         d="m 37.089112,21.174354 c 0.16457,0 0.25643,0.0043 0.41144,0 0.12343,-0.04203 -0.0411,-0.252156 0.0411,-0.336207 0.12343,-0.126078 0.28801,-0.126078 0.3703,0 0.0823,0.08405 -0.12343,0.252154 0,0.336207 0.0823,0 0.37099,-0.0024 0.45259,0 v 0.378232 c 0,0.126076 0.0411,0.126076 0.12343,0.04202 0.0823,-0.08405 0.28801,0.168104 0.20573,0.294182 -0.0415,0.0847 -0.16458,0.168103 -0.25342,0.108792 -0.11689,-0.02473 -0.0744,0.150721 -0.0757,0.227419 0.005,0.09512 0,0.126075 0,0.252153 h -0.45259 c -0.12343,-0.08405 0.0823,-0.252153 0,-0.336206 -0.0823,-0.126078 -0.24687,-0.126078 -0.3703,0 -0.0823,0.08406 0.0823,0.29418 -0.0411,0.336206 -0.130749,-0.0014 -0.280549,0.0062 -0.411439,0 v -0.252153 c 0,-0.08406 -0.0411,-0.294182 0.0823,-0.252157 0.0823,0.04202 0.20573,0 0.24687,-0.08405 0.0823,-0.126078 -0.12343,-0.378233 -0.20572,-0.294183 -0.0823,0.08406 -0.12343,0.08406 -0.12343,-0.04202 0,-0.126078 0.006,-0.259954 0,-0.378232 z" />
      <path
         d="m 11.953696,18.528521 c 0.16457,0 0.25643,0.0043 0.41144,0 0.12343,-0.04203 -0.0411,-0.252156 0.0411,-0.336207 0.12343,-0.126078 0.28801,-0.126078 0.3703,0 0.0823,0.08405 -0.12343,0.252154 0,0.336207 0.0823,0 0.37099,-0.0024 0.45259,0 v 0.378232 c 0,0.126076 0.0411,0.126076 0.12343,0.04202 0.0823,-0.08405 0.28801,0.168104 0.20573,0.294182 -0.0415,0.0847 -0.16458,0.168103 -0.25342,0.108792 -0.11689,-0.02473 -0.0744,0.150721 -0.0757,0.227419 0.005,0.09512 0,0.126075 0,0.252153 h -0.45259 c -0.12343,-0.08405 0.0823,-0.252153 0,-0.336206 -0.0823,-0.126078 -0.24687,-0.126078 -0.3703,0 -0.0823,0.08406 0.0823,0.29418 -0.0411,0.336206 -0.130749,-0.0014 -0.280549,0.0062 -0.411439,0 v -0.252153 c 0,-0.08406 -0.0411,-0.294182 0.0823,-0.252157 0.0823,0.04202 0.20573,0 0.24687,-0.08405 0.0823,-0.126078 -0.12343,-0.378233 -0.20572,-0.294183 -0.0823,0.08406 -0.12343,0.08406 -0.12343,-0.04202 0,-0.126078 0.006,-0.259954 0,-0.378232 z"
         style="fill:none;stroke:#000000;stroke-width:0.15;stroke-linecap:square;stroke-linejoin:round;stroke-miterlimit:4;stroke-dasharray:none;stroke-opacity:1"
         id="path1405-9-1-2-0-4"
         sodipodi:nodetypes="ccccccccccccccccccccccc" />
      <path
         d="m 14.599529,18.528521 c 0.16457,0 0.25643,0.0043 0.41144,0 0.12343,-0.04203 -0.0411,-0.252156 0.0411,-0.336207 0.12343,-0.126078 0.28801,-0.126078 0.3703,0 0.0823,0.08405 -0.12343,0.252154 0,0.336207 0.0823,0 0.37099,-0.0024 0.45259,0 v 0.378232 c 0,0.126076 0.0411,0.126076 0.12343,0.04202 0.0823,-0.08405 0.28801,0.168104 0.20573,0.294182 -0.0415,0.0847 -0.16458,0.168103 -0.25342,0.108792 -0.11689,-0.02473 -0.0744,0.150721 -0.0757,0.227419 0.005,0.09512 0,0.126075 0,0.252153 h -0.45259 c -0.12343,-0.08405 0.0823,-0.252153 0,-0.336206 -0.0823,-0.126078 -0.24687,-0.126078 -0.3703,0 -0.0823,0.08406 0.0823,0.29418 -0.0411,0.336206 -0.130749,-0.0014 -0.280549,0.0062 -0.411439,0 v -0.252153 c 0,-0.08406 -0.0411,-0.294182 0.0823,-0.252157 0.0823,0.04202 0.20573,0 0.24687,-0.08405 0.0823,-0.126078 -0.12343,-0.378233 -0.20572,-0.294183 -0.0823,0.08406 -0.12343,0.08406 -0.12343,-0.04202 0,-0.126078 0.006,-0.259954 0,-0.378232 z"
         style="fill:none;stroke:#000000;stroke-width:0.15;stroke-linecap:square;stroke-linejoin:round;stroke-miterlimit:4;stroke-dasharray:none;stroke-opacity:1"
         id="path1405-9-1-2-3-6"
         sodipodi:nodetypes="ccccccccccccccccccccccc" />
      <path
         d="m 17.245363,18.528521 c 0.16457,0 0.25643,0.0043 0.41144,0 0.12343,-0.04203 -0.0411,-0.252156 0.0411,-0.336207 0.12343,-0.126078 0.28801,-0.126078 0.3703,0 0.0823,0.08405 -0.12343,0.252154 0,0.336207 0.0823,0 0.37099,-0.0024 0.452589,0 v 0.378232 c 0,0.126076 0.0411,0.126076 0.123431,0.04202 0.0823,-0.08405 0.28801,0.168104 0.20573,0.294182 -0.0415,0.0847 -0.16458,0.168103 -0.25342,0.108792 -0.11689,-0.02473 -0.0744,0.150721 -0.0757,0.227419 0.005,0.09512 0,0.126075 0,0.252153 h -0.45259 c -0.12343,-0.08405 0.0823,-0.252153 0,-0.336206 -0.0823,-0.126078 -0.24687,-0.126078 -0.3703,0 -0.0823,0.08406 0.0823,0.29418 -0.0411,0.336206 -0.130749,-0.0014 -0.280549,0.0062 -0.411439,0 v -0.252153 c 0,-0.08406 -0.0411,-0.294182 0.0823,-0.252157 0.0823,0.04202 0.20573,0 0.24687,-0.08405 0.0823,-0.126078 -0.12343,-0.378233 -0.20572,-0.294183 -0.0823,0.08406 -0.12343,0.08406 -0.12343,-0.04202 0,-0.126078 0.006,-0.259954 0,-0.378232 z"
         style="fill:none;stroke:#000000;stroke-width:0.15;stroke-linecap:square;stroke-linejoin:round;stroke-miterlimit:4;stroke-dasharray:none;stroke-opacity:1"
         id="path1405-9-1-2-9-3"
         sodipodi:nodetypes="ccccccccccccccccccccccc" />
      <path
         d="m 19.891196,18.528521 c 0.16457,0 0.25643,0.0043 0.41144,0 0.12343,-0.04203 -0.0411,-0.252156 0.0411,-0.336207 0.12343,-0.126078 0.28801,-0.126078 0.3703,0 0.0823,0.08405 -0.12343,0.252154 0,0.336207 0.0823,0 0.37099,-0.0024 0.45259,0 v 0.378232 c 0,0.126076 0.0411,0.126076 0.12343,0.04202 0.0823,-0.08405 0.28801,0.168104 0.20573,0.294182 -0.0415,0.0847 -0.16458,0.168103 -0.25342,0.108792 -0.11689,-0.02473 -0.0744,0.150721 -0.0757,0.227419 0.005,0.09512 0,0.126075 0,0.252153 h -0.45259 c -0.12343,-0.08405 0.0823,-0.252153 0,-0.336206 -0.0823,-0.126078 -0.24687,-0.126078 -0.3703,0 -0.0823,0.08406 0.0823,0.29418 -0.0411,0.336206 -0.130749,-0.0014 -0.280549,0.0062 -0.411439,0 v -0.252153 c 0,-0.08406 -0.0411,-0.294182 0.0823,-0.252157 0.0823,0.04202 0.20573,0 0.246869,-0.08405 0.0823,-0.126078 -0.123429,-0.378233 -0.205719,-0.294183 -0.0823,0.08406 -0.12343,0.08406 -0.12343,-0.04202 0,-0.126078 0.006,-0.259954 0,-0.378232 z"
         style="fill:none;stroke:#000000;stroke-width:0.15;stroke-linecap:square;stroke-linejoin:round;stroke-miterlimit:4;stroke-dasharray:none;stroke-opacity:1"
         id="path1405-9-1-2-8-1"
         sodipodi:nodetypes="ccccccccccccccccccccccc" />
      <path
         d="m 22.537029,18.528521 c 0.16457,0 0.25643,0.0043 0.41144,0 0.12343,-0.04203 -0.0411,-0.252156 0.0411,-0.336207 0.12343,-0.126078 0.28801,-0.126078 0.3703,0 0.0823,0.08405 -0.12343,0.252154 0,0.336207 0.0823,0 0.37099,-0.0024 0.45259,0 v 0.378232 c 0,0.126076 0.0411,0.126076 0.12343,0.04202 0.0823,-0.08405 0.28801,0.168104 0.20573,0.294182 -0.0415,0.0847 -0.16458,0.168103 -0.25342,0.108792 -0.11689,-0.02473 -0.0744,0.150721 -0.0757,0.227419 0.005,0.09512 0,0.126075 0,0.252153 h -0.45259 c -0.12343,-0.08405 0.0823,-0.252153 0,-0.336206 -0.0823,-0.126078 -0.24687,-0.126078 -0.3703,0 -0.0823,0.08406 0.0823,0.29418 -0.0411,0.336206 -0.130749,-0.0014 -0.280549,0.0062 -0.411439,0 v -0.252153 c 0,-0.08406 -0.0411,-0.294182 0.0823,-0.252157 0.0823,0.04202 0.20573,0 0.24687,-0.08405 0.0823,-0.126078 -0.12343,-0.378233 -0.20572,-0.294183 -0.0823,0.08406 -0.12343,0.08406 -0.12343,-0.04202 0,-0.126078 0.006,-0.259954 0,-0.378232 z"
         style="fill:none;stroke:#000000;stroke-width:0.15;stroke-linecap:square;stroke-linejoin:round;stroke-miterlimit:4;stroke-dasharray:none;stroke-opacity:1"
         id="path1405-9-1-2-2-2"
         sodipodi:nodetypes="ccccccccccccccccccccccc" />
      <path
         d="m 25.182863,18.528521 c 0.16457,0 0.25643,0.0043 0.41144,0 0.12343,-0.04203 -0.0411,-0.252156 0.0411,-0.336207 0.12343,-0.126078 0.28801,-0.126078 0.3703,0 0.0823,0.08405 -0.12343,0.252154 0,0.336207 0.0823,0 0.37099,-0.0024 0.45259,0 v 0.378232 c 0,0.126076 0.0411,0.126076 0.12343,0.04202 0.0823,-0.08405 0.28801,0.168104 0.20573,0.294182 -0.0415,0.0847 -0.16458,0.168103 -0.25342,0.108792 -0.11689,-0.02473 -0.0744,0.150721 -0.0757,0.227419 0.005,0.09512 0,0.126075 0,0.252153 h -0.45259 c -0.12343,-0.08405 0.0823,-0.252153 0,-0.336206 -0.0823,-0.126078 -0.24687,-0.126078 -0.3703,0 -0.0823,0.08406 0.0823,0.29418 -0.0411,0.336206 -0.130749,-0.0014 -0.280549,0.0062 -0.411439,0 v -0.252153 c 0,-0.08406 -0.0411,-0.294182 0.0823,-0.252157 0.0823,0.04202 0.20573,0 0.24687,-0.08405 0.0823,-0.126078 -0.12343,-0.378233 -0.20572,-0.294183 -0.0823,0.08406 -0.12343,0.08406 -0.12343,-0.04202 0,-0.126078 0.006,-0.259954 0,-0.378232 z"
         style="fill:none;stroke:#000000;stroke-width:0.15;stroke-linecap:square;stroke-linejoin:round;stroke-miterlimit:4;stroke-dasharray:none;stroke-opacity:1"
         id="path1405-9-1-2-37-6"
         sodipodi:nodetypes="ccccccccccccccccccccccc" />
      <path
         d="m 27.828696,18.528521 c 0.16457,0 0.25643,0.0043 0.41144,0 0.12343,-0.04203 -0.0411,-0.252156 0.0411,-0.336207 0.12343,-0.126078 0.28801,-0.126078 0.3703,0 0.0823,0.08405 -0.12343,0.252154 0,0.336207 0.0823,0 0.37099,-0.0024 0.45259,0 v 0.378232 c 0,0.126076 0.0411,0.126076 0.12343,0.04202 0.0823,-0.08405 0.28801,0.168104 0.20573,0.294182 -0.0415,0.0847 -0.16458,0.168103 -0.25342,0.108792 -0.11689,-0.02473 -0.0744,0.150721 -0.0757,0.227419 0.005,0.09512 0,0.126075 0,0.252153 h -0.45259 c -0.12343,-0.08405 0.0823,-0.252153 0,-0.336206 -0.0823,-0.126078 -0.24687,-0.126078 -0.3703,0 -0.0823,0.08406 0.0823,0.29418 -0.0411,0.336206 -0.130749,-0.0014 -0.280549,0.0062 -0.411439,0 v -0.252153 c 0,-0.08406 -0.0411,-0.294182 0.0823,-0.252157 0.0823,0.04202 0.20573,0 0.24687,-0.08405 0.0823,-0.126078 -0.12343,-0.378233 -0.20572,-0.294183 -0.0823,0.08406 -0.12343,0.08406 -0.12343,-0.04202 0,-0.126078 0.006,-0.259954 0,-0.378232 z"
         style="fill:none;stroke:#000000;stroke-width:0.15;stroke-linecap:square;stroke-linejoin:round;stroke-miterlimit:4;stroke-dasharray:none;stroke-opacity:1"
         id="path1405-9-1-2-84-0"
         sodipodi:nodetypes="ccccccccccccccccccccccc" />
      <path
         d="m 30.474529,18.528521 c 0.16457,0 0.25643,0.0043 0.41144,0 0.12343,-0.04203 -0.0411,-0.252156 0.0411,-0.336207 0.12343,-0.126078 0.28801,-0.126078 0.3703,0 0.0823,0.08405 -0.12343,0.252154 0,0.336207 0.0823,0 0.37099,-0.0024 0.45259,0 v 0.378232 c 0,0.126076 0.0411,0.126076 0.12343,0.04202 0.0823,-0.08405 0.28801,0.168104 0.20573,0.294182 -0.0415,0.0847 -0.16458,0.168103 -0.25342,0.108792 -0.11689,-0.02473 -0.0744,0.150721 -0.0757,0.227419 0.005,0.09512 0,0.126075 0,0.252153 h -0.45259 c -0.12343,-0.08405 0.0823,-0.252153 0,-0.336206 -0.0823,-0.126078 -0.24687,-0.126078 -0.3703,0 -0.0823,0.08406 0.0823,0.29418 -0.0411,0.336206 -0.130749,-0.0014 -0.280549,0.0062 -0.411439,0 v -0.252153 c 0,-0.08406 -0.0411,-0.294182 0.0823,-0.252157 0.0823,0.04202 0.20573,0 0.24687,-0.08405 0.0823,-0.126078 -0.12343,-0.378233 -0.20572,-0.294183 -0.0823,0.08406 -0.12343,0.08406 -0.12343,-0.04202 0,-0.126078 0.006,-0.259954 0,-0.378232 z"
         style="fill:none;stroke:#000000;stroke-width:0.15;stroke-linecap:square;stroke-linejoin:round;stroke-miterlimit:4;stroke-dasharray:none;stroke-opacity:1"
         id="path1405-9-1-2-1-0"
         sodipodi:nodetypes="ccccccccccccccccccccccc" />
      <path
         d="m 33.120363,18.528521 c 0.16457,0 0.25643,0.0043 0.41144,0 0.12343,-0.04203 -0.0411,-0.252156 0.0411,-0.336207 0.12343,-0.126078 0.28801,-0.126078 0.3703,0 0.0823,0.08405 -0.12343,0.252154 0,0.336207 0.0823,0 0.37099,-0.0024 0.45259,0 v 0.378232 c 0,0.126076 0.0411,0.126076 0.12343,0.04202 0.0823,-0.08405 0.28801,0.168104 0.20573,0.294182 -0.0415,0.0847 -0.16458,0.168103 -0.25342,0.108792 -0.11689,-0.02473 -0.0744,0.150721 -0.0757,0.227419 0.005,0.09512 0,0.126075 0,0.252153 h -0.45259 c -0.12343,-0.08405 0.0823,-0.252153 0,-0.336206 -0.0823,-0.126078 -0.24687,-0.126078 -0.3703,0 -0.0823,0.08406 0.0823,0.29418 -0.0411,0.336206 -0.130749,-0.0014 -0.280549,0.0062 -0.411439,0 v -0.252153 c 0,-0.08406 -0.0411,-0.294182 0.0823,-0.252157 0.0823,0.04202 0.20573,0 0.24687,-0.08405 0.0823,-0.126078 -0.12343,-0.378233 -0.20572,-0.294183 -0.0823,0.08406 -0.12343,0.08406 -0.12343,-0.04202 0,-0.126078 0.006,-0.259954 0,-0.378232 z"
         style="fill:none;stroke:#000000;stroke-width:0.15;stroke-linecap:square;stroke-linejoin:round;stroke-miterlimit:4;stroke-dasharray:none;stroke-opacity:1"
         id="path1405-9-1-2-840-8"
         sodipodi:nodetypes="ccccccccccccccccccccccc" />
      <path
         d="m 35.766196,18.528521 c 0.16457,0 0.25643,0.0043 0.41144,0 0.12343,-0.04203 -0.0411,-0.252156 0.0411,-0.336207 0.12343,-0.126078 0.28801,-0.126078 0.3703,0 0.0823,0.08405 -0.12343,0.252154 0,0.336207 0.0823,0 0.37099,-0.0024 0.45259,0 v 0.378232 c 0,0.126076 0.0411,0.126076 0.12343,0.04202 0.0823,-0.08405 0.28801,0.168104 0.20573,0.294182 -0.0415,0.0847 -0.16458,0.168103 -0.25342,0.108792 -0.11689,-0.02473 -0.0744,0.150721 -0.0757,0.227419 0.005,0.09512 0,0.126075 0,0.252153 h -0.45259 c -0.12343,-0.08405 0.0823,-0.252153 0,-0.336206 -0.0823,-0.126078 -0.24687,-0.126078 -0.3703,0 -0.0823,0.08406 0.0823,0.29418 -0.0411,0.336206 -0.130749,-0.0014 -0.280549,0.0062 -0.411439,0 v -0.252153 c 0,-0.08406 -0.0411,-0.294182 0.0823,-0.252157 0.0823,0.04202 0.20573,0 0.24687,-0.08405 0.0823,-0.126078 -0.12343,-0.378233 -0.20572,-0.294183 -0.0823,0.08406 -0.12343,0.08406 -0.12343,-0.04202 0,-0.126078 0.006,-0.259954 0,-0.378232 z"
         style="fill:none;stroke:#000000;stroke-width:0.15;stroke-linecap:square;stroke-linejoin:round;stroke-miterlimit:4;stroke-dasharray:none;stroke-opacity:1"
         id="path1405-9-1-2-7-9"
         sodipodi:nodetypes="ccccccccccccccccccccccc" />
      <path
         d="m 13.276612,15.882687 c 0.16457,0 0.25643,0.0043 0.41144,0 0.12343,-0.04203 -0.0411,-0.252156 0.0411,-0.336207 0.12343,-0.126078 0.28801,-0.126078 0.3703,0 0.0823,0.08405 -0.12343,0.252154 0,0.336207 0.0823,0 0.37099,-0.0024 0.45259,0 v 0.378232 c 0,0.126076 0.0411,0.126076 0.12343,0.04202 0.0823,-0.08405 0.28801,0.168104 0.20573,0.294182 -0.0415,0.0847 -0.16458,0.168103 -0.25342,0.108792 -0.11689,-0.02473 -0.0744,0.150721 -0.0757,0.227419 0.005,0.09512 0,0.126075 0,0.252153 h -0.45259 c -0.12343,-0.08405 0.0823,-0.252153 0,-0.336206 -0.0823,-0.126078 -0.24687,-0.126078 -0.3703,0 -0.0823,0.08406 0.0823,0.29418 -0.0411,0.336206 -0.130749,-0.0014 -0.280549,0.0062 -0.411439,0 v -0.252153 c 0,-0.08406 -0.0411,-0.294182 0.0823,-0.252157 0.0823,0.04202 0.20573,0 0.24687,-0.08405 0.0823,-0.126078 -0.12343,-0.378233 -0.20572,-0.294183 -0.0823,0.08406 -0.12343,0.08406 -0.12343,-0.04202 0,-0.126078 0.006,-0.259954 0,-0.378232 z"
         style="fill:none;stroke:#000000;stroke-width:0.15;stroke-linecap:square;stroke-linejoin:round;stroke-miterlimit:4;stroke-dasharray:none;stroke-opacity:1"
         id="path1405-9-1-2-0-43"
         sodipodi:nodetypes="ccccccccccccccccccccccc" />
      <path
         d="m 15.922445,15.882687 c 0.16457,0 0.25643,0.0043 0.41144,0 0.12343,-0.04203 -0.0411,-0.252156 0.0411,-0.336207 0.12343,-0.126078 0.288011,-0.126078 0.3703,0 0.0823,0.08405 -0.12343,0.252154 0,0.336207 0.0823,0 0.37099,-0.0024 0.452591,0 v 0.378232 c 0,0.126076 0.0411,0.126076 0.12343,0.04202 0.0823,-0.08405 0.28801,0.168104 0.20573,0.294182 -0.0415,0.0847 -0.16458,0.168103 -0.25342,0.108792 -0.116891,-0.02473 -0.0744,0.150721 -0.0757,0.227419 0.005,0.09512 0,0.126075 0,0.252153 h -0.452591 c -0.12343,-0.08405 0.0823,-0.252153 0,-0.336206 -0.0823,-0.126078 -0.24687,-0.126078 -0.3703,0 -0.0823,0.08406 0.0823,0.29418 -0.0411,0.336206 -0.130748,-0.0014 -0.280549,0.0062 -0.411439,0 v -0.252153 c 0,-0.08406 -0.0411,-0.294182 0.0823,-0.252157 0.0823,0.04202 0.20573,0 0.24687,-0.08405 0.0823,-0.126078 -0.12343,-0.378233 -0.205719,-0.294183 -0.0823,0.08406 -0.12343,0.08406 -0.12343,-0.04202 0,-0.126078 0.006,-0.259954 0,-0.378232 z"
         style="fill:none;stroke:#000000;stroke-width:0.15;stroke-linecap:square;stroke-linejoin:round;stroke-miterlimit:4;stroke-dasharray:none;stroke-opacity:1"
         id="path1405-9-1-2-3-1"
         sodipodi:nodetypes="ccccccccccccccccccccccc" />
      <path
         d="m 18.568279,15.882687 c 0.16457,0 0.25643,0.0043 0.41144,0 0.123431,-0.04203 -0.0411,-0.252156 0.0411,-0.336207 0.12343,-0.126078 0.28801,-0.126078 0.3703,0 0.0823,0.08405 -0.12343,0.252154 0,0.336207 0.0823,0 0.37099,-0.0024 0.45259,0 v 0.378232 c 0,0.126076 0.0411,0.126076 0.12343,0.04202 0.0823,-0.08405 0.28801,0.168104 0.20573,0.294182 -0.0415,0.0847 -0.16458,0.168103 -0.25342,0.108792 -0.11689,-0.02473 -0.0744,0.150721 -0.0757,0.227419 0.005,0.09512 0,0.126075 0,0.252153 h -0.45259 c -0.12343,-0.08405 0.0823,-0.252153 0,-0.336206 -0.0823,-0.126078 -0.24687,-0.126078 -0.3703,0 -0.0823,0.08406 0.0823,0.29418 -0.0411,0.336206 -0.130749,-0.0014 -0.280549,0.0062 -0.411439,0 v -0.252153 c 0,-0.08406 -0.0411,-0.294182 0.0823,-0.252157 0.0823,0.04202 0.20573,0 0.24687,-0.08405 0.0823,-0.126078 -0.123429,-0.378233 -0.20572,-0.294183 -0.0823,0.08406 -0.12343,0.08406 -0.12343,-0.04202 0,-0.126078 0.006,-0.259954 0,-0.378232 z"
         style="fill:none;stroke:#000000;stroke-width:0.15;stroke-linecap:square;stroke-linejoin:round;stroke-miterlimit:4;stroke-dasharray:none;stroke-opacity:1"
         id="path1405-9-1-2-9-8"
         sodipodi:nodetypes="ccccccccccccccccccccccc" />
      <path
         d="m 21.214112,15.882687 c 0.16457,0 0.256431,0.0043 0.41144,0 0.12343,-0.04203 -0.0411,-0.252156 0.0411,-0.336207 0.12343,-0.126078 0.28801,-0.126078 0.3703,0 0.0823,0.08405 -0.12343,0.252154 0,0.336207 0.0823,0 0.37099,-0.0024 0.45259,0 v 0.378232 c 0,0.126076 0.0411,0.126076 0.12343,0.04202 0.0823,-0.08405 0.28801,0.168104 0.20573,0.294182 -0.0415,0.0847 -0.16458,0.168103 -0.25342,0.108792 -0.11689,-0.02473 -0.0744,0.150721 -0.0757,0.227419 0.005,0.09512 0,0.126075 0,0.252153 h -0.45259 c -0.12343,-0.08405 0.0823,-0.252153 0,-0.336206 -0.0823,-0.126078 -0.24687,-0.126078 -0.3703,0 -0.0823,0.08406 0.0823,0.29418 -0.0411,0.336206 -0.130748,-0.0014 -0.280548,0.0062 -0.411439,0 v -0.252153 c 0,-0.08406 -0.0411,-0.294182 0.0823,-0.252157 0.0823,0.04202 0.20573,0 0.24687,-0.08405 0.0823,-0.126078 -0.12343,-0.378233 -0.20572,-0.294183 -0.0823,0.08406 -0.12343,0.08406 -0.12343,-0.04202 0,-0.126078 0.006,-0.259954 0,-0.378232 z"
         style="fill:none;stroke:#000000;stroke-width:0.15;stroke-linecap:square;stroke-linejoin:round;stroke-miterlimit:4;stroke-dasharray:none;stroke-opacity:1"
         id="path1405-9-1-2-8-0"
         sodipodi:nodetypes="ccccccccccccccccccccccc" />
      <path
         d="m 23.859946,15.882687 c 0.16457,0 0.25643,0.0043 0.41144,0 0.12343,-0.04203 -0.0411,-0.252156 0.0411,-0.336207 0.12343,-0.126078 0.28801,-0.126078 0.3703,0 0.0823,0.08405 -0.12343,0.252154 0,0.336207 0.0823,0 0.37099,-0.0024 0.45259,0 v 0.378232 c 0,0.126076 0.0411,0.126076 0.12343,0.04202 0.0823,-0.08405 0.28801,0.168104 0.20573,0.294182 -0.0415,0.0847 -0.16458,0.168103 -0.25342,0.108792 -0.11689,-0.02473 -0.0744,0.150721 -0.0757,0.227419 0.005,0.09512 0,0.126075 0,0.252153 h -0.45259 c -0.12343,-0.08405 0.0823,-0.252153 0,-0.336206 -0.0823,-0.126078 -0.24687,-0.126078 -0.3703,0 -0.0823,0.08406 0.0823,0.29418 -0.0411,0.336206 -0.130749,-0.0014 -0.280549,0.0062 -0.411439,0 v -0.252153 c 0,-0.08406 -0.0411,-0.294182 0.0823,-0.252157 0.0823,0.04202 0.20573,0 0.24687,-0.08405 0.0823,-0.126078 -0.12343,-0.378233 -0.20572,-0.294183 -0.0823,0.08406 -0.12343,0.08406 -0.12343,-0.04202 0,-0.126078 0.006,-0.259954 0,-0.378232 z"
         style="fill:none;stroke:#000000;stroke-width:0.15;stroke-linecap:square;stroke-linejoin:round;stroke-miterlimit:4;stroke-dasharray:none;stroke-opacity:1"
         id="path1405-9-1-2-2-5"
         sodipodi:nodetypes="ccccccccccccccccccccccc" />
      <path
         d="m 26.50578,15.882687 c 0.16457,0 0.25643,0.0043 0.41144,0 0.12343,-0.04203 -0.0411,-0.252156 0.0411,-0.336207 0.12343,-0.126078 0.28801,-0.126078 0.3703,0 0.0823,0.08405 -0.12343,0.252154 0,0.336207 0.0823,0 0.37099,-0.0024 0.45259,0 v 0.378232 c 0,0.126076 0.0411,0.126076 0.12343,0.04202 0.0823,-0.08405 0.28801,0.168104 0.20573,0.294182 -0.0415,0.0847 -0.16458,0.168103 -0.25342,0.108792 -0.11689,-0.02473 -0.0744,0.150721 -0.0757,0.227419 0.005,0.09512 0,0.126075 0,0.252153 h -0.45259 c -0.12343,-0.08405 0.0823,-0.252153 0,-0.336206 -0.0823,-0.126078 -0.24687,-0.126078 -0.3703,0 -0.0823,0.08406 0.0823,0.29418 -0.0411,0.336206 -0.130749,-0.0014 -0.280549,0.0062 -0.411439,0 v -0.252153 c 0,-0.08406 -0.0411,-0.294182 0.0823,-0.252157 0.0823,0.04202 0.20573,0 0.24687,-0.08405 0.0823,-0.126078 -0.12343,-0.378233 -0.20572,-0.294183 -0.0823,0.08406 -0.12343,0.08406 -0.12343,-0.04202 0,-0.126078 0.006,-0.259954 0,-0.378232 z"
         style="fill:none;stroke:#000000;stroke-width:0.15;stroke-linecap:square;stroke-linejoin:round;stroke-miterlimit:4;stroke-dasharray:none;stroke-opacity:1"
         id="path1405-9-1-2-37-8"
         sodipodi:nodetypes="ccccccccccccccccccccccc" />
      <path
         d="m 29.151613,15.882687 c 0.16457,0 0.25643,0.0043 0.41144,0 0.12343,-0.04203 -0.0411,-0.252156 0.0411,-0.336207 0.12343,-0.126078 0.28801,-0.126078 0.3703,0 0.0823,0.08405 -0.12343,0.252154 0,0.336207 0.0823,0 0.37099,-0.0024 0.45259,0 v 0.378232 c 0,0.126076 0.0411,0.126076 0.12343,0.04202 0.0823,-0.08405 0.28801,0.168104 0.20573,0.294182 -0.0415,0.0847 -0.16458,0.168103 -0.25342,0.108792 -0.11689,-0.02473 -0.0744,0.150721 -0.0757,0.227419 0.005,0.09512 0,0.126075 0,0.252153 h -0.45259 c -0.12343,-0.08405 0.0823,-0.252153 0,-0.336206 -0.0823,-0.126078 -0.24687,-0.126078 -0.3703,0 -0.0823,0.08406 0.0823,0.29418 -0.0411,0.336206 -0.130749,-0.0014 -0.280549,0.0062 -0.411439,0 v -0.252153 c 0,-0.08406 -0.0411,-0.294182 0.0823,-0.252157 0.0823,0.04202 0.20573,0 0.24687,-0.08405 0.0823,-0.126078 -0.12343,-0.378233 -0.20572,-0.294183 -0.0823,0.08406 -0.12343,0.08406 -0.12343,-0.04202 0,-0.126078 0.006,-0.259954 0,-0.378232 z"
         style="fill:none;stroke:#000000;stroke-width:0.15;stroke-linecap:square;stroke-linejoin:round;stroke-miterlimit:4;stroke-dasharray:none;stroke-opacity:1"
         id="path1405-9-1-2-84-8"
         sodipodi:nodetypes="ccccccccccccccccccccccc" />
      <path
         d="m 31.797446,15.882687 c 0.16457,0 0.25643,0.0043 0.41144,0 0.12343,-0.04203 -0.0411,-0.252156 0.0411,-0.336207 0.12343,-0.126078 0.28801,-0.126078 0.3703,0 0.0823,0.08405 -0.12343,0.252154 0,0.336207 0.0823,0 0.37099,-0.0024 0.45259,0 v 0.378232 c 0,0.126076 0.0411,0.126076 0.12343,0.04202 0.0823,-0.08405 0.28801,0.168104 0.20573,0.294182 -0.0415,0.0847 -0.16458,0.168103 -0.25342,0.108792 -0.11689,-0.02473 -0.0744,0.150721 -0.0757,0.227419 0.005,0.09512 0,0.126075 0,0.252153 h -0.45259 c -0.12343,-0.08405 0.0823,-0.252153 0,-0.336206 -0.0823,-0.126078 -0.24687,-0.126078 -0.3703,0 -0.0823,0.08406 0.0823,0.29418 -0.0411,0.336206 -0.130749,-0.0014 -0.280549,0.0062 -0.411439,0 v -0.252153 c 0,-0.08406 -0.0411,-0.294182 0.0823,-0.252157 0.0823,0.04202 0.20573,0 0.24687,-0.08405 0.0823,-0.126078 -0.12343,-0.378233 -0.20572,-0.294183 -0.0823,0.08406 -0.12343,0.08406 -0.12343,-0.04202 0,-0.126078 0.006,-0.259954 0,-0.378232 z"
         style="fill:none;stroke:#000000;stroke-width:0.15;stroke-linecap:square;stroke-linejoin:round;stroke-miterlimit:4;stroke-dasharray:none;stroke-opacity:1"
         id="path1405-9-1-2-1-5"
         sodipodi:nodetypes="ccccccccccccccccccccccc" />
      <path
         d="m 34.44328,15.882687 c 0.16457,0 0.25643,0.0043 0.41144,0 0.12343,-0.04203 -0.0411,-0.252156 0.0411,-0.336207 0.12343,-0.126078 0.28801,-0.126078 0.3703,0 0.0823,0.08405 -0.12343,0.252154 0,0.336207 0.0823,0 0.37099,-0.0024 0.45259,0 v 0.378232 c 0,0.126076 0.0411,0.126076 0.12343,0.04202 0.0823,-0.08405 0.28801,0.168104 0.20573,0.294182 -0.0415,0.0847 -0.16458,0.168103 -0.25342,0.108792 -0.11689,-0.02473 -0.0744,0.150721 -0.0757,0.227419 0.005,0.09512 0,0.126075 0,0.252153 h -0.45259 c -0.12343,-0.08405 0.0823,-0.252153 0,-0.336206 -0.0823,-0.126078 -0.24687,-0.126078 -0.3703,0 -0.0823,0.08406 0.0823,0.29418 -0.0411,0.336206 -0.130749,-0.0014 -0.280549,0.0062 -0.411439,0 v -0.252153 c 0,-0.08406 -0.0411,-0.294182 0.0823,-0.252157 0.0823,0.04202 0.20573,0 0.24687,-0.08405 0.0823,-0.126078 -0.12343,-0.378233 -0.20572,-0.294183 -0.0823,0.08406 -0.12343,0.08406 -0.12343,-0.04202 0,-0.126078 0.006,-0.259954 0,-0.378232 z"
         style="fill:none;stroke:#000000;stroke-width:0.15;stroke-linecap:square;stroke-linejoin:round;stroke-miterlimit:4;stroke-dasharray:none;stroke-opacity:1"
         id="path1405-9-1-2-840-7"
         sodipodi:nodetypes="ccccccccccccccccccccccc" />
      <path
         d="m 14.599529,13.236854 c 0.16457,0 0.25643,0.0043 0.41144,0 0.12343,-0.04203 -0.0411,-0.252156 0.0411,-0.336207 0.12343,-0.126078 0.28801,-0.126078 0.3703,0 0.0823,0.08405 -0.12343,0.252154 0,0.336207 0.0823,0 0.37099,-0.0024 0.45259,0 v 0.378232 c 0,0.126076 0.0411,0.126076 0.12343,0.04202 0.0823,-0.08405 0.28801,0.168104 0.20573,0.294182 -0.0415,0.0847 -0.16458,0.168103 -0.25342,0.108792 -0.11689,-0.02473 -0.0744,0.150721 -0.0757,0.227419 0.005,0.09512 0,0.126075 0,0.252153 h -0.45259 c -0.12343,-0.08405 0.0823,-0.252153 0,-0.336206 -0.0823,-0.126078 -0.24687,-0.126078 -0.3703,0 -0.0823,0.08406 0.0823,0.29418 -0.0411,0.336206 -0.130749,-0.0014 -0.280549,0.0062 -0.411439,0 v -0.252153 c 0,-0.08406 -0.0411,-0.294182 0.0823,-0.252157 0.0823,0.04202 0.20573,0 0.24687,-0.08405 0.0823,-0.126078 -0.12343,-0.378233 -0.20572,-0.294183 -0.0823,0.08406 -0.12343,0.08406 -0.12343,-0.04202 0,-0.126078 0.006,-0.259954 0,-0.378232 z"
         style="fill:none;stroke:#000000;stroke-width:0.15;stroke-linecap:square;stroke-linejoin:round;stroke-miterlimit:4;stroke-dasharray:none;stroke-opacity:1"
         id="path1405-9-1-2-0-7"
         sodipodi:nodetypes="ccccccccccccccccccccccc" />
      <path
         d="m 17.245362,13.236854 c 0.16457,0 0.25643,0.0043 0.41144,0 0.12343,-0.04203 -0.0411,-0.252156 0.0411,-0.336207 0.12343,-0.126078 0.28801,-0.126078 0.3703,0 0.0823,0.08405 -0.12343,0.252154 0,0.336207 0.0823,0 0.37099,-0.0024 0.45259,0 v 0.378232 c 0,0.126076 0.0411,0.126076 0.12343,0.04202 0.0823,-0.08405 0.28801,0.168104 0.20573,0.294182 -0.0415,0.0847 -0.16458,0.168103 -0.25342,0.108792 -0.11689,-0.02473 -0.0744,0.150721 -0.0757,0.227419 0.005,0.09512 0,0.126075 0,0.252153 h -0.45259 c -0.12343,-0.08405 0.0823,-0.252153 0,-0.336206 -0.0823,-0.126078 -0.24687,-0.126078 -0.3703,0 -0.0823,0.08406 0.0823,0.29418 -0.0411,0.336206 -0.130749,-0.0014 -0.280549,0.0062 -0.411439,0 v -0.252153 c 0,-0.08406 -0.0411,-0.294182 0.0823,-0.252157 0.0823,0.04202 0.20573,0 0.24687,-0.08405 0.0823,-0.126078 -0.12343,-0.378233 -0.20572,-0.294183 -0.0823,0.08406 -0.12343,0.08406 -0.12343,-0.04202 0,-0.126078 0.006,-0.259954 0,-0.378232 z"
         style="fill:none;stroke:#000000;stroke-width:0.15;stroke-linecap:square;stroke-linejoin:round;stroke-miterlimit:4;stroke-dasharray:none;stroke-opacity:1"
         id="path1405-9-1-2-3-2"
         sodipodi:nodetypes="ccccccccccccccccccccccc" />
      <path
         d="m 19.891196,13.236854 c 0.16457,0 0.25643,0.0043 0.41144,0 0.12343,-0.04203 -0.0411,-0.252156 0.0411,-0.336207 0.12343,-0.126078 0.28801,-0.126078 0.3703,0 0.0823,0.08405 -0.12343,0.252154 0,0.336207 0.0823,0 0.37099,-0.0024 0.45259,0 v 0.378232 c 0,0.126076 0.0411,0.126076 0.12343,0.04202 0.0823,-0.08405 0.28801,0.168104 0.20573,0.294182 -0.0415,0.0847 -0.16458,0.168103 -0.25342,0.108792 -0.11689,-0.02473 -0.0744,0.150721 -0.0757,0.227419 0.005,0.09512 0,0.126075 0,0.252153 h -0.45259 c -0.12343,-0.08405 0.0823,-0.252153 0,-0.336206 -0.0823,-0.126078 -0.24687,-0.126078 -0.3703,0 -0.0823,0.08406 0.0823,0.29418 -0.0411,0.336206 -0.130749,-0.0014 -0.280549,0.0062 -0.411439,0 v -0.252153 c 0,-0.08406 -0.0411,-0.294182 0.0823,-0.252157 0.0823,0.04202 0.20573,0 0.24687,-0.08405 0.0823,-0.126078 -0.12343,-0.378233 -0.20572,-0.294183 -0.0823,0.08406 -0.12343,0.08406 -0.12343,-0.04202 0,-0.126078 0.006,-0.259954 0,-0.378232 z"
         style="fill:none;stroke:#000000;stroke-width:0.15;stroke-linecap:square;stroke-linejoin:round;stroke-miterlimit:4;stroke-dasharray:none;stroke-opacity:1"
         id="path1405-9-1-2-9-6"
         sodipodi:nodetypes="ccccccccccccccccccccccc" />
      <path
         d="m 22.537029,13.236854 c 0.16457,0 0.25643,0.0043 0.41144,0 0.12343,-0.04203 -0.0411,-0.252156 0.0411,-0.336207 0.12343,-0.126078 0.28801,-0.126078 0.3703,0 0.0823,0.08405 -0.12343,0.252154 0,0.336207 0.0823,0 0.37099,-0.0024 0.45259,0 v 0.378232 c 0,0.126076 0.0411,0.126076 0.12343,0.04202 0.0823,-0.08405 0.28801,0.168104 0.20573,0.294182 -0.0415,0.0847 -0.16458,0.168103 -0.25342,0.108792 -0.11689,-0.02473 -0.0744,0.150721 -0.0757,0.227419 0.005,0.09512 0,0.126075 0,0.252153 h -0.45259 c -0.12343,-0.08405 0.0823,-0.252153 0,-0.336206 -0.0823,-0.126078 -0.24687,-0.126078 -0.3703,0 -0.0823,0.08406 0.0823,0.29418 -0.0411,0.336206 -0.130749,-0.0014 -0.280549,0.0062 -0.411439,0 v -0.252153 c 0,-0.08406 -0.0411,-0.294182 0.0823,-0.252157 0.0823,0.04202 0.20573,0 0.24687,-0.08405 0.0823,-0.126078 -0.12343,-0.378233 -0.20572,-0.294183 -0.0823,0.08406 -0.12343,0.08406 -0.12343,-0.04202 0,-0.126078 0.006,-0.259954 0,-0.378232 z"
         style="fill:none;stroke:#000000;stroke-width:0.15;stroke-linecap:square;stroke-linejoin:round;stroke-miterlimit:4;stroke-dasharray:none;stroke-opacity:1"
         id="path1405-9-1-2-8-17"
         sodipodi:nodetypes="ccccccccccccccccccccccc" />
      <path
         d="m 25.182862,13.236854 c 0.16457,0 0.25643,0.0043 0.41144,0 0.12343,-0.04203 -0.0411,-0.252156 0.0411,-0.336207 0.12343,-0.126078 0.28801,-0.126078 0.3703,0 0.0823,0.08405 -0.12343,0.252154 0,0.336207 0.0823,0 0.37099,-0.0024 0.45259,0 v 0.378232 c 0,0.126076 0.0411,0.126076 0.12343,0.04202 0.0823,-0.08405 0.28801,0.168104 0.20573,0.294182 -0.0415,0.0847 -0.16458,0.168103 -0.25342,0.108792 -0.11689,-0.02473 -0.0744,0.150721 -0.0757,0.227419 0.005,0.09512 0,0.126075 0,0.252153 h -0.45259 c -0.12343,-0.08405 0.0823,-0.252153 0,-0.336206 -0.0823,-0.126078 -0.24687,-0.126078 -0.3703,0 -0.0823,0.08406 0.0823,0.29418 -0.0411,0.336206 -0.130749,-0.0014 -0.280549,0.0062 -0.411439,0 v -0.252153 c 0,-0.08406 -0.0411,-0.294182 0.0823,-0.252157 0.0823,0.04202 0.20573,0 0.24687,-0.08405 0.0823,-0.126078 -0.12343,-0.378233 -0.20572,-0.294183 -0.0823,0.08406 -0.12343,0.08406 -0.12343,-0.04202 0,-0.126078 0.006,-0.259954 0,-0.378232 z"
         style="fill:none;stroke:#000000;stroke-width:0.15;stroke-linecap:square;stroke-linejoin:round;stroke-miterlimit:4;stroke-dasharray:none;stroke-opacity:1"
         id="path1405-9-1-2-2-1"
         sodipodi:nodetypes="ccccccccccccccccccccccc" />
      <path
         d="m 27.828696,13.236854 c 0.16457,0 0.25643,0.0043 0.41144,0 0.12343,-0.04203 -0.0411,-0.252156 0.0411,-0.336207 0.12343,-0.126078 0.28801,-0.126078 0.3703,0 0.0823,0.08405 -0.12343,0.252154 0,0.336207 0.0823,0 0.37099,-0.0024 0.45259,0 v 0.378232 c 0,0.126076 0.0411,0.126076 0.12343,0.04202 0.0823,-0.08405 0.28801,0.168104 0.20573,0.294182 -0.0415,0.0847 -0.16458,0.168103 -0.25342,0.108792 -0.11689,-0.02473 -0.0744,0.150721 -0.0757,0.227419 0.005,0.09512 0,0.126075 0,0.252153 h -0.45259 c -0.12343,-0.08405 0.0823,-0.252153 0,-0.336206 -0.0823,-0.126078 -0.24687,-0.126078 -0.3703,0 -0.0823,0.08406 0.0823,0.29418 -0.0411,0.336206 -0.130749,-0.0014 -0.280549,0.0062 -0.411439,0 v -0.252153 c 0,-0.08406 -0.0411,-0.294182 0.0823,-0.252157 0.0823,0.04202 0.20573,0 0.24687,-0.08405 0.0823,-0.126078 -0.12343,-0.378233 -0.20572,-0.294183 -0.0823,0.08406 -0.12343,0.08406 -0.12343,-0.04202 0,-0.126078 0.006,-0.259954 0,-0.378232 z"
         style="fill:none;stroke:#000000;stroke-width:0.15;stroke-linecap:square;stroke-linejoin:round;stroke-miterlimit:4;stroke-dasharray:none;stroke-opacity:1"
         id="path1405-9-1-2-37-9"
         sodipodi:nodetypes="ccccccccccccccccccccccc" />
      <path
         d="m 30.474529,13.236854 c 0.16457,0 0.25643,0.0043 0.41144,0 0.12343,-0.04203 -0.0411,-0.252156 0.0411,-0.336207 0.12343,-0.126078 0.28801,-0.126078 0.3703,0 0.0823,0.08405 -0.12343,0.252154 0,0.336207 0.0823,0 0.37099,-0.0024 0.45259,0 v 0.378232 c 0,0.126076 0.0411,0.126076 0.12343,0.04202 0.0823,-0.08405 0.28801,0.168104 0.20573,0.294182 -0.0415,0.0847 -0.16458,0.168103 -0.25342,0.108792 -0.11689,-0.02473 -0.0744,0.150721 -0.0757,0.227419 0.005,0.09512 0,0.126075 0,0.252153 h -0.45259 c -0.12343,-0.08405 0.0823,-0.252153 0,-0.336206 -0.0823,-0.126078 -0.24687,-0.126078 -0.3703,0 -0.0823,0.08406 0.0823,0.29418 -0.0411,0.336206 -0.130749,-0.0014 -0.280549,0.0062 -0.411439,0 v -0.252153 c 0,-0.08406 -0.0411,-0.294182 0.0823,-0.252157 0.0823,0.04202 0.20573,0 0.24687,-0.08405 0.0823,-0.126078 -0.12343,-0.378233 -0.20572,-0.294183 -0.0823,0.08406 -0.12343,0.08406 -0.12343,-0.04202 0,-0.126078 0.006,-0.259954 0,-0.378232 z"
         style="fill:none;stroke:#000000;stroke-width:0.15;stroke-linecap:square;stroke-linejoin:round;stroke-miterlimit:4;stroke-dasharray:none;stroke-opacity:1"
         id="path1405-9-1-2-84-9"
         sodipodi:nodetypes="ccccccccccccccccccccccc" />
      <path
         d="m 33.120362,13.236854 c 0.16457,0 0.25643,0.0043 0.41144,0 0.12343,-0.04203 -0.0411,-0.252156 0.0411,-0.336207 0.12343,-0.126078 0.28801,-0.126078 0.3703,0 0.0823,0.08405 -0.12343,0.252154 0,0.336207 0.0823,0 0.37099,-0.0024 0.45259,0 v 0.378232 c 0,0.126076 0.0411,0.126076 0.12343,0.04202 0.0823,-0.08405 0.28801,0.168104 0.20573,0.294182 -0.0415,0.0847 -0.16458,0.168103 -0.25342,0.108792 -0.11689,-0.02473 -0.0744,0.150721 -0.0757,0.227419 0.005,0.09512 0,0.126075 0,0.252153 h -0.45259 c -0.12343,-0.08405 0.0823,-0.252153 0,-0.336206 -0.0823,-0.126078 -0.24687,-0.126078 -0.3703,0 -0.0823,0.08406 0.0823,0.29418 -0.0411,0.336206 -0.130749,-0.0014 -0.280549,0.0062 -0.411439,0 v -0.252153 c 0,-0.08406 -0.0411,-0.294182 0.0823,-0.252157 0.0823,0.04202 0.20573,0 0.24687,-0.08405 0.0823,-0.126078 -0.12343,-0.378233 -0.20572,-0.294183 -0.0823,0.08406 -0.12343,0.08406 -0.12343,-0.04202 0,-0.126078 0.006,-0.259954 0,-0.378232 z"
         style="fill:none;stroke:#000000;stroke-width:0.15;stroke-linecap:square;stroke-linejoin:round;stroke-miterlimit:4;stroke-dasharray:none;stroke-opacity:1"
         id="path1405-9-1-2-1-58"
         sodipodi:nodetypes="ccccccccccccccccccccccc" />
      <path
         d="m 15.922446,10.591021 c 0.16457,0 0.25643,0.0043 0.41144,0 0.12343,-0.04203 -0.0411,-0.252156 0.0411,-0.336207 0.12343,-0.126078 0.28801,-0.126078 0.3703,0 0.0823,0.08405 -0.12343,0.252154 0,0.336207 0.0823,0 0.37099,-0.0024 0.45259,0 v 0.378232 c 0,0.126076 0.0411,0.126076 0.12343,0.04202 0.0823,-0.08405 0.28801,0.168104 0.20573,0.294182 -0.0415,0.0847 -0.16458,0.168103 -0.25342,0.108792 -0.11689,-0.02473 -0.0744,0.150721 -0.0757,0.227419 0.005,0.09512 0,0.126075 0,0.252153 h -0.45259 c -0.12343,-0.08405 0.0823,-0.252153 0,-0.336206 -0.0823,-0.126078 -0.24687,-0.126078 -0.3703,0 -0.0823,0.08406 0.0823,0.29418 -0.0411,0.336206 -0.130749,-0.0014 -0.280549,0.0062 -0.411439,0 v -0.252153 c 0,-0.08406 -0.0411,-0.294182 0.0823,-0.252157 0.0823,0.04202 0.20573,0 0.24687,-0.08405 0.0823,-0.126078 -0.12343,-0.378233 -0.20572,-0.294183 -0.0823,0.08406 -0.12343,0.08406 -0.12343,-0.04202 0,-0.126078 0.006,-0.259954 0,-0.378232 z"
         style="fill:none;stroke:#000000;stroke-width:0.15;stroke-linecap:square;stroke-linejoin:round;stroke-miterlimit:4;stroke-dasharray:none;stroke-opacity:1"
         id="path1405-9-1-2-0-8"
         sodipodi:nodetypes="ccccccccccccccccccccccc" />
      <path
         d="m 18.568279,10.591021 c 0.16457,0 0.25643,0.0043 0.41144,0 0.12343,-0.04203 -0.0411,-0.252156 0.0411,-0.336207 0.12343,-0.126078 0.28801,-0.126078 0.3703,0 0.0823,0.08405 -0.12343,0.252154 0,0.336207 0.0823,0 0.37099,-0.0024 0.45259,0 v 0.378232 c 0,0.126076 0.0411,0.126076 0.12343,0.04202 0.0823,-0.08405 0.28801,0.168104 0.20573,0.294182 -0.0415,0.0847 -0.16458,0.168103 -0.25342,0.108792 -0.11689,-0.02473 -0.0744,0.150721 -0.0757,0.227419 0.005,0.09512 0,0.126075 0,0.252153 h -0.45259 c -0.12343,-0.08405 0.0823,-0.252153 0,-0.336206 -0.0823,-0.126078 -0.24687,-0.126078 -0.3703,0 -0.0823,0.08406 0.0823,0.29418 -0.0411,0.336206 -0.130749,-0.0014 -0.280549,0.0062 -0.411439,0 v -0.252153 c 0,-0.08406 -0.0411,-0.294182 0.0823,-0.252157 0.0823,0.04202 0.20573,0 0.24687,-0.08405 0.0823,-0.126078 -0.12343,-0.378233 -0.20572,-0.294183 -0.0823,0.08406 -0.12343,0.08406 -0.12343,-0.04202 0,-0.126078 0.006,-0.259954 0,-0.378232 z"
         style="fill:none;stroke:#000000;stroke-width:0.15;stroke-linecap:square;stroke-linejoin:round;stroke-miterlimit:4;stroke-dasharray:none;stroke-opacity:1"
         id="path1405-9-1-2-3-3"
         sodipodi:nodetypes="ccccccccccccccccccccccc" />
      <path
         d="m 21.214113,10.591021 c 0.16457,0 0.25643,0.0043 0.41144,0 0.12343,-0.04203 -0.0411,-0.252156 0.0411,-0.336207 0.12343,-0.126078 0.28801,-0.126078 0.3703,0 0.0823,0.08405 -0.12343,0.252154 0,0.336207 0.0823,0 0.37099,-0.0024 0.452589,0 v 0.378232 c 0,0.126076 0.0411,0.126076 0.123431,0.04202 0.0823,-0.08405 0.28801,0.168104 0.20573,0.294182 -0.0415,0.0847 -0.16458,0.168103 -0.25342,0.108792 -0.11689,-0.02473 -0.0744,0.150721 -0.0757,0.227419 0.005,0.09512 0,0.126075 0,0.252153 h -0.45259 c -0.12343,-0.08405 0.0823,-0.252153 0,-0.336206 -0.0823,-0.126078 -0.24687,-0.126078 -0.3703,0 -0.0823,0.08406 0.0823,0.29418 -0.0411,0.336206 -0.130749,-0.0014 -0.280549,0.0062 -0.411439,0 v -0.252153 c 0,-0.08406 -0.0411,-0.294182 0.0823,-0.252157 0.0823,0.04202 0.20573,0 0.24687,-0.08405 0.0823,-0.126078 -0.12343,-0.378233 -0.20572,-0.294183 -0.0823,0.08406 -0.12343,0.08406 -0.12343,-0.04202 0,-0.126078 0.006,-0.259954 0,-0.378232 z"
         style="fill:none;stroke:#000000;stroke-width:0.15;stroke-linecap:square;stroke-linejoin:round;stroke-miterlimit:4;stroke-dasharray:none;stroke-opacity:1"
         id="path1405-9-1-2-9-68"
         sodipodi:nodetypes="ccccccccccccccccccccccc" />
      <path
         d="m 23.859946,10.591021 c 0.16457,0 0.25643,0.0043 0.41144,0 0.12343,-0.04203 -0.0411,-0.252156 0.0411,-0.336207 0.12343,-0.126078 0.28801,-0.126078 0.3703,0 0.0823,0.08405 -0.12343,0.252154 0,0.336207 0.0823,0 0.37099,-0.0024 0.45259,0 v 0.378232 c 0,0.126076 0.0411,0.126076 0.12343,0.04202 0.0823,-0.08405 0.28801,0.168104 0.20573,0.294182 -0.0415,0.0847 -0.16458,0.168103 -0.25342,0.108792 -0.11689,-0.02473 -0.0744,0.150721 -0.0757,0.227419 0.005,0.09512 0,0.126075 0,0.252153 h -0.45259 c -0.12343,-0.08405 0.0823,-0.252153 0,-0.336206 -0.0823,-0.126078 -0.24687,-0.126078 -0.3703,0 -0.0823,0.08406 0.0823,0.29418 -0.0411,0.336206 -0.130749,-0.0014 -0.280549,0.0062 -0.411439,0 v -0.252153 c 0,-0.08406 -0.0411,-0.294182 0.0823,-0.252157 0.0823,0.04202 0.20573,0 0.246869,-0.08405 0.0823,-0.126078 -0.123429,-0.378233 -0.205719,-0.294183 -0.0823,0.08406 -0.12343,0.08406 -0.12343,-0.04202 0,-0.126078 0.006,-0.259954 0,-0.378232 z"
         style="fill:none;stroke:#000000;stroke-width:0.15;stroke-linecap:square;stroke-linejoin:round;stroke-miterlimit:4;stroke-dasharray:none;stroke-opacity:1"
         id="path1405-9-1-2-8-5"
         sodipodi:nodetypes="ccccccccccccccccccccccc" />
      <path
         d="m 26.505779,10.591021 c 0.16457,0 0.25643,0.0043 0.41144,0 0.12343,-0.04203 -0.0411,-0.252156 0.0411,-0.336207 0.12343,-0.126078 0.28801,-0.126078 0.3703,0 0.0823,0.08405 -0.12343,0.252154 0,0.336207 0.0823,0 0.37099,-0.0024 0.45259,0 v 0.378232 c 0,0.126076 0.0411,0.126076 0.12343,0.04202 0.0823,-0.08405 0.28801,0.168104 0.20573,0.294182 -0.0415,0.0847 -0.16458,0.168103 -0.25342,0.108792 -0.11689,-0.02473 -0.0744,0.150721 -0.0757,0.227419 0.005,0.09512 0,0.126075 0,0.252153 h -0.45259 c -0.12343,-0.08405 0.0823,-0.252153 0,-0.336206 -0.0823,-0.126078 -0.24687,-0.126078 -0.3703,0 -0.0823,0.08406 0.0823,0.29418 -0.0411,0.336206 -0.130749,-0.0014 -0.280549,0.0062 -0.411439,0 v -0.252153 c 0,-0.08406 -0.0411,-0.294182 0.0823,-0.252157 0.0823,0.04202 0.20573,0 0.24687,-0.08405 0.0823,-0.126078 -0.12343,-0.378233 -0.20572,-0.294183 -0.0823,0.08406 -0.12343,0.08406 -0.12343,-0.04202 0,-0.126078 0.006,-0.259954 0,-0.378232 z"
         style="fill:none;stroke:#000000;stroke-width:0.15;stroke-linecap:square;stroke-linejoin:round;stroke-miterlimit:4;stroke-dasharray:none;stroke-opacity:1"
         id="path1405-9-1-2-2-8"
         sodipodi:nodetypes="ccccccccccccccccccccccc" />
      <path
         d="m 29.151613,10.591021 c 0.16457,0 0.25643,0.0043 0.41144,0 0.12343,-0.04203 -0.0411,-0.252156 0.0411,-0.336207 0.12343,-0.126078 0.28801,-0.126078 0.3703,0 0.0823,0.08405 -0.12343,0.252154 0,0.336207 0.0823,0 0.37099,-0.0024 0.45259,0 v 0.378232 c 0,0.126076 0.0411,0.126076 0.12343,0.04202 0.0823,-0.08405 0.28801,0.168104 0.20573,0.294182 -0.0415,0.0847 -0.16458,0.168103 -0.25342,0.108792 -0.11689,-0.02473 -0.0744,0.150721 -0.0757,0.227419 0.005,0.09512 0,0.126075 0,0.252153 h -0.45259 c -0.12343,-0.08405 0.0823,-0.252153 0,-0.336206 -0.0823,-0.126078 -0.24687,-0.126078 -0.3703,0 -0.0823,0.08406 0.0823,0.29418 -0.0411,0.336206 -0.130749,-0.0014 -0.280549,0.0062 -0.411439,0 v -0.252153 c 0,-0.08406 -0.0411,-0.294182 0.0823,-0.252157 0.0823,0.04202 0.20573,0 0.24687,-0.08405 0.0823,-0.126078 -0.12343,-0.378233 -0.20572,-0.294183 -0.0823,0.08406 -0.12343,0.08406 -0.12343,-0.04202 0,-0.126078 0.006,-0.259954 0,-0.378232 z"
         style="fill:none;stroke:#000000;stroke-width:0.15;stroke-linecap:square;stroke-linejoin:round;stroke-miterlimit:4;stroke-dasharray:none;stroke-opacity:1"
         id="path1405-9-1-2-37-4"
         sodipodi:nodetypes="ccccccccccccccccccccccc" />
      <path
         d="m 31.797446,10.591021 c 0.16457,0 0.25643,0.0043 0.41144,0 0.12343,-0.04203 -0.0411,-0.252156 0.0411,-0.336207 0.12343,-0.126078 0.28801,-0.126078 0.3703,0 0.0823,0.08405 -0.12343,0.252154 0,0.336207 0.0823,0 0.37099,-0.0024 0.45259,0 v 0.378232 c 0,0.126076 0.0411,0.126076 0.12343,0.04202 0.0823,-0.08405 0.28801,0.168104 0.20573,0.294182 -0.0415,0.0847 -0.16458,0.168103 -0.25342,0.108792 -0.11689,-0.02473 -0.0744,0.150721 -0.0757,0.227419 0.005,0.09512 0,0.126075 0,0.252153 h -0.45259 c -0.12343,-0.08405 0.0823,-0.252153 0,-0.336206 -0.0823,-0.126078 -0.24687,-0.126078 -0.3703,0 -0.0823,0.08406 0.0823,0.29418 -0.0411,0.336206 -0.130749,-0.0014 -0.280549,0.0062 -0.411439,0 v -0.252153 c 0,-0.08406 -0.0411,-0.294182 0.0823,-0.252157 0.0823,0.04202 0.20573,0 0.24687,-0.08405 0.0823,-0.126078 -0.12343,-0.378233 -0.20572,-0.294183 -0.0823,0.08406 -0.12343,0.08406 -0.12343,-0.04202 0,-0.126078 0.006,-0.259954 0,-0.378232 z"
         style="fill:none;stroke:#000000;stroke-width:0.15;stroke-linecap:square;stroke-linejoin:round;stroke-miterlimit:4;stroke-dasharray:none;stroke-opacity:1"
         id="path1405-9-1-2-84-1"
         sodipodi:nodetypes="ccccccccccccccccccccccc" />
      <path
         d="m 17.245362,7.9451874 c 0.16457,0 0.25643,0.0043 0.41144,0 0.12343,-0.04203 -0.0411,-0.252156 0.0411,-0.336207 0.12343,-0.126078 0.28801,-0.126078 0.3703,0 0.0823,0.08405 -0.12343,0.252154 0,0.336207 0.0823,0 0.37099,-0.0024 0.45259,0 v 0.378232 c 0,0.126076 0.0411,0.126076 0.12343,0.04202 0.0823,-0.08405 0.28801,0.168104 0.20573,0.294182 -0.0415,0.0847 -0.16458,0.168103 -0.25342,0.108792 -0.11689,-0.02473 -0.0744,0.150721 -0.0757,0.227419 0.005,0.09512 0,0.126075 0,0.252153 h -0.45259 c -0.12343,-0.08405 0.0823,-0.252153 0,-0.336206 -0.0823,-0.126078 -0.24687,-0.126078 -0.3703,0 -0.0823,0.08406 0.0823,0.29418 -0.0411,0.336206 -0.130749,-0.0014 -0.280549,0.0062 -0.411439,0 v -0.252153 c 0,-0.08406 -0.0411,-0.294182 0.0823,-0.252157 0.0823,0.04202 0.20573,0 0.24687,-0.08405 0.0823,-0.126078 -0.12343,-0.378233 -0.20572,-0.294183 -0.0823,0.08406 -0.12343,0.08406 -0.12343,-0.04202 0,-0.126078 0.006,-0.259954 0,-0.378232 z"
         style="fill:none;stroke:#000000;stroke-width:0.15;stroke-linecap:square;stroke-linejoin:round;stroke-miterlimit:4;stroke-dasharray:none;stroke-opacity:1"
         id="path1405-9-1-2-0-80"
         sodipodi:nodetypes="ccccccccccccccccccccccc" />
      <path
         d="m 19.891195,7.9451874 c 0.16457,0 0.25643,0.0043 0.41144,0 0.12343,-0.04203 -0.0411,-0.252156 0.0411,-0.336207 0.12343,-0.126078 0.288011,-0.126078 0.3703,0 0.0823,0.08405 -0.12343,0.252154 0,0.336207 0.0823,0 0.37099,-0.0024 0.452591,0 v 0.378232 c 0,0.126076 0.0411,0.126076 0.12343,0.04202 0.0823,-0.08405 0.28801,0.168104 0.20573,0.294182 -0.0415,0.0847 -0.16458,0.168103 -0.25342,0.108792 -0.116891,-0.02473 -0.0744,0.150721 -0.0757,0.227419 0.005,0.09512 0,0.126075 0,0.252153 h -0.452591 c -0.12343,-0.08405 0.0823,-0.252153 0,-0.336206 -0.0823,-0.126078 -0.24687,-0.126078 -0.3703,0 -0.0823,0.08406 0.0823,0.29418 -0.0411,0.336206 -0.130748,-0.0014 -0.280549,0.0062 -0.411439,0 v -0.252153 c 0,-0.08406 -0.0411,-0.294182 0.0823,-0.252157 0.0823,0.04202 0.20573,0 0.24687,-0.08405 0.0823,-0.126078 -0.12343,-0.378233 -0.205719,-0.294183 -0.0823,0.08406 -0.12343,0.08406 -0.12343,-0.04202 0,-0.126078 0.006,-0.259954 0,-0.378232 z"
         style="fill:none;stroke:#000000;stroke-width:0.15;stroke-linecap:square;stroke-linejoin:round;stroke-miterlimit:4;stroke-dasharray:none;stroke-opacity:1"
         id="path1405-9-1-2-3-0"
         sodipodi:nodetypes="ccccccccccccccccccccccc" />
      <path
         d="m 22.537029,7.9451874 c 0.16457,0 0.25643,0.0043 0.41144,0 0.123431,-0.04203 -0.0411,-0.252156 0.0411,-0.336207 0.12343,-0.126078 0.28801,-0.126078 0.3703,0 0.0823,0.08405 -0.12343,0.252154 0,0.336207 0.0823,0 0.37099,-0.0024 0.45259,0 v 0.378232 c 0,0.126076 0.0411,0.126076 0.12343,0.04202 0.0823,-0.08405 0.28801,0.168104 0.20573,0.294182 -0.0415,0.0847 -0.16458,0.168103 -0.25342,0.108792 -0.11689,-0.02473 -0.0744,0.150721 -0.0757,0.227419 0.005,0.09512 0,0.126075 0,0.252153 h -0.45259 c -0.12343,-0.08405 0.0823,-0.252153 0,-0.336206 -0.0823,-0.126078 -0.24687,-0.126078 -0.3703,0 -0.0823,0.08406 0.0823,0.29418 -0.0411,0.336206 -0.130749,-0.0014 -0.280549,0.0062 -0.411439,0 v -0.252153 c 0,-0.08406 -0.0411,-0.294182 0.0823,-0.252157 0.0823,0.04202 0.20573,0 0.24687,-0.08405 0.0823,-0.126078 -0.123429,-0.378233 -0.20572,-0.294183 -0.0823,0.08406 -0.12343,0.08406 -0.12343,-0.04202 0,-0.126078 0.006,-0.259954 0,-0.378232 z"
         style="fill:none;stroke:#000000;stroke-width:0.15;stroke-linecap:square;stroke-linejoin:round;stroke-miterlimit:4;stroke-dasharray:none;stroke-opacity:1"
         id="path1405-9-1-2-9-1"
         sodipodi:nodetypes="ccccccccccccccccccccccc" />
      <path
         d="m 25.182862,7.9451874 c 0.16457,0 0.256431,0.0043 0.41144,0 0.12343,-0.04203 -0.0411,-0.252156 0.0411,-0.336207 0.12343,-0.126078 0.28801,-0.126078 0.3703,0 0.0823,0.08405 -0.12343,0.252154 0,0.336207 0.0823,0 0.37099,-0.0024 0.45259,0 v 0.378232 c 0,0.126076 0.0411,0.126076 0.12343,0.04202 0.0823,-0.08405 0.28801,0.168104 0.20573,0.294182 -0.0415,0.0847 -0.16458,0.168103 -0.25342,0.108792 -0.11689,-0.02473 -0.0744,0.150721 -0.0757,0.227419 0.005,0.09512 0,0.126075 0,0.252153 h -0.45259 c -0.12343,-0.08405 0.0823,-0.252153 0,-0.336206 -0.0823,-0.126078 -0.24687,-0.126078 -0.3703,0 -0.0823,0.08406 0.0823,0.29418 -0.0411,0.336206 -0.130748,-0.0014 -0.280548,0.0062 -0.411439,0 v -0.252153 c 0,-0.08406 -0.0411,-0.294182 0.0823,-0.252157 0.0823,0.04202 0.20573,0 0.24687,-0.08405 0.0823,-0.126078 -0.12343,-0.378233 -0.20572,-0.294183 -0.0823,0.08406 -0.12343,0.08406 -0.12343,-0.04202 0,-0.126078 0.006,-0.259954 0,-0.378232 z"
         style="fill:none;stroke:#000000;stroke-width:0.15;stroke-linecap:square;stroke-linejoin:round;stroke-miterlimit:4;stroke-dasharray:none;stroke-opacity:1"
         id="path1405-9-1-2-8-16"
         sodipodi:nodetypes="ccccccccccccccccccccccc" />
      <path
         d="m 27.828696,7.9451874 c 0.16457,0 0.25643,0.0043 0.41144,0 0.12343,-0.04203 -0.0411,-0.252156 0.0411,-0.336207 0.12343,-0.126078 0.28801,-0.126078 0.3703,0 0.0823,0.08405 -0.12343,0.252154 0,0.336207 0.0823,0 0.37099,-0.0024 0.45259,0 v 0.378232 c 0,0.126076 0.0411,0.126076 0.12343,0.04202 0.0823,-0.08405 0.28801,0.168104 0.20573,0.294182 -0.0415,0.0847 -0.16458,0.168103 -0.25342,0.108792 -0.11689,-0.02473 -0.0744,0.150721 -0.0757,0.227419 0.005,0.09512 0,0.126075 0,0.252153 h -0.45259 c -0.12343,-0.08405 0.0823,-0.252153 0,-0.336206 -0.0823,-0.126078 -0.24687,-0.126078 -0.3703,0 -0.0823,0.08406 0.0823,0.29418 -0.0411,0.336206 -0.130749,-0.0014 -0.280549,0.0062 -0.411439,0 v -0.252153 c 0,-0.08406 -0.0411,-0.294182 0.0823,-0.252157 0.0823,0.04202 0.20573,0 0.24687,-0.08405 0.0823,-0.126078 -0.12343,-0.378233 -0.20572,-0.294183 -0.0823,0.08406 -0.12343,0.08406 -0.12343,-0.04202 0,-0.126078 0.006,-0.259954 0,-0.378232 z"
         style="fill:none;stroke:#000000;stroke-width:0.15;stroke-linecap:square;stroke-linejoin:round;stroke-miterlimit:4;stroke-dasharray:none;stroke-opacity:1"
         id="path1405-9-1-2-2-3"
         sodipodi:nodetypes="ccccccccccccccccccccccc" />
      <path
         d="m 30.47453,7.9451874 c 0.16457,0 0.25643,0.0043 0.41144,0 0.12343,-0.04203 -0.0411,-0.252156 0.0411,-0.336207 0.12343,-0.126078 0.28801,-0.126078 0.3703,0 0.0823,0.08405 -0.12343,0.252154 0,0.336207 0.0823,0 0.37099,-0.0024 0.45259,0 v 0.378232 c 0,0.126076 0.0411,0.126076 0.12343,0.04202 0.0823,-0.08405 0.28801,0.168104 0.20573,0.294182 -0.0415,0.0847 -0.16458,0.168103 -0.25342,0.108792 -0.11689,-0.02473 -0.0744,0.150721 -0.0757,0.227419 0.005,0.09512 0,0.126075 0,0.252153 h -0.45259 c -0.12343,-0.08405 0.0823,-0.252153 0,-0.336206 -0.0823,-0.126078 -0.24687,-0.126078 -0.3703,0 -0.0823,0.08406 0.0823,0.29418 -0.0411,0.336206 -0.130749,-0.0014 -0.280549,0.0062 -0.411439,0 v -0.252153 c 0,-0.08406 -0.0411,-0.294182 0.0823,-0.252157 0.0823,0.04202 0.20573,0 0.24687,-0.08405 0.0823,-0.126078 -0.12343,-0.378233 -0.20572,-0.294183 -0.0823,0.08406 -0.12343,0.08406 -0.12343,-0.04202 0,-0.126078 0.006,-0.259954 0,-0.378232 z"
         style="fill:none;stroke:#000000;stroke-width:0.15;stroke-linecap:square;stroke-linejoin:round;stroke-miterlimit:4;stroke-dasharray:none;stroke-opacity:1"
         id="path1405-9-1-2-37-40"
         sodipodi:nodetypes="ccccccccccccccccccccccc" />
      <path
         d="m 18.568279,5.2993541 c 0.16457,0 0.25643,0.0043 0.41144,0 0.12343,-0.04203 -0.0411,-0.252156 0.0411,-0.336207 0.12343,-0.126078 0.28801,-0.126078 0.3703,0 0.0823,0.08405 -0.12343,0.252154 0,0.336207 0.0823,0 0.37099,-0.0024 0.45259,0 v 0.378232 c 0,0.126076 0.0411,0.126076 0.12343,0.04202 0.0823,-0.08405 0.28801,0.168104 0.20573,0.294182 -0.0415,0.0847 -0.16458,0.168103 -0.25342,0.108792 -0.11689,-0.02473 -0.0744,0.150721 -0.0757,0.227419 0.005,0.09512 0,0.126075 0,0.252153 h -0.45259 c -0.12343,-0.08405 0.0823,-0.252153 0,-0.336206 -0.0823,-0.126078 -0.24687,-0.126078 -0.3703,0 -0.0823,0.08406 0.0823,0.29418 -0.0411,0.336206 -0.130749,-0.0014 -0.280549,0.0062 -0.411439,0 v -0.252153 c 0,-0.08406 -0.0411,-0.294182 0.0823,-0.252157 0.0823,0.04202 0.20573,0 0.24687,-0.08405 0.0823,-0.126078 -0.12343,-0.378233 -0.20572,-0.294183 -0.0823,0.08406 -0.12343,0.08406 -0.12343,-0.04202 0,-0.126078 0.006,-0.259954 0,-0.378232 z"
         style="fill:none;stroke:#000000;stroke-width:0.15;stroke-linecap:square;stroke-linejoin:round;stroke-miterlimit:4;stroke-dasharray:none;stroke-opacity:1"
         id="path1405-9-1-2-0-89"
         sodipodi:nodetypes="ccccccccccccccccccccccc" />
      <path
         d="m 21.214112,5.2993541 c 0.16457,0 0.25643,0.0043 0.41144,0 0.12343,-0.04203 -0.0411,-0.252156 0.0411,-0.336207 0.12343,-0.126078 0.28801,-0.126078 0.3703,0 0.0823,0.08405 -0.12343,0.252154 0,0.336207 0.0823,0 0.37099,-0.0024 0.45259,0 v 0.378232 c 0,0.126076 0.0411,0.126076 0.12343,0.04202 0.0823,-0.08405 0.28801,0.168104 0.20573,0.294182 -0.0415,0.0847 -0.16458,0.168103 -0.25342,0.108792 -0.11689,-0.02473 -0.0744,0.150721 -0.0757,0.227419 0.005,0.09512 0,0.126075 0,0.252153 h -0.45259 c -0.12343,-0.08405 0.0823,-0.252153 0,-0.336206 -0.0823,-0.126078 -0.24687,-0.126078 -0.3703,0 -0.0823,0.08406 0.0823,0.29418 -0.0411,0.336206 -0.130749,-0.0014 -0.280549,0.0062 -0.411439,0 v -0.252153 c 0,-0.08406 -0.0411,-0.294182 0.0823,-0.252157 0.0823,0.04202 0.20573,0 0.24687,-0.08405 0.0823,-0.126078 -0.12343,-0.378233 -0.20572,-0.294183 -0.0823,0.08406 -0.12343,0.08406 -0.12343,-0.04202 0,-0.126078 0.006,-0.259954 0,-0.378232 z"
         style="fill:none;stroke:#000000;stroke-width:0.15;stroke-linecap:square;stroke-linejoin:round;stroke-miterlimit:4;stroke-dasharray:none;stroke-opacity:1"
         id="path1405-9-1-2-3-11"
         sodipodi:nodetypes="ccccccccccccccccccccccc" />
      <path
         d="m 23.859946,5.2993541 c 0.16457,0 0.25643,0.0043 0.41144,0 0.12343,-0.04203 -0.0411,-0.252156 0.0411,-0.336207 0.12343,-0.126078 0.28801,-0.126078 0.3703,0 0.0823,0.08405 -0.12343,0.252154 0,0.336207 0.0823,0 0.37099,-0.0024 0.45259,0 v 0.378232 c 0,0.126076 0.0411,0.126076 0.12343,0.04202 0.0823,-0.08405 0.28801,0.168104 0.20573,0.294182 -0.0415,0.0847 -0.16458,0.168103 -0.25342,0.108792 -0.11689,-0.02473 -0.0744,0.150721 -0.0757,0.227419 0.005,0.09512 0,0.126075 0,0.252153 h -0.45259 c -0.12343,-0.08405 0.0823,-0.252153 0,-0.336206 -0.0823,-0.126078 -0.24687,-0.126078 -0.3703,0 -0.0823,0.08406 0.0823,0.29418 -0.0411,0.336206 -0.130749,-0.0014 -0.280549,0.0062 -0.411439,0 v -0.252153 c 0,-0.08406 -0.0411,-0.294182 0.0823,-0.252157 0.0823,0.04202 0.20573,0 0.24687,-0.08405 0.0823,-0.126078 -0.12343,-0.378233 -0.20572,-0.294183 -0.0823,0.08406 -0.12343,0.08406 -0.12343,-0.04202 0,-0.126078 0.006,-0.259954 0,-0.378232 z"
         style="fill:none;stroke:#000000;stroke-width:0.15;stroke-linecap:square;stroke-linejoin:round;stroke-miterlimit:4;stroke-dasharray:none;stroke-opacity:1"
         id="path1405-9-1-2-9-4"
         sodipodi:nodetypes="ccccccccccccccccccccccc" />
      <path
         d="m 26.505779,5.2993541 c 0.16457,0 0.25643,0.0043 0.41144,0 0.12343,-0.04203 -0.0411,-0.252156 0.0411,-0.336207 0.12343,-0.126078 0.28801,-0.126078 0.3703,0 0.0823,0.08405 -0.12343,0.252154 0,0.336207 0.0823,0 0.37099,-0.0024 0.45259,0 v 0.378232 c 0,0.126076 0.0411,0.126076 0.12343,0.04202 0.0823,-0.08405 0.28801,0.168104 0.20573,0.294182 -0.0415,0.0847 -0.16458,0.168103 -0.25342,0.108792 -0.11689,-0.02473 -0.0744,0.150721 -0.0757,0.227419 0.005,0.09512 0,0.126075 0,0.252153 h -0.45259 c -0.12343,-0.08405 0.0823,-0.252153 0,-0.336206 -0.0823,-0.126078 -0.24687,-0.126078 -0.3703,0 -0.0823,0.08406 0.0823,0.29418 -0.0411,0.336206 -0.130749,-0.0014 -0.280549,0.0062 -0.411439,0 v -0.252153 c 0,-0.08406 -0.0411,-0.294182 0.0823,-0.252157 0.0823,0.04202 0.20573,0 0.24687,-0.08405 0.0823,-0.126078 -0.12343,-0.378233 -0.20572,-0.294183 -0.0823,0.08406 -0.12343,0.08406 -0.12343,-0.04202 0,-0.126078 0.006,-0.259954 0,-0.378232 z"
         style="fill:none;stroke:#000000;stroke-width:0.15;stroke-linecap:square;stroke-linejoin:round;stroke-miterlimit:4;stroke-dasharray:none;stroke-opacity:1"
         id="path1405-9-1-2-8-8"
         sodipodi:nodetypes="ccccccccccccccccccccccc" />
      <path
         d="m 29.151612,5.2993541 c 0.16457,0 0.25643,0.0043 0.41144,0 0.12343,-0.04203 -0.0411,-0.252156 0.0411,-0.336207 0.12343,-0.126078 0.28801,-0.126078 0.3703,0 0.0823,0.08405 -0.12343,0.252154 0,0.336207 0.0823,0 0.37099,-0.0024 0.45259,0 v 0.378232 c 0,0.126076 0.0411,0.126076 0.12343,0.04202 0.0823,-0.08405 0.28801,0.168104 0.20573,0.294182 -0.0415,0.0847 -0.16458,0.168103 -0.25342,0.108792 -0.11689,-0.02473 -0.0744,0.150721 -0.0757,0.227419 0.005,0.09512 0,0.126075 0,0.252153 h -0.45259 c -0.12343,-0.08405 0.0823,-0.252153 0,-0.336206 -0.0823,-0.126078 -0.24687,-0.126078 -0.3703,0 -0.0823,0.08406 0.0823,0.29418 -0.0411,0.336206 -0.130749,-0.0014 -0.280549,0.0062 -0.411439,0 v -0.252153 c 0,-0.08406 -0.0411,-0.294182 0.0823,-0.252157 0.0823,0.04202 0.20573,0 0.24687,-0.08405 0.0823,-0.126078 -0.12343,-0.378233 -0.20572,-0.294183 -0.0823,0.08406 -0.12343,0.08406 -0.12343,-0.04202 0,-0.126078 0.006,-0.259954 0,-0.378232 z"
         style="fill:none;stroke:#000000;stroke-width:0.15;stroke-linecap:square;stroke-linejoin:round;stroke-miterlimit:4;stroke-dasharray:none;stroke-opacity:1"
         id="path1405-9-1-2-2-23"
         sodipodi:nodetypes="ccccccccccccccccccccccc" />
    </g>
  </g>
</svg>
