<?xml version="1.0" encoding="UTF-8" standalone="no"?>
<svg
   xmlns:dc="http://purl.org/dc/elements/1.1/"
   xmlns:cc="http://creativecommons.org/ns#"
   xmlns:rdf="http://www.w3.org/1999/02/22-rdf-syntax-ns#"
   xmlns:svg="http://www.w3.org/2000/svg"
   xmlns="http://www.w3.org/2000/svg"
   xmlns:sodipodi="http://sodipodi.sourceforge.net/DTD/sodipodi-0.dtd"
   xmlns:inkscape="http://www.inkscape.org/namespaces/inkscape"
   width="337.1644mm"
   height="274.66049mm"
   viewBox="0 0 337.1644 274.66049"
   version="1.1"
   id="svg2993"
   inkscape:version="1.0 (4035a4fb49, 2020-05-01)"
   sodipodi:docname="circles-5.svg">
  <defs
     id="defs2987" />
  <sodipodi:namedview
     id="base"
     pagecolor="#ffffff"
     bordercolor="#666666"
     borderopacity="1.0"
     inkscape:pageopacity="0.0"
     inkscape:pageshadow="2"
     inkscape:zoom="0.495"
     inkscape:cx="259.84255"
     inkscape:cy="587.50398"
     inkscape:document-units="mm"
     inkscape:current-layer="layer1"
     inkscape:document-rotation="0"
     showgrid="false"
     fit-margin-top="48"
     fit-margin-right="48"
     fit-margin-left="48"
     fit-margin-bottom="48"
     inkscape:window-width="1577"
     inkscape:window-height="854"
     inkscape:window-x="144"
     inkscape:window-y="40"
     inkscape:window-maximized="0" />
  <metadata
     id="metadata2990">
    <rdf:RDF>
      <cc:Work
         rdf:about="">
        <dc:format>image/svg+xml</dc:format>
        <dc:type
           rdf:resource="http://purl.org/dc/dcmitype/StillImage" />
        <dc:title></dc:title>
      </cc:Work>
    </rdf:RDF>
  </metadata>
  <g
     inkscape:label="Layer 1"
     inkscape:groupmode="layer"
     id="layer1"
     transform="translate(-72.221621,-51.31476)"
     style="display:inline">
    <g
       transform="matrix(5,0,0,5,-963.21529,-754.58)"
       id="g1573">
      <path
         sodipodi:nodetypes="csscc"
         d="m 240.59189,191.78591 c 12.40385,-0.34086 -2.70068,-5.83875 -2.33281,-9.27842 0.48204,-4.50712 10.21126,-7.7619 1.84465,-8.01255 -8.47505,-0.2539 -18.22119,8.28864 -11.83388,14.64624 3.04361,2.85929 8.18545,2.64473 12.32204,2.64473 z"
         style="fill:none;stroke:#000000;stroke-width:0.2;stroke-linecap:butt;stroke-linejoin:miter;stroke-miterlimit:4;stroke-dasharray:none;stroke-opacity:0.98209"
         id="path4440" />
      <ellipse
         transform="matrix(-0.9737072,0.22780317,-0.66673615,-0.74529384,0,0)"
         ry="11.321138"
         rx="4.5618186"
         cy="-280.64136"
         cx="-64.040833"
         id="path4342"
         style="fill:none;stroke:#000000;stroke-width:0.213494;stroke-miterlimit:4;stroke-dasharray:none;stroke-opacity:0.98209" />
      <path
         sodipodi:nodetypes="cssssc"
         d="m 256.02336,197.51355 c 6.87916,-0.79375 2.74514,-8.25585 -2.42205,-3.33267 -2.80348,2.67108 -6.97073,-1.7912 -0.8441,-3.96865 11.46823,-4.07589 4.49517,-22.23261 -5.4565,-13.76162 -6.47664,5.51299 -10.10545,23.45742 2.27285,22.38264 3.01021,-0.26137 3.01021,-0.79054 6.4498,-1.3197"
         style="fill:none;stroke:#000000;stroke-width:0.2;stroke-linecap:butt;stroke-linejoin:miter;stroke-miterlimit:4;stroke-dasharray:none;stroke-opacity:0.98209"
         id="path4490" />
      <path
         sodipodi:nodetypes="csssssssscccc"
         d="m 260.52127,193.47723 c -0.0298,0.11903 -0.47504,2.41504 -2.1359,2.68174 -2.77668,0.44587 -3.52098,-3.38345 -3.80566,-4.76655 -0.49338,-2.39699 -1.07112,-4.48398 -3.43643,-5.77951 -2.35126,-1.28784 -4.46151,3.02008 -5.09537,4.723 -1.11807,3.00381 -4.96467,2.27064 -6.65622,4.26682 -0.73085,0.86247 -0.81248,4.70369 0.97218,5.73242 1.29337,0.74554 3.00944,-2.45684 4.82164,0.0502 1.0366,1.43406 -0.2187,3.29323 -2.19408,2.39388 -8.22577,-3.74503 -21.70977,-7.17149 -25.66543,-15.71873 -2.04398,-6.57201 1.98589,-9.63967 7.48864,-11.23358 13.03754,-3.06758 24.95736,-3.19009 33.16694,8.15946 1.62248,2.39679 3.06886,7.37418 2.53969,9.49085"
         style="fill:none;stroke:#000000;stroke-width:0.2;stroke-linecap:butt;stroke-linejoin:miter;stroke-miterlimit:4;stroke-dasharray:none;stroke-opacity:0.98209"
         id="path4534" />
      <ellipse
         cx="-243.79773"
         cy="-195.54756"
         rx="5.5329852"
         ry="8.4958134"
         transform="scale(-1)"
         id="path4563"
         style="fill:none;stroke:#000000;stroke-width:0.2;stroke-miterlimit:4;stroke-dasharray:none;stroke-opacity:0.98209" />
      <path
         sodipodi:nodetypes="csscscssssc"
         d="m 248.35044,204.03466 c 1.03414,-1.01847 1.82458,-1.65195 2.83298,-3.95566 1.10419,-2.52252 2.65272,-5.38503 1.60587,-8.13138 -0.92117,-2.41663 -3.48245,-4.85591 -5.76177,-5.81128 -3.09422,-0.91014 -15.61041,-1.05821 -18.57904,0.0206 -4.17453,1.51704 -10.95482,10.51331 -9.02406,14.6206 1.06302,1.58017 3.06748,0.26951 4.32564,-0.48417 3.08617,-1.8487 5.8078,-4.09644 8.68718,-6.2331 5.32987,-3.95506 2.6478,5.23278 4.00695,7.95107 1.32292,2.64583 5.27256,4.39582 7.42494,4.3997 1.8493,0.004 3.20256,-1.3166 4.48131,-2.37639"
         style="fill:none;stroke:#000000;stroke-width:0.2;stroke-linecap:butt;stroke-linejoin:miter;stroke-miterlimit:4;stroke-dasharray:none;stroke-opacity:0.98209"
         id="path4706" />
      <path
         sodipodi:nodetypes="ccsssssscc"
         d="m 248.23397,189.80749 c -1.9919,1.60337 -6.35786,11.01668 -8.08561,9.29343 -1.63986,-2.18664 5.23995,-12.85977 2.34597,-16.6535 -2.9398,-3.8538 -4.9983,-6.11103 -9.22514,-5.04233 -5.877,1.48592 -3.84747,7.11372 -0.82864,8.92315 1.88697,1.13102 1.35781,3.24768 -1.24932,3.83651 -3.94834,0.89174 -9.56463,-0.20937 -11.65794,-2.83801 -3.21292,-4.03459 -2.0669,-7.73799 1.80113,-11.05884 10.13025,-8.69721 31.55275,-5.61709 41.01876,0.45167 4.00537,2.60867 -12.31924,11.63599 -14.11921,13.08792 z"
         style="fill:none;stroke:#000000;stroke-width:0.2;stroke-linecap:butt;stroke-linejoin:miter;stroke-miterlimit:4;stroke-dasharray:none;stroke-opacity:0.98209"
         id="path4714" />
      <path
         sodipodi:nodetypes="ccccccccc"
         d="m 263.46596,189.00558 c 1.42692,3.37207 -5.9884,2.54241 -8.045,4.81638 -1.19636,1.28031 -2.33641,2.66657 -3.92623,3.49607 -1.60626,0.99795 -3.33043,1.97331 -5.23977,2.21824 -3.87673,0.49361 -4.38343,-7.62969 -4.65201,-9.78543 -0.0708,-1.41353 0.52125,-2.93574 1.82594,-3.64703 1.6184,-1.22724 4.57683,-1.41971 5.75458,-1.42583 3.11421,-0.0611 5.41295,4.38539 7.2313,4.59728 2.63407,0.41483 5.91664,-3.16723 7.05119,-0.26968"
         style="fill:none;stroke:#000000;stroke-width:0.2;stroke-linecap:butt;stroke-linejoin:miter;stroke-miterlimit:4;stroke-dasharray:none;stroke-opacity:0.98209"
         id="path4739" />
      <ellipse
         transform="matrix(-0.46893831,-0.88323092,0.85671988,-0.51578197,0,0)"
         ry="24.445337"
         rx="3.1561928"
         cy="126.68411"
         cx="-288.5097"
         id="path4759"
         style="fill:none;stroke:#000000;stroke-width:0.200145;stroke-miterlimit:4;stroke-dasharray:none;stroke-opacity:0.98209" />
      <ellipse
         transform="matrix(-0.48183832,-0.87626014,0.9097171,-0.41522861,0,0)"
         ry="15.634573"
         rx="4.4402461"
         cy="109.77949"
         cx="-275.06314"
         id="path4778"
         style="fill:none;stroke:#000000;stroke-width:0.200278;stroke-miterlimit:4;stroke-dasharray:none;stroke-opacity:0.98209" />
      <ellipse
         style="fill:none;stroke:#ff0000;stroke-width:0.204734;stroke-miterlimit:4;stroke-dasharray:none;stroke-opacity:0.98209"
         id="path4342-0"
         cx="174.22063"
         cy="-313.68802"
         rx="5.5027971"
         ry="9.9899006"
         transform="matrix(-0.37411197,0.92738354,-0.99680785,-0.07983804,0,0)" />
      <path
         d="m 220.61664,180.85248 c 0.16457,0 0.25643,0.004 0.41144,0 0.12343,-0.042 -0.0411,-0.25216 0.0411,-0.33621 0.12343,-0.12607 0.28801,-0.12607 0.3703,0 0.0823,0.084 -0.12343,0.25216 0,0.33621 0.0823,0 0.37099,-0.002 0.45259,0 v 0.37823 c 0,0.12608 0.0411,0.12608 0.12343,0.042 0.0823,-0.084 0.28801,0.16811 0.20573,0.29418 -0.0415,0.0847 -0.16458,0.16811 -0.25342,0.1088 -0.11689,-0.0247 -0.0744,0.15072 -0.0757,0.22742 0.005,0.0951 0,0.12607 0,0.25215 h -0.45259 c -0.12343,-0.0841 0.0823,-0.25215 0,-0.33621 -0.0823,-0.12608 -0.24687,-0.12608 -0.3703,0 -0.0823,0.0841 0.0823,0.29418 -0.0411,0.33621 -0.13075,-0.001 -0.28055,0.006 -0.41144,0 v -0.25215 c 0,-0.0841 -0.0411,-0.29419 0.0823,-0.25216 0.0823,0.042 0.20573,0 0.24687,-0.0841 0.0823,-0.12608 -0.12343,-0.37823 -0.20572,-0.29418 -0.0823,0.0841 -0.12343,0.0841 -0.12343,-0.042 0,-0.12608 0.006,-0.25996 0,-0.37824 z"
         style="fill:none;stroke:#000000;stroke-width:0.15;stroke-linecap:square;stroke-linejoin:round;stroke-miterlimit:4;stroke-dasharray:none;stroke-opacity:1"
         id="path1405-9-82-0-0-1-4-19"
         sodipodi:nodetypes="ccccccccccccccccccccccc" />
      <path
         d="m 224.58539,178.20665 c 0.16457,0 0.25643,0.004 0.41144,0 0.12343,-0.042 -0.0411,-0.25216 0.0411,-0.33621 0.12343,-0.12607 0.28801,-0.12607 0.3703,0 0.0823,0.084 -0.12343,0.25216 0,0.33621 0.0823,0 0.37099,-0.002 0.45259,0 v 0.37823 c 0,0.12608 0.0411,0.12608 0.12343,0.042 0.0823,-0.084 0.28801,0.16811 0.20573,0.29418 -0.0415,0.0847 -0.16458,0.16811 -0.25342,0.1088 -0.11689,-0.0247 -0.0744,0.15072 -0.0757,0.22742 0.005,0.0951 0,0.12607 0,0.25215 h -0.45259 c -0.12343,-0.0841 0.0823,-0.25215 0,-0.33621 -0.0823,-0.12608 -0.24687,-0.12608 -0.3703,0 -0.0823,0.0841 0.0823,0.29418 -0.0411,0.33621 -0.13075,-0.001 -0.28055,0.006 -0.41144,0 v -0.25215 c 0,-0.0841 -0.0411,-0.29419 0.0823,-0.25216 0.0823,0.042 0.20573,0 0.24687,-0.0841 0.0823,-0.12608 -0.12343,-0.37823 -0.20572,-0.29418 -0.0823,0.0841 -0.12343,0.0841 -0.12343,-0.042 0,-0.12608 0.006,-0.25996 0,-0.37824 z"
         style="fill:none;stroke:#000000;stroke-width:0.15;stroke-linecap:square;stroke-linejoin:round;stroke-miterlimit:4;stroke-dasharray:none;stroke-opacity:1"
         id="path1405-9-82-0-0-1-4-81"
         sodipodi:nodetypes="ccccccccccccccccccccccc" />
      <path
         d="m 221.93955,184.82123 c 0.16457,0 0.25643,0.004 0.41144,0 0.12343,-0.042 -0.0411,-0.25216 0.0411,-0.33621 0.12343,-0.12607 0.28801,-0.12607 0.3703,0 0.0823,0.084 -0.12343,0.25216 0,0.33621 0.0823,0 0.37099,-0.002 0.45259,0 v 0.37823 c 0,0.12608 0.0411,0.12608 0.12343,0.042 0.0823,-0.084 0.28801,0.16811 0.20573,0.29418 -0.0415,0.0847 -0.16458,0.16811 -0.25342,0.1088 -0.11689,-0.0247 -0.0744,0.15072 -0.0757,0.22742 0.005,0.0951 0,0.12607 0,0.25215 h -0.45259 c -0.12343,-0.0841 0.0823,-0.25215 0,-0.33621 -0.0823,-0.12608 -0.24687,-0.12608 -0.3703,0 -0.0823,0.0841 0.0823,0.29418 -0.0411,0.33621 -0.13075,-0.001 -0.28055,0.006 -0.41144,0 v -0.25215 c 0,-0.0841 -0.0411,-0.29419 0.0823,-0.25216 0.0823,0.042 0.20573,0 0.24687,-0.0841 0.0823,-0.12608 -0.12343,-0.37823 -0.20572,-0.29418 -0.0823,0.0841 -0.12343,0.0841 -0.12343,-0.042 0,-0.12608 0.006,-0.25996 0,-0.37824 z"
         style="fill:none;stroke:#000000;stroke-width:0.15;stroke-linecap:square;stroke-linejoin:round;stroke-miterlimit:4;stroke-dasharray:none;stroke-opacity:1"
         id="path1405-9-82-0-0-1-4-5"
         sodipodi:nodetypes="ccccccccccccccccccccccc" />
      <path
         d="m 229.87705,187.46706 c 0.16457,0 0.25643,0.004 0.41144,0 0.12343,-0.042 -0.0411,-0.25216 0.0411,-0.33621 0.12343,-0.12607 0.28801,-0.12607 0.3703,0 0.0823,0.084 -0.12343,0.25216 0,0.33621 0.0823,0 0.37099,-0.002 0.45259,0 v 0.37823 c 0,0.12608 0.0411,0.12608 0.12343,0.042 0.0823,-0.084 0.28801,0.16811 0.20573,0.29418 -0.0415,0.0847 -0.16458,0.16811 -0.25342,0.1088 -0.11689,-0.0247 -0.0744,0.15072 -0.0757,0.22742 0.005,0.0951 0,0.12607 0,0.25215 h -0.45259 c -0.12343,-0.0841 0.0823,-0.25215 0,-0.33621 -0.0823,-0.12608 -0.24687,-0.12608 -0.3703,0 -0.0823,0.0841 0.0823,0.29418 -0.0411,0.33621 -0.13075,-10e-4 -0.28055,0.006 -0.41144,0 v -0.25215 c 0,-0.0841 -0.0411,-0.29419 0.0823,-0.25216 0.0823,0.042 0.20573,0 0.24687,-0.0841 0.0823,-0.12608 -0.12343,-0.37823 -0.20572,-0.29418 -0.0823,0.0841 -0.12343,0.0841 -0.12343,-0.042 0,-0.12608 0.006,-0.25996 0,-0.37824 z"
         style="fill:none;stroke:#000000;stroke-width:0.15;stroke-linecap:square;stroke-linejoin:round;stroke-miterlimit:4;stroke-dasharray:none;stroke-opacity:1"
         id="path1405-9-82-0-0-1-4-3"
         sodipodi:nodetypes="ccccccccccccccccccccccc" />
      <path
         d="m 233.8458,183.49831 c 0.16457,0 0.25643,0.004 0.41144,0 0.12343,-0.042 -0.0411,-0.25216 0.0411,-0.33621 0.12343,-0.12607 0.28801,-0.12607 0.3703,0 0.0823,0.084 -0.12343,0.25216 0,0.33621 0.0823,0 0.37099,-0.002 0.45259,0 v 0.37823 c 0,0.12608 0.0411,0.12608 0.12343,0.042 0.0823,-0.084 0.28801,0.16811 0.20573,0.29418 -0.0415,0.0847 -0.16458,0.16811 -0.25342,0.1088 -0.11689,-0.0247 -0.0744,0.15072 -0.0757,0.22742 0.005,0.0951 0,0.12607 0,0.25215 h -0.45259 c -0.12343,-0.0841 0.0823,-0.25215 0,-0.33621 -0.0823,-0.12608 -0.24687,-0.12608 -0.3703,0 -0.0823,0.0841 0.0823,0.29418 -0.0411,0.33621 -0.13075,-10e-4 -0.28055,0.006 -0.41144,0 v -0.25215 c 0,-0.0841 -0.0411,-0.29419 0.0823,-0.25216 0.0823,0.042 0.20573,0 0.24687,-0.0841 0.0823,-0.12608 -0.12343,-0.37823 -0.20572,-0.29418 -0.0823,0.0841 -0.12343,0.0841 -0.12343,-0.042 0,-0.12608 0.006,-0.25996 0,-0.37824 z"
         style="fill:none;stroke:#000000;stroke-width:0.15;stroke-linecap:square;stroke-linejoin:round;stroke-miterlimit:4;stroke-dasharray:none;stroke-opacity:1"
         id="path1405-9-82-0-0-1-4-9"
         sodipodi:nodetypes="ccccccccccccccccccccccc" />
      <path
         d="m 231.19997,179.52956 c 0.16457,0 0.25643,0.004 0.41144,0 0.12343,-0.042 -0.0411,-0.25216 0.0411,-0.33621 0.12343,-0.12607 0.28801,-0.12607 0.3703,0 0.0823,0.084 -0.12343,0.25216 0,0.33621 0.0823,0 0.37099,-0.002 0.45259,0 v 0.37823 c 0,0.12608 0.0411,0.12608 0.12343,0.042 0.0823,-0.084 0.28801,0.16811 0.20573,0.29418 -0.0415,0.0847 -0.16458,0.16811 -0.25342,0.1088 -0.11689,-0.0247 -0.0744,0.15072 -0.0757,0.22742 0.005,0.0951 0,0.12607 0,0.25215 h -0.45259 c -0.12343,-0.0841 0.0823,-0.25215 0,-0.33621 -0.0823,-0.12608 -0.24687,-0.12608 -0.3703,0 -0.0823,0.0841 0.0823,0.29418 -0.0411,0.33621 -0.13075,-10e-4 -0.28055,0.006 -0.41144,0 v -0.25215 c 0,-0.0841 -0.0411,-0.29419 0.0823,-0.25216 0.0823,0.042 0.20573,0 0.24687,-0.0841 0.0823,-0.12608 -0.12343,-0.37823 -0.20572,-0.29418 -0.0823,0.0841 -0.12343,0.0841 -0.12343,-0.042 0,-0.12608 0.006,-0.25996 0,-0.37824 z"
         style="fill:none;stroke:#000000;stroke-width:0.15;stroke-linecap:square;stroke-linejoin:round;stroke-miterlimit:4;stroke-dasharray:none;stroke-opacity:1"
         id="path1405-9-82-0-0-1-4-7"
         sodipodi:nodetypes="ccccccccccccccccccccccc" />
      <path
         d="m 236.49164,179.52956 c 0.16457,0 0.25643,0.004 0.41144,0 0.12343,-0.042 -0.0411,-0.25216 0.0411,-0.33621 0.12343,-0.12607 0.28801,-0.12607 0.3703,0 0.0823,0.084 -0.12343,0.25216 0,0.33621 0.0823,0 0.37099,-0.002 0.45259,0 v 0.37823 c 0,0.12608 0.0411,0.12608 0.12343,0.042 0.0823,-0.084 0.28801,0.16811 0.20573,0.29418 -0.0415,0.0847 -0.16458,0.16811 -0.25342,0.1088 -0.11689,-0.0247 -0.0744,0.15072 -0.0757,0.22742 0.005,0.0951 0,0.12607 0,0.25215 h -0.45259 c -0.12343,-0.0841 0.0823,-0.25215 0,-0.33621 -0.0823,-0.12608 -0.24687,-0.12608 -0.3703,0 -0.0823,0.0841 0.0823,0.29418 -0.0411,0.33621 -0.13075,-10e-4 -0.28055,0.006 -0.41144,0 v -0.25215 c 0,-0.0841 -0.0411,-0.29419 0.0823,-0.25216 0.0823,0.042 0.20573,0 0.24687,-0.0841 0.0823,-0.12608 -0.12343,-0.37823 -0.20572,-0.29418 -0.0823,0.0841 -0.12343,0.0841 -0.12343,-0.042 0,-0.12608 0.006,-0.25996 0,-0.37824 z"
         style="fill:none;stroke:#000000;stroke-width:0.15;stroke-linecap:square;stroke-linejoin:round;stroke-miterlimit:4;stroke-dasharray:none;stroke-opacity:1"
         id="path1405-9-82-0-0-1-4-75"
         sodipodi:nodetypes="ccccccccccccccccccccccc" />
      <path
         d="m 240.46039,175.56081 c 0.16457,0 0.25643,0.004 0.41144,0 0.12343,-0.042 -0.0411,-0.25216 0.0411,-0.33621 0.12343,-0.12607 0.28801,-0.12607 0.3703,0 0.0823,0.084 -0.12343,0.25216 0,0.33621 0.0823,0 0.37099,-0.002 0.45259,0 v 0.37823 c 0,0.12608 0.0411,0.12608 0.12343,0.042 0.0823,-0.084 0.28801,0.16811 0.20573,0.29418 -0.0415,0.0847 -0.16458,0.16811 -0.25342,0.1088 -0.11689,-0.0247 -0.0744,0.15072 -0.0757,0.22742 0.005,0.0951 0,0.12607 0,0.25215 h -0.45259 c -0.12343,-0.0841 0.0823,-0.25215 0,-0.33621 -0.0823,-0.12608 -0.24687,-0.12608 -0.3703,0 -0.0823,0.0841 0.0823,0.29418 -0.0411,0.33621 -0.13075,-10e-4 -0.28055,0.006 -0.41144,0 v -0.25215 c 0,-0.0841 -0.0411,-0.29419 0.0823,-0.25216 0.0823,0.042 0.20573,0 0.24687,-0.0841 0.0823,-0.12608 -0.12343,-0.37823 -0.20572,-0.29418 -0.0823,0.0841 -0.12343,0.0841 -0.12343,-0.042 0,-0.12608 0.006,-0.25996 0,-0.37824 z"
         style="fill:none;stroke:#000000;stroke-width:0.15;stroke-linecap:square;stroke-linejoin:round;stroke-miterlimit:4;stroke-dasharray:none;stroke-opacity:1"
         id="path1405-9-82-0-0-1-4-59"
         sodipodi:nodetypes="ccccccccccccccccccccccc" />
      <path
         d="m 248.39789,178.20665 c 0.16457,0 0.25643,0.004 0.41144,0 0.12343,-0.042 -0.0411,-0.25216 0.0411,-0.33621 0.12343,-0.12607 0.28801,-0.12607 0.3703,0 0.0823,0.084 -0.12343,0.25216 0,0.33621 0.0823,0 0.37099,-0.002 0.45259,0 v 0.37823 c 0,0.12608 0.0411,0.12608 0.12343,0.042 0.0823,-0.084 0.28801,0.16811 0.20573,0.29418 -0.0415,0.0847 -0.16458,0.16811 -0.25342,0.1088 -0.11689,-0.0247 -0.0744,0.15072 -0.0757,0.22742 0.005,0.0951 0,0.12607 0,0.25215 h -0.45259 c -0.12343,-0.0841 0.0823,-0.25215 0,-0.33621 -0.0823,-0.12608 -0.24687,-0.12608 -0.3703,0 -0.0823,0.0841 0.0823,0.29418 -0.0411,0.33621 -0.13075,-0.001 -0.28055,0.006 -0.41144,0 v -0.25215 c 0,-0.0841 -0.0411,-0.29419 0.0823,-0.25216 0.0823,0.042 0.20573,0 0.24687,-0.0841 0.0823,-0.12608 -0.12343,-0.37823 -0.20572,-0.29418 -0.0823,0.0841 -0.12343,0.0841 -0.12343,-0.042 0,-0.12608 0.006,-0.25996 0,-0.37824 z"
         style="fill:none;stroke:#000000;stroke-width:0.15;stroke-linecap:square;stroke-linejoin:round;stroke-miterlimit:4;stroke-dasharray:none;stroke-opacity:1"
         id="path1405-9-82-0-0-1-4-51"
         sodipodi:nodetypes="ccccccccccccccccccccccc" />
      <path
         d="m 253.37892,176.25675 c 0.16457,0 0.25643,0.004 0.41144,0 0.12343,-0.042 -0.0411,-0.25216 0.0411,-0.33621 0.12343,-0.12607 0.28801,-0.12607 0.3703,0 0.0823,0.084 -0.12343,0.25216 0,0.33621 0.0823,0 0.37099,-0.002 0.45259,0 v 0.37823 c 0,0.12608 0.0411,0.12608 0.12343,0.042 0.0823,-0.084 0.28801,0.16811 0.20573,0.29418 -0.0415,0.0847 -0.16458,0.16811 -0.25342,0.1088 -0.11689,-0.0247 -0.0744,0.15072 -0.0757,0.22742 0.005,0.0951 0,0.12607 0,0.25215 h -0.45259 c -0.12343,-0.0841 0.0823,-0.25215 0,-0.33621 -0.0823,-0.12608 -0.24687,-0.12608 -0.3703,0 -0.0823,0.0841 0.0823,0.29418 -0.0411,0.33621 -0.13075,-0.001 -0.28055,0.006 -0.41144,0 v -0.25215 c 0,-0.0841 -0.0411,-0.29419 0.0823,-0.25216 0.0823,0.042 0.20573,0 0.24687,-0.0841 0.0823,-0.12608 -0.12343,-0.37823 -0.20572,-0.29418 -0.0823,0.0841 -0.12343,0.0841 -0.12343,-0.042 0,-0.12608 0.006,-0.25996 0,-0.37824 z"
         style="fill:none;stroke:#000000;stroke-width:0.15;stroke-linecap:square;stroke-linejoin:round;stroke-miterlimit:4;stroke-dasharray:none;stroke-opacity:1"
         id="path1405-9-82-0-0-1-4-6"
         sodipodi:nodetypes="ccccccccccccccccccccccc" />
      <path
         d="m 240.46039,183.49831 c 0.16457,0 0.25643,0.004 0.41144,0 0.12343,-0.042 -0.0411,-0.25216 0.0411,-0.33621 0.12343,-0.12607 0.28801,-0.12607 0.3703,0 0.0823,0.084 -0.12343,0.25216 0,0.33621 0.0823,0 0.37099,-0.002 0.45259,0 v 0.37823 c 0,0.12608 0.0411,0.12608 0.12343,0.042 0.0823,-0.084 0.28801,0.16811 0.20573,0.29418 -0.0415,0.0847 -0.16458,0.16811 -0.25342,0.1088 -0.11689,-0.0247 -0.0744,0.15072 -0.0757,0.22742 0.005,0.0951 0,0.12607 0,0.25215 h -0.45259 c -0.12343,-0.0841 0.0823,-0.25215 0,-0.33621 -0.0823,-0.12608 -0.24687,-0.12608 -0.3703,0 -0.0823,0.0841 0.0823,0.29418 -0.0411,0.33621 -0.13075,-10e-4 -0.28055,0.006 -0.41144,0 v -0.25215 c 0,-0.0841 -0.0411,-0.29419 0.0823,-0.25216 0.0823,0.042 0.20573,0 0.24687,-0.0841 0.0823,-0.12608 -0.12343,-0.37823 -0.20572,-0.29418 -0.0823,0.0841 -0.12343,0.0841 -0.12343,-0.042 0,-0.12608 0.006,-0.25996 0,-0.37824 z"
         style="fill:none;stroke:#000000;stroke-width:0.15;stroke-linecap:square;stroke-linejoin:round;stroke-miterlimit:4;stroke-dasharray:none;stroke-opacity:1"
         id="path1405-9-82-0-0-1-4-0"
         sodipodi:nodetypes="ccccccccccccccccccccccc" />
      <path
         d="m 249.7208,186.14415 c 0.16457,0 0.25643,0.004 0.41144,0 0.12343,-0.042 -0.0411,-0.25216 0.0411,-0.33621 0.12343,-0.12607 0.28801,-0.12607 0.3703,0 0.0823,0.084 -0.12343,0.25216 0,0.33621 0.0823,0 0.37099,-0.002 0.45259,0 v 0.37823 c 0,0.12608 0.0411,0.12608 0.12343,0.042 0.0823,-0.084 0.28801,0.16811 0.20573,0.29418 -0.0415,0.0847 -0.16458,0.16811 -0.25342,0.1088 -0.11689,-0.0247 -0.0744,0.15072 -0.0757,0.22742 0.005,0.0951 0,0.12607 0,0.25215 h -0.45259 c -0.12343,-0.0841 0.0823,-0.25215 0,-0.33621 -0.0823,-0.12608 -0.24687,-0.12608 -0.3703,0 -0.0823,0.0841 0.0823,0.29418 -0.0411,0.33621 -0.13075,-0.001 -0.28055,0.006 -0.41144,0 v -0.25215 c 0,-0.0841 -0.0411,-0.29419 0.0823,-0.25216 0.0823,0.042 0.20573,0 0.24687,-0.0841 0.0823,-0.12608 -0.12343,-0.37823 -0.20572,-0.29418 -0.0823,0.0841 -0.12343,0.0841 -0.12343,-0.042 0,-0.12608 0.006,-0.25996 0,-0.37824 z"
         style="fill:none;stroke:#000000;stroke-width:0.15;stroke-linecap:square;stroke-linejoin:round;stroke-miterlimit:4;stroke-dasharray:none;stroke-opacity:1"
         id="path1405-9-82-0-0-1-4-2"
         sodipodi:nodetypes="ccccccccccccccccccccccc" />
      <path
         d="m 254.9901,186.3902 c 0.16457,0 0.25643,0.004 0.41144,0 0.12343,-0.042 -0.0411,-0.25216 0.0411,-0.33621 0.12343,-0.12607 0.28801,-0.12607 0.3703,0 0.0823,0.084 -0.12343,0.25216 0,0.33621 0.0823,0 0.37099,-0.002 0.45259,0 v 0.37823 c 0,0.12608 0.0411,0.12608 0.12343,0.042 0.0823,-0.084 0.28801,0.16811 0.20573,0.29418 -0.0415,0.0847 -0.16458,0.16811 -0.25342,0.1088 -0.11689,-0.0247 -0.0744,0.15072 -0.0757,0.22742 0.005,0.0951 0,0.12607 0,0.25215 h -0.45259 c -0.12343,-0.0841 0.0823,-0.25215 0,-0.33621 -0.0823,-0.12608 -0.24687,-0.12608 -0.3703,0 -0.0823,0.0841 0.0823,0.29418 -0.0411,0.33621 -0.13075,-0.001 -0.28055,0.006 -0.41144,0 v -0.25215 c 0,-0.0841 -0.0411,-0.29419 0.0823,-0.25216 0.0823,0.042 0.20573,0 0.24687,-0.0841 0.0823,-0.12608 -0.12343,-0.37823 -0.20572,-0.29418 -0.0823,0.0841 -0.12343,0.0841 -0.12343,-0.042 0,-0.12608 0.006,-0.25996 0,-0.37824 z"
         style="fill:none;stroke:#000000;stroke-width:0.15;stroke-linecap:square;stroke-linejoin:round;stroke-miterlimit:4;stroke-dasharray:none;stroke-opacity:1"
         id="path1405-9-82-0-0-1-4-28"
         sodipodi:nodetypes="ccccccccccccccccccccccc" />
      <path
         d="m 259.54493,178.68116 c 0.16457,0 0.25643,0.004 0.41144,0 0.12343,-0.042 -0.0411,-0.25216 0.0411,-0.33621 0.12343,-0.12607 0.28801,-0.12607 0.3703,0 0.0823,0.084 -0.12343,0.25216 0,0.33621 0.0823,0 0.37099,-0.002 0.45259,0 v 0.37823 c 0,0.12608 0.0411,0.12608 0.12343,0.042 0.0823,-0.084 0.28801,0.16811 0.20573,0.29418 -0.0415,0.0847 -0.16458,0.16811 -0.25342,0.1088 -0.11689,-0.0247 -0.0744,0.15072 -0.0757,0.22742 0.005,0.0951 0,0.12607 0,0.25215 h -0.45259 c -0.12343,-0.0841 0.0823,-0.25215 0,-0.33621 -0.0823,-0.12608 -0.24687,-0.12608 -0.3703,0 -0.0823,0.0841 0.0823,0.29418 -0.0411,0.33621 -0.13075,-10e-4 -0.28055,0.006 -0.41144,0 v -0.25215 c 0,-0.0841 -0.0411,-0.29419 0.0823,-0.25216 0.0823,0.042 0.20573,0 0.24687,-0.0841 0.0823,-0.12608 -0.12343,-0.37823 -0.20572,-0.29418 -0.0823,0.0841 -0.12343,0.0841 -0.12343,-0.042 0,-0.12608 0.006,-0.25996 0,-0.37824 z"
         style="fill:none;stroke:#000000;stroke-width:0.15;stroke-linecap:square;stroke-linejoin:round;stroke-miterlimit:4;stroke-dasharray:none;stroke-opacity:1"
         id="path1405-9-82-0-0-1-4-65"
         sodipodi:nodetypes="ccccccccccccccccccccccc" />
      <path
         d="m 246.62695,173.00161 c 0.16457,0 0.25643,0.004 0.41144,0 0.12343,-0.042 -0.0411,-0.25216 0.0411,-0.33621 0.12343,-0.12607 0.28801,-0.12607 0.3703,0 0.0823,0.084 -0.12343,0.25216 0,0.33621 0.0823,0 0.37099,-0.002 0.45259,0 v 0.37823 c 0,0.12608 0.0411,0.12608 0.12343,0.042 0.0823,-0.084 0.28801,0.16811 0.20573,0.29418 -0.0415,0.0847 -0.16458,0.16811 -0.25342,0.1088 -0.11689,-0.0247 -0.0744,0.15072 -0.0757,0.22742 0.005,0.0951 0,0.12607 0,0.25215 h -0.45259 c -0.12343,-0.0841 0.0823,-0.25215 0,-0.33621 -0.0823,-0.12608 -0.24687,-0.12608 -0.3703,0 -0.0823,0.0841 0.0823,0.29418 -0.0411,0.33621 -0.13075,-0.001 -0.28055,0.006 -0.41144,0 v -0.25215 c 0,-0.0841 -0.0411,-0.29419 0.0823,-0.25216 0.0823,0.042 0.20573,0 0.24687,-0.0841 0.0823,-0.12608 -0.12343,-0.37823 -0.20572,-0.29418 -0.0823,0.0841 -0.12343,0.0841 -0.12343,-0.042 0,-0.12608 0.006,-0.25996 0,-0.37824 z"
         style="fill:none;stroke:#000000;stroke-width:0.15;stroke-linecap:square;stroke-linejoin:round;stroke-miterlimit:4;stroke-dasharray:none;stroke-opacity:1"
         id="path1405-9-82-0-0-1-4-90"
         sodipodi:nodetypes="ccccccccccccccccccccccc" />
      <path
         d="m 260.92982,189.27018 c 0.16457,0 0.25643,0.004 0.41144,0 0.12343,-0.042 -0.0411,-0.25216 0.0411,-0.33621 0.12343,-0.12607 0.28801,-0.12607 0.3703,0 0.0823,0.084 -0.12343,0.25216 0,0.33621 0.0823,0 0.37099,-0.002 0.45259,0 v 0.37823 c 0,0.12608 0.0411,0.12608 0.12343,0.042 0.0823,-0.084 0.28801,0.16811 0.20573,0.29418 -0.0415,0.0847 -0.16458,0.16811 -0.25342,0.1088 -0.11689,-0.0247 -0.0744,0.15072 -0.0757,0.22742 0.005,0.0951 0,0.12607 0,0.25215 h -0.45259 c -0.12343,-0.0841 0.0823,-0.25215 0,-0.33621 -0.0823,-0.12608 -0.24687,-0.12608 -0.3703,0 -0.0823,0.0841 0.0823,0.29418 -0.0411,0.33621 -0.13075,-0.001 -0.28055,0.006 -0.41144,0 v -0.25215 c 0,-0.0841 -0.0411,-0.29419 0.0823,-0.25216 0.0823,0.042 0.20573,0 0.24687,-0.0841 0.0823,-0.12608 -0.12343,-0.37823 -0.20572,-0.29418 -0.0823,0.0841 -0.12343,0.0841 -0.12343,-0.042 0,-0.12608 0.006,-0.25996 0,-0.37824 z"
         style="fill:none;stroke:#000000;stroke-width:0.15;stroke-linecap:square;stroke-linejoin:round;stroke-miterlimit:4;stroke-dasharray:none;stroke-opacity:1"
         id="path1405-9-82-0-0-1-4-98"
         sodipodi:nodetypes="ccccccccccccccccccccccc" />
      <path
         d="m 251.04372,192.75873 c 0.16457,0 0.25643,0.004 0.41144,0 0.12343,-0.042 -0.0411,-0.25216 0.0411,-0.33621 0.12343,-0.12607 0.28801,-0.12607 0.3703,0 0.0823,0.084 -0.12343,0.25216 0,0.33621 0.0823,0 0.37099,-0.002 0.45259,0 v 0.37823 c 0,0.12608 0.0411,0.12608 0.12343,0.042 0.0823,-0.084 0.28801,0.16811 0.20573,0.29418 -0.0415,0.0847 -0.16458,0.16811 -0.25342,0.1088 -0.11689,-0.0247 -0.0744,0.15072 -0.0757,0.22742 0.005,0.0951 0,0.12607 0,0.25215 h -0.45259 c -0.12343,-0.0841 0.0823,-0.25215 0,-0.33621 -0.0823,-0.12608 -0.24687,-0.12608 -0.3703,0 -0.0823,0.0841 0.0823,0.29418 -0.0411,0.33621 -0.13075,-0.001 -0.28055,0.006 -0.41144,0 v -0.25215 c 0,-0.0841 -0.0411,-0.29419 0.0823,-0.25216 0.0823,0.042 0.20573,0 0.24687,-0.0841 0.0823,-0.12608 -0.12343,-0.37823 -0.20572,-0.29418 -0.0823,0.0841 -0.12343,0.0841 -0.12343,-0.042 0,-0.12608 0.006,-0.25996 0,-0.37824 z"
         style="fill:none;stroke:#000000;stroke-width:0.15;stroke-linecap:square;stroke-linejoin:round;stroke-miterlimit:4;stroke-dasharray:none;stroke-opacity:1"
         id="path1405-9-82-0-0-1-4-23"
         sodipodi:nodetypes="ccccccccccccccccccccccc" />
      <path
         d="m 257.08889,193.98675 c 0.16457,0 0.25643,0.004 0.41144,0 0.12343,-0.042 -0.0411,-0.25216 0.0411,-0.33621 0.12343,-0.12607 0.28801,-0.12607 0.3703,0 0.0823,0.084 -0.12343,0.25216 0,0.33621 0.0823,0 0.37099,-0.002 0.45259,0 v 0.37823 c 0,0.12608 0.0411,0.12608 0.12343,0.042 0.0823,-0.084 0.28801,0.16811 0.20573,0.29418 -0.0415,0.0847 -0.16458,0.16811 -0.25342,0.1088 -0.11689,-0.0247 -0.0744,0.15072 -0.0757,0.22742 0.005,0.0951 0,0.12607 0,0.25215 h -0.45259 c -0.12343,-0.0841 0.0823,-0.25215 0,-0.33621 -0.0823,-0.12608 -0.24687,-0.12608 -0.3703,0 -0.0823,0.0841 0.0823,0.29418 -0.0411,0.33621 -0.13075,-0.001 -0.28055,0.006 -0.41144,0 v -0.25215 c 0,-0.0841 -0.0411,-0.29419 0.0823,-0.25216 0.0823,0.042 0.20573,0 0.24687,-0.0841 0.0823,-0.12608 -0.12343,-0.37823 -0.20572,-0.29418 -0.0823,0.0841 -0.12343,0.0841 -0.12343,-0.042 0,-0.12608 0.006,-0.25996 0,-0.37824 z"
         style="fill:none;stroke:#000000;stroke-width:0.15;stroke-linecap:square;stroke-linejoin:round;stroke-miterlimit:4;stroke-dasharray:none;stroke-opacity:1"
         id="path1405-9-82-0-0-1-4-92"
         sodipodi:nodetypes="ccccccccccccccccccccccc" />
      <path
         d="m 254.82267,199.87945 c 0.16457,0 0.25643,0.004 0.41144,0 0.12343,-0.042 -0.0411,-0.25216 0.0411,-0.33621 0.12343,-0.12607 0.28801,-0.12607 0.3703,0 0.0823,0.084 -0.12343,0.25216 0,0.33621 0.0823,0 0.37099,-0.002 0.45259,0 v 0.37823 c 0,0.12608 0.0411,0.12608 0.12343,0.042 0.0823,-0.084 0.28801,0.16811 0.20573,0.29418 -0.0415,0.0847 -0.16458,0.16811 -0.25342,0.1088 -0.11689,-0.0247 -0.0744,0.15072 -0.0757,0.22742 0.005,0.0951 0,0.12607 0,0.25215 h -0.45259 c -0.12343,-0.0841 0.0823,-0.25215 0,-0.33621 -0.0823,-0.12608 -0.24687,-0.12608 -0.3703,0 -0.0823,0.0841 0.0823,0.29418 -0.0411,0.33621 -0.13075,-0.001 -0.28055,0.006 -0.41144,0 v -0.25215 c 0,-0.0841 -0.0411,-0.29419 0.0823,-0.25216 0.0823,0.042 0.20573,0 0.24687,-0.0841 0.0823,-0.12608 -0.12343,-0.37823 -0.20572,-0.29418 -0.0823,0.0841 -0.12343,0.0841 -0.12343,-0.042 0,-0.12608 0.006,-0.25996 0,-0.37824 z"
         style="fill:none;stroke:#000000;stroke-width:0.15;stroke-linecap:square;stroke-linejoin:round;stroke-miterlimit:4;stroke-dasharray:none;stroke-opacity:1"
         id="path1405-9-82-0-0-1-4-91"
         sodipodi:nodetypes="ccccccccccccccccccccccc" />
      <path
         d="m 243.10622,200.69623 c 0.16457,0 0.25643,0.004 0.41144,0 0.12343,-0.042 -0.0411,-0.25216 0.0411,-0.33621 0.12343,-0.12607 0.28801,-0.12607 0.3703,0 0.0823,0.084 -0.12343,0.25216 0,0.33621 0.0823,0 0.37099,-0.002 0.45259,0 v 0.37823 c 0,0.12608 0.0411,0.12608 0.12343,0.042 0.0823,-0.084 0.28801,0.16811 0.20573,0.29418 -0.0415,0.0847 -0.16458,0.16811 -0.25342,0.1088 -0.11689,-0.0247 -0.0744,0.15072 -0.0757,0.22742 0.005,0.0951 0,0.12607 0,0.25215 h -0.45259 c -0.12343,-0.0841 0.0823,-0.25215 0,-0.33621 -0.0823,-0.12608 -0.24687,-0.12608 -0.3703,0 -0.0823,0.0841 0.0823,0.29418 -0.0411,0.33621 -0.13075,-0.001 -0.28055,0.006 -0.41144,0 v -0.25215 c 0,-0.0841 -0.0411,-0.29419 0.0823,-0.25216 0.0823,0.042 0.20573,0 0.24687,-0.0841 0.0823,-0.12608 -0.12343,-0.37823 -0.20572,-0.29418 -0.0823,0.0841 -0.12343,0.0841 -0.12343,-0.042 0,-0.12608 0.006,-0.25996 0,-0.37824 z"
         style="fill:none;stroke:#000000;stroke-width:0.15;stroke-linecap:square;stroke-linejoin:round;stroke-miterlimit:4;stroke-dasharray:none;stroke-opacity:1"
         id="path1405-9-82-0-0-1-4-39"
         sodipodi:nodetypes="ccccccccccccccccccccccc" />
      <path
         d="m 240.46039,196.72748 c 0.16457,0 0.25643,0.004 0.41144,0 0.12343,-0.042 -0.0411,-0.25216 0.0411,-0.33621 0.12343,-0.12607 0.28801,-0.12607 0.3703,0 0.0823,0.084 -0.12343,0.25216 0,0.33621 0.0823,0 0.37099,-0.002 0.45259,0 v 0.37823 c 0,0.12608 0.0411,0.12608 0.12343,0.042 0.0823,-0.084 0.28801,0.16811 0.20573,0.29418 -0.0415,0.0847 -0.16458,0.16811 -0.25342,0.1088 -0.11689,-0.0247 -0.0744,0.15072 -0.0757,0.22742 0.005,0.0951 0,0.12607 0,0.25215 h -0.45259 c -0.12343,-0.0841 0.0823,-0.25215 0,-0.33621 -0.0823,-0.12608 -0.24687,-0.12608 -0.3703,0 -0.0823,0.0841 0.0823,0.29418 -0.0411,0.33621 -0.13075,-0.001 -0.28055,0.006 -0.41144,0 v -0.25215 c 0,-0.0841 -0.0411,-0.29419 0.0823,-0.25216 0.0823,0.042 0.20573,0 0.24687,-0.0841 0.0823,-0.12608 -0.12343,-0.37823 -0.20572,-0.29418 -0.0823,0.0841 -0.12343,0.0841 -0.12343,-0.042 0,-0.12608 0.006,-0.25996 0,-0.37824 z"
         style="fill:none;stroke:#000000;stroke-width:0.15;stroke-linecap:square;stroke-linejoin:round;stroke-miterlimit:4;stroke-dasharray:none;stroke-opacity:1"
         id="path1405-9-82-0-0-1-4-97"
         sodipodi:nodetypes="ccccccccccccccccccccccc" />
      <path
         d="m 247.07497,195.40456 c 0.16457,0 0.25643,0.004 0.41144,0 0.12343,-0.042 -0.0411,-0.25216 0.0411,-0.33621 0.12343,-0.12607 0.28801,-0.12607 0.3703,0 0.0823,0.084 -0.12343,0.25216 0,0.33621 0.0823,0 0.37099,-0.002 0.45259,0 v 0.37823 c 0,0.12608 0.0411,0.12608 0.12343,0.042 0.0823,-0.084 0.28801,0.16811 0.20573,0.29418 -0.0415,0.0847 -0.16458,0.16811 -0.25342,0.1088 -0.11689,-0.0247 -0.0744,0.15072 -0.0757,0.22742 0.005,0.0951 0,0.12607 0,0.25215 h -0.45259 c -0.12343,-0.0841 0.0823,-0.25215 0,-0.33621 -0.0823,-0.12608 -0.24687,-0.12608 -0.3703,0 -0.0823,0.0841 0.0823,0.29418 -0.0411,0.33621 -0.13075,-10e-4 -0.28055,0.006 -0.41144,0 v -0.25215 c 0,-0.0841 -0.0411,-0.29419 0.0823,-0.25216 0.0823,0.042 0.20573,0 0.24687,-0.0841 0.0823,-0.12608 -0.12343,-0.37823 -0.20572,-0.29418 -0.0823,0.0841 -0.12343,0.0841 -0.12343,-0.042 0,-0.12608 0.006,-0.25996 0,-0.37824 z"
         style="fill:none;stroke:#000000;stroke-width:0.15;stroke-linecap:square;stroke-linejoin:round;stroke-miterlimit:4;stroke-dasharray:none;stroke-opacity:1"
         id="path1405-9-82-0-0-1-4-78"
         sodipodi:nodetypes="ccccccccccccccccccccccc" />
      <path
         d="m 232.70698,195.46783 c 0.16457,0 0.25643,0.004 0.41144,0 0.12343,-0.042 -0.0411,-0.25216 0.0411,-0.33621 0.12343,-0.12607 0.28801,-0.12607 0.3703,0 0.0823,0.084 -0.12343,0.25216 0,0.33621 0.0823,0 0.37099,-0.002 0.45259,0 v 0.37823 c 0,0.12608 0.0411,0.12608 0.12343,0.042 0.0823,-0.084 0.28801,0.16811 0.20573,0.29418 -0.0415,0.0847 -0.16458,0.16811 -0.25342,0.1088 -0.11689,-0.0247 -0.0744,0.15072 -0.0757,0.22742 0.005,0.0951 0,0.12607 0,0.25215 h -0.45259 c -0.12343,-0.0841 0.0823,-0.25215 0,-0.33621 -0.0823,-0.12608 -0.24687,-0.12608 -0.3703,0 -0.0823,0.0841 0.0823,0.29418 -0.0411,0.33621 -0.13075,-0.001 -0.28055,0.006 -0.41144,0 v -0.25215 c 0,-0.0841 -0.0411,-0.29419 0.0823,-0.25216 0.0823,0.042 0.20573,0 0.24687,-0.0841 0.0823,-0.12608 -0.12343,-0.37823 -0.20572,-0.29418 -0.0823,0.0841 -0.12343,0.0841 -0.12343,-0.042 0,-0.12608 0.006,-0.25996 0,-0.37824 z"
         style="fill:none;stroke:#000000;stroke-width:0.15;stroke-linecap:square;stroke-linejoin:round;stroke-miterlimit:4;stroke-dasharray:none;stroke-opacity:1"
         id="path1405-9-82-0-0-1-4-00"
         sodipodi:nodetypes="ccccccccccccccccccccccc" />
      <path
         d="m 226.84592,199.12595 c 0.16457,0 0.25643,0.004 0.41144,0 0.12343,-0.042 -0.0411,-0.25216 0.0411,-0.33621 0.12343,-0.12607 0.28801,-0.12607 0.3703,0 0.0823,0.084 -0.12343,0.25216 0,0.33621 0.0823,0 0.37099,-0.002 0.45259,0 v 0.37823 c 0,0.12608 0.0411,0.12608 0.12343,0.042 0.0823,-0.084 0.28801,0.16811 0.20573,0.29418 -0.0415,0.0847 -0.16458,0.16811 -0.25342,0.1088 -0.11689,-0.0247 -0.0744,0.15072 -0.0757,0.22742 0.005,0.0951 0,0.12607 0,0.25215 h -0.45259 c -0.12343,-0.0841 0.0823,-0.25215 0,-0.33621 -0.0823,-0.12608 -0.24687,-0.12608 -0.3703,0 -0.0823,0.0841 0.0823,0.29418 -0.0411,0.33621 -0.13075,-0.001 -0.28055,0.006 -0.41144,0 v -0.25215 c 0,-0.0841 -0.0411,-0.29419 0.0823,-0.25216 0.0823,0.042 0.20573,0 0.24687,-0.0841 0.0823,-0.12608 -0.12343,-0.37823 -0.20572,-0.29418 -0.0823,0.0841 -0.12343,0.0841 -0.12343,-0.042 0,-0.12608 0.006,-0.25996 0,-0.37824 z"
         style="fill:none;stroke:#000000;stroke-width:0.15;stroke-linecap:square;stroke-linejoin:round;stroke-miterlimit:4;stroke-dasharray:none;stroke-opacity:1"
         id="path1405-9-82-0-0-1-4-95"
         sodipodi:nodetypes="ccccccccccccccccccccccc" />
      <path
         d="m 222.25019,197.42342 c 0.16457,0 0.25643,0.004 0.41144,0 0.12343,-0.042 -0.0411,-0.25216 0.0411,-0.33621 0.12343,-0.12607 0.28801,-0.12607 0.3703,0 0.0823,0.084 -0.12343,0.25216 0,0.33621 0.0823,0 0.37099,-0.002 0.45259,0 v 0.37823 c 0,0.12608 0.0411,0.12608 0.12343,0.042 0.0823,-0.084 0.28801,0.16811 0.20573,0.29418 -0.0415,0.0847 -0.16458,0.16811 -0.25342,0.1088 -0.11689,-0.0247 -0.0744,0.15072 -0.0757,0.22742 0.005,0.0951 0,0.12607 0,0.25215 h -0.45259 c -0.12343,-0.0841 0.0823,-0.25215 0,-0.33621 -0.0823,-0.12608 -0.24687,-0.12608 -0.3703,0 -0.0823,0.0841 0.0823,0.29418 -0.0411,0.33621 -0.13075,-0.001 -0.28055,0.006 -0.41144,0 v -0.25215 c 0,-0.0841 -0.0411,-0.29419 0.0823,-0.25216 0.0823,0.042 0.20573,0 0.24687,-0.0841 0.0823,-0.12608 -0.12343,-0.37823 -0.20572,-0.29418 -0.0823,0.0841 -0.12343,0.0841 -0.12343,-0.042 0,-0.12608 0.006,-0.25996 0,-0.37824 z"
         style="fill:none;stroke:#000000;stroke-width:0.15;stroke-linecap:square;stroke-linejoin:round;stroke-miterlimit:4;stroke-dasharray:none;stroke-opacity:1"
         id="path1405-9-82-0-0-1-4-61"
         sodipodi:nodetypes="ccccccccccccccccccccccc" />
      <path
         sodipodi:nodetypes="ccccccccccccccccccccccc"
         id="path1405-9-82-0-0-8-65"
         style="fill:none;stroke:#000000;stroke-width:0.15;stroke-linecap:square;stroke-linejoin:round;stroke-miterlimit:4;stroke-dasharray:none;stroke-opacity:0.301205"
         d="m 242.97201,189.23735 c 0.16457,0 0.25643,0.004 0.41144,0 0.12343,-0.042 -0.0411,-0.25216 0.0411,-0.33621 0.12343,-0.12607 0.28801,-0.12607 0.3703,0 0.0823,0.084 -0.12343,0.25216 0,0.33621 0.0823,0 0.37099,-0.002 0.45259,0 v 0.37823 c 0,0.12608 0.0411,0.12608 0.12343,0.042 0.0823,-0.084 0.28801,0.16811 0.20573,0.29418 -0.0415,0.0847 -0.16458,0.16811 -0.25342,0.1088 -0.11689,-0.0247 -0.0744,0.15072 -0.0757,0.22742 0.005,0.0951 0,0.12607 0,0.25215 h -0.45259 c -0.12343,-0.0841 0.0823,-0.25215 0,-0.33621 -0.0823,-0.12608 -0.24687,-0.12608 -0.3703,0 -0.0823,0.0841 0.0823,0.29418 -0.0411,0.33621 -0.13075,-0.001 -0.28055,0.006 -0.41144,0 v -0.25215 c 0,-0.0841 -0.0411,-0.29419 0.0823,-0.25216 0.0823,0.042 0.20573,0 0.24687,-0.0841 0.0823,-0.12608 -0.12343,-0.37823 -0.20572,-0.29418 -0.0823,0.0841 -0.12343,0.0841 -0.12343,-0.042 0,-0.12608 0.006,-0.25996 0,-0.37824 z" />
    </g>
  </g>
</svg>
