<?xml version="1.0" encoding="UTF-8" standalone="no"?>
<svg
   xmlns:dc="http://purl.org/dc/elements/1.1/"
   xmlns:cc="http://creativecommons.org/ns#"
   xmlns:rdf="http://www.w3.org/1999/02/22-rdf-syntax-ns#"
   xmlns:svg="http://www.w3.org/2000/svg"
   xmlns="http://www.w3.org/2000/svg"
   xmlns:sodipodi="http://sodipodi.sourceforge.net/DTD/sodipodi-0.dtd"
   xmlns:inkscape="http://www.inkscape.org/namespaces/inkscape"
   inkscape:version="1.0 (4035a4fb49, 2020-05-01)"
   sodipodi:docname="output-figure0.svg"
   viewBox="0 0 342.51999 342.51999"
   height="342.51999"
   width="342.51999"
   xml:space="preserve"
   id="svg2"
   version="1.1"><metadata
     id="metadata8"><rdf:RDF><cc:Work
         rdf:about=""><dc:format>image/svg+xml</dc:format><dc:type
           rdf:resource="http://purl.org/dc/dcmitype/StillImage" /><dc:title></dc:title></cc:Work></rdf:RDF></metadata><defs
     id="defs6" /><sodipodi:namedview
     inkscape:current-layer="g10"
     inkscape:window-maximized="1"
     inkscape:window-y="-9"
     inkscape:window-x="-9"
     inkscape:cy="171.25999"
     inkscape:cx="171.25999"
     inkscape:zoom="2.4232162"
     showgrid="false"
     id="namedview4"
     inkscape:window-height="1001"
     inkscape:window-width="1920"
     inkscape:pageshadow="2"
     inkscape:pageopacity="0"
     guidetolerance="10"
     gridtolerance="10"
     objecttolerance="10"
     borderopacity="1"
     bordercolor="#666666"
     pagecolor="#ffffff" /><g
     transform="matrix(1.3333333,0,0,-1.3333333,0,342.52)"
     inkscape:label="output-figure0"
     inkscape:groupmode="layer"
     id="g10"><g
       transform="translate(0.886,0.886)"
       id="g12"><g
         id="g14"><g
           id="g16"><g
             id="g18"><path
               id="path20"
               style="fill:none;stroke:#bfbfbf;stroke-width:1.77167;stroke-linecap:butt;stroke-linejoin:miter;stroke-miterlimit:10;stroke-dasharray:none;stroke-opacity:1"
               d="M 14.17339,240.94788 154.39523,100.72603" /><g
               transform="matrix(0.7071,-0.7071,0.7071,0.7071,150.01054,105.11072)"
               id="g22"><g
                 id="g24"><path
                   id="path26"
                   style="fill:none;stroke:#bfbfbf;stroke-width:1.77167;stroke-linecap:butt;stroke-linejoin:miter;stroke-miterlimit:10;stroke-dasharray:none;stroke-opacity:1"
                   d="M 0,7.08669 7.08669,0 0,-7.08669" /></g></g></g><g
             id="g28"><path
               id="path30"
               style="fill:none;stroke:#bfbfbf;stroke-width:1.77167;stroke-linecap:butt;stroke-linejoin:miter;stroke-miterlimit:10;stroke-dasharray:none;stroke-opacity:1"
               d="M 70.867,212.60106 97.70161,185.76645" /><g
               transform="matrix(0.7071,-0.7071,0.7071,0.7071,93.31693,190.15114)"
               id="g32"><g
                 id="g34"><path
                   id="path36"
                   style="fill:none;stroke:#bfbfbf;stroke-width:1.77167;stroke-linecap:butt;stroke-linejoin:miter;stroke-miterlimit:10;stroke-dasharray:none;stroke-opacity:1"
                   d="M 0,7.08669 7.08669,0 0,-7.08669" /></g></g></g><g
             id="g38"><path
               id="path40"
               style="fill:none;stroke:#bfbfbf;stroke-width:1.77167;stroke-linecap:butt;stroke-linejoin:miter;stroke-miterlimit:10;stroke-dasharray:none;stroke-opacity:1"
               d="M 42.5202,184.25424 69.35481,157.41965" /><g
               transform="matrix(0.7071,-0.7071,0.7071,0.7071,64.97012,161.80434)"
               id="g42"><g
                 id="g44"><path
                   id="path46"
                   style="fill:none;stroke:#bfbfbf;stroke-width:1.77167;stroke-linecap:butt;stroke-linejoin:miter;stroke-miterlimit:10;stroke-dasharray:none;stroke-opacity:1"
                   d="M 0,7.08669 7.08669,0 0,-7.08669" /></g></g></g><g
             id="g48"><path
               id="path50"
               style="fill:none;stroke:#bfbfbf;stroke-width:1.77167;stroke-linecap:butt;stroke-linejoin:miter;stroke-miterlimit:10;stroke-dasharray:none;stroke-opacity:1"
               d="m 127.56062,184.25424 25.06295,-25.06293" /><g
               transform="matrix(0.7071,-0.7071,0.7071,0.7071,148.23888,163.576)"
               id="g52"><g
                 id="g54"><path
                   id="path56"
                   style="fill:none;stroke:#bfbfbf;stroke-width:1.77167;stroke-linecap:butt;stroke-linejoin:miter;stroke-miterlimit:10;stroke-dasharray:none;stroke-opacity:1"
                   d="M 0,7.08669 7.08669,0 0,-7.08669" /></g></g></g><g
             id="g58"><path
               id="path60"
               style="fill:none;stroke:#bfbfbf;stroke-width:1.77167;stroke-linecap:butt;stroke-linejoin:miter;stroke-miterlimit:10;stroke-dasharray:none;stroke-opacity:1"
               d="M 70.867,127.56062 95.92995,102.4977" /><g
               transform="matrix(0.7071,-0.7071,0.7071,0.7071,91.54526,106.88239)"
               id="g62"><g
                 id="g64"><path
                   id="path66"
                   style="fill:none;stroke:#bfbfbf;stroke-width:1.77167;stroke-linecap:butt;stroke-linejoin:miter;stroke-miterlimit:10;stroke-dasharray:none;stroke-opacity:1"
                   d="M 0,7.08669 7.08669,0 0,-7.08669" /></g></g></g><g
             id="g68"><path
               id="path70"
               style="fill:none;stroke:#bfbfbf;stroke-width:1.77167;stroke-linecap:butt;stroke-linejoin:miter;stroke-miterlimit:10;stroke-dasharray:none;stroke-opacity:1"
               d="m 127.56062,212.60106 h 28.34682 v -56.69362 l -25.65378,-25.65378" /><g
               transform="matrix(-0.7071,-0.7071,0.7071,-0.7071,134.63835,134.63835)"
               id="g72"><g
                 id="g74"><path
                   id="path76"
                   style="fill:none;stroke:#bfbfbf;stroke-width:1.77167;stroke-linecap:butt;stroke-linejoin:miter;stroke-miterlimit:10;stroke-dasharray:none;stroke-opacity:1"
                   d="M 0,7.08669 7.08669,0 0,-7.08669" /></g></g></g><g
             id="g78"><path
               id="path80"
               style="fill:none;stroke:#bfbfbf;stroke-width:1.77167;stroke-linecap:butt;stroke-linejoin:miter;stroke-miterlimit:10;stroke-dasharray:none;stroke-opacity:1"
               d="M 42.5202,127.56062 V 99.21382 H 99.21382 L 124.8676,124.8676" /><g
               transform="matrix(0.7071,0.7071,-0.7071,0.7071,120.48291,120.48291)"
               id="g82"><g
                 id="g84"><path
                   id="path86"
                   style="fill:none;stroke:#bfbfbf;stroke-width:1.77167;stroke-linecap:butt;stroke-linejoin:miter;stroke-miterlimit:10;stroke-dasharray:none;stroke-opacity:1"
                   d="M 0,7.08669 7.08669,0 0,-7.08669" /></g></g></g><g
             id="g88"><path
               id="path90"
               style="fill:none;stroke:#bfbfbf;stroke-width:1.77167;stroke-linecap:butt;stroke-linejoin:miter;stroke-miterlimit:10;stroke-dasharray:none;stroke-opacity:1"
               d="M 240.94788,184.25424 V 129.69922" /><g
               transform="rotate(-90,188.42397,-52.523905)"
               id="g92"><g
                 id="g94"><path
                   id="path96"
                   style="fill:none;stroke:#bfbfbf;stroke-width:1.77167;stroke-linecap:butt;stroke-linejoin:miter;stroke-miterlimit:10;stroke-dasharray:none;stroke-opacity:1"
                   d="M 0,7.08669 7.08669,0 0,-7.08669" /></g></g></g><g
             id="g98"><path
               id="path100"
               style="fill:none;stroke:#bfbfbf;stroke-width:1.77167;stroke-linecap:butt;stroke-linejoin:miter;stroke-miterlimit:10;stroke-dasharray:none;stroke-opacity:1"
               d="m 70.867,14.17339 h 54.55504" /><g
               transform="translate(119.22119,14.17339)"
               id="g102"><g
                 id="g104"><path
                   id="path106"
                   style="fill:none;stroke:#bfbfbf;stroke-width:1.77167;stroke-linecap:butt;stroke-linejoin:miter;stroke-miterlimit:10;stroke-dasharray:none;stroke-opacity:1"
                   d="M 0,7.08669 7.08669,0 0,-7.08669" /></g></g></g><g
             id="g108"><path
               id="path110"
               style="fill:none;stroke:#bfbfbf;stroke-width:1.77167;stroke-linecap:butt;stroke-linejoin:miter;stroke-miterlimit:10;stroke-dasharray:none;stroke-opacity:1"
               d="m 212.60106,184.25424 v -56.69362 l 28.34682,-28.3468 V 73.0056" /><g
               transform="rotate(-90,160.07716,-80.870715)"
               id="g112"><g
                 id="g114"><path
                   id="path116"
                   style="fill:none;stroke:#bfbfbf;stroke-width:1.77167;stroke-linecap:butt;stroke-linejoin:miter;stroke-miterlimit:10;stroke-dasharray:none;stroke-opacity:1"
                   d="M 0,7.08669 7.08669,0 0,-7.08669" /></g></g></g><g
             id="g118"><path
               id="path120"
               style="fill:none;stroke:#bfbfbf;stroke-width:1.77167;stroke-linecap:butt;stroke-linejoin:miter;stroke-miterlimit:10;stroke-dasharray:none;stroke-opacity:1"
               d="m 70.867,42.5202 h 56.69362 l 28.34682,-28.34681 h 26.20822" /><g
               transform="translate(175.91481,14.17339)"
               id="g122"><g
                 id="g124"><path
                   id="path126"
                   style="fill:none;stroke:#bfbfbf;stroke-width:1.77167;stroke-linecap:butt;stroke-linejoin:miter;stroke-miterlimit:10;stroke-dasharray:none;stroke-opacity:1"
                   d="M 0,7.08669 7.08669,0 0,-7.08669" /></g></g></g><g
             id="g128"><path
               id="path130"
               style="fill:#ffffff;fill-opacity:1;fill-rule:nonzero;stroke:#bfbfbf;stroke-width:1.77167;stroke-linecap:butt;stroke-linejoin:miter;stroke-miterlimit:10;stroke-dasharray:none;stroke-opacity:1"
               d="m 24.37825,240.94788 c 0,5.63604 -4.5688,10.20485 -10.20486,10.20485 -5.63605,0 -10.20485,-4.56881 -10.20485,-10.20485 0,-5.63607 4.5688,-10.20487 10.20485,-10.20487 5.63606,0 10.20486,4.5688 10.20486,10.20487 z" /></g><g
             id="g132"><path
               id="path134"
               style="fill:#ffffff;fill-opacity:1;fill-rule:nonzero;stroke:#bfbfbf;stroke-width:1.77167;stroke-linecap:butt;stroke-linejoin:miter;stroke-miterlimit:10;stroke-dasharray:none;stroke-opacity:1"
               d="m 81.07187,212.60106 c 0,5.63606 -4.5688,10.20486 -10.20487,10.20486 -5.63604,0 -10.20484,-4.5688 -10.20484,-10.20486 0,-5.63606 4.5688,-10.20486 10.20484,-10.20486 5.63607,0 10.20487,4.5688 10.20487,10.20486 z" /></g><g
             id="g136"><path
               id="path138"
               style="fill:#ffffff;fill-opacity:1;fill-rule:nonzero;stroke:#bfbfbf;stroke-width:1.77167;stroke-linecap:butt;stroke-linejoin:miter;stroke-miterlimit:10;stroke-dasharray:none;stroke-opacity:1"
               d="m 52.72507,184.25424 c 0,5.63606 -4.56882,10.20486 -10.20487,10.20486 -5.63606,0 -10.20486,-4.5688 -10.20486,-10.20486 0,-5.63604 4.5688,-10.20484 10.20486,-10.20484 5.63605,0 10.20487,4.5688 10.20487,10.20484 z" /></g><g
             id="g140"><path
               id="path142"
               style="fill:#ffffff;fill-opacity:1;fill-rule:nonzero;stroke:#bfbfbf;stroke-width:1.77167;stroke-linecap:butt;stroke-linejoin:miter;stroke-miterlimit:10;stroke-dasharray:none;stroke-opacity:1"
               d="m 137.76549,184.25424 c 0,5.63606 -4.5688,10.20486 -10.20487,10.20486 -5.63604,0 -10.20485,-4.5688 -10.20485,-10.20486 0,-5.63604 4.56881,-10.20484 10.20485,-10.20484 5.63607,0 10.20487,4.5688 10.20487,10.20484 z" /></g><g
             id="g144"><path
               id="path146"
               style="fill:#ffffff;fill-opacity:1;fill-rule:nonzero;stroke:#bfbfbf;stroke-width:1.77167;stroke-linecap:butt;stroke-linejoin:miter;stroke-miterlimit:10;stroke-dasharray:none;stroke-opacity:1"
               d="m 81.07187,127.56062 c 0,5.63607 -4.5688,10.20487 -10.20487,10.20487 -5.63604,0 -10.20484,-4.5688 -10.20484,-10.20487 0,-5.63604 4.5688,-10.20485 10.20484,-10.20485 5.63607,0 10.20487,4.56881 10.20487,10.20485 z" /></g><g
             id="g148"><path
               id="path150"
               style="fill:#ffffff;fill-opacity:1;fill-rule:nonzero;stroke:#bfbfbf;stroke-width:1.77167;stroke-linecap:butt;stroke-linejoin:miter;stroke-miterlimit:10;stroke-dasharray:none;stroke-opacity:1"
               d="m 137.76549,212.60106 c 0,5.63606 -4.5688,10.20486 -10.20487,10.20486 -5.63604,0 -10.20485,-4.5688 -10.20485,-10.20486 0,-5.63606 4.56881,-10.20486 10.20485,-10.20486 5.63607,0 10.20487,4.5688 10.20487,10.20486 z" /></g><g
             id="g152"><path
               id="path154"
               style="fill:#ffffff;fill-opacity:1;fill-rule:nonzero;stroke:#bfbfbf;stroke-width:1.77167;stroke-linecap:butt;stroke-linejoin:miter;stroke-miterlimit:10;stroke-dasharray:none;stroke-opacity:1"
               d="m 52.72507,127.56062 c 0,5.63607 -4.56882,10.20487 -10.20487,10.20487 -5.63606,0 -10.20486,-4.5688 -10.20486,-10.20487 0,-5.63604 4.5688,-10.20485 10.20486,-10.20485 5.63605,0 10.20487,4.56881 10.20487,10.20485 z" /></g><g
             id="g156"><path
               id="path158"
               style="fill:#ffffff;fill-opacity:1;fill-rule:nonzero;stroke:#bfbfbf;stroke-width:1.77167;stroke-linecap:butt;stroke-linejoin:miter;stroke-miterlimit:10;stroke-dasharray:none;stroke-opacity:1"
               d="m 251.15273,184.25424 c 0,5.63606 -4.56881,10.20486 -10.20485,10.20486 -5.63607,0 -10.20487,-4.5688 -10.20487,-10.20486 0,-5.63604 4.5688,-10.20484 10.20487,-10.20484 5.63604,0 10.20485,4.5688 10.20485,10.20484 z" /></g><g
             id="g160"><path
               id="path162"
               style="fill:#ffffff;fill-opacity:1;fill-rule:nonzero;stroke:#bfbfbf;stroke-width:1.77167;stroke-linecap:butt;stroke-linejoin:miter;stroke-miterlimit:10;stroke-dasharray:none;stroke-opacity:1"
               d="m 81.07187,14.17339 c 0,5.63606 -4.5688,10.20486 -10.20487,10.20486 -5.63604,0 -10.20484,-4.5688 -10.20484,-10.20486 0,-5.63605 4.5688,-10.20485 10.20484,-10.20485 5.63607,0 10.20487,4.5688 10.20487,10.20485 z" /></g><g
             id="g164"><path
               id="path166"
               style="fill:#ffffff;fill-opacity:1;fill-rule:nonzero;stroke:#bfbfbf;stroke-width:1.77167;stroke-linecap:butt;stroke-linejoin:miter;stroke-miterlimit:10;stroke-dasharray:none;stroke-opacity:1"
               d="m 222.80592,184.25424 c 0,5.63606 -4.5688,10.20486 -10.20486,10.20486 -5.63606,0 -10.20486,-4.5688 -10.20486,-10.20486 0,-5.63604 4.5688,-10.20484 10.20486,-10.20484 5.63606,0 10.20486,4.5688 10.20486,10.20484 z" /></g><g
             id="g168"><path
               id="path170"
               style="fill:#ffffff;fill-opacity:1;fill-rule:nonzero;stroke:#bfbfbf;stroke-width:1.77167;stroke-linecap:butt;stroke-linejoin:miter;stroke-miterlimit:10;stroke-dasharray:none;stroke-opacity:1"
               d="m 81.07187,42.5202 c 0,5.63605 -4.5688,10.20487 -10.20487,10.20487 -5.63604,0 -10.20484,-4.56882 -10.20484,-10.20487 0,-5.63606 4.5688,-10.20486 10.20484,-10.20486 5.63607,0 10.20487,4.5688 10.20487,10.20486 z" /></g><g
             id="g172"><path
               id="path174"
               style="fill:none;stroke:#000000;stroke-width:1.77167;stroke-linecap:butt;stroke-linejoin:miter;stroke-miterlimit:10;stroke-dasharray:none;stroke-opacity:1"
               d="M 85.04042,0 V 255.12128" /></g><g
             id="g176"><path
               id="path178"
               style="fill:none;stroke:#000000;stroke-width:1.77167;stroke-linecap:butt;stroke-linejoin:miter;stroke-miterlimit:10;stroke-dasharray:none;stroke-opacity:1"
               d="M 0,85.04042 H 255.12128" /></g><g
             id="g180"><path
               id="path182"
               style="fill:none;stroke:#000000;stroke-width:1.77167;stroke-linecap:butt;stroke-linejoin:miter;stroke-miterlimit:10;stroke-dasharray:none;stroke-opacity:1"
               d="M 170.08086,0 V 255.12128" /></g><g
             id="g184"><path
               id="path186"
               style="fill:none;stroke:#000000;stroke-width:1.77167;stroke-linecap:butt;stroke-linejoin:miter;stroke-miterlimit:10;stroke-dasharray:none;stroke-opacity:1"
               d="M 0,170.08086 H 255.12128" /></g><g
             id="g188"><path
               id="path190"
               style="fill:none;stroke:#000000;stroke-width:0.59055;stroke-linecap:butt;stroke-linejoin:miter;stroke-miterlimit:10;stroke-dasharray:none;stroke-opacity:1"
               d="M 28.3468,0 V 255.12128" /></g><g
             id="g192"><path
               id="path194"
               style="fill:none;stroke:#000000;stroke-width:0.59055;stroke-linecap:butt;stroke-linejoin:miter;stroke-miterlimit:10;stroke-dasharray:none;stroke-opacity:1"
               d="M 0,28.3468 H 255.12128" /></g><g
             id="g196"><path
               id="path198"
               style="fill:none;stroke:#000000;stroke-width:0.59055;stroke-linecap:butt;stroke-linejoin:miter;stroke-miterlimit:10;stroke-dasharray:none;stroke-opacity:1"
               d="M 56.69362,0 V 255.12128" /></g><g
             id="g200"><path
               id="path202"
               style="fill:none;stroke:#000000;stroke-width:0.59055;stroke-linecap:butt;stroke-linejoin:miter;stroke-miterlimit:10;stroke-dasharray:none;stroke-opacity:1"
               d="M 0,56.69362 H 255.12128" /></g><g
             id="g204"><path
               id="path206"
               style="fill:none;stroke:#000000;stroke-width:0.59055;stroke-linecap:butt;stroke-linejoin:miter;stroke-miterlimit:10;stroke-dasharray:none;stroke-opacity:1"
               d="M 113.38724,0 V 255.12128" /></g><g
             id="g208"><path
               id="path210"
               style="fill:none;stroke:#000000;stroke-width:0.59055;stroke-linecap:butt;stroke-linejoin:miter;stroke-miterlimit:10;stroke-dasharray:none;stroke-opacity:1"
               d="M 0,113.38724 H 255.12128" /></g><g
             id="g212"><path
               id="path214"
               style="fill:none;stroke:#000000;stroke-width:0.59055;stroke-linecap:butt;stroke-linejoin:miter;stroke-miterlimit:10;stroke-dasharray:none;stroke-opacity:1"
               d="M 141.73404,0 V 255.12128" /></g><g
             id="g216"><path
               id="path218"
               style="fill:none;stroke:#000000;stroke-width:0.59055;stroke-linecap:butt;stroke-linejoin:miter;stroke-miterlimit:10;stroke-dasharray:none;stroke-opacity:1"
               d="M 0,141.73404 H 255.12128" /></g><g
             id="g220"><path
               id="path222"
               style="fill:none;stroke:#000000;stroke-width:0.59055;stroke-linecap:butt;stroke-linejoin:miter;stroke-miterlimit:10;stroke-dasharray:none;stroke-opacity:1"
               d="M 198.42766,0 V 255.12128" /></g><g
             id="g224"><path
               id="path226"
               style="fill:none;stroke:#000000;stroke-width:0.59055;stroke-linecap:butt;stroke-linejoin:miter;stroke-miterlimit:10;stroke-dasharray:none;stroke-opacity:1"
               d="M 0,198.42766 H 255.12128" /></g><g
             id="g228"><path
               id="path230"
               style="fill:none;stroke:#000000;stroke-width:0.59055;stroke-linecap:butt;stroke-linejoin:miter;stroke-miterlimit:10;stroke-dasharray:none;stroke-opacity:1"
               d="M 226.77448,0 V 255.12128" /></g><g
             id="g232"><path
               id="path234"
               style="fill:none;stroke:#000000;stroke-width:0.59055;stroke-linecap:butt;stroke-linejoin:miter;stroke-miterlimit:10;stroke-dasharray:none;stroke-opacity:1"
               d="M 0,226.77448 H 255.12128" /></g><g
             id="g236"><path
               id="path238"
               style="fill:none;stroke:#000000;stroke-width:1.77167;stroke-linecap:butt;stroke-linejoin:miter;stroke-miterlimit:10;stroke-dasharray:none;stroke-opacity:1"
               d="M 0,0 V 255.12128 H 255.12128 V 0 Z" /></g><g
             id="g240"><g
               transform="translate(38.933,37.703)"
               id="g242"><g
                 id="g244"><g
                   transform="translate(-39.819,-38.589)"
                   id="g246"><text
                     id="text250"
                     style="font-variant:normal;font-size:14.3462px;font-family:URWPalladioL;-inkscape-font-specification:URWPalladioL-Roma;writing-mode:lr-tb;fill:#000000;fill-opacity:1;fill-rule:nonzero;stroke:none"
                     transform="matrix(1,0,0,-1,39.819,38.589)"><tspan
                       id="tspan248"
                       y="0"
                       x="0">5</tspan></text><g
                     transform="translate(39.819,38.589)"
                     id="g252" /></g></g><g
                 transform="translate(-38.933,-37.703)"
                 id="g254" /></g></g><g
             id="g256"><g
               transform="translate(209.012,207.781)"
               id="g258"><g
                 id="g260"><g
                   transform="translate(-209.898,-208.667)"
                   id="g262"><text
                     id="text266"
                     style="font-variant:normal;font-size:14.3462px;font-family:URWPalladioL;-inkscape-font-specification:URWPalladioL-Roma;writing-mode:lr-tb;fill:#000000;fill-opacity:1;fill-rule:nonzero;stroke:none"
                     transform="matrix(1,0,0,-1,209.898,208.667)"><tspan
                       id="tspan264"
                       y="0"
                       x="0">5</tspan></text><g
                     transform="translate(209.898,208.667)"
                     id="g268" /></g></g><g
                 transform="translate(-209.012,-207.781)"
                 id="g270" /></g></g></g></g></g></g></svg>
