<?xml version="1.0" encoding="UTF-8" standalone="no"?>
<!DOCTYPE svg PUBLIC "-//W3C//DTD SVG 1.1//EN" "http://www.w3.org/Graphics/SVG/1.1/DTD/svg11.dtd">
<svg xmlns="http://www.w3.org/2000/svg" xmlns:xlink="http://www.w3.org/1999/xlink" version="1.1" width="256.89pt" height="256.89pt" viewBox="0 0 256.89 256.89">
<g enable-background="new">
<path transform="matrix(1,0,0,-1,.886,256.00404)" stroke-width=".59055" stroke-linecap="butt" stroke-miterlimit="10" stroke-linejoin="miter" fill="none" stroke="#000000" d="M 28.3468 0 L 28.3468 255.12128 "/>
<path transform="matrix(1,0,0,-1,.886,256.00404)" stroke-width=".59055" stroke-linecap="butt" stroke-miterlimit="10" stroke-linejoin="miter" fill="none" stroke="#000000" d="M 0 28.3468 L 255.12128 28.3468 "/>
<path transform="matrix(1,0,0,-1,.886,256.00404)" stroke-width=".59055" stroke-linecap="butt" stroke-miterlimit="10" stroke-linejoin="miter" fill="none" stroke="#000000" d="M 56.69362 0 L 56.69362 255.12128 "/>
<path transform="matrix(1,0,0,-1,.886,256.00404)" stroke-width=".59055" stroke-linecap="butt" stroke-miterlimit="10" stroke-linejoin="miter" fill="none" stroke="#000000" d="M 0 56.69362 L 255.12128 56.69362 "/>
<path transform="matrix(1,0,0,-1,.886,256.00404)" stroke-width=".59055" stroke-linecap="butt" stroke-miterlimit="10" stroke-linejoin="miter" fill="none" stroke="#000000" d="M 85.04042 0 L 85.04042 255.12128 "/>
<path transform="matrix(1,0,0,-1,.886,256.00404)" stroke-width=".59055" stroke-linecap="butt" stroke-miterlimit="10" stroke-linejoin="miter" fill="none" stroke="#000000" d="M 0 85.04042 L 255.12128 85.04042 "/>
<path transform="matrix(1,0,0,-1,.886,256.00404)" stroke-width=".59055" stroke-linecap="butt" stroke-miterlimit="10" stroke-linejoin="miter" fill="none" stroke="#000000" d="M 113.38724 0 L 113.38724 255.12128 "/>
<path transform="matrix(1,0,0,-1,.886,256.00404)" stroke-width=".59055" stroke-linecap="butt" stroke-miterlimit="10" stroke-linejoin="miter" fill="none" stroke="#000000" d="M 0 113.38724 L 255.12128 113.38724 "/>
<path transform="matrix(1,0,0,-1,.886,256.00404)" stroke-width=".59055" stroke-linecap="butt" stroke-miterlimit="10" stroke-linejoin="miter" fill="none" stroke="#000000" d="M 141.73404 0 L 141.73404 255.12128 "/>
<path transform="matrix(1,0,0,-1,.886,256.00404)" stroke-width=".59055" stroke-linecap="butt" stroke-miterlimit="10" stroke-linejoin="miter" fill="none" stroke="#000000" d="M 0 141.73404 L 255.12128 141.73404 "/>
<path transform="matrix(1,0,0,-1,.886,256.00404)" stroke-width=".59055" stroke-linecap="butt" stroke-miterlimit="10" stroke-linejoin="miter" fill="none" stroke="#000000" d="M 170.08086 0 L 170.08086 255.12128 "/>
<path transform="matrix(1,0,0,-1,.886,256.00404)" stroke-width=".59055" stroke-linecap="butt" stroke-miterlimit="10" stroke-linejoin="miter" fill="none" stroke="#000000" d="M 0 170.08086 L 255.12128 170.08086 "/>
<path transform="matrix(1,0,0,-1,.886,256.00404)" stroke-width=".59055" stroke-linecap="butt" stroke-miterlimit="10" stroke-linejoin="miter" fill="none" stroke="#000000" d="M 198.42766 0 L 198.42766 255.12128 "/>
<path transform="matrix(1,0,0,-1,.886,256.00404)" stroke-width=".59055" stroke-linecap="butt" stroke-miterlimit="10" stroke-linejoin="miter" fill="none" stroke="#000000" d="M 0 198.42766 L 255.12128 198.42766 "/>
<path transform="matrix(1,0,0,-1,.886,256.00404)" stroke-width=".59055" stroke-linecap="butt" stroke-miterlimit="10" stroke-linejoin="miter" fill="none" stroke="#000000" d="M 226.77448 0 L 226.77448 255.12128 "/>
<path transform="matrix(1,0,0,-1,.886,256.00404)" stroke-width=".59055" stroke-linecap="butt" stroke-miterlimit="10" stroke-linejoin="miter" fill="none" stroke="#000000" d="M 0 226.77448 L 255.12128 226.77448 "/>
<path transform="matrix(1,0,0,-1,.886,256.00404)" stroke-width="1.77167" stroke-linecap="butt" stroke-miterlimit="10" stroke-linejoin="miter" fill="none" stroke="#000000" d="M 0 0 L 0 255.12128 L 255.12128 255.12128 L 255.12128 0 Z "/>
<path transform="matrix(1,0,0,-1,.886,256.00404)" stroke-width="1.77167" stroke-linecap="butt" stroke-miterlimit="10" stroke-linejoin="miter" fill="none" stroke="#000000" d="M 170.08086 0 L 170.08086 255.12128 "/>
<path transform="matrix(1,0,0,-1,.886,256.00404)" stroke-width="1.77167" stroke-linecap="butt" stroke-miterlimit="10" stroke-linejoin="miter" fill="none" stroke="#000000" d="M 0 85.04042 L 255.12128 85.04042 "/>
<path transform="matrix(1,0,0,-1,.886,256.00404)" stroke-width="1.77167" stroke-linecap="butt" stroke-miterlimit="10" stroke-linejoin="miter" fill="none" stroke="#000000" d="M 0 170.08086 L 255.12128 170.08086 "/>
<path transform="matrix(1,0,0,-1,.886,256.00404)" stroke-width="1.77167" stroke-linecap="butt" stroke-miterlimit="10" stroke-linejoin="miter" fill="none" stroke="#000000" d="M 85.04042 0 L 85.04042 170.08086 "/>
<path transform="matrix(1,0,0,-1,.886,256.00404)" stroke-width="1.77167" stroke-linecap="butt" stroke-miterlimit="10" stroke-linejoin="miter" fill="none" stroke="#000000" d="M 0 198.42766 L 85.04042 198.42766 L 85.04042 226.77448 L 170.08086 226.77448 "/>
</g>
</svg>
