<?xml version="1.0" encoding="UTF-8"?>
<svg xmlns="http://www.w3.org/2000/svg" xmlns:xlink="http://www.w3.org/1999/xlink" font-size="10px" font-family="sans-serif" width="542" height="542" viewBox="-55.5 -55.5 542 542"><g shape-rendering="crispEdges"></g><g shape-rendering="crispEdges"></g><g shape-rendering="auto"><path fill="rgb(0, 160, 0)" stroke="none" d="M 26.88 24.125 A 2.88 2.88 0 1 1 26.88 24 z"></path><path fill="rgb(0, 160, 0)" stroke="none" d="M 74.88 24.125 A 2.88 2.88 0 1 1 74.88 24 z"></path><path fill="rgb(0, 160, 0)" stroke="none" d="M 122.88 24.125 A 2.88 2.88 0 1 1 122.88 24 z"></path><path fill="rgb(0, 160, 0)" stroke="none" d="M 170.88 24.125 A 2.88 2.88 0 1 1 170.88 24 z"></path><path fill="rgb(0, 160, 0)" stroke="none" d="M 218.88 24.125 A 2.88 2.88 0 1 1 218.88 24 z"></path><path fill="rgb(0, 160, 0)" stroke="none" d="M 314.88 24.125 A 2.88 2.88 0 1 1 314.88 24 z"></path><path fill="rgb(0, 160, 0)" stroke="none" d="M 362.88 24.125 A 2.88 2.88 0 1 1 362.88 24 z"></path><path fill="rgb(0, 160, 0)" stroke="none" d="M 122.88 72.125 A 2.88 2.88 0 1 1 122.88 72 z"></path><path fill="rgb(0, 160, 0)" stroke="none" d="M 218.88 72.125 A 2.88 2.88 0 1 1 218.88 72 z"></path><path fill="rgb(0, 160, 0)" stroke="none" d="M 314.88 72.125 A 2.88 2.88 0 1 1 314.88 72 z"></path><path fill="rgb(0, 160, 0)" stroke="none" d="M 362.88 72.125 A 2.88 2.88 0 1 1 362.88 72 z"></path><path fill="rgb(0, 160, 0)" stroke="none" d="M 410.88 72.125 A 2.88 2.88 0 1 1 410.88 72 z"></path><path fill="rgb(0, 160, 0)" stroke="none" d="M 74.88 120.125 A 2.88 2.88 0 1 1 74.88 120 z"></path><path fill="rgb(0, 160, 0)" stroke="none" d="M 122.88 120.125 A 2.88 2.88 0 1 1 122.88 120 z"></path><path fill="rgb(0, 160, 0)" stroke="none" d="M 170.88 120.125 A 2.88 2.88 0 1 1 170.88 120 z"></path><path fill="rgb(0, 160, 0)" stroke="none" d="M 218.88 120.125 A 2.88 2.88 0 1 1 218.88 120 z"></path><path fill="rgb(0, 160, 0)" stroke="none" d="M 266.88 120.125 A 2.88 2.88 0 1 1 266.88 120 z"></path><path fill="rgb(0, 160, 0)" stroke="none" d="M 362.88 120.125 A 2.88 2.88 0 1 1 362.88 120 z"></path><path fill="rgb(0, 160, 0)" stroke="none" d="M 410.88 120.125 A 2.88 2.88 0 1 1 410.88 120 z"></path><path fill="rgb(0, 160, 0)" stroke="none" d="M 74.88 168.125 A 2.88 2.88 0 1 1 74.88 168 z"></path><path fill="rgb(0, 160, 0)" stroke="none" d="M 170.88 168.125 A 2.88 2.88 0 1 1 170.88 168 z"></path><path fill="rgb(0, 160, 0)" stroke="none" d="M 266.88 168.125 A 2.88 2.88 0 1 1 266.88 168 z"></path><path fill="rgb(0, 160, 0)" stroke="none" d="M 314.88 168.125 A 2.88 2.88 0 1 1 314.88 168 z"></path><path fill="rgb(0, 160, 0)" stroke="none" d="M 362.88 168.125 A 2.88 2.88 0 1 1 362.88 168 z"></path><path fill="rgb(0, 160, 0)" stroke="none" d="M 410.88 168.125 A 2.88 2.88 0 1 1 410.88 168 z"></path><path fill="rgb(0, 160, 0)" stroke="none" d="M 26.88 216.125 A 2.88 2.88 0 1 1 26.88 216 z"></path><path fill="rgb(0, 160, 0)" stroke="none" d="M 74.88 216.125 A 2.88 2.88 0 1 1 74.88 216 z"></path><path fill="rgb(0, 160, 0)" stroke="none" d="M 122.88 216.125 A 2.88 2.88 0 1 1 122.88 216 z"></path><path fill="rgb(0, 160, 0)" stroke="none" d="M 170.88 216.125 A 2.88 2.88 0 1 1 170.88 216 z"></path><path fill="rgb(0, 160, 0)" stroke="none" d="M 218.88 216.125 A 2.88 2.88 0 1 1 218.88 216 z"></path><path fill="rgb(0, 160, 0)" stroke="none" d="M 266.88 216.125 A 2.88 2.88 0 1 1 266.88 216 z"></path><path fill="rgb(0, 160, 0)" stroke="none" d="M 314.88 216.125 A 2.88 2.88 0 1 1 314.88 216 z"></path><path fill="rgb(0, 160, 0)" stroke="none" d="M 362.88 216.125 A 2.88 2.88 0 1 1 362.88 216 z"></path><path fill="rgb(0, 160, 0)" stroke="none" d="M 266.88 264.125 A 2.88 2.88 0 1 1 266.88 264 z"></path><path fill="rgb(0, 160, 0)" stroke="none" d="M 314.88 264.125 A 2.88 2.88 0 1 1 314.88 264 z"></path><path fill="rgb(0, 160, 0)" stroke="none" d="M 362.88 264.125 A 2.88 2.88 0 1 1 362.88 264 z"></path><path fill="rgb(0, 160, 0)" stroke="none" d="M 410.88 264.125 A 2.88 2.88 0 1 1 410.88 264 z"></path><path fill="rgb(0, 160, 0)" stroke="none" d="M 266.88 312.125 A 2.88 2.88 0 1 1 266.88 312 z"></path><path fill="rgb(0, 160, 0)" stroke="none" d="M 362.88 360.125 A 2.88 2.88 0 1 1 362.88 360 z"></path><path fill="rgb(0, 160, 0)" stroke="none" d="M 410.88 360.125 A 2.88 2.88 0 1 1 410.88 360 z"></path><path fill="rgb(0, 160, 0)" stroke="none" d="M 362.88 408.125 A 2.88 2.88 0 1 1 362.88 408 z"></path><path fill="rgb(0, 160, 0)" stroke="none" d="M 410.88 408.125 A 2.88 2.88 0 1 1 410.88 408 z"></path></g><g shape-rendering="crispEdges"><path fill="none" stroke="rgb(127, 127, 127)" d="M 48 0 L 48 432" stroke-width="1.2499999813735487"></path><path fill="none" stroke="rgb(127, 127, 127)" d="M 96 0 L 96 432" stroke-width="1.2499999813735487"></path><path fill="none" stroke="rgb(127, 127, 127)" d="M 144 0 L 144 432" stroke-width="1.2499999813735487"></path><path fill="none" stroke="rgb(127, 127, 127)" d="M 192 0 L 192 432" stroke-width="1.2499999813735487"></path><path fill="none" stroke="rgb(127, 127, 127)" d="M 240 0 L 240 432" stroke-width="1.2499999813735487"></path><path fill="none" stroke="rgb(127, 127, 127)" d="M 288 0 L 288 432" stroke-width="1.2499999813735487"></path><path fill="none" stroke="rgb(127, 127, 127)" d="M 336 0 L 336 432" stroke-width="1.2499999813735487"></path><path fill="none" stroke="rgb(127, 127, 127)" d="M 384 0 L 384 432" stroke-width="1.2499999813735487"></path><path fill="none" stroke="rgb(127, 127, 127)" d="M 0 48 L 432 48" stroke-width="1.2499999813735487"></path><path fill="none" stroke="rgb(127, 127, 127)" d="M 0 96 L 432 96" stroke-width="1.2499999813735487"></path><path fill="none" stroke="rgb(127, 127, 127)" d="M 0 144 L 432 144" stroke-width="1.2499999813735487"></path><path fill="none" stroke="rgb(127, 127, 127)" d="M 0 192 L 432 192" stroke-width="1.2499999813735487"></path><path fill="none" stroke="rgb(127, 127, 127)" d="M 0 240 L 432 240" stroke-width="1.2499999813735487"></path><path fill="none" stroke="rgb(127, 127, 127)" d="M 0 288 L 432 288" stroke-width="1.2499999813735487"></path><path fill="none" stroke="rgb(127, 127, 127)" d="M 0 336 L 432 336" stroke-width="1.2499999813735487"></path><path fill="none" stroke="rgb(127, 127, 127)" d="M 0 384 L 432 384" stroke-width="1.2499999813735487"></path></g><g shape-rendering="crispEdges"><path fill="black" stroke="none" d="M 93.5000000372529 -2.499999962747097 L 98.4999999627471 -2.499999962747097 98.4999999627471 50.4999999627471 93.5000000372529 50.4999999627471 z"></path><path fill="black" stroke="none" d="M 237.5000000372529 -2.499999962747097 L 242.4999999627471 -2.499999962747097 242.4999999627471 50.4999999627471 237.5000000372529 50.4999999627471 z"></path><path fill="black" stroke="none" d="M 333.5000000372529 -2.499999962747097 L 338.4999999627471 -2.499999962747097 338.4999999627471 50.4999999627471 333.5000000372529 50.4999999627471 z"></path><path fill="black" stroke="none" d="M 237.5000000372529 45.5000000372529 L 290.4999999627471 45.5000000372529 290.4999999627471 50.4999999627471 237.5000000372529 50.4999999627471 z"></path><path fill="black" stroke="none" d="M 93.5000000372529 45.5000000372529 L 98.4999999627471 45.5000000372529 98.4999999627471 98.4999999627471 93.5000000372529 98.4999999627471 z"></path><path fill="black" stroke="none" d="M 237.5000000372529 45.5000000372529 L 242.4999999627471 45.5000000372529 242.4999999627471 98.4999999627471 237.5000000372529 98.4999999627471 z"></path><path fill="black" stroke="none" d="M 285.5000000372529 45.5000000372529 L 290.4999999627471 45.5000000372529 290.4999999627471 98.4999999627471 285.5000000372529 98.4999999627471 z"></path><path fill="black" stroke="none" d="M 333.5000000372529 45.5000000372529 L 338.4999999627471 45.5000000372529 338.4999999627471 98.4999999627471 333.5000000372529 98.4999999627471 z"></path><path fill="black" stroke="none" d="M 45.5000000372529 93.5000000372529 L 98.4999999627471 93.5000000372529 98.4999999627471 98.4999999627471 45.5000000372529 98.4999999627471 z"></path><path fill="black" stroke="none" d="M 141.5000000372529 93.5000000372529 L 194.4999999627471 93.5000000372529 194.4999999627471 98.4999999627471 141.5000000372529 98.4999999627471 z"></path><path fill="black" stroke="none" d="M 285.5000000372529 93.5000000372529 L 338.4999999627471 93.5000000372529 338.4999999627471 98.4999999627471 285.5000000372529 98.4999999627471 z"></path><path fill="black" stroke="none" d="M 333.5000000372529 93.5000000372529 L 386.4999999627471 93.5000000372529 386.4999999627471 98.4999999627471 333.5000000372529 98.4999999627471 z"></path><path fill="black" stroke="none" d="M 381.5000000372529 93.5000000372529 L 434.4999999627471 93.5000000372529 434.4999999627471 98.4999999627471 381.5000000372529 98.4999999627471 z"></path><path fill="black" stroke="none" d="M 45.5000000372529 93.5000000372529 L 50.4999999627471 93.5000000372529 50.4999999627471 146.4999999627471 45.5000000372529 146.4999999627471 z"></path><path fill="black" stroke="none" d="M 93.5000000372529 93.5000000372529 L 98.4999999627471 93.5000000372529 98.4999999627471 146.4999999627471 93.5000000372529 146.4999999627471 z"></path><path fill="black" stroke="none" d="M 141.5000000372529 93.5000000372529 L 146.4999999627471 93.5000000372529 146.4999999627471 146.4999999627471 141.5000000372529 146.4999999627471 z"></path><path fill="black" stroke="none" d="M 189.5000000372529 93.5000000372529 L 194.4999999627471 93.5000000372529 194.4999999627471 146.4999999627471 189.5000000372529 146.4999999627471 z"></path><path fill="black" stroke="none" d="M 237.5000000372529 93.5000000372529 L 242.4999999627471 93.5000000372529 242.4999999627471 146.4999999627471 237.5000000372529 146.4999999627471 z"></path><path fill="black" stroke="none" d="M 285.5000000372529 93.5000000372529 L 290.4999999627471 93.5000000372529 290.4999999627471 146.4999999627471 285.5000000372529 146.4999999627471 z"></path><path fill="black" stroke="none" d="M -2.499999962747097 141.5000000372529 L 50.4999999627471 141.5000000372529 50.4999999627471 146.4999999627471 -2.499999962747097 146.4999999627471 z"></path><path fill="black" stroke="none" d="M 93.5000000372529 141.5000000372529 L 146.4999999627471 141.5000000372529 146.4999999627471 146.4999999627471 93.5000000372529 146.4999999627471 z"></path><path fill="black" stroke="none" d="M 189.5000000372529 141.5000000372529 L 242.4999999627471 141.5000000372529 242.4999999627471 146.4999999627471 189.5000000372529 146.4999999627471 z"></path><path fill="black" stroke="none" d="M 285.5000000372529 141.5000000372529 L 338.4999999627471 141.5000000372529 338.4999999627471 146.4999999627471 285.5000000372529 146.4999999627471 z"></path><path fill="black" stroke="none" d="M 381.5000000372529 141.5000000372529 L 434.4999999627471 141.5000000372529 434.4999999627471 146.4999999627471 381.5000000372529 146.4999999627471 z"></path><path fill="black" stroke="none" d="M 45.5000000372529 141.5000000372529 L 50.4999999627471 141.5000000372529 50.4999999627471 194.4999999627471 45.5000000372529 194.4999999627471 z"></path><path fill="black" stroke="none" d="M 189.5000000372529 141.5000000372529 L 194.4999999627471 141.5000000372529 194.4999999627471 194.4999999627471 189.5000000372529 194.4999999627471 z"></path><path fill="black" stroke="none" d="M 237.5000000372529 141.5000000372529 L 242.4999999627471 141.5000000372529 242.4999999627471 194.4999999627471 237.5000000372529 194.4999999627471 z"></path><path fill="black" stroke="none" d="M 285.5000000372529 141.5000000372529 L 290.4999999627471 141.5000000372529 290.4999999627471 194.4999999627471 285.5000000372529 194.4999999627471 z"></path><path fill="black" stroke="none" d="M 333.5000000372529 141.5000000372529 L 338.4999999627471 141.5000000372529 338.4999999627471 194.4999999627471 333.5000000372529 194.4999999627471 z"></path><path fill="black" stroke="none" d="M 381.5000000372529 141.5000000372529 L 386.4999999627471 141.5000000372529 386.4999999627471 194.4999999627471 381.5000000372529 194.4999999627471 z"></path><path fill="black" stroke="none" d="M 45.5000000372529 189.5000000372529 L 98.4999999627471 189.5000000372529 98.4999999627471 194.4999999627471 45.5000000372529 194.4999999627471 z"></path><path fill="black" stroke="none" d="M 141.5000000372529 189.5000000372529 L 194.4999999627471 189.5000000372529 194.4999999627471 194.4999999627471 141.5000000372529 194.4999999627471 z"></path><path fill="black" stroke="none" d="M 237.5000000372529 189.5000000372529 L 290.4999999627471 189.5000000372529 290.4999999627471 194.4999999627471 237.5000000372529 194.4999999627471 z"></path><path fill="black" stroke="none" d="M 45.5000000372529 189.5000000372529 L 50.4999999627471 189.5000000372529 50.4999999627471 242.4999999627471 45.5000000372529 242.4999999627471 z"></path><path fill="black" stroke="none" d="M 93.5000000372529 189.5000000372529 L 98.4999999627471 189.5000000372529 98.4999999627471 242.4999999627471 93.5000000372529 242.4999999627471 z"></path><path fill="black" stroke="none" d="M 141.5000000372529 189.5000000372529 L 146.4999999627471 189.5000000372529 146.4999999627471 242.4999999627471 141.5000000372529 242.4999999627471 z"></path><path fill="black" stroke="none" d="M 285.5000000372529 189.5000000372529 L 290.4999999627471 189.5000000372529 290.4999999627471 242.4999999627471 285.5000000372529 242.4999999627471 z"></path><path fill="black" stroke="none" d="M 333.5000000372529 189.5000000372529 L 338.4999999627471 189.5000000372529 338.4999999627471 242.4999999627471 333.5000000372529 242.4999999627471 z"></path><path fill="black" stroke="none" d="M 381.5000000372529 189.5000000372529 L 386.4999999627471 189.5000000372529 386.4999999627471 242.4999999627471 381.5000000372529 242.4999999627471 z"></path><path fill="black" stroke="none" d="M 141.5000000372529 237.5000000372529 L 194.4999999627471 237.5000000372529 194.4999999627471 242.4999999627471 141.5000000372529 242.4999999627471 z"></path><path fill="black" stroke="none" d="M 237.5000000372529 237.5000000372529 L 290.4999999627471 237.5000000372529 290.4999999627471 242.4999999627471 237.5000000372529 242.4999999627471 z"></path><path fill="black" stroke="none" d="M 333.5000000372529 237.5000000372529 L 386.4999999627471 237.5000000372529 386.4999999627471 242.4999999627471 333.5000000372529 242.4999999627471 z"></path><path fill="black" stroke="none" d="M 45.5000000372529 237.5000000372529 L 50.4999999627471 237.5000000372529 50.4999999627471 290.4999999627471 45.5000000372529 290.4999999627471 z"></path><path fill="black" stroke="none" d="M 93.5000000372529 237.5000000372529 L 98.4999999627471 237.5000000372529 98.4999999627471 290.4999999627471 93.5000000372529 290.4999999627471 z"></path><path fill="black" stroke="none" d="M 141.5000000372529 237.5000000372529 L 146.4999999627471 237.5000000372529 146.4999999627471 290.4999999627471 141.5000000372529 290.4999999627471 z"></path><path fill="black" stroke="none" d="M 189.5000000372529 237.5000000372529 L 194.4999999627471 237.5000000372529 194.4999999627471 290.4999999627471 189.5000000372529 290.4999999627471 z"></path><path fill="black" stroke="none" d="M 237.5000000372529 237.5000000372529 L 242.4999999627471 237.5000000372529 242.4999999627471 290.4999999627471 237.5000000372529 290.4999999627471 z"></path><path fill="black" stroke="none" d="M 381.5000000372529 237.5000000372529 L 386.4999999627471 237.5000000372529 386.4999999627471 290.4999999627471 381.5000000372529 290.4999999627471 z"></path><path fill="black" stroke="none" d="M -2.499999962747097 285.5000000372529 L 50.4999999627471 285.5000000372529 50.4999999627471 290.4999999627471 -2.499999962747097 290.4999999627471 z"></path><path fill="black" stroke="none" d="M 93.5000000372529 285.5000000372529 L 146.4999999627471 285.5000000372529 146.4999999627471 290.4999999627471 93.5000000372529 290.4999999627471 z"></path><path fill="black" stroke="none" d="M 189.5000000372529 285.5000000372529 L 242.4999999627471 285.5000000372529 242.4999999627471 290.4999999627471 189.5000000372529 290.4999999627471 z"></path><path fill="black" stroke="none" d="M 285.5000000372529 285.5000000372529 L 338.4999999627471 285.5000000372529 338.4999999627471 290.4999999627471 285.5000000372529 290.4999999627471 z"></path><path fill="black" stroke="none" d="M 381.5000000372529 285.5000000372529 L 434.4999999627471 285.5000000372529 434.4999999627471 290.4999999627471 381.5000000372529 290.4999999627471 z"></path><path fill="black" stroke="none" d="M 141.5000000372529 285.5000000372529 L 146.4999999627471 285.5000000372529 146.4999999627471 338.4999999627471 141.5000000372529 338.4999999627471 z"></path><path fill="black" stroke="none" d="M 189.5000000372529 285.5000000372529 L 194.4999999627471 285.5000000372529 194.4999999627471 338.4999999627471 189.5000000372529 338.4999999627471 z"></path><path fill="black" stroke="none" d="M 237.5000000372529 285.5000000372529 L 242.4999999627471 285.5000000372529 242.4999999627471 338.4999999627471 237.5000000372529 338.4999999627471 z"></path><path fill="black" stroke="none" d="M 285.5000000372529 285.5000000372529 L 290.4999999627471 285.5000000372529 290.4999999627471 338.4999999627471 285.5000000372529 338.4999999627471 z"></path><path fill="black" stroke="none" d="M 333.5000000372529 285.5000000372529 L 338.4999999627471 285.5000000372529 338.4999999627471 338.4999999627471 333.5000000372529 338.4999999627471 z"></path><path fill="black" stroke="none" d="M 381.5000000372529 285.5000000372529 L 386.4999999627471 285.5000000372529 386.4999999627471 338.4999999627471 381.5000000372529 338.4999999627471 z"></path><path fill="black" stroke="none" d="M -2.499999962747097 333.5000000372529 L 50.4999999627471 333.5000000372529 50.4999999627471 338.4999999627471 -2.499999962747097 338.4999999627471 z"></path><path fill="black" stroke="none" d="M 45.5000000372529 333.5000000372529 L 98.4999999627471 333.5000000372529 98.4999999627471 338.4999999627471 45.5000000372529 338.4999999627471 z"></path><path fill="black" stroke="none" d="M 93.5000000372529 333.5000000372529 L 146.4999999627471 333.5000000372529 146.4999999627471 338.4999999627471 93.5000000372529 338.4999999627471 z"></path><path fill="black" stroke="none" d="M 237.5000000372529 333.5000000372529 L 290.4999999627471 333.5000000372529 290.4999999627471 338.4999999627471 237.5000000372529 338.4999999627471 z"></path><path fill="black" stroke="none" d="M 333.5000000372529 333.5000000372529 L 386.4999999627471 333.5000000372529 386.4999999627471 338.4999999627471 333.5000000372529 338.4999999627471 z"></path><path fill="black" stroke="none" d="M 93.5000000372529 333.5000000372529 L 98.4999999627471 333.5000000372529 98.4999999627471 386.4999999627471 93.5000000372529 386.4999999627471 z"></path><path fill="black" stroke="none" d="M 141.5000000372529 333.5000000372529 L 146.4999999627471 333.5000000372529 146.4999999627471 386.4999999627471 141.5000000372529 386.4999999627471 z"></path><path fill="black" stroke="none" d="M 189.5000000372529 333.5000000372529 L 194.4999999627471 333.5000000372529 194.4999999627471 386.4999999627471 189.5000000372529 386.4999999627471 z"></path><path fill="black" stroke="none" d="M 333.5000000372529 333.5000000372529 L 338.4999999627471 333.5000000372529 338.4999999627471 386.4999999627471 333.5000000372529 386.4999999627471 z"></path><path fill="black" stroke="none" d="M 141.5000000372529 381.5000000372529 L 194.4999999627471 381.5000000372529 194.4999999627471 386.4999999627471 141.5000000372529 386.4999999627471 z"></path><path fill="black" stroke="none" d="M 93.5000000372529 381.5000000372529 L 98.4999999627471 381.5000000372529 98.4999999627471 434.4999999627471 93.5000000372529 434.4999999627471 z"></path><path fill="black" stroke="none" d="M 189.5000000372529 381.5000000372529 L 194.4999999627471 381.5000000372529 194.4999999627471 434.4999999627471 189.5000000372529 434.4999999627471 z"></path><path fill="black" stroke="none" d="M 333.5000000372529 381.5000000372529 L 338.4999999627471 381.5000000372529 338.4999999627471 434.4999999627471 333.5000000372529 434.4999999627471 z"></path></g><g shape-rendering="auto"><path fill="none" stroke="black" d="M 240 0 L 288 48 z" stroke-width="6"></path><path fill="none" stroke="black" d="M 384 0 L 432 48 z" stroke-width="6"></path><path fill="none" stroke="black" d="M 240 48 L 288 96 z" stroke-width="6"></path><path fill="none" stroke="black" d="M 432 192 L 384 240 z" stroke-width="6"></path><path fill="none" stroke="black" d="M 336 288 L 384 336 z" stroke-width="6"></path><path fill="none" stroke="black" d="M 384 288 L 432 336 z" stroke-width="6"></path></g><g shape-rendering="crispEdges"></g><g shape-rendering="auto"><text fill="black" x="120" y="-14.200000000000001" text-anchor="middle" font-size="28">A2</text><text fill="black" x="216" y="-14.200000000000001" text-anchor="middle" font-size="28">A2</text><text fill="black" x="264" y="-14.200000000000001" text-anchor="middle" font-size="28">D3</text><text fill="black" x="312" y="-14.200000000000001" text-anchor="middle" font-size="28">F7</text><text fill="black" x="360" y="-14.200000000000001" text-anchor="middle" font-size="28">C2</text><text fill="black" x="-24" y="33.8" text-anchor="middle" font-size="28">B2</text><text fill="black" x="456" y="81.8" text-anchor="middle" font-size="28">B2</text><text fill="black" x="456" y="129.8" text-anchor="middle" font-size="28">F7</text><text fill="black" x="-24" y="177.8" text-anchor="middle" font-size="28">H2</text><text fill="black" x="-24" y="225.8" text-anchor="middle" font-size="28">D3</text><text fill="black" x="456" y="273.8" text-anchor="middle" font-size="28">E3</text><text fill="black" x="-24" y="321.8" text-anchor="middle" font-size="28">H2</text><text fill="black" x="456" y="369.8" text-anchor="middle" font-size="28">G3</text><text fill="black" x="264" y="465.8" text-anchor="middle" font-size="28">E3</text><text fill="black" x="360" y="465.8" text-anchor="middle" font-size="28">G3</text><text fill="black" x="408" y="465.8" text-anchor="middle" font-size="28">C2</text></g><g shape-rendering="crispEdges"><path fill="black" stroke="none" d="M -2.4999999627470975 -2.4999999627470975 L 2.4999999627470975 -2.4999999627470975 2.4999999627470975 434.4999999627471 -2.4999999627470975 434.4999999627471 z"></path><path fill="black" stroke="none" d="M 429.5000000372529 -2.4999999627470975 L 434.4999999627471 -2.4999999627470975 434.4999999627471 434.4999999627471 429.5000000372529 434.4999999627471 z"></path><path fill="black" stroke="none" d="M -2.4999999627470975 -2.4999999627470975 L 434.4999999627471 -2.4999999627470975 434.4999999627471 2.4999999627470975 -2.4999999627470975 2.4999999627470975 z"></path><path fill="black" stroke="none" d="M -2.4999999627470975 429.5000000372529 L 434.4999999627471 429.5000000372529 434.4999999627471 434.4999999627471 -2.4999999627470975 434.4999999627471 z"></path></g><g shape-rendering="crispEdges"></g></svg>