<?xml version="1.0" encoding="UTF-8" standalone="no"?>
<svg
   xmlns:dc="http://purl.org/dc/elements/1.1/"
   xmlns:cc="http://creativecommons.org/ns#"
   xmlns:rdf="http://www.w3.org/1999/02/22-rdf-syntax-ns#"
   xmlns:svg="http://www.w3.org/2000/svg"
   xmlns="http://www.w3.org/2000/svg"
   xmlns:sodipodi="http://sodipodi.sourceforge.net/DTD/sodipodi-0.dtd"
   xmlns:inkscape="http://www.inkscape.org/namespaces/inkscape"
   inkscape:version="1.0 (4035a4fb49, 2020-05-01)"
   sodipodi:docname="bounce14.svg"
   id="svg430"
   version="1.1"
   viewBox="-55.5 -55.5 542 542"
   height="542"
   width="542"
   font-family="sans-serif"
   font-size="10px">
  <metadata
     id="metadata436">
    <rdf:RDF>
      <cc:Work
         rdf:about="">
        <dc:format>image/svg+xml</dc:format>
        <dc:type
           rdf:resource="http://purl.org/dc/dcmitype/StillImage" />
      </cc:Work>
    </rdf:RDF>
  </metadata>
  <defs
     id="defs434" />
  <sodipodi:namedview
     inkscape:current-layer="svg430"
     inkscape:window-maximized="1"
     inkscape:window-y="-8"
     inkscape:window-x="-8"
     inkscape:cy="355.07132"
     inkscape:cx="83.167578"
     inkscape:zoom="0.80028182"
     showgrid="false"
     id="namedview432"
     inkscape:window-height="1057"
     inkscape:window-width="1857"
     inkscape:pageshadow="2"
     inkscape:pageopacity="0"
     guidetolerance="10"
     gridtolerance="10"
     objecttolerance="10"
     borderopacity="1"
     bordercolor="#666666"
     pagecolor="#ffffff" />
  <g
     id="g2"
     shape-rendering="crispEdges" />
  <g
     id="g162"
     shape-rendering="auto">
    <path
       id="path36"
       d="M 26.88 24.125 A 2.88 2.88 0 1 1 26.88 24 z"
       stroke="none"
       fill="rgb(0, 160, 0)" />
    <path
       id="path38"
       d="M 74.88 24.125 A 2.88 2.88 0 1 1 74.88 24 z"
       stroke="none"
       fill="rgb(0, 160, 0)" />
    <path
       id="path40"
       d="M 122.88 24.125 A 2.88 2.88 0 1 1 122.88 24 z"
       stroke="none"
       fill="rgb(0, 160, 0)" />
    <path
       id="path42"
       d="M 170.88 24.125 A 2.88 2.88 0 1 1 170.88 24 z"
       stroke="none"
       fill="rgb(0, 160, 0)" />
    <path
       id="path44"
       d="M 218.88 24.125 A 2.88 2.88 0 1 1 218.88 24 z"
       stroke="none"
       fill="rgb(0, 160, 0)" />
    <path
       id="path46"
       d="M 314.88 24.125 A 2.88 2.88 0 1 1 314.88 24 z"
       stroke="none"
       fill="rgb(0, 160, 0)" />
    <path
       id="path48"
       d="M 362.88 24.125 A 2.88 2.88 0 1 1 362.88 24 z"
       stroke="none"
       fill="rgb(0, 160, 0)" />
    <path
       id="path50"
       d="M 26.88 72.125 A 2.88 2.88 0 1 1 26.88 72 z"
       stroke="none"
       fill="rgb(0, 160, 0)" />
    <path
       id="path52"
       d="M 74.88 72.125 A 2.88 2.88 0 1 1 74.88 72 z"
       stroke="none"
       fill="rgb(0, 160, 0)" />
    <path
       id="path54"
       d="M 122.88 72.125 A 2.88 2.88 0 1 1 122.88 72 z"
       stroke="none"
       fill="rgb(0, 160, 0)" />
    <path
       id="path56"
       d="M 218.88 72.125 A 2.88 2.88 0 1 1 218.88 72 z"
       stroke="none"
       fill="rgb(0, 160, 0)" />
    <path
       id="path58"
       d="M 314.88 72.125 A 2.88 2.88 0 1 1 314.88 72 z"
       stroke="none"
       fill="rgb(0, 160, 0)" />
    <path
       id="path60"
       d="M 362.88 72.125 A 2.88 2.88 0 1 1 362.88 72 z"
       stroke="none"
       fill="rgb(0, 160, 0)" />
    <path
       id="path62"
       d="M 410.88 72.125 A 2.88 2.88 0 1 1 410.88 72 z"
       stroke="none"
       fill="rgb(0, 160, 0)" />
    <path
       id="path64"
       d="M 74.88 120.125 A 2.88 2.88 0 1 1 74.88 120 z"
       stroke="none"
       fill="rgb(0, 160, 0)" />
    <path
       id="path66"
       d="M 122.88 120.125 A 2.88 2.88 0 1 1 122.88 120 z"
       stroke="none"
       fill="rgb(0, 160, 0)" />
    <path
       id="path68"
       d="M 170.88 120.125 A 2.88 2.88 0 1 1 170.88 120 z"
       stroke="none"
       fill="rgb(0, 160, 0)" />
    <path
       id="path70"
       d="M 218.88 120.125 A 2.88 2.88 0 1 1 218.88 120 z"
       stroke="none"
       fill="rgb(0, 160, 0)" />
    <path
       id="path72"
       d="M 266.88 120.125 A 2.88 2.88 0 1 1 266.88 120 z"
       stroke="none"
       fill="rgb(0, 160, 0)" />
    <path
       id="path74"
       d="M 362.88 120.125 A 2.88 2.88 0 1 1 362.88 120 z"
       stroke="none"
       fill="rgb(0, 160, 0)" />
    <path
       id="path76"
       d="M 410.88 120.125 A 2.88 2.88 0 1 1 410.88 120 z"
       stroke="none"
       fill="rgb(0, 160, 0)" />
    <path
       id="path78"
       d="M 74.88 168.125 A 2.88 2.88 0 1 1 74.88 168 z"
       stroke="none"
       fill="rgb(0, 160, 0)" />
    <path
       id="path80"
       d="M 170.88 168.125 A 2.88 2.88 0 1 1 170.88 168 z"
       stroke="none"
       fill="rgb(0, 160, 0)" />
    <path
       id="path82"
       d="M 266.88 168.125 A 2.88 2.88 0 1 1 266.88 168 z"
       stroke="none"
       fill="rgb(0, 160, 0)" />
    <path
       id="path84"
       d="M 314.88 168.125 A 2.88 2.88 0 1 1 314.88 168 z"
       stroke="none"
       fill="rgb(0, 160, 0)" />
    <path
       id="path86"
       d="M 362.88 168.125 A 2.88 2.88 0 1 1 362.88 168 z"
       stroke="none"
       fill="rgb(0, 160, 0)" />
    <path
       id="path88"
       d="M 410.88 168.125 A 2.88 2.88 0 1 1 410.88 168 z"
       stroke="none"
       fill="rgb(0, 160, 0)" />
    <path
       id="path90"
       d="M 26.88 216.125 A 2.88 2.88 0 1 1 26.88 216 z"
       stroke="none"
       fill="rgb(0, 160, 0)" />
    <path
       id="path92"
       d="M 74.88 216.125 A 2.88 2.88 0 1 1 74.88 216 z"
       stroke="none"
       fill="rgb(0, 160, 0)" />
    <path
       id="path94"
       d="M 122.88 216.125 A 2.88 2.88 0 1 1 122.88 216 z"
       stroke="none"
       fill="rgb(0, 160, 0)" />
    <path
       id="path96"
       d="M 170.88 216.125 A 2.88 2.88 0 1 1 170.88 216 z"
       stroke="none"
       fill="rgb(0, 160, 0)" />
    <path
       id="path98"
       d="M 218.88 216.125 A 2.88 2.88 0 1 1 218.88 216 z"
       stroke="none"
       fill="rgb(0, 160, 0)" />
    <path
       id="path100"
       d="M 266.88 216.125 A 2.88 2.88 0 1 1 266.88 216 z"
       stroke="none"
       fill="rgb(0, 160, 0)" />
    <path
       id="path102"
       d="M 314.88 216.125 A 2.88 2.88 0 1 1 314.88 216 z"
       stroke="none"
       fill="rgb(0, 160, 0)" />
    <path
       id="path104"
       d="M 362.88 216.125 A 2.88 2.88 0 1 1 362.88 216 z"
       stroke="none"
       fill="rgb(0, 160, 0)" />
    <path
       id="path106"
       d="M 26.88 264.125 A 2.88 2.88 0 1 1 26.88 264 z"
       stroke="none"
       fill="rgb(0, 160, 0)" />
    <path
       id="path108"
       d="M 74.88 264.125 A 2.88 2.88 0 1 1 74.88 264 z"
       stroke="none"
       fill="rgb(0, 160, 0)" />
    <path
       id="path110"
       d="M 122.88 264.125 A 2.88 2.88 0 1 1 122.88 264 z"
       stroke="none"
       fill="rgb(0, 160, 0)" />
    <path
       id="path112"
       d="M 218.88 264.125 A 2.88 2.88 0 1 1 218.88 264 z"
       stroke="none"
       fill="rgb(0, 160, 0)" />
    <path
       id="path114"
       d="M 266.88 264.125 A 2.88 2.88 0 1 1 266.88 264 z"
       stroke="none"
       fill="rgb(0, 160, 0)" />
    <path
       id="path116"
       d="M 314.88 264.125 A 2.88 2.88 0 1 1 314.88 264 z"
       stroke="none"
       fill="rgb(0, 160, 0)" />
    <path
       id="path118"
       d="M 362.88 264.125 A 2.88 2.88 0 1 1 362.88 264 z"
       stroke="none"
       fill="rgb(0, 160, 0)" />
    <path
       id="path120"
       d="M 410.88 264.125 A 2.88 2.88 0 1 1 410.88 264 z"
       stroke="none"
       fill="rgb(0, 160, 0)" />
    <path
       id="path122"
       d="M 74.88 312.125 A 2.88 2.88 0 1 1 74.88 312 z"
       stroke="none"
       fill="rgb(0, 160, 0)" />
    <path
       id="path124"
       d="M 122.88 312.125 A 2.88 2.88 0 1 1 122.88 312 z"
       stroke="none"
       fill="rgb(0, 160, 0)" />
    <path
       id="path126"
       d="M 170.88 312.125 A 2.88 2.88 0 1 1 170.88 312 z"
       stroke="none"
       fill="rgb(0, 160, 0)" />
    <path
       id="path128"
       d="M 218.88 312.125 A 2.88 2.88 0 1 1 218.88 312 z"
       stroke="none"
       fill="rgb(0, 160, 0)" />
    <path
       id="path130"
       d="M 266.88 312.125 A 2.88 2.88 0 1 1 266.88 312 z"
       stroke="none"
       fill="rgb(0, 160, 0)" />
    <path
       id="path132"
       d="M 314.88 312.125 A 2.88 2.88 0 1 1 314.88 312 z"
       stroke="none"
       fill="rgb(0, 160, 0)" />
    <path
       id="path134"
       d="M 74.88 360.125 A 2.88 2.88 0 1 1 74.88 360 z"
       stroke="none"
       fill="rgb(0, 160, 0)" />
    <path
       id="path136"
       d="M 122.88 360.125 A 2.88 2.88 0 1 1 122.88 360 z"
       stroke="none"
       fill="rgb(0, 160, 0)" />
    <path
       id="path138"
       d="M 170.88 360.125 A 2.88 2.88 0 1 1 170.88 360 z"
       stroke="none"
       fill="rgb(0, 160, 0)" />
    <path
       id="path140"
       d="M 218.88 360.125 A 2.88 2.88 0 1 1 218.88 360 z"
       stroke="none"
       fill="rgb(0, 160, 0)" />
    <path
       id="path142"
       d="M 266.88 360.125 A 2.88 2.88 0 1 1 266.88 360 z"
       stroke="none"
       fill="rgb(0, 160, 0)" />
    <path
       id="path144"
       d="M 314.88 360.125 A 2.88 2.88 0 1 1 314.88 360 z"
       stroke="none"
       fill="rgb(0, 160, 0)" />
    <path
       id="path146"
       d="M 362.88 360.125 A 2.88 2.88 0 1 1 362.88 360 z"
       stroke="none"
       fill="rgb(0, 160, 0)" />
    <path
       id="path148"
       d="M 410.88 360.125 A 2.88 2.88 0 1 1 410.88 360 z"
       stroke="none"
       fill="rgb(0, 160, 0)" />
    <path
       id="path150"
       d="M 26.88 408.125 A 2.88 2.88 0 1 1 26.88 408 z"
       stroke="none"
       fill="rgb(0, 160, 0)" />
    <path
       id="path152"
       d="M 74.88 408.125 A 2.88 2.88 0 1 1 74.88 408 z"
       stroke="none"
       fill="rgb(0, 160, 0)" />
    <path
       id="path154"
       d="M 218.88 408.125 A 2.88 2.88 0 1 1 218.88 408 z"
       stroke="none"
       fill="rgb(0, 160, 0)" />
    <path
       id="path156"
       d="M 266.88 408.125 A 2.88 2.88 0 1 1 266.88 408 z"
       stroke="none"
       fill="rgb(0, 160, 0)" />
    <path
       id="path158"
       d="M 362.88 408.125 A 2.88 2.88 0 1 1 362.88 408 z"
       stroke="none"
       fill="rgb(0, 160, 0)" />
    <path
       id="path160"
       d="M 410.88 408.125 A 2.88 2.88 0 1 1 410.88 408 z"
       stroke="none"
       fill="rgb(0, 160, 0)" />
  </g>
  <g
     id="g196"
     shape-rendering="crispEdges">
    <path
       id="path164"
       stroke-width="1.2499999813735487"
       d="M 48 0 L 48 432"
       stroke="rgb(127, 127, 127)"
       fill="none" />
    <path
       id="path166"
       stroke-width="1.2499999813735487"
       d="M 96 0 L 96 432"
       stroke="rgb(127, 127, 127)"
       fill="none" />
    <path
       id="path168"
       stroke-width="1.2499999813735487"
       d="M 144 0 L 144 432"
       stroke="rgb(127, 127, 127)"
       fill="none" />
    <path
       id="path170"
       stroke-width="1.2499999813735487"
       d="M 192 0 L 192 432"
       stroke="rgb(127, 127, 127)"
       fill="none" />
    <path
       id="path172"
       stroke-width="1.2499999813735487"
       d="M 240 0 L 240 432"
       stroke="rgb(127, 127, 127)"
       fill="none" />
    <path
       id="path174"
       stroke-width="1.2499999813735487"
       d="M 288 0 L 288 432"
       stroke="rgb(127, 127, 127)"
       fill="none" />
    <path
       id="path176"
       stroke-width="1.2499999813735487"
       d="M 336 0 L 336 432"
       stroke="rgb(127, 127, 127)"
       fill="none" />
    <path
       id="path178"
       stroke-width="1.2499999813735487"
       d="M 384 0 L 384 432"
       stroke="rgb(127, 127, 127)"
       fill="none" />
    <path
       id="path180"
       stroke-width="1.2499999813735487"
       d="M 0 48 L 432 48"
       stroke="rgb(127, 127, 127)"
       fill="none" />
    <path
       id="path182"
       stroke-width="1.2499999813735487"
       d="M 0 96 L 432 96"
       stroke="rgb(127, 127, 127)"
       fill="none" />
    <path
       id="path184"
       stroke-width="1.2499999813735487"
       d="M 0 144 L 432 144"
       stroke="rgb(127, 127, 127)"
       fill="none" />
    <path
       id="path186"
       stroke-width="1.2499999813735487"
       d="M 0 192 L 432 192"
       stroke="rgb(127, 127, 127)"
       fill="none" />
    <path
       id="path188"
       stroke-width="1.2499999813735487"
       d="M 0 240 L 432 240"
       stroke="rgb(127, 127, 127)"
       fill="none" />
    <path
       id="path190"
       stroke-width="1.2499999813735487"
       d="M 0 288 L 432 288"
       stroke="rgb(127, 127, 127)"
       fill="none" />
    <path
       id="path192"
       stroke-width="1.2499999813735487"
       d="M 0 336 L 432 336"
       stroke="rgb(127, 127, 127)"
       fill="none" />
    <path
       id="path194"
       stroke-width="1.2499999813735487"
       d="M 0 384 L 432 384"
       stroke="rgb(127, 127, 127)"
       fill="none" />
  </g>
  <g
     id="g342"
     shape-rendering="crispEdges">
    <path
       id="path198"
       d="M 93.5000000372529 -2.499999962747097 L 98.4999999627471 -2.499999962747097 98.4999999627471 50.4999999627471 93.5000000372529 50.4999999627471 z"
       stroke="none"
       fill="black" />
    <path
       id="path200"
       d="M 237.5000000372529 -2.499999962747097 L 242.4999999627471 -2.499999962747097 242.4999999627471 50.4999999627471 237.5000000372529 50.4999999627471 z"
       stroke="none"
       fill="black" />
    <path
       id="path202"
       d="M 333.5000000372529 -2.499999962747097 L 338.4999999627471 -2.499999962747097 338.4999999627471 50.4999999627471 333.5000000372529 50.4999999627471 z"
       stroke="none"
       fill="black" />
    <path
       id="path204"
       d="M 237.5000000372529 45.5000000372529 L 290.4999999627471 45.5000000372529 290.4999999627471 50.4999999627471 237.5000000372529 50.4999999627471 z"
       stroke="none"
       fill="black" />
    <path
       id="path206"
       d="M 93.5000000372529 45.5000000372529 L 98.4999999627471 45.5000000372529 98.4999999627471 98.4999999627471 93.5000000372529 98.4999999627471 z"
       stroke="none"
       fill="black" />
    <path
       id="path208"
       d="M 237.5000000372529 45.5000000372529 L 242.4999999627471 45.5000000372529 242.4999999627471 98.4999999627471 237.5000000372529 98.4999999627471 z"
       stroke="none"
       fill="black" />
    <path
       id="path210"
       d="M 285.5000000372529 45.5000000372529 L 290.4999999627471 45.5000000372529 290.4999999627471 98.4999999627471 285.5000000372529 98.4999999627471 z"
       stroke="none"
       fill="black" />
    <path
       id="path212"
       d="M 333.5000000372529 45.5000000372529 L 338.4999999627471 45.5000000372529 338.4999999627471 98.4999999627471 333.5000000372529 98.4999999627471 z"
       stroke="none"
       fill="black" />
    <path
       id="path214"
       d="M 45.5000000372529 93.5000000372529 L 98.4999999627471 93.5000000372529 98.4999999627471 98.4999999627471 45.5000000372529 98.4999999627471 z"
       stroke="none"
       fill="black" />
    <path
       id="path216"
       d="M 141.5000000372529 93.5000000372529 L 194.4999999627471 93.5000000372529 194.4999999627471 98.4999999627471 141.5000000372529 98.4999999627471 z"
       stroke="none"
       fill="black" />
    <path
       id="path218"
       d="M 285.5000000372529 93.5000000372529 L 338.4999999627471 93.5000000372529 338.4999999627471 98.4999999627471 285.5000000372529 98.4999999627471 z"
       stroke="none"
       fill="black" />
    <path
       id="path220"
       d="M 333.5000000372529 93.5000000372529 L 386.4999999627471 93.5000000372529 386.4999999627471 98.4999999627471 333.5000000372529 98.4999999627471 z"
       stroke="none"
       fill="black" />
    <path
       id="path222"
       d="M 381.5000000372529 93.5000000372529 L 434.4999999627471 93.5000000372529 434.4999999627471 98.4999999627471 381.5000000372529 98.4999999627471 z"
       stroke="none"
       fill="black" />
    <path
       id="path224"
       d="M 45.5000000372529 93.5000000372529 L 50.4999999627471 93.5000000372529 50.4999999627471 146.4999999627471 45.5000000372529 146.4999999627471 z"
       stroke="none"
       fill="black" />
    <path
       id="path226"
       d="M 93.5000000372529 93.5000000372529 L 98.4999999627471 93.5000000372529 98.4999999627471 146.4999999627471 93.5000000372529 146.4999999627471 z"
       stroke="none"
       fill="black" />
    <path
       id="path228"
       d="M 141.5000000372529 93.5000000372529 L 146.4999999627471 93.5000000372529 146.4999999627471 146.4999999627471 141.5000000372529 146.4999999627471 z"
       stroke="none"
       fill="black" />
    <path
       id="path230"
       d="M 189.5000000372529 93.5000000372529 L 194.4999999627471 93.5000000372529 194.4999999627471 146.4999999627471 189.5000000372529 146.4999999627471 z"
       stroke="none"
       fill="black" />
    <path
       id="path232"
       d="M 237.5000000372529 93.5000000372529 L 242.4999999627471 93.5000000372529 242.4999999627471 146.4999999627471 237.5000000372529 146.4999999627471 z"
       stroke="none"
       fill="black" />
    <path
       id="path234"
       d="M 285.5000000372529 93.5000000372529 L 290.4999999627471 93.5000000372529 290.4999999627471 146.4999999627471 285.5000000372529 146.4999999627471 z"
       stroke="none"
       fill="black" />
    <path
       id="path236"
       d="M -2.499999962747097 141.5000000372529 L 50.4999999627471 141.5000000372529 50.4999999627471 146.4999999627471 -2.499999962747097 146.4999999627471 z"
       stroke="none"
       fill="black" />
    <path
       id="path238"
       d="M 93.5000000372529 141.5000000372529 L 146.4999999627471 141.5000000372529 146.4999999627471 146.4999999627471 93.5000000372529 146.4999999627471 z"
       stroke="none"
       fill="black" />
    <path
       id="path240"
       d="M 189.5000000372529 141.5000000372529 L 242.4999999627471 141.5000000372529 242.4999999627471 146.4999999627471 189.5000000372529 146.4999999627471 z"
       stroke="none"
       fill="black" />
    <path
       id="path242"
       d="M 285.5000000372529 141.5000000372529 L 338.4999999627471 141.5000000372529 338.4999999627471 146.4999999627471 285.5000000372529 146.4999999627471 z"
       stroke="none"
       fill="black" />
    <path
       id="path244"
       d="M 381.5000000372529 141.5000000372529 L 434.4999999627471 141.5000000372529 434.4999999627471 146.4999999627471 381.5000000372529 146.4999999627471 z"
       stroke="none"
       fill="black" />
    <path
       id="path246"
       d="M 45.5000000372529 141.5000000372529 L 50.4999999627471 141.5000000372529 50.4999999627471 194.4999999627471 45.5000000372529 194.4999999627471 z"
       stroke="none"
       fill="black" />
    <path
       id="path248"
       d="M 189.5000000372529 141.5000000372529 L 194.4999999627471 141.5000000372529 194.4999999627471 194.4999999627471 189.5000000372529 194.4999999627471 z"
       stroke="none"
       fill="black" />
    <path
       id="path250"
       d="M 237.5000000372529 141.5000000372529 L 242.4999999627471 141.5000000372529 242.4999999627471 194.4999999627471 237.5000000372529 194.4999999627471 z"
       stroke="none"
       fill="black" />
    <path
       id="path252"
       d="M 285.5000000372529 141.5000000372529 L 290.4999999627471 141.5000000372529 290.4999999627471 194.4999999627471 285.5000000372529 194.4999999627471 z"
       stroke="none"
       fill="black" />
    <path
       id="path254"
       d="M 333.5000000372529 141.5000000372529 L 338.4999999627471 141.5000000372529 338.4999999627471 194.4999999627471 333.5000000372529 194.4999999627471 z"
       stroke="none"
       fill="black" />
    <path
       id="path256"
       d="M 381.5000000372529 141.5000000372529 L 386.4999999627471 141.5000000372529 386.4999999627471 194.4999999627471 381.5000000372529 194.4999999627471 z"
       stroke="none"
       fill="black" />
    <path
       id="path258"
       d="M 45.5000000372529 189.5000000372529 L 98.4999999627471 189.5000000372529 98.4999999627471 194.4999999627471 45.5000000372529 194.4999999627471 z"
       stroke="none"
       fill="black" />
    <path
       id="path260"
       d="M 141.5000000372529 189.5000000372529 L 194.4999999627471 189.5000000372529 194.4999999627471 194.4999999627471 141.5000000372529 194.4999999627471 z"
       stroke="none"
       fill="black" />
    <path
       id="path262"
       d="M 237.5000000372529 189.5000000372529 L 290.4999999627471 189.5000000372529 290.4999999627471 194.4999999627471 237.5000000372529 194.4999999627471 z"
       stroke="none"
       fill="black" />
    <path
       id="path264"
       d="M 45.5000000372529 189.5000000372529 L 50.4999999627471 189.5000000372529 50.4999999627471 242.4999999627471 45.5000000372529 242.4999999627471 z"
       stroke="none"
       fill="black" />
    <path
       id="path266"
       d="M 93.5000000372529 189.5000000372529 L 98.4999999627471 189.5000000372529 98.4999999627471 242.4999999627471 93.5000000372529 242.4999999627471 z"
       stroke="none"
       fill="black" />
    <path
       id="path268"
       d="M 141.5000000372529 189.5000000372529 L 146.4999999627471 189.5000000372529 146.4999999627471 242.4999999627471 141.5000000372529 242.4999999627471 z"
       stroke="none"
       fill="black" />
    <path
       id="path270"
       d="M 285.5000000372529 189.5000000372529 L 290.4999999627471 189.5000000372529 290.4999999627471 242.4999999627471 285.5000000372529 242.4999999627471 z"
       stroke="none"
       fill="black" />
    <path
       id="path272"
       d="M 333.5000000372529 189.5000000372529 L 338.4999999627471 189.5000000372529 338.4999999627471 242.4999999627471 333.5000000372529 242.4999999627471 z"
       stroke="none"
       fill="black" />
    <path
       id="path274"
       d="M 381.5000000372529 189.5000000372529 L 386.4999999627471 189.5000000372529 386.4999999627471 242.4999999627471 381.5000000372529 242.4999999627471 z"
       stroke="none"
       fill="black" />
    <path
       id="path276"
       d="M 141.5000000372529 237.5000000372529 L 194.4999999627471 237.5000000372529 194.4999999627471 242.4999999627471 141.5000000372529 242.4999999627471 z"
       stroke="none"
       fill="black" />
    <path
       id="path278"
       d="M 237.5000000372529 237.5000000372529 L 290.4999999627471 237.5000000372529 290.4999999627471 242.4999999627471 237.5000000372529 242.4999999627471 z"
       stroke="none"
       fill="black" />
    <path
       id="path280"
       d="M 333.5000000372529 237.5000000372529 L 386.4999999627471 237.5000000372529 386.4999999627471 242.4999999627471 333.5000000372529 242.4999999627471 z"
       stroke="none"
       fill="black" />
    <path
       id="path282"
       d="M 45.5000000372529 237.5000000372529 L 50.4999999627471 237.5000000372529 50.4999999627471 290.4999999627471 45.5000000372529 290.4999999627471 z"
       stroke="none"
       fill="black" />
    <path
       id="path284"
       d="M 93.5000000372529 237.5000000372529 L 98.4999999627471 237.5000000372529 98.4999999627471 290.4999999627471 93.5000000372529 290.4999999627471 z"
       stroke="none"
       fill="black" />
    <path
       id="path286"
       d="M 141.5000000372529 237.5000000372529 L 146.4999999627471 237.5000000372529 146.4999999627471 290.4999999627471 141.5000000372529 290.4999999627471 z"
       stroke="none"
       fill="black" />
    <path
       id="path288"
       d="M 189.5000000372529 237.5000000372529 L 194.4999999627471 237.5000000372529 194.4999999627471 290.4999999627471 189.5000000372529 290.4999999627471 z"
       stroke="none"
       fill="black" />
    <path
       id="path290"
       d="M 237.5000000372529 237.5000000372529 L 242.4999999627471 237.5000000372529 242.4999999627471 290.4999999627471 237.5000000372529 290.4999999627471 z"
       stroke="none"
       fill="black" />
    <path
       id="path292"
       d="M 381.5000000372529 237.5000000372529 L 386.4999999627471 237.5000000372529 386.4999999627471 290.4999999627471 381.5000000372529 290.4999999627471 z"
       stroke="none"
       fill="black" />
    <path
       id="path294"
       d="M -2.499999962747097 285.5000000372529 L 50.4999999627471 285.5000000372529 50.4999999627471 290.4999999627471 -2.499999962747097 290.4999999627471 z"
       stroke="none"
       fill="black" />
    <path
       id="path296"
       d="M 93.5000000372529 285.5000000372529 L 146.4999999627471 285.5000000372529 146.4999999627471 290.4999999627471 93.5000000372529 290.4999999627471 z"
       stroke="none"
       fill="black" />
    <path
       id="path298"
       d="M 189.5000000372529 285.5000000372529 L 242.4999999627471 285.5000000372529 242.4999999627471 290.4999999627471 189.5000000372529 290.4999999627471 z"
       stroke="none"
       fill="black" />
    <path
       id="path300"
       d="M 285.5000000372529 285.5000000372529 L 338.4999999627471 285.5000000372529 338.4999999627471 290.4999999627471 285.5000000372529 290.4999999627471 z"
       stroke="none"
       fill="black" />
    <path
       id="path302"
       d="M 381.5000000372529 285.5000000372529 L 434.4999999627471 285.5000000372529 434.4999999627471 290.4999999627471 381.5000000372529 290.4999999627471 z"
       stroke="none"
       fill="black" />
    <path
       id="path304"
       d="M 141.5000000372529 285.5000000372529 L 146.4999999627471 285.5000000372529 146.4999999627471 338.4999999627471 141.5000000372529 338.4999999627471 z"
       stroke="none"
       fill="black" />
    <path
       id="path306"
       d="M 189.5000000372529 285.5000000372529 L 194.4999999627471 285.5000000372529 194.4999999627471 338.4999999627471 189.5000000372529 338.4999999627471 z"
       stroke="none"
       fill="black" />
    <path
       id="path308"
       d="M 237.5000000372529 285.5000000372529 L 242.4999999627471 285.5000000372529 242.4999999627471 338.4999999627471 237.5000000372529 338.4999999627471 z"
       stroke="none"
       fill="black" />
    <path
       id="path310"
       d="M 285.5000000372529 285.5000000372529 L 290.4999999627471 285.5000000372529 290.4999999627471 338.4999999627471 285.5000000372529 338.4999999627471 z"
       stroke="none"
       fill="black" />
    <path
       id="path312"
       d="M 333.5000000372529 285.5000000372529 L 338.4999999627471 285.5000000372529 338.4999999627471 338.4999999627471 333.5000000372529 338.4999999627471 z"
       stroke="none"
       fill="black" />
    <path
       id="path314"
       d="M 381.5000000372529 285.5000000372529 L 386.4999999627471 285.5000000372529 386.4999999627471 338.4999999627471 381.5000000372529 338.4999999627471 z"
       stroke="none"
       fill="black" />
    <path
       id="path316"
       d="M -2.499999962747097 333.5000000372529 L 50.4999999627471 333.5000000372529 50.4999999627471 338.4999999627471 -2.499999962747097 338.4999999627471 z"
       stroke="none"
       fill="black" />
    <path
       id="path318"
       d="M 45.5000000372529 333.5000000372529 L 98.4999999627471 333.5000000372529 98.4999999627471 338.4999999627471 45.5000000372529 338.4999999627471 z"
       stroke="none"
       fill="black" />
    <path
       id="path320"
       d="M 93.5000000372529 333.5000000372529 L 146.4999999627471 333.5000000372529 146.4999999627471 338.4999999627471 93.5000000372529 338.4999999627471 z"
       stroke="none"
       fill="black" />
    <path
       id="path322"
       d="M 237.5000000372529 333.5000000372529 L 290.4999999627471 333.5000000372529 290.4999999627471 338.4999999627471 237.5000000372529 338.4999999627471 z"
       stroke="none"
       fill="black" />
    <path
       id="path324"
       d="M 333.5000000372529 333.5000000372529 L 386.4999999627471 333.5000000372529 386.4999999627471 338.4999999627471 333.5000000372529 338.4999999627471 z"
       stroke="none"
       fill="black" />
    <path
       id="path326"
       d="M 93.5000000372529 333.5000000372529 L 98.4999999627471 333.5000000372529 98.4999999627471 386.4999999627471 93.5000000372529 386.4999999627471 z"
       stroke="none"
       fill="black" />
    <path
       id="path328"
       d="M 141.5000000372529 333.5000000372529 L 146.4999999627471 333.5000000372529 146.4999999627471 386.4999999627471 141.5000000372529 386.4999999627471 z"
       stroke="none"
       fill="black" />
    <path
       id="path330"
       d="M 189.5000000372529 333.5000000372529 L 194.4999999627471 333.5000000372529 194.4999999627471 386.4999999627471 189.5000000372529 386.4999999627471 z"
       stroke="none"
       fill="black" />
    <path
       id="path332"
       d="M 333.5000000372529 333.5000000372529 L 338.4999999627471 333.5000000372529 338.4999999627471 386.4999999627471 333.5000000372529 386.4999999627471 z"
       stroke="none"
       fill="black" />
    <path
       id="path334"
       d="M 141.5000000372529 381.5000000372529 L 194.4999999627471 381.5000000372529 194.4999999627471 386.4999999627471 141.5000000372529 386.4999999627471 z"
       stroke="none"
       fill="black" />
    <path
       id="path336"
       d="M 93.5000000372529 381.5000000372529 L 98.4999999627471 381.5000000372529 98.4999999627471 434.4999999627471 93.5000000372529 434.4999999627471 z"
       stroke="none"
       fill="black" />
    <path
       id="path338"
       d="M 189.5000000372529 381.5000000372529 L 194.4999999627471 381.5000000372529 194.4999999627471 434.4999999627471 189.5000000372529 434.4999999627471 z"
       stroke="none"
       fill="black" />
    <path
       id="path340"
       d="M 333.5000000372529 381.5000000372529 L 338.4999999627471 381.5000000372529 338.4999999627471 434.4999999627471 333.5000000372529 434.4999999627471 z"
       stroke="none"
       fill="black" />
  </g>
  <g
     id="g376"
     shape-rendering="auto">
    <path
       id="path344"
       stroke-width="6"
       d="M 240 0 L 288 48 z"
       stroke="black"
       fill="none" />
    <path
       id="path346"
       stroke-width="6"
       d="M 384 0 L 432 48 z"
       stroke="black"
       fill="none" />
    <path
       id="path348"
       stroke-width="6"
       d="M 192 48 L 144 96 z"
       stroke="black"
       fill="none" />
    <path
       id="path350"
       stroke-width="6"
       d="M 240 48 L 288 96 z"
       stroke="black"
       fill="none" />
    <path
       id="path352"
       stroke-width="6"
       d="M 48 96 L 0 144 z"
       stroke="black"
       fill="none" />
    <path
       id="path354"
       stroke-width="6"
       d="M 336 96 L 288 144 z"
       stroke="black"
       fill="none" />
    <path
       id="path356"
       stroke-width="6"
       d="M 0 144 L 48 192 z"
       stroke="black"
       fill="none" />
    <path
       id="path358"
       stroke-width="6"
       d="M 96 144 L 144 192 z"
       stroke="black"
       fill="none" />
    <path
       id="path360"
       stroke-width="6"
       d="M 240 144 L 192 192 z"
       stroke="black"
       fill="none" />
    <path
       id="path362"
       stroke-width="6"
       d="M 432 192 L 384 240 z"
       stroke="black"
       fill="none" />
    <path
       id="path364"
       stroke-width="6"
       d="M 144 240 L 192 288 z"
       stroke="black"
       fill="none" />
    <path
       id="path366"
       stroke-width="6"
       d="M 48 288 L 0 336 z"
       stroke="black"
       fill="none" />
    <path
       id="path368"
       stroke-width="6"
       d="M 336 288 L 384 336 z"
       stroke="black"
       fill="none" />
    <path
       id="path370"
       stroke-width="6"
       d="M 384 288 L 432 336 z"
       stroke="black"
       fill="none" />
    <path
       id="path372"
       stroke-width="6"
       d="M 0 336 L 48 384 z"
       stroke="black"
       fill="none" />
    <path
       id="path374"
       stroke-width="6"
       d="M 336 384 L 288 432 z"
       stroke="black"
       fill="none" />
  </g>
  <g
     id="g416"
     shape-rendering="auto">
    <text
       id="text384"
       font-size="28"
       text-anchor="middle"
       y="-14.200000000000001"
       x="120"
       fill="black">A2</text>
    <text
       id="text386"
       font-size="28"
       text-anchor="middle"
       y="-14.200000000000001"
       x="216"
       fill="black">A2</text>
    <text
       id="text388"
       font-size="28"
       text-anchor="middle"
       y="-14.200000000000001"
       x="264"
       fill="black">D3</text>
    <text
       id="text390"
       font-size="28"
       text-anchor="middle"
       y="-14.200000000000001"
       x="312"
       fill="black">F7</text>
    <text
       id="text392"
       font-size="28"
       text-anchor="middle"
       y="-14.200000000000001"
       x="360"
       fill="black">C2</text>
    <text
       id="text394"
       font-size="28"
       text-anchor="middle"
       y="33.8"
       x="-24"
       fill="black">B2</text>
    <text
       id="text396"
       font-size="28"
       text-anchor="middle"
       y="81.8"
       x="456"
       fill="black">B2</text>
    <text
       id="text398"
       font-size="28"
       text-anchor="middle"
       y="129.8"
       x="456"
       fill="black">F7</text>
    <text
       id="text400"
       font-size="28"
       text-anchor="middle"
       y="177.8"
       x="-24"
       fill="black">H2</text>
    <text
       id="text402"
       font-size="28"
       text-anchor="middle"
       y="225.8"
       x="-24"
       fill="black">D3</text>
    <text
       id="text404"
       font-size="28"
       text-anchor="middle"
       y="273.8"
       x="456"
       fill="black">E3</text>
    <text
       id="text406"
       font-size="28"
       text-anchor="middle"
       y="321.8"
       x="-24"
       fill="black">H2</text>
    <text
       id="text408"
       font-size="28"
       text-anchor="middle"
       y="369.8"
       x="456"
       fill="black">G3</text>
    <text
       id="text410"
       font-size="28"
       text-anchor="middle"
       y="465.8"
       x="264"
       fill="black">E3</text>
    <text
       id="text412"
       font-size="28"
       text-anchor="middle"
       y="465.8"
       x="360"
       fill="black">G3</text>
    <text
       id="text414"
       font-size="28"
       text-anchor="middle"
       y="465.8"
       x="408"
       fill="black">C2</text>
  </g>
  <g
     id="g426"
     shape-rendering="crispEdges">
    <path
       id="path418"
       d="M -2.4999999627470975 -2.4999999627470975 L 2.4999999627470975 -2.4999999627470975 2.4999999627470975 434.4999999627471 -2.4999999627470975 434.4999999627471 z"
       stroke="none"
       fill="black" />
    <path
       id="path420"
       d="M 429.5000000372529 -2.4999999627470975 L 434.4999999627471 -2.4999999627470975 434.4999999627471 434.4999999627471 429.5000000372529 434.4999999627471 z"
       stroke="none"
       fill="black" />
    <path
       id="path422"
       d="M -2.4999999627470975 -2.4999999627470975 L 434.4999999627471 -2.4999999627470975 434.4999999627471 2.4999999627470975 -2.4999999627470975 2.4999999627470975 z"
       stroke="none"
       fill="black" />
    <path
       id="path424"
       d="M -2.4999999627470975 429.5000000372529 L 434.4999999627471 429.5000000372529 434.4999999627471 434.4999999627471 -2.4999999627470975 434.4999999627471 z"
       stroke="none"
       fill="black" />
  </g>
  <g
     id="g428"
     shape-rendering="crispEdges" />
</svg>
